<?xml version="1.0" encoding="UTF-8"?>
<svg id="Layer_1" data-name="Layer 1" xmlns="http://www.w3.org/2000/svg" viewBox="0 0 259.72 34.45">
  <defs>
    <style>
      .cls-1 {
        fill: #fff;
      }
    </style>
  </defs>
  <path class="cls-1" d="M254.39,27.05v-14.43h3.77v-3.52h-3.77v-.81c0-1.9.76-2.85,2.29-2.85.99,0,1.85.18,2.59.55l.44-3.37c-.49-.2-1.08-.37-1.76-.52-.68-.15-1.46-.22-2.35-.22-1.85,0-3.29.55-4.31,1.65-1.02,1.1-1.54,2.67-1.54,4.72v.85h-2.4v3.52h2.4v14.43h4.62ZM243.87,6.23c.47-.43.7-1,.7-1.72s-.24-1.3-.7-1.76c-.47-.46-1.1-.68-1.89-.68s-1.42.23-1.89.68c-.47.46-.7,1.04-.7,1.76s.23,1.29.7,1.72c.47.43,1.1.65,1.89.65s1.42-.22,1.89-.65M244.28,9.1h-4.62v17.95h4.62V9.1ZM230.32,9.1h-4.11v17.95h4.62v-12.21c1.31-1.36,2.65-2.04,4.03-2.04.49,0,1,.07,1.52.22l.55-4c-.27-.07-.58-.14-.93-.2-.35-.06-.67-.09-.96-.09-1.53,0-3,.73-4.4,2.18l-.33-1.81ZM215.64,23.66c-.52.23-1.07.35-1.66.35-.64,0-1.23-.2-1.76-.59-.53-.39-.8-.97-.8-1.74,0-1.09.42-1.87,1.26-2.35.84-.48,2.28-.77,4.33-.87v4.29c-.4.37-.85.67-1.37.91M221.6,27.05v-11.51c0-2.34-.59-4.08-1.76-5.2-1.17-1.12-2.83-1.68-4.98-1.68-1.26,0-2.47.2-3.65.61-1.17.41-2.18.91-3.01,1.5l1.41,3.11c.81-.57,1.61-.98,2.4-1.24.79-.26,1.53-.39,2.22-.39.89,0,1.57.23,2.05.7.48.47.72,1.22.72,2.26v.44c-3.21.05-5.67.62-7.4,1.7-1.73,1.09-2.59,2.61-2.59,4.59,0,1.13.25,2.11.76,2.92.5.81,1.19,1.44,2.05,1.89.86.44,1.81.67,2.85.67,1.92,0,3.46-.59,4.62-1.78l.3,1.41h4ZM205.24,26.05l-1.11-3.18c-.84.62-1.59.92-2.26.92-1.04,0-1.55-.6-1.55-1.81v-9.36h4.14v-3.52h-4.14v-4.62h-4.62v4.62h-2.66v3.52h2.66v9.99c0,1.55.41,2.74,1.22,3.57.81.83,1.97,1.24,3.48,1.24,1.88,0,3.49-.46,4.85-1.37M180.93,3.14l-2.04-3.14-6.73,4.96,1.41,2.07,7.36-3.89ZM172.01,33.65c1.43-.53,2.71-1.38,3.83-2.55,1.12-1.17,2.16-2.72,3.13-4.64.81-1.6,1.6-3.36,2.35-5.27.75-1.91,1.46-3.9,2.13-5.98.67-2.07,1.24-4.11,1.74-6.11h-4.7c-.62,2.74-1.31,5.34-2.07,7.81-.77,2.47-1.53,4.58-2.29,6.33l-4.44-14.13h-5.14l6.62,18.35c-.49,1.01-1.28,1.76-2.35,2.26-1.07.49-2.49.74-4.24.74l.41,4c1.92,0,3.6-.26,5.03-.8M164.56,27.05v-11.29c0-2.32-.53-4.08-1.59-5.29-1.06-1.21-2.65-1.81-4.77-1.81-1.01,0-1.96.17-2.83.52-.88.35-1.66.81-2.35,1.41l-.22-1.48h-4.11v17.95h4.62v-13.21c.52-.42,1.08-.77,1.7-1.05.62-.28,1.23-.43,1.85-.43,1.06,0,1.84.33,2.33.98.49.65.74,1.59.74,2.79v10.92h4.62ZM137.07,11.99c.99,0,1.79.35,2.4,1.04.62.69.96,1.64,1.04,2.85h-7.03c.39-2.59,1.59-3.88,3.59-3.88M141.22,26.83c1.18-.39,2.2-.97,3.03-1.74l-1.37-3.4c-.81.74-1.6,1.27-2.37,1.59-.76.32-1.6.48-2.52.48-1.46,0-2.55-.39-3.29-1.18-.74-.79-1.17-2.05-1.3-3.77h11.58c0-3.23-.69-5.73-2.07-7.49-1.38-1.76-3.33-2.65-5.85-2.65-1.58,0-2.99.38-4.24,1.13-1.25.75-2.22,1.83-2.92,3.22-.7,1.39-1.05,3.08-1.05,5.05,0,2.91.75,5.2,2.26,6.86,1.5,1.67,3.59,2.5,6.25,2.5,1.38,0,2.66-.2,3.85-.59M126.41,27.05v-3.55h-9.47l9.18-10.77v-3.63h-14.28v3.55h8.84l-9.25,10.99v3.4h14.98ZM101.06,11.99c.99,0,1.79.35,2.4,1.04.62.69.96,1.64,1.04,2.85h-7.03c.4-2.59,1.59-3.88,3.59-3.88M105.2,26.83c1.18-.39,2.19-.97,3.03-1.74l-1.37-3.4c-.81.74-1.6,1.27-2.37,1.59-.76.32-1.6.48-2.52.48-1.45,0-2.55-.39-3.29-1.18-.74-.79-1.17-2.05-1.29-3.77h11.58c0-3.23-.69-5.73-2.07-7.49-1.38-1.76-3.33-2.65-5.85-2.65-1.58,0-2.99.38-4.24,1.13-1.25.75-2.22,1.83-2.92,3.22-.7,1.39-1.06,3.08-1.06,5.05,0,2.91.75,5.2,2.26,6.86,1.5,1.67,3.59,2.5,6.25,2.5,1.38,0,2.66-.2,3.85-.59M67.62,27.05v-13.1c.49-.42,1.04-.78,1.63-1.09.59-.31,1.18-.46,1.78-.46,1.01,0,1.71.33,2.11,1,.39.67.59,1.54.59,2.63v11.03h4.62v-10.92c0-.86-.06-1.65-.19-2.37.52-.37,1.07-.69,1.65-.96.58-.27,1.17-.41,1.76-.41,1.06,0,1.81.31,2.24.93.43.62.65,1.52.65,2.7v11.03h4.62v-11.17c0-2.34-.49-4.13-1.48-5.36-.99-1.23-2.62-1.85-4.88-1.85-1.09,0-2.11.19-3.07.57-.96.38-1.83.89-2.59,1.54-.49-.67-1.13-1.18-1.92-1.55-.79-.37-1.76-.55-2.92-.55-.91,0-1.81.19-2.68.57-.88.38-1.61.83-2.2,1.35l-.22-1.48h-4.11v17.95h4.62ZM47.84,22.2c-.72-1.04-1.07-2.44-1.07-4.22s.35-3.1,1.05-4.12c.7-1.02,1.66-1.54,2.87-1.54s2.16.51,2.87,1.54c.7,1.02,1.06,2.4,1.06,4.12s-.36,3.18-1.07,4.22c-.72,1.04-1.67,1.55-2.85,1.55s-2.13-.52-2.85-1.55M55.14,26.23c1.27-.79,2.26-1.89,2.98-3.31.72-1.42,1.07-3.07,1.07-4.94s-.36-3.51-1.07-4.9c-.72-1.39-1.71-2.48-2.98-3.26-1.27-.78-2.76-1.17-4.46-1.17s-3.16.39-4.44,1.17c-1.28.78-2.28,1.86-3,3.26-.72,1.39-1.07,3.03-1.07,4.9s.36,3.52,1.07,4.94c.71,1.42,1.71,2.52,3,3.31,1.28.79,2.76,1.18,4.44,1.18s3.19-.39,4.46-1.18M31.41,11.99c.99,0,1.79.35,2.4,1.04.62.69.96,1.64,1.04,2.85h-7.03c.39-2.59,1.59-3.88,3.59-3.88M35.56,26.83c1.18-.39,2.19-.97,3.03-1.74l-1.37-3.4c-.81.74-1.6,1.27-2.37,1.59-.76.32-1.6.48-2.52.48-1.46,0-2.55-.39-3.29-1.18-.74-.79-1.17-2.05-1.3-3.77h11.58c0-3.23-.69-5.73-2.07-7.49-1.38-1.76-3.33-2.65-5.85-2.65-1.58,0-2.99.38-4.24,1.13-1.25.75-2.22,1.83-2.92,3.22-.7,1.39-1.05,3.08-1.05,5.05,0,2.91.75,5.2,2.26,6.86,1.5,1.67,3.59,2.5,6.25,2.5,1.38,0,2.66-.2,3.85-.59M4.66,27.05V10.54l10.17,16.5h4.11V2.33h-4.66v15.5L4.77,2.33H0v24.72h4.66Z"/>
</svg>