<?xml version="1.0" encoding="UTF-8"?>
<svg id="Layer_1" data-name="Layer 1" xmlns="http://www.w3.org/2000/svg" viewBox="0 0 139.34 139.34">
  <defs>
    <style>
      .cls-1 {
        fill: #fff;
      }

      .cls-2 {
        fill: #e50000;
      }
    </style>
  </defs>
  <g>
    <path class="cls-1" d="M139.34,69.67c0,38.48-31.19,69.67-69.67,69.67S0,108.15,0,69.67,31.19,0,69.67,0s69.67,31.19,69.67,69.67"/>
    <path class="cls-2" d="M34.66,35.88h2.25l-1.75,3.92c-.15.34-.3.6-.45.77-.15.18-.32.33-.53.46.26.13.46.3.62.5.16.2.3.47.43.79l1.88,4.78h-2.32l-1.37-3.5c-.18-.45-.35-.78-.52-.99-.17-.21-.41-.32-.73-.32h-1.25v4.81h-2.13v-11.23h2.13v4.53h1.12c.21,0,.4-.05.55-.16.16-.11.32-.36.48-.75l1.58-3.62Z"/>
  </g>
  <polygon class="cls-2" points="43.93 47.11 40.56 38.99 42.76 38.99 44.86 44.38 46.89 38.99 48.99 38.99 45.73 47.11 43.93 47.11"/>
  <g>
    <path class="cls-2" d="M57.89,38.99c-.41,1.63-.85,3.12-1.32,4.48-.47,1.36-.93,2.5-1.38,3.43-.21.43-.43.84-.66,1.25-.23.4-.53.77-.89,1.09-.37.32-.83.58-1.38.77-.56.2-1.27.3-2.13.31l-.18-1.87c.2,0,.43-.01.68-.03.25-.02.51-.07.76-.13.25-.07.49-.16.71-.28.22-.12.4-.28.55-.48.04-.06.08-.11.12-.17.03-.06.07-.13.12-.22l-3.3-8.15h2.22l2.23,6.23c.17-.4.33-.86.5-1.36.17-.51.33-1.03.48-1.58.16-.54.31-1.1.45-1.66.14-.56.28-1.1.4-1.63h2.03Z"/>
    <path class="cls-2" d="M64.1,42.95c0-.8-.2-1.39-.6-1.79-.4-.4-.89-.6-1.47-.6-.31,0-.65.06-1.02.18v4.63c.14.03.29.07.44.1.15.03.29.05.42.05.65,0,1.19-.22,1.6-.66.41-.44.62-1.08.62-1.92M66.11,42.9c0,.79-.11,1.46-.33,2.01-.22.55-.52,1.01-.9,1.36-.38.35-.82.61-1.32.77-.51.16-1.04.24-1.59.24-.52,0-1.03-.06-1.53-.18-.5-.12-.99-.29-1.48-.51v-10.72h2.07v3.1c.22-.06.44-.1.64-.14.21-.03.44-.05.71-.05.63,0,1.19.12,1.66.35s.86.55,1.17.93c.31.39.54.83.69,1.31.15.49.23.99.23,1.51"/>
    <path class="cls-2" d="M72.26,40.76c-.09-.02-.19-.04-.32-.05-.12-.01-.25-.02-.38-.02-.39,0-.74.1-1.05.31s-.57.42-.78.65v5.45h-2.07v-8.11h1.88l.13.86c.09-.11.2-.23.34-.35.14-.12.3-.24.47-.34.18-.1.36-.18.56-.24.19-.06.4-.09.61-.09.19,0,.37.01.55.04.18.03.29.05.35.08l-.3,1.82Z"/>
    <path class="cls-2" d="M77.58,43.32c-.22.01-.45.03-.68.06-.23.03-.46.06-.67.11-.44.09-.75.24-.93.46-.17.22-.26.46-.26.72s.1.49.29.65.47.24.82.24c.27,0,.52-.06.78-.17.25-.11.46-.25.64-.42v-1.65ZM77.74,47.11l-.08-.61c-.22.25-.5.44-.85.58-.34.14-.72.21-1.13.21-.35,0-.68-.06-.99-.18-.32-.12-.6-.29-.84-.5-.24-.22-.44-.49-.59-.81-.15-.32-.23-.68-.23-1.09s.08-.76.23-1.07c.15-.31.37-.57.63-.78.27-.21.57-.39.92-.52.34-.13.71-.23,1.08-.3.27-.05.56-.1.88-.13.32-.03.58-.05.79-.08v-.12c0-.45-.11-.77-.34-.96-.23-.19-.54-.29-.94-.29-.23,0-.46.03-.67.08-.21.06-.4.13-.57.21-.17.08-.31.17-.44.25-.13.08-.23.16-.31.23l-.68-1.46c.09-.08.23-.17.41-.29.18-.11.4-.22.67-.33.26-.11.56-.2.88-.27.33-.07.68-.11,1.06-.11.44,0,.85.06,1.22.18.37.12.68.3.95.56.27.25.47.57.62.96.15.39.22.86.22,1.41v5.22h-1.9Z"/>
    <path class="cls-2" d="M86.7,47.11v-4.63c0-.62-.13-1.09-.38-1.43-.26-.34-.61-.51-1.07-.51-.32,0-.62.08-.89.25-.27.17-.51.35-.71.55v5.76h-2.07v-8.11h1.88l.1.64c.32-.27.69-.48,1.09-.62.4-.15.81-.22,1.22-.22s.81.06,1.17.19c.36.13.66.33.92.61.26.28.45.65.59,1.09.14.45.21.99.21,1.62v4.8h-2.07Z"/>
    <path class="cls-2" d="M92.68,38.05l-.55-.91,3.18-2.37.98,1.4-3.62,1.89ZM97.78,38.99c-.41,1.63-.85,3.12-1.32,4.48-.47,1.36-.93,2.5-1.38,3.43-.21.43-.43.84-.66,1.25-.23.4-.53.77-.89,1.09-.37.32-.83.58-1.38.77-.56.2-1.27.3-2.13.31l-.18-1.87c.2,0,.43-.01.68-.03.25-.02.51-.07.76-.13.25-.07.49-.16.71-.28.22-.12.41-.28.55-.48.04-.06.08-.11.12-.17.03-.06.07-.13.12-.22l-3.3-8.15h2.22l2.23,6.23c.17-.4.33-.86.5-1.36.17-.51.33-1.03.48-1.58.16-.54.31-1.1.45-1.66.14-.56.28-1.1.4-1.63h2.03Z"/>
    <path class="cls-2" d="M108.72,47.11v-4.77c0-.54-.1-.97-.3-1.3-.2-.33-.57-.5-1.12-.5-.15,0-.31.03-.47.08-.16.05-.31.11-.46.18-.14.07-.27.14-.38.21s-.2.14-.27.19c.02.13.04.29.07.45.02.17.03.35.03.56v4.9h-2.07v-4.77c0-.25-.02-.48-.06-.7-.04-.22-.11-.41-.21-.57-.1-.16-.23-.29-.39-.39-.16-.1-.36-.14-.61-.14-.31,0-.61.08-.88.25-.28.17-.51.35-.7.54v5.77h-2.07v-8.11h1.9l.08.61c.25-.22.55-.42.91-.57.36-.16.72-.23,1.09-.23s.75.06,1.12.18c.37.12.72.32,1.04.61.37-.22.77-.41,1.21-.56.44-.15.91-.23,1.41-.23.6,0,1.1.08,1.51.23.4.16.73.38.97.67.24.29.42.65.53,1.08.11.43.16.92.16,1.47v4.86h-2.05Z"/>
    <path class="cls-2" d="M25.45,60.55c0-.31-.04-.62-.11-.93s-.18-.57-.33-.81c-.14-.24-.33-.43-.54-.57-.22-.15-.47-.22-.76-.22s-.56.08-.82.24c-.25.16-.44.34-.57.53v3.92c.33.16.65.24.97.24.37,0,.69-.07.96-.2.27-.14.5-.32.68-.55.18-.23.31-.49.39-.77.08-.29.12-.58.12-.88M27.47,60.52c0,.53-.08,1.05-.24,1.56-.16.51-.41.96-.73,1.36-.33.4-.75.72-1.26.97-.51.25-1.12.37-1.82.37-.37,0-.72-.08-1.07-.24v3.23h-2.07v-11.3h1.88l.1.61c.19-.19.44-.37.76-.55.32-.17.69-.26,1.13-.26.54,0,1.02.12,1.44.35.42.24.76.55,1.04.93.28.39.49.84.62,1.36s.21,1.05.21,1.6"/>
    <path class="cls-2" d="M33.66,58.24c-.09-.02-.19-.04-.32-.05-.12-.01-.25-.02-.38-.02-.39,0-.74.1-1.05.31-.31.21-.57.42-.78.65v5.45h-2.07v-8.11h1.88l.13.86c.09-.11.2-.23.34-.35.14-.12.3-.24.48-.34.18-.1.36-.18.56-.24.19-.06.4-.09.61-.09.19,0,.37.01.55.04.18.03.3.05.35.08l-.3,1.82ZM30.64,55.43l-1.92-2.12,1.13-.81,1.53,1.6,1.6-1.6,1.1.69-1.92,2.24h-1.53Z"/>
    <path class="cls-2" d="M39.72,59.56c-.02-.28-.08-.52-.18-.73-.1-.21-.21-.38-.35-.51s-.29-.22-.45-.29c-.16-.06-.33-.09-.49-.09-.35,0-.69.13-1.02.4-.32.27-.51.67-.57,1.21h3.05ZM36.62,61.05c.04.68.26,1.18.63,1.48.38.3.87.45,1.47.45.28,0,.54-.02.78-.08.24-.05.46-.11.65-.19.19-.08.35-.16.48-.24.13-.08.23-.15.3-.22l.55,1.7c-.08.06-.2.13-.38.23-.17.09-.39.18-.64.27-.26.08-.56.16-.9.22-.35.06-.72.09-1.13.09-.52,0-1.02-.08-1.49-.25-.47-.17-.89-.43-1.24-.78-.35-.35-.64-.79-.85-1.32-.21-.53-.32-1.16-.32-1.89,0-.68.1-1.29.29-1.82.19-.53.46-.97.8-1.33.34-.36.73-.63,1.18-.82.45-.19.93-.29,1.44-.29s.98.08,1.42.25c.43.17.81.43,1.13.78.32.35.57.81.75,1.37.18.56.27,1.23.27,2v.37h-5.2Z"/>
    <path class="cls-2" d="M48.07,58.28c-.4-.16-.77-.24-1.12-.24s-.66.07-.92.2c-.26.14-.47.32-.63.55-.17.23-.29.49-.38.77-.08.29-.12.58-.12.88,0,.34.04.66.11.97.07.31.18.58.33.81.15.23.34.42.57.56.23.14.5.21.81.21.25,0,.52-.07.78-.21.27-.14.46-.3.57-.5v-4.01ZM48.23,64.59l-.08-.62c-.19.21-.44.4-.75.56-.31.16-.68.24-1.1.24-.56,0-1.05-.12-1.47-.35-.42-.24-.78-.55-1.07-.94-.29-.39-.51-.85-.66-1.36-.15-.52-.22-1.05-.22-1.62,0-.53.08-1.04.23-1.55.16-.5.39-.96.71-1.35.32-.4.71-.72,1.19-.96.48-.24,1.04-.36,1.68-.36.42,0,.88.08,1.37.24v-3.15h2.05v11.23h-1.88Z"/>
    <path class="cls-2" d="M57.26,60.55c0-.31-.04-.62-.11-.93s-.18-.57-.32-.81c-.14-.24-.33-.43-.54-.57-.22-.15-.47-.22-.76-.22s-.56.08-.82.24c-.25.16-.44.34-.57.53v3.92c.33.16.66.24.97.24.37,0,.69-.07.96-.2.27-.14.5-.32.68-.55.18-.23.31-.49.39-.77.08-.29.12-.58.12-.88M59.27,60.52c0,.53-.08,1.05-.24,1.56-.16.51-.41.96-.73,1.36-.33.4-.75.72-1.26.97-.51.25-1.12.37-1.82.37-.37,0-.72-.08-1.07-.24v3.23h-2.07v-11.3h1.88l.1.61c.19-.19.44-.37.76-.55.32-.17.69-.26,1.13-.26.54,0,1.02.12,1.44.35.42.24.76.55,1.04.93.28.39.49.84.62,1.36s.21,1.05.21,1.6"/>
    <path class="cls-2" d="M62.86,62.22c0,.29.06.49.18.6.12.11.28.16.49.16.12,0,.24-.01.35-.04.11-.03.22-.07.32-.11l.37,1.58c-.09.06-.29.13-.6.23-.31.1-.65.14-1.03.14-.29,0-.56-.04-.83-.12-.26-.08-.49-.2-.68-.37s-.35-.39-.46-.67c-.11-.27-.17-.61-.17-1v-9.26h2.07v8.86Z"/>
    <path class="cls-2" d="M69.92,60.8c-.22.01-.45.03-.68.06-.23.03-.46.07-.67.11-.44.09-.75.24-.93.46-.17.22-.26.46-.26.72s.1.49.29.65.47.24.82.24c.27,0,.52-.06.78-.17.25-.11.46-.25.64-.42v-1.65ZM70.08,64.59l-.08-.61c-.22.25-.5.44-.85.58-.34.14-.72.21-1.13.21-.34,0-.67-.06-.99-.18-.32-.12-.6-.29-.84-.5-.24-.22-.44-.49-.59-.81-.15-.32-.23-.68-.23-1.09s.08-.76.23-1.07c.15-.31.37-.57.63-.78.27-.21.57-.39.92-.52.34-.13.71-.23,1.08-.3.27-.05.56-.1.88-.13.32-.03.58-.05.79-.08v-.12c0-.45-.11-.77-.34-.96-.23-.19-.54-.29-.94-.29-.23,0-.46.03-.67.08-.21.06-.4.13-.57.21-.17.08-.31.17-.44.25-.13.08-.23.16-.31.23l-.68-1.46c.09-.08.23-.17.41-.29.18-.11.4-.22.67-.33.26-.11.56-.2.88-.27.33-.07.68-.11,1.06-.11.45,0,.85.06,1.22.18.37.12.68.3.95.56.27.25.47.57.62.96.15.39.22.86.22,1.41v5.22h-1.9Z"/>
    <path class="cls-2" d="M80.22,63.9c-.08.06-.2.14-.37.24-.17.1-.37.2-.62.3-.25.1-.54.18-.88.24-.33.07-.71.1-1.13.1-.49,0-.96-.08-1.41-.25-.45-.17-.85-.43-1.19-.77s-.62-.79-.83-1.31c-.21-.53-.31-1.15-.31-1.87s.1-1.35.3-1.89c.2-.54.47-.99.81-1.35.34-.36.73-.62,1.18-.8.44-.17.91-.26,1.4-.26s.88.06,1.23.18c.35.12.65.28.91.46.26.18.46.39.63.61.16.22.29.44.39.64l-1.53,1.04c-.17-.29-.38-.56-.62-.82-.25-.25-.58-.38-.97-.38-.44,0-.83.2-1.16.6-.33.4-.49,1.02-.49,1.86s.17,1.42.5,1.85c.33.43.82.64,1.45.64.3,0,.57-.03.81-.09.24-.06.45-.14.62-.22.18-.08.33-.17.44-.26.12-.09.2-.16.26-.22l.6,1.72Z"/>
    <path class="cls-2" d="M86.29,59.56c-.02-.28-.08-.52-.18-.73-.1-.21-.21-.38-.35-.51s-.29-.22-.45-.29c-.16-.06-.32-.09-.49-.09-.36,0-.69.13-1.02.4-.32.27-.51.67-.57,1.21h3.05ZM83.19,61.05c.04.68.25,1.18.63,1.48.38.3.87.45,1.47.45.28,0,.54-.02.78-.08.24-.05.46-.11.65-.19.19-.08.35-.16.48-.24.13-.08.23-.15.3-.22l.55,1.7c-.08.06-.2.13-.38.23-.17.09-.38.18-.64.27-.26.08-.56.16-.9.22-.35.06-.72.09-1.13.09-.52,0-1.02-.08-1.49-.25-.47-.17-.88-.43-1.24-.78-.36-.35-.64-.79-.85-1.32-.21-.53-.32-1.16-.32-1.89,0-.68.1-1.29.29-1.82.19-.53.46-.97.8-1.33.34-.36.73-.63,1.18-.82.45-.19.93-.29,1.44-.29s.98.08,1.42.25c.43.17.81.43,1.13.78.32.35.57.81.75,1.37.18.56.27,1.23.27,2v.37h-5.2Z"/>
    <path class="cls-2" d="M95.03,64.59v-4.63c0-.62-.13-1.09-.38-1.43-.26-.34-.61-.51-1.07-.51-.32,0-.62.08-.89.25-.27.17-.51.35-.71.55v5.76h-2.07v-8.11h1.88l.1.64c.32-.27.69-.48,1.09-.62.4-.15.81-.22,1.22-.22s.81.06,1.17.19c.36.13.66.33.92.61.26.28.45.65.59,1.09.14.45.21.99.21,1.62v4.8h-2.07Z"/>
    <path class="cls-2" d="M101,55.53l-.55-.91,3.18-2.37.98,1.4-3.62,1.89ZM106.11,56.47c-.41,1.63-.85,3.12-1.32,4.48-.47,1.36-.93,2.5-1.38,3.43-.21.43-.43.84-.66,1.25-.23.4-.53.77-.89,1.09s-.83.58-1.38.77c-.56.2-1.27.3-2.13.31l-.18-1.87c.2,0,.43-.01.68-.03.25-.02.51-.07.76-.13.25-.07.49-.16.71-.28.22-.12.41-.28.55-.48.04-.06.08-.11.12-.17.03-.06.07-.13.12-.22l-3.3-8.15h2.22l2.23,6.23c.17-.4.33-.86.5-1.36s.33-1.03.48-1.58c.16-.54.31-1.1.45-1.66.14-.56.28-1.1.4-1.63h2.03Z"/>
    <path class="cls-2" d="M117.05,64.59v-4.77c0-.54-.1-.97-.3-1.3-.2-.33-.57-.5-1.12-.5-.16,0-.31.03-.48.08-.16.05-.31.11-.46.18-.14.07-.27.14-.38.21s-.2.14-.27.19c.02.13.04.29.07.45.02.17.03.35.03.56v4.9h-2.07v-4.77c0-.25-.02-.48-.06-.7-.04-.22-.11-.41-.21-.57-.1-.16-.23-.29-.39-.39-.16-.1-.36-.14-.61-.14-.31,0-.6.08-.88.25-.28.17-.51.35-.7.54v5.77h-2.07v-8.11h1.9l.08.61c.25-.22.55-.42.91-.57.36-.16.72-.24,1.09-.24s.75.06,1.12.18c.37.12.72.32,1.04.61.37-.22.77-.41,1.21-.56.44-.15.91-.23,1.41-.23.6,0,1.1.08,1.51.24.4.16.73.38.97.67.24.29.42.65.53,1.08.1.43.16.91.16,1.46v4.86h-2.05Z"/>
    <path class="cls-2" d="M17.76,95.73v-24.26h4.46v12.66h1.08c.43,0,.82-.13,1.15-.38.33-.26.68-.8,1.04-1.65l1.58-3.89h4.83l-2.09,4.91c-.48,1.09-1.15,1.92-2.02,2.47.53.27.97.59,1.31.96.35.38.64.85.88,1.44l3.17,7.75h-4.86l-1.98-4.73c-.46-1.09-.86-1.86-1.21-2.29-.35-.44-.85-.65-1.49-.65h-1.4v7.67h-4.46Z"/>
    <path class="cls-2" d="M44.12,87.54c-.48.02-.97.07-1.47.13-.51.06-.98.14-1.44.24-.96.2-1.63.53-2,1-.37.47-.56.99-.56,1.55s.21,1.05.63,1.4c.42.35,1.01.53,1.78.53.58,0,1.13-.12,1.67-.36.54-.24,1-.55,1.39-.91v-3.56ZM44.48,95.73l-.18-1.31c-.48.53-1.09.95-1.84,1.26-.75.3-1.56.45-2.45.45-.74,0-1.46-.13-2.14-.38-.68-.25-1.29-.62-1.82-1.09-.53-.47-.95-1.05-1.28-1.74-.32-.69-.49-1.47-.49-2.35s.17-1.64.5-2.31c.34-.67.79-1.23,1.37-1.69.58-.46,1.24-.84,1.98-1.13.74-.29,1.52-.51,2.34-.65.58-.12,1.21-.21,1.89-.27.68-.06,1.25-.11,1.71-.16v-.25c0-.97-.25-1.66-.74-2.07s-1.17-.62-2.03-.62c-.51,0-.99.06-1.44.18-.46.12-.86.27-1.22.46-.36.18-.68.36-.96.54-.27.18-.5.35-.66.49l-1.48-3.17c.19-.17.49-.37.88-.62.4-.24.88-.48,1.44-.71.56-.23,1.2-.42,1.91-.58.71-.16,1.47-.24,2.29-.24.96,0,1.83.13,2.63.38.79.25,1.48.65,2.05,1.2.58.55,1.03,1.24,1.35,2.07.32.84.49,1.85.49,3.04v11.27h-4.1Z"/>
    <path class="cls-2" d="M62.57,82.02c-.19-.05-.42-.08-.68-.11-.26-.02-.54-.04-.83-.04-.84,0-1.6.22-2.27.67-.67.45-1.24.92-1.69,1.4v11.78h-4.46v-17.53h4.07l.29,1.86c.19-.24.44-.5.74-.76.3-.27.64-.51,1.03-.73.38-.22.79-.39,1.21-.53.42-.13.86-.2,1.31-.2.41,0,.8.03,1.19.09.39.06.64.11.76.16l-.65,3.93Z"/>
    <path class="cls-2" d="M71.49,96.13c-1.54,0-2.68-.44-3.42-1.31-.74-.87-1.12-1.93-1.12-3.16v-9.82h-2.45v-3.64h2.45v-4.55h4.43v4.55h4v3.64h-4v8.91c0,.56.13.95.4,1.16.26.22.58.33.94.33.89,0,1.66-.25,2.3-.76l1.15,3.24c-.55.41-1.24.75-2.07,1.02-.83.27-1.7.4-2.61.4"/>
    <path class="cls-2" d="M87.39,87.54c-.48.02-.97.07-1.48.13-.51.06-.98.14-1.44.24-.96.2-1.63.53-2,1s-.56.99-.56,1.55.21,1.05.63,1.4c.42.35,1.01.53,1.78.53.58,0,1.13-.12,1.67-.36.54-.24,1-.55,1.39-.91v-3.56ZM82.71,76.16l-1.19-1.96,6.88-5.13,2.12,3.02-7.81,4.07ZM87.75,95.73l-.18-1.31c-.48.53-1.09.95-1.84,1.26-.75.3-1.56.45-2.45.45-.75,0-1.46-.13-2.14-.38-.68-.25-1.29-.62-1.82-1.09-.53-.47-.95-1.05-1.28-1.74-.32-.69-.49-1.47-.49-2.35s.17-1.64.51-2.31c.33-.67.79-1.23,1.37-1.69.58-.46,1.24-.84,1.98-1.13.74-.29,1.52-.51,2.34-.65.58-.12,1.21-.21,1.89-.27.68-.06,1.25-.11,1.71-.16v-.25c0-.97-.25-1.66-.74-2.07-.49-.41-1.17-.62-2.03-.62-.5,0-.99.06-1.44.18-.46.12-.86.27-1.22.46-.36.18-.68.36-.96.54-.28.18-.5.35-.67.49l-1.48-3.17c.19-.17.49-.37.88-.62.4-.24.88-.48,1.44-.71.56-.23,1.2-.42,1.91-.58.71-.16,1.47-.24,2.29-.24.96,0,1.83.13,2.63.38.79.25,1.48.65,2.05,1.2.58.55,1.03,1.24,1.35,2.07.32.84.49,1.85.49,3.04v11.27h-4.11Z"/>
    <path class="cls-2" d="M117.25,95.73v-10.29c0-1.16-.22-2.1-.65-2.82-.43-.71-1.24-1.07-2.41-1.07-.34,0-.68.05-1.03.16-.35.11-.68.24-.99.38-.31.14-.59.3-.83.45-.24.16-.43.3-.58.42.05.29.1.62.15.98.05.36.07.76.07,1.2v10.58h-4.46v-10.29c0-.53-.04-1.04-.13-1.51-.08-.47-.23-.89-.45-1.24-.22-.35-.5-.63-.85-.84-.35-.2-.79-.31-1.31-.31-.67,0-1.31.18-1.91.55-.6.36-1.1.75-1.51,1.16v12.48h-4.46v-17.53h4.1l.18,1.31c.53-.48,1.18-.9,1.96-1.24.78-.34,1.57-.51,2.36-.51s1.63.13,2.43.38c.8.25,1.55.7,2.25,1.33.79-.49,1.66-.89,2.61-1.22.95-.33,1.96-.49,3.04-.49,1.3,0,2.38.17,3.26.51.88.34,1.58.82,2.11,1.45.53.63.9,1.41,1.13,2.33.23.92.34,1.98.34,3.16v10.51h-4.43Z"/>
  </g>
</svg>