<?xml version="1.0" encoding="UTF-8"?>
<svg id="Layer_1" data-name="Layer 1" xmlns="http://www.w3.org/2000/svg" viewBox="0 0 168.59 16.36">
  <defs>
    <style>
      .cls-1 {
        fill: #fff;
      }
    </style>
  </defs>
  <path class="cls-1" d="M0,8.85h4.39c.18,1.22.86,1.77,2.08,1.77,1.11,0,1.68-.42,1.68-.95,0-.86-1.38-1.17-3.01-1.57C2.82,7.54.04,6.81.04,4.04.04,1.69,2.15,0,6.01,0s6.03,1.57,6.5,4.41h-4.32c-.2-1.13-.91-1.69-2.06-1.69-1.04,0-1.51.38-1.51.89,0,.77,1.18,1.09,2.64,1.46,2.37.58,5.45,1.26,5.45,4.14,0,2.4-2.3,4.1-6.16,4.1S.46,11.77,0,8.85Z"/>
  <path class="cls-1" d="M13.63.27h4.55v12.75h-4.55V.27Z"/>
  <path class="cls-1" d="M19.37.27h5.81l.93,3.68.95,3.73.95-3.73.93-3.68h5.79v12.75h-3.83l.02-6.36.02-2-.51,2-1.73,6.36h-3.41l-1.73-6.36-.51-2.02.02,2.02.04,6.36h-3.73V.27Z"/>
  <path class="cls-1" d="M35.89.27h4.34l-.05,6.59,3.04-4.08h4.41l-3.26,4.12,3.37,6.12h-4.68l-1.77-3.57-1.09,1.29.04,2.28h-4.34V.27Z"/>
  <path class="cls-1" d="M47.66,10.49c0-2.17,2.35-2.71,4.39-3.3,1.38-.4,2.2-.75,2.2-1.37,0-.46-.38-.75-1.04-.75-.8,0-1.35.51-1.51,1.46h-3.88c.42-2.48,2.64-4.01,5.65-4.01,3.26,0,5.05,1.44,5.05,4.08v6.41h-4.28v-1.02c-.73.8-1.84,1.24-3.19,1.24-2.02,0-3.39-1.06-3.39-2.75ZM52.83,10.95c.53,0,1.06-.2,1.4-.55v-1.42l.02-.75c-.29.18-.64.33-.98.47-.86.35-1.46.69-1.46,1.37,0,.56.36.87,1.02.87Z"/>
  <path class="cls-1" d="M63.49,2.79h4.39v1.46c.71-1.09,1.8-1.68,3.15-1.68,2.55,0,4.23,1.91,4.23,5.34s-1.69,5.36-4.23,5.36c-1.35,0-2.44-.58-3.15-1.69v4.79h-4.39V2.79ZM71.01,7.91c0-1.86-.6-2.6-1.58-2.6s-1.58.75-1.58,2.6.6,2.62,1.58,2.62,1.58-.77,1.58-2.62Z"/>
  <path class="cls-1" d="M76.04,7.91c0-3.46,2.28-5.39,5.81-5.39s5.79,1.93,5.79,5.39-2.28,5.41-5.79,5.41-5.81-1.95-5.81-5.41ZM83.44,7.92c0-1.88-.62-2.62-1.58-2.62s-1.58.75-1.58,2.6.62,2.62,1.58,2.62,1.58-.75,1.58-2.6Z"/>
  <path class="cls-1" d="M88.43,7.91c0-3.41,1.71-5.34,4.24-5.34,1.33,0,2.42.56,3.13,1.66V.27h4.39v12.75h-4.39v-1.42c-.71,1.09-1.8,1.66-3.13,1.66-2.55,0-4.24-1.93-4.24-5.36ZM95.86,7.91c0-1.86-.62-2.6-1.6-2.6s-1.58.75-1.58,2.59.62,2.64,1.58,2.64,1.6-.77,1.6-2.62Z"/>
  <path class="cls-1" d="M101.35.27h4.39v12.75h-4.39V.27Z"/>
  <path class="cls-1" d="M106.63,7.91c0-3.37,2.31-5.39,5.68-5.39s5.63,1.95,5.63,5.46v.36h-7.12c.07,1.71.66,2.39,1.57,2.39.73,0,1.26-.49,1.46-1.62h4.03c-.42,2.7-2.6,4.21-5.57,4.21-3.37,0-5.67-1.97-5.67-5.41ZM110.88,6.78h2.95c-.22-1.26-.73-1.79-1.48-1.79s-1.29.55-1.48,1.79Z"/>
  <path class="cls-1" d="M124.85,10.31v-5.01h-2.39v-2.51h2.39V.78h4.34v2h2.82v2.51h-2.82v4.32c0,.56.31.8,1.09.8h1.73v2.6h-4.04c-2.13,0-3.12-.91-3.12-2.71Z"/>
  <path class="cls-1" d="M132.48,7.91c0-3.37,2.31-5.39,5.68-5.39s5.63,1.95,5.63,5.46v.36h-7.12c.07,1.71.66,2.39,1.57,2.39.73,0,1.26-.49,1.46-1.62h4.03c-.42,2.7-2.6,4.21-5.57,4.21-3.37,0-5.67-1.97-5.67-5.41ZM136.73,6.78h2.95c-.22-1.26-.73-1.79-1.48-1.79s-1.29.55-1.48,1.79Z"/>
  <path class="cls-1" d="M144.71.27h4.39v3.97c.71-1.09,1.8-1.68,3.15-1.68,2.55,0,4.23,1.91,4.23,5.34s-1.69,5.36-4.23,5.36c-1.35,0-2.44-.58-3.15-1.69v1.46h-4.39V.27ZM152.23,7.91c0-1.86-.6-2.6-1.58-2.6s-1.58.75-1.58,2.6.6,2.62,1.58,2.62,1.58-.77,1.58-2.62Z"/>
  <path class="cls-1" d="M157.28,7.91c0-3.37,2.31-5.39,5.68-5.39s5.63,1.95,5.63,5.46v.36h-7.12c.07,1.71.66,2.39,1.57,2.39.73,0,1.26-.49,1.46-1.62h4.03c-.42,2.7-2.6,4.21-5.57,4.21-3.37,0-5.67-1.97-5.67-5.41ZM161.52,6.78h2.95c-.22-1.26-.73-1.79-1.48-1.79s-1.29.55-1.48,1.79Z"/>
</svg>