<?xml version="1.0" encoding="UTF-8"?>
<svg id="Layer_1" data-name="Layer 1" xmlns="http://www.w3.org/2000/svg" viewBox="0 0 242.02 63.54">
  <defs>
    <style>
      .cls-1 {
        fill: #fff;
      }
    </style>
  </defs>
  <path class="cls-1" d="M220.78,53.27c0-2.13,1.9-3.23,4.62-4.33,1.1-.46,2.19-.92,3.11-1.5l-.06,2.37v4.5c-1.1,1.1-2.77,1.73-4.44,1.73-2.08,0-3.23-.98-3.23-2.77M218.36,63.31c4.27,0,7.79-1.38,10.1-3.92v3.23h13.56v-20.31c0-8.37-5.65-12.92-15.98-12.92-9.52,0-16.56,4.85-17.88,12.69h12.29c.52-3,2.25-4.62,4.79-4.62,2.08,0,3.29.92,3.29,2.37,0,1.96-2.6,3.06-6.98,4.33-6.46,1.85-13.9,3.58-13.9,10.44,0,5.37,4.33,8.71,10.73,8.71M193.21,62.62h12.81v-8.25h-5.48c-2.48,0-3.46-.75-3.46-2.54v-13.67h8.94v-7.96h-8.94v-6.35h-13.73v6.35h-7.56v7.96h7.56v15.87c0,5.71,3.12,8.6,9.87,8.6M148.96,62.62h13.9v-19.79c1.62-1.73,4.5-2.71,7.5-2.71,1.21,0,2.42.17,3.58.46v-10.96h-.35c-4.96,0-8.48,2.19-10.73,6.12v-5.54h-13.9v32.42ZM124.73,53.27c0-2.13,1.9-3.23,4.62-4.33,1.1-.46,2.19-.92,3.12-1.5l-.06,2.37v4.5c-1.1,1.1-2.77,1.73-4.44,1.73-2.08,0-3.23-.98-3.23-2.77M122.31,63.31c4.27,0,7.79-1.38,10.1-3.92v3.23h13.56v-20.31c0-8.37-5.65-12.92-15.98-12.92-9.52,0-16.56,4.85-17.88,12.69h12.29c.52-3,2.25-4.62,4.79-4.62,2.08,0,3.29.92,3.29,2.37,0,1.96-2.6,3.06-6.98,4.33-6.46,1.85-13.9,3.58-13.9,10.44,0,5.37,4.33,8.71,10.73,8.71M74.94,62.62h13.73l-.12-7.21,3.46-4.1,5.6,11.31h14.83l-10.67-19.38,10.33-13.04h-13.96l-9.63,12.92.17-43.12h-13.73v62.62ZM56.13,63.49c10.27,0,16.62-4.56,16.62-10.9,0-7.33-7.79-9.06-13.96-10.33-4.1-.87-7.5-1.5-7.5-3.46,0-1.15,1.15-2.08,3.52-2.08,2.65,0,4.5,1.15,5.19,4.04h12.23c-1.5-7.5-8.08-11.42-17.83-11.42s-16.04,4.33-16.04,10.67c0,7.44,7.79,9.06,13.96,10.33,4.04.87,7.38,1.56,7.38,3.63,0,1.21-1.15,2.19-3.92,2.19s-4.62-1.44-5.19-4.44h-12.29c1.5,7.96,8.19,11.77,17.83,11.77M18.4,54.72c-3.06,0-5.02-2.37-5.02-8.31s1.96-8.25,5.02-8.25,5.02,2.37,5.02,8.31-1.96,8.25-5.02,8.25M18.4,63.54c11.13,0,18.35-6.17,18.35-17.13s-7.21-17.08-18.35-17.08S0,35.45,0,46.41s7.21,17.13,18.4,17.13"/>
</svg>