<?xml version="1.0" encoding="UTF-8"?>
<svg id="Layer_1" data-name="Layer 1" xmlns="http://www.w3.org/2000/svg" viewBox="0 0 133.33 82.5">
  <defs>
    <style>
      .cls-1 {
        fill: #fff;
      }

      .cls-2 {
        fill: #9b2a9f;
      }
    </style>
  </defs>
  <path class="cls-2" d="M25,82.5v-21.66c0-9.11-.2-11.99-4.25-9.46-2.37,1.48-5.42,2.24-8.25,2.24-6.9,0-12.5-5.54-12.5-12.37s5.6-12.38,12.5-12.38c2.84,0,5.88.76,8.25,2.24,4.05,2.53,4.25-.34,4.25-9.46V0h21.87c9.21,0,12.11.19,9.55,4.2-1.5,2.35-2.26,5.36-2.26,8.17,0,6.83,5.6,12.38,12.5,12.38s12.5-5.54,12.5-12.38c0-2.81-.76-5.82-2.26-8.17-2.55-4.01.35-4.2,9.55-4.2h21.87v21.66c0,9.11.2,11.98,4.25,9.46,2.37-1.48,5.42-2.24,8.25-2.24,6.9,0,12.5,5.54,12.5,12.38s-5.6,12.37-12.5,12.37c-2.84,0-5.88-.75-8.25-2.24-4.05-2.53-4.25.34-4.25,9.46v21.66H25Z"/>
  <g id="data">
    <path class="cls-1" d="M47.77,42.39c0-3.11,1.71-5.09,4.23-5.09,1.33,0,2.43.63,3.13,1.76v-4.39h2.3v12.6h-2.3v-1.55c-.7,1.13-1.8,1.75-3.13,1.75-2.54,0-4.23-1.93-4.23-5.08ZM55.13,42.39c0-2.25-1.01-3.44-2.56-3.44s-2.5,1.19-2.5,3.42.97,3.44,2.5,3.44,2.56-1.19,2.56-3.42Z"/>
    <path class="cls-1" d="M58.59,44.79c0-1.93,2.02-2.58,4.09-3.21,1.53-.47,2.27-.83,2.27-1.55s-.61-1.13-1.73-1.13c-1.26,0-2.09.72-2.3,1.93h-2.12c.29-2.11,2.02-3.55,4.48-3.55s3.94,1.17,3.94,3.35v6.64h-2.27v-1.1c-.74.81-1.84,1.26-3.08,1.26-2.02,0-3.28-1.04-3.28-2.65ZM62.46,45.89c.94,0,1.91-.38,2.48-1.03v-2.7c-.41.34-1.06.56-1.8.81-1.31.43-2.3.77-2.3,1.75,0,.76.63,1.17,1.62,1.17Z"/>
    <path class="cls-1" d="M70.25,45.04v-5.85h-2.3v-1.69h2.3v-1.94h2.27v1.94h2.86v1.69h-2.86v5.44c0,.65.34.94,1.13.94h1.73v1.71h-2.79c-1.58,0-2.34-.79-2.34-2.23Z"/>
    <path class="cls-1" d="M76.24,44.79c0-1.93,2.02-2.58,4.09-3.21,1.53-.47,2.27-.83,2.27-1.55s-.61-1.13-1.73-1.13c-1.26,0-2.09.72-2.3,1.93h-2.12c.29-2.11,2.02-3.55,4.48-3.55s3.94,1.17,3.94,3.35v6.64h-2.27v-1.1c-.74.81-1.84,1.26-3.08,1.26-2.02,0-3.28-1.04-3.28-2.65ZM80.12,45.89c.94,0,1.91-.38,2.48-1.03v-2.7c-.41.34-1.06.56-1.8.81-1.31.43-2.3.77-2.3,1.75,0,.76.63,1.17,1.62,1.17Z"/>
  </g>
</svg>