<?xml version="1.0" encoding="UTF-8"?>
<svg id="Layer_1" data-name="Layer 1" xmlns="http://www.w3.org/2000/svg" viewBox="0 0 83.18 107.26">
  <defs>
    <style>
      .cls-1 {
        fill: #fff;
      }

      .cls-2 {
        fill: #fcb813;
      }
    </style>
  </defs>
  <path class="cls-2" d="M37.3,107.25H0s0-31.95,0-31.95V24.75h21.72c9.2,0,12.1-.19,9.55-4.2-1.5-2.35-2.26-5.36-2.26-8.17,0-6.83,5.6-12.38,12.5-12.38s12.5,5.54,12.5,12.38c0,2.81-.76,5.82-2.26,8.17-2.56,4.01.34,4.2,9.55,4.2h21.87v21.66c0,9.11-.2,11.98-4.25,9.46-2.37-1.48-5.42-2.24-8.25-2.24-6.9,0-12.5,5.54-12.5,12.38s5.6,12.37,12.5,12.37c2.84,0,5.88-.75,8.25-2.24,4.05-2.53,4.25.34,4.25,9.46v21.66h-45.89Z"/>
  <g id="sms">
    <path class="cls-1" d="M17.83,67.29h2.24c.24,1.75,1.19,2.57,2.92,2.57s2.48-.65,2.48-1.53c0-1.26-1.58-1.65-3.3-2.11-2.02-.54-4.23-1.21-4.23-3.55,0-2.01,1.72-3.37,4.45-3.37,2.97,0,4.88,1.5,5.18,4.18h-2.14c-.25-1.58-1.31-2.43-2.97-2.43-1.53,0-2.26.61-2.26,1.43,0,1.16,1.44,1.55,3.08,2.01,2.07.56,4.44,1.22,4.44,3.65,0,2.07-1.75,3.47-4.64,3.47-3.11,0-4.95-1.53-5.25-4.32Z"/>
    <path class="cls-1" d="M28.88,59.51h3.28l1.34,4.45,1.31,4.44,1.31-4.44,1.33-4.45h3.28v11.9h-2.11l.02-5.86.05-3.84-1.12,3.84-1.73,5.86h-2.12l-1.73-5.86-1.12-3.84.05,3.84.02,5.86h-2.04v-11.9Z"/>
    <path class="cls-1" d="M41.87,67.29h2.24c.24,1.75,1.19,2.57,2.92,2.57s2.48-.65,2.48-1.53c0-1.26-1.58-1.65-3.3-2.11-2.02-.54-4.23-1.21-4.23-3.55,0-2.01,1.72-3.37,4.45-3.37,2.97,0,4.88,1.5,5.18,4.18h-2.14c-.25-1.58-1.31-2.43-2.97-2.43-1.53,0-2.26.61-2.26,1.43,0,1.16,1.44,1.55,3.08,2.01,2.07.56,4.44,1.22,4.44,3.65,0,2.07-1.75,3.47-4.64,3.47-3.11,0-4.95-1.53-5.25-4.32Z"/>
  </g>
</svg>