<?xml version="1.0" encoding="UTF-8"?>
<svg id="Layer_1" data-name="Layer 1" xmlns="http://www.w3.org/2000/svg" viewBox="0 0 102 22.31">
  <defs>
    <style>
      .cls-1 {
        fill: #fff;
      }
    </style>
  </defs>
  <path class="cls-1" d="M7.47,10.27c0-.9-.19-1.61-.57-2.11-.38-.51-1-.76-1.85-.76-.53,0-1.05.12-1.55.35-.5.23-.94.51-1.33.83v8.94H0V5.92h1.96l.12.92c.45-.34.97-.62,1.56-.86s1.22-.35,1.9-.35c1.48,0,2.54.39,3.17,1.16.63.77.94,1.93.94,3.46v7.28h-2.17v-7.25Z"/>
  <path class="cls-1" d="M11.28,20.28c1.16,0,2.1-.18,2.82-.54.72-.36,1.28-.98,1.68-1.85l-4.33-11.97h2.42l3.24,9.74c.55-1.32,1.09-2.82,1.63-4.49s1.02-3.42,1.44-5.26h2.27c-.35,1.45-.75,2.87-1.2,4.27-.44,1.39-.9,2.7-1.38,3.92-.48,1.22-.95,2.29-1.41,3.23-.61,1.21-1.24,2.17-1.87,2.88-.64.71-1.36,1.22-2.16,1.53-.81.32-1.78.47-2.92.47l-.22-1.94Z"/>
  <path class="cls-1" d="M32.06,10.27c0-.9-.19-1.61-.57-2.11-.38-.51-1-.76-1.85-.76-.53,0-1.05.12-1.55.35-.5.23-.94.51-1.33.83v8.94h-2.18V5.92h1.96l.12.92c.45-.34.97-.62,1.56-.86s1.22-.35,1.9-.35c1.48,0,2.54.39,3.17,1.16.63.77.94,1.93.94,3.46v7.28h-2.17v-7.25Z"/>
  <path class="cls-1" d="M41.67,1.52l-4.35,2.88-.92-1.07,4.01-3.33,1.26,1.52ZM37.66,5.92h2.18v11.6h-2.18V5.92Z"/>
  <path class="cls-1" d="M47.59,17.76V5.92h2.18v11.8c0,1.21-.25,2.16-.74,2.85-.49.69-1.21,1.27-2.16,1.74l-.87-1.71c.71-.47,1.15-.91,1.33-1.32.18-.41.27-.92.27-1.51ZM47.35,2.72c0-.41.13-.74.39-.98.26-.24.58-.36.97-.36s.7.12.96.36c.25.24.37.57.37.98s-.13.74-.37.98c-.25.24-.57.36-.96.36s-.71-.12-.97-.36c-.26-.24-.39-.57-.39-.98Z"/>
  <path class="cls-1" d="M52.7,11.7c0-1.24.21-2.31.63-3.21s1.01-1.6,1.78-2.1c.76-.5,1.65-.75,2.65-.75,1.56,0,2.78.55,3.64,1.64s1.29,2.63,1.29,4.62h-7.86c.08,2.77,1.22,4.16,3.41,4.16,1.27,0,2.38-.47,3.34-1.4l.63,1.67c-.5.47-1.12.83-1.86,1.09-.74.26-1.54.39-2.39.39-1.63,0-2.91-.54-3.84-1.62-.93-1.08-1.4-2.57-1.4-4.47ZM59.63,8.12c-.48-.51-1.11-.77-1.89-.77-1.6,0-2.54.98-2.83,2.92h5.58c-.1-.92-.39-1.63-.87-2.15Z"/>
  <path class="cls-1" d="M72.96,10.27c0-.9-.19-1.61-.57-2.11-.38-.51-1-.76-1.85-.76-.53,0-1.05.12-1.55.35-.5.23-.94.51-1.33.83v8.94h-2.18V5.92h1.96l.12.92c.45-.34.97-.62,1.56-.86s1.22-.35,1.9-.35c1.48,0,2.54.39,3.17,1.16.63.77.94,1.93.94,3.46v7.28h-2.17v-7.25Z"/>
  <path class="cls-1" d="M82.22,15.57l6.45-7.88h-6.21v-1.76h8.48v2.08l-6.45,7.76h6.65v1.76h-8.92v-1.96Z"/>
  <path class="cls-1" d="M93.23,14.19c0-1.27.58-2.27,1.75-3.01,1.17-.73,2.79-1.12,4.87-1.17v-.07c0-.92-.19-1.57-.57-1.96-.38-.39-.91-.58-1.61-.58-1.06,0-2.1.39-3.12,1.16l-.65-1.55c.45-.35,1-.67,1.64-.96.64-.28,1.43-.42,2.37-.42,1.29,0,2.29.35,3.01,1.04s1.08,1.83,1.08,3.41v7.45h-1.98l-.07-.99c-.81.84-1.81,1.26-3,1.26-.65,0-1.25-.14-1.83-.41-.57-.27-1.03-.68-1.38-1.22-.35-.54-.52-1.2-.52-1.97ZM95.3,14.16c0,.45.11.82.33,1.1.22.28.48.49.8.63.31.14.62.21.93.21.48,0,.94-.11,1.35-.33s.8-.49,1.14-.81v-3.34c-1.64.08-2.81.32-3.5.7-.69.39-1.04,1-1.04,1.84Z"/>
</svg>