<?xml version="1.0" encoding="UTF-8"?>
<svg id="Layer_1" data-name="Layer 1" xmlns="http://www.w3.org/2000/svg" viewBox="0 0 213.95 36.32">
  <defs>
    <style>
      .cls-1 {
        fill: #fff;
      }
    </style>
  </defs>
  <path class="cls-1" d="M0,21.8v-12.08h2.92v12.24c0,3.2,1.47,4.8,4.4,4.8.88,0,1.79-.19,2.72-.58.93-.39,1.72-.9,2.36-1.54v-14.92h2.92v19.08h-2.72l-.2-1.48c-.85.69-1.72,1.19-2.6,1.48-.88.29-1.88.44-3,.44-2.35,0-4.07-.6-5.16-1.8-1.09-1.2-1.64-3.08-1.64-5.64Z"/>
  <path class="cls-1" d="M24.04,36.32h-2.92V9.72h2.64l.2,1.4c1.55-1.25,3.31-1.88,5.28-1.88,2.32,0,4.13.86,5.44,2.58,1.31,1.72,1.96,4.13,1.96,7.22,0,2-.38,3.77-1.14,5.3-.76,1.53-1.82,2.73-3.18,3.6-1.36.87-2.93,1.3-4.72,1.3-1.49,0-2.68-.21-3.56-.64v7.72ZM33.72,19.16c0-2.29-.47-4.11-1.4-5.44-.93-1.33-2.21-2-3.84-2s-3.05.67-4.44,2v12.24c.77.53,1.77.8,3,.8,2.03,0,3.65-.69,4.86-2.08,1.21-1.39,1.82-3.23,1.82-5.52Z"/>
  <path class="cls-1" d="M41.56,23.76V2.12h2.92v22.08c0,1.65.55,2.48,1.64,2.48.48,0,1.11-.19,1.88-.56l.68,2.32c-.91.48-1.91.72-3,.72-1.49,0-2.55-.41-3.18-1.24-.63-.83-.94-2.21-.94-4.16Z"/>
  <path class="cls-1" d="M51.2,23.28c0-2.13.97-3.8,2.92-5,1.95-1.2,4.64-1.84,8.08-1.92v-.2c0-1.6-.33-2.74-1-3.42-.67-.68-1.59-1.02-2.76-1.02-.83,0-1.69.16-2.58.48-.89.32-1.75.81-2.58,1.48l-.96-2.24c.69-.53,1.55-1.03,2.56-1.5,1.01-.47,2.28-.7,3.8-.7,2.05,0,3.64.55,4.76,1.64,1.12,1.09,1.68,2.92,1.68,5.48v12.44h-2.68l-.12-1.64c-1.33,1.39-2.97,2.08-4.92,2.08-1.04,0-2.03-.23-2.98-.68-.95-.45-1.72-1.12-2.32-2-.6-.88-.9-1.97-.9-3.28ZM54.12,23.32c0,.8.19,1.45.58,1.96.39.51.86.88,1.42,1.12.56.24,1.11.36,1.64.36.88,0,1.69-.2,2.42-.6.73-.4,1.41-.87,2.02-1.4v-5.92c-2.93.16-5.01.57-6.24,1.24-1.23.67-1.84,1.75-1.84,3.24Z"/>
  <path class="cls-1" d="M76.32,25.52l5.64-15.8h2.96l-7,19.08h-3.36l-6.6-19.08h3.16l5.2,15.8Z"/>
  <path class="cls-1" d="M86.96,23.28c0-2.13.97-3.8,2.92-5,1.95-1.2,4.64-1.84,8.08-1.92v-.2c0-1.6-.33-2.74-1-3.42-.67-.68-1.59-1.02-2.76-1.02-.83,0-1.69.16-2.58.48-.89.32-1.75.81-2.58,1.48l-.96-2.24c.69-.53,1.55-1.03,2.56-1.5,1.01-.47,2.28-.7,3.8-.7,2.05,0,3.64.55,4.76,1.64,1.12,1.09,1.68,2.92,1.68,5.48v12.44h-2.68l-.12-1.64c-1.33,1.39-2.97,2.08-4.92,2.08-1.04,0-2.03-.23-2.98-.68-.95-.45-1.72-1.12-2.32-2-.6-.88-.9-1.97-.9-3.28ZM89.88,23.32c0,.8.19,1.45.58,1.96.39.51.86.88,1.42,1.12.56.24,1.11.36,1.64.36.88,0,1.69-.2,2.42-.6.73-.4,1.41-.87,2.02-1.4v-5.92c-2.93.16-5.01.57-6.24,1.24-1.23.67-1.84,1.75-1.84,3.24Z"/>
  <path class="cls-1" d="M107.56,24.76v-12.56h-3.12v-2.48h3.12v-5.2h2.92v5.2h4.76v2.48h-4.76v12.24c0,.83.15,1.42.44,1.78.29.36.76.54,1.4.54.8,0,1.67-.35,2.6-1.04l.8,2.32c-1.12.8-2.43,1.2-3.92,1.2-2.83,0-4.24-1.49-4.24-4.48Z"/>
  <path class="cls-1" d="M127.12,19.08c0-1.92.37-3.62,1.12-5.1s1.77-2.64,3.08-3.48c1.31-.84,2.8-1.26,4.48-1.26.91,0,1.69.07,2.36.22s1.23.31,1.68.5V2.12h2.92v26.68h-2.68l-.24-1.6c-1.2,1.36-2.76,2.04-4.68,2.04-1.6,0-3.01-.42-4.22-1.26-1.21-.84-2.15-2.03-2.82-3.56-.67-1.53-1-3.31-1-5.34ZM130.04,19.24c0,2.35.49,4.19,1.48,5.52.99,1.33,2.33,2,4.04,2s3.19-.72,4.28-2.16v-11.96c-.51-.27-1.07-.49-1.68-.66s-1.24-.26-1.88-.26c-1.87,0-3.38.69-4.52,2.08-1.15,1.39-1.72,3.2-1.72,5.44Z"/>
  <path class="cls-1" d="M147.24,23.28c0-2.13.97-3.8,2.92-5,1.95-1.2,4.64-1.84,8.08-1.92v-.2c0-1.6-.33-2.74-1-3.42-.67-.68-1.59-1.02-2.76-1.02-.83,0-1.69.16-2.58.48-.89.32-1.75.81-2.58,1.48l-.96-2.24c.69-.53,1.55-1.03,2.56-1.5,1.01-.47,2.28-.7,3.8-.7,2.05,0,3.64.55,4.76,1.64,1.12,1.09,1.68,2.92,1.68,5.48v12.44h-2.68l-.12-1.64c-1.33,1.39-2.97,2.08-4.92,2.08-1.04,0-2.03-.23-2.98-.68s-1.72-1.12-2.32-2c-.6-.88-.9-1.97-.9-3.28ZM150.16,23.32c0,.8.19,1.45.58,1.96.39.51.86.88,1.42,1.12.56.24,1.11.36,1.64.36.88,0,1.69-.2,2.42-.6s1.41-.87,2.02-1.4v-5.92c-2.93.16-5.01.57-6.24,1.24-1.23.67-1.84,1.75-1.84,3.24ZM159.48,2.08l-6.88,4.96-1.44-1.48,6.36-5.56,1.96,2.08Z"/>
  <path class="cls-1" d="M169.8,28.8h-2.92V9.72h2.64l.24,1.96c1.79-1.63,3.4-2.44,4.84-2.44.21,0,.45.02.72.06s.57.09.92.14l-.36,2.84c-.21-.05-.43-.09-.66-.12-.23-.03-.43-.04-.62-.04-1.6,0-3.2.79-4.8,2.36v14.32Z"/>
  <path class="cls-1" d="M178.32,19.2c0-2.03.33-3.78,1-5.26.67-1.48,1.61-2.63,2.84-3.46s2.65-1.24,4.28-1.24c2.51,0,4.45.89,5.84,2.66s2.08,4.25,2.08,7.42h-13.08c.05,4.96,2,7.44,5.84,7.44,2.16,0,4.03-.79,5.6-2.36l.88,2.4c-.8.77-1.8,1.37-3,1.8s-2.48.64-3.84.64c-2.64,0-4.71-.89-6.2-2.66-1.49-1.77-2.24-4.23-2.24-7.38ZM189.8,13.1c-.85-.92-1.97-1.38-3.36-1.38-2.83,0-4.49,1.71-5,5.12h9.84c-.13-1.57-.63-2.82-1.48-3.74Z"/>
  <path class="cls-1" d="M201.91,28.8h-2.92V2.12h2.92v14.68h1.96c.77,0,1.45-.19,2.02-.58.57-.39,1.14-1.21,1.7-2.46l1.76-4.04h3.16l-2,4.4c-.43.93-.86,1.71-1.3,2.32-.44.61-.95,1.03-1.54,1.24.75.21,1.36.56,1.84,1.04.48.48.95,1.28,1.4,2.4l3.04,7.68h-3.24l-2.28-5.76c-.35-.91-.69-1.63-1.02-2.18-.33-.55-.73-.95-1.18-1.2-.45-.25-1.08-.38-1.88-.38h-2.44v9.52Z"/>
</svg>