<?xml version="1.0" encoding="UTF-8"?>
<svg id="Layer_1" data-name="Layer 1" xmlns="http://www.w3.org/2000/svg" viewBox="0 0 204.72 30.44">
  <defs>
    <style>
      .cls-1 {
        fill: #fff;
      }
    </style>
  </defs>
  <path class="cls-1" d="M11.92,17.76c0-2-.83-3-2.48-3-.99,0-1.91.37-2.76,1.12v14.08H0V10.32h5.88l.28,1.6c.72-.64,1.56-1.15,2.52-1.52.96-.37,2-.56,3.12-.56,2.24,0,3.93.63,5.08,1.88,1.15,1.25,1.72,3.05,1.72,5.4v12.84h-6.68v-12.2Z"/>
  <path class="cls-1" d="M22.4,20.16c0-2.21.42-4.09,1.26-5.62.84-1.53,1.98-2.7,3.42-3.5,1.44-.8,3.05-1.2,4.84-1.2,2.93,0,5.2.96,6.8,2.88,1.6,1.92,2.4,4.79,2.4,8.6h-12.48c.19,1.49.65,2.59,1.4,3.28.75.69,1.8,1.04,3.16,1.04.93,0,1.85-.19,2.76-.56.91-.37,1.71-.89,2.4-1.56l1.8,4.36c-2.08,1.71-4.68,2.56-7.8,2.56s-5.49-.91-7.28-2.72c-1.79-1.81-2.68-4.33-2.68-7.56ZM31.96,14.2c-1.76,0-2.84,1.16-3.24,3.48h6.4c-.29-2.32-1.35-3.48-3.16-3.48Z"/>
  <path class="cls-1" d="M43.92,20.04c0-2.05.41-3.84,1.24-5.36.83-1.52,1.97-2.71,3.44-3.56,1.47-.85,3.18-1.28,5.14-1.28s3.67.43,5.14,1.28c1.47.85,2.61,2.05,3.42,3.6.81,1.55,1.22,3.36,1.22,5.44s-.41,3.81-1.22,5.36c-.81,1.55-1.95,2.75-3.42,3.62-1.47.87-3.18,1.3-5.14,1.3s-3.67-.43-5.14-1.3c-1.47-.87-2.61-2.09-3.44-3.66-.83-1.57-1.24-3.39-1.24-5.44ZM50.52,20.04c0,1.71.29,3.04.86,4,.57.96,1.36,1.44,2.36,1.44s1.79-.47,2.36-1.4c.57-.93.86-2.24.86-3.92s-.29-3.07-.86-4c-.57-.93-1.36-1.4-2.36-1.4s-1.79.47-2.36,1.4c-.57.93-.86,2.23-.86,3.88Z"/>
  <path class="cls-1" d="M67.44,10.32h5.88l.28,1.52c.72-.61,1.55-1.1,2.48-1.46s1.89-.54,2.88-.54c1.17,0,2.19.19,3.04.58.85.39,1.55.94,2.08,1.66.8-.69,1.73-1.24,2.8-1.64,1.07-.4,2.15-.6,3.24-.6,4.72,0,7.08,2.73,7.08,8.2v11.92h-6.68v-12.12c0-1.01-.17-1.77-.52-2.28-.35-.51-.93-.76-1.76-.76-.48,0-.95.1-1.42.3-.47.2-.9.46-1.3.78.11.67.16,1.37.16,2.12v11.96h-6.68v-12.12c0-.96-.17-1.71-.5-2.24-.33-.53-.9-.8-1.7-.8-.91,0-1.8.37-2.68,1.12v14.04h-6.68V10.32Z"/>
  <path class="cls-1" d="M101,20.16c0-2.21.42-4.09,1.26-5.62.84-1.53,1.98-2.7,3.42-3.5,1.44-.8,3.05-1.2,4.84-1.2,2.93,0,5.2.96,6.8,2.88,1.6,1.92,2.4,4.79,2.4,8.6h-12.48c.19,1.49.65,2.59,1.4,3.28.75.69,1.8,1.04,3.16,1.04.93,0,1.85-.19,2.76-.56.91-.37,1.71-.89,2.4-1.56l1.8,4.36c-2.08,1.71-4.68,2.56-7.8,2.56s-5.49-.91-7.28-2.72c-1.79-1.81-2.68-4.33-2.68-7.56ZM110.56,14.2c-1.76,0-2.84,1.16-3.24,3.48h6.4c-.29-2.32-1.35-3.48-3.16-3.48Z"/>
  <path class="cls-1" d="M122.4,25.68l9.68-10.48h-9.24v-4.88h16.96v4.6l-9.44,10.16h9.76v4.88h-17.72v-4.28Z"/>
  <path class="cls-1" d="M142.88,20.16c0-2.21.42-4.09,1.26-5.62.84-1.53,1.98-2.7,3.42-3.5,1.44-.8,3.05-1.2,4.84-1.2,2.93,0,5.2.96,6.8,2.88,1.6,1.92,2.4,4.79,2.4,8.6h-12.48c.19,1.49.65,2.59,1.4,3.28.75.69,1.8,1.04,3.16,1.04.93,0,1.85-.19,2.76-.56.91-.37,1.71-.89,2.4-1.56l1.8,4.36c-2.08,1.71-4.68,2.56-7.8,2.56s-5.49-.91-7.28-2.72c-1.79-1.81-2.68-4.33-2.68-7.56ZM152.44,14.2c-1.76,0-2.84,1.16-3.24,3.48h6.4c-.29-2.32-1.35-3.48-3.16-3.48Z"/>
  <path class="cls-1" d="M177.28,17.76c0-2-.83-3-2.48-3-.99,0-1.91.37-2.76,1.12v14.08h-6.68V10.32h5.88l.28,1.6c.72-.64,1.56-1.15,2.52-1.52.96-.37,2-.56,3.12-.56,2.24,0,3.93.63,5.08,1.88,1.15,1.25,1.72,3.05,1.72,5.4v12.84h-6.68v-12.2Z"/>
  <path class="cls-1" d="M187.52,24.52c0-2.11.91-3.76,2.74-4.96,1.83-1.2,4.51-1.85,8.06-1.96-.03-1.07-.28-1.81-.76-2.24-.48-.43-1.2-.64-2.16-.64-1.57,0-3.25.56-5.04,1.68l-1.68-4.08c.96-.69,2.11-1.28,3.46-1.76s2.82-.72,4.42-.72c2.56,0,4.56.66,6,1.98,1.44,1.32,2.16,3.41,2.16,6.26v11.88h-5.88l-.24-1.72c-.59.67-1.34,1.2-2.26,1.6s-1.89.6-2.9.6c-1.79,0-3.22-.55-4.3-1.64-1.08-1.09-1.62-2.52-1.62-4.28ZM202.52,4.48l-8.6,3.96-1.8-2.96,7.8-5.48,2.6,4.48ZM198.32,21.12c-1.73.08-2.98.35-3.74.8-.76.45-1.14,1.13-1.14,2.04,0,.72.22,1.25.66,1.6.44.35.94.52,1.5.52,1.01,0,1.92-.4,2.72-1.2v-3.76Z"/>
</svg>