<?xml version="1.0" encoding="UTF-8"?>
<svg id="Layer_1" data-name="Layer 1" xmlns="http://www.w3.org/2000/svg" viewBox="0 0 77.28 27.12">
  <defs>
    <style>
      .cls-1 {
        fill: #fff;
      }
    </style>
  </defs>
  <path class="cls-1" d="M12.48,14.72c0-1.6-.34-2.85-1.02-3.76-.68-.91-1.79-1.36-3.34-1.36-.96,0-1.9.21-2.82.64-.92.43-1.71.92-2.38,1.48v14.96H0V7.6h2.68l.16,1.52c.75-.56,1.61-1.03,2.6-1.42.99-.39,2.04-.58,3.16-.58,2.51,0,4.27.63,5.28,1.9,1.01,1.27,1.52,3.19,1.52,5.78v11.88h-2.92v-11.96Z"/>
  <path class="cls-1" d="M20.24,17.08c0-2.03.33-3.78,1-5.26.67-1.48,1.61-2.63,2.84-3.46s2.65-1.24,4.28-1.24c2.51,0,4.45.89,5.84,2.66s2.08,4.25,2.08,7.42h-13.08c.05,4.96,2,7.44,5.84,7.44,2.16,0,4.03-.79,5.6-2.36l.88,2.4c-.8.77-1.8,1.37-3,1.8s-2.48.64-3.84.64c-2.64,0-4.71-.89-6.2-2.66-1.49-1.77-2.24-4.23-2.24-7.38ZM31.72,10.98c-.85-.92-1.97-1.38-3.36-1.38-2.83,0-4.49,1.71-5,5.12h9.84c-.13-1.57-.63-2.82-1.48-3.74Z"/>
  <path class="cls-1" d="M40.92,0h2.92v8.24c1.39-.72,2.85-1.08,4.4-1.08,2.51,0,4.5.9,5.98,2.7,1.48,1.8,2.22,4.23,2.22,7.3,0,1.95-.39,3.67-1.16,5.18-.77,1.51-1.83,2.68-3.18,3.52-1.35.84-2.91,1.26-4.7,1.26-1.07,0-2.16-.11-3.28-.34-1.12-.23-2.19-.59-3.2-1.1V0ZM51.92,11.7c-1.07-1.37-2.47-2.06-4.2-2.06-1.44,0-2.73.4-3.88,1.2v13.08c.99.48,2.04.72,3.16.72,2,0,3.59-.68,4.76-2.04,1.17-1.36,1.76-3.2,1.76-5.52s-.53-4.01-1.6-5.38Z"/>
  <path class="cls-1" d="M60.4,17.04c0-1.95.36-3.67,1.08-5.16.72-1.49,1.71-2.66,2.98-3.5,1.27-.84,2.73-1.26,4.38-1.26s3.11.42,4.38,1.26c1.27.84,2.26,2.01,2.98,3.5.72,1.49,1.08,3.21,1.08,5.16s-.36,3.68-1.08,5.2c-.72,1.52-1.71,2.71-2.98,3.58s-2.72,1.3-4.36,1.3-3.1-.43-4.38-1.3-2.28-2.06-3-3.58-1.08-3.25-1.08-5.2ZM63.32,17.04c0,1.49.23,2.81.7,3.96.47,1.15,1.12,2.04,1.96,2.68s1.8.96,2.88.96,2.03-.32,2.86-.96c.83-.64,1.47-1.53,1.94-2.68.47-1.15.7-2.47.7-3.96,0-2.21-.51-4.01-1.52-5.38-1.01-1.37-2.34-2.06-3.98-2.06s-2.97.69-4,2.06c-1.03,1.37-1.54,3.17-1.54,5.38Z"/>
</svg>