<?xml version="1.0" encoding="UTF-8"?>
<svg id="Layer_1" data-name="Layer 1" xmlns="http://www.w3.org/2000/svg" viewBox="0 0 146 44.96">
  <defs>
    <style>
      .cls-1 {
        fill: #e60000;
      }
    </style>
  </defs>
  <path class="cls-1" d="M.43,1.52h2.82v12.22h6.34v2.47H.43V1.52Z"/>
  <path class="cls-1" d="M11.14,2.6c0-.43.14-.78.42-1.06s.66-.42,1.14-.42.87.14,1.14.41c.28.27.42.63.42,1.07s-.14.8-.42,1.08-.66.42-1.14.42-.87-.14-1.14-.41c-.28-.27-.42-.63-.42-1.09ZM11.32,5.53h2.75v10.68h-2.75V5.53Z"/>
  <path class="cls-1" d="M16.81,5.53h2.44l.13.86c.38-.31.83-.57,1.35-.79.52-.22,1.07-.33,1.66-.33.68,0,1.24.11,1.7.34.45.23.82.54,1.1.94.44-.37.95-.67,1.54-.91.59-.24,1.2-.36,1.85-.36,1.35,0,2.32.38,2.9,1.13.58.76.87,1.88.87,3.36v6.45h-2.75v-6.63c0-.69-.13-1.23-.39-1.61-.26-.38-.7-.57-1.33-.57-.37,0-.73.09-1.1.26-.37.18-.68.37-.92.57.07.46.11.95.11,1.5v6.47h-2.75v-6.63c0-.65-.11-1.17-.34-1.57-.23-.4-.65-.61-1.27-.61-.35,0-.71.09-1.07.28s-.69.39-.98.63v7.9h-2.75V5.53Z"/>
  <path class="cls-1" d="M34.83,2.6c0-.43.14-.78.42-1.06s.66-.42,1.14-.42.87.14,1.14.41c.28.27.42.63.42,1.07s-.14.8-.42,1.08-.66.42-1.14.42-.87-.14-1.14-.41c-.28-.27-.42-.63-.42-1.09ZM35,5.53h2.75v10.68h-2.75V5.53Z"/>
  <path class="cls-1" d="M41.02,13.58v-5.97h-1.59v-2.09h1.59v-2.75h2.75v2.75h2.49v2.09h-2.49v5.59c0,.75.3,1.12.9,1.12.41,0,.87-.18,1.36-.55l.66,1.85c-.38.28-.81.48-1.29.62-.48.13-.96.2-1.46.2-1.95,0-2.93-.95-2.93-2.86Z"/>
  <path class="cls-1" d="M47.6,10.82c0-1.11.21-2.08.64-2.92.43-.84,1.02-1.49,1.78-1.95.76-.46,1.65-.69,2.65-.69s1.89.23,2.64.7c.76.47,1.35,1.12,1.77,1.96.43.84.64,1.81.64,2.92s-.21,2.08-.64,2.92c-.43.84-1.02,1.49-1.78,1.97-.76.48-1.64.72-2.64.72s-1.88-.24-2.64-.72c-.76-.48-1.36-1.14-1.78-1.98s-.64-1.82-.64-2.93ZM50.33,10.81c0,1.07.22,1.93.65,2.57s1,.96,1.7.96,1.26-.32,1.68-.95c.42-.63.64-1.48.64-2.54s-.21-1.91-.63-2.53-.98-.94-1.7-.94-1.28.31-1.71.94c-.43.62-.64,1.46-.64,2.5Z"/>
  <path class="cls-1" d="M63.66,13.45l2.49-7.93h2.8l-3.96,10.68h-2.77l-3.83-10.68h2.97l2.31,7.93Z"/>
  <path class="cls-1" d="M69.69,13.19c0-1.16.52-2.07,1.55-2.73,1.03-.66,2.51-1.02,4.44-1.08,0-.73-.15-1.25-.46-1.56-.31-.31-.76-.46-1.34-.46-.91,0-1.85.33-2.82.99l-.75-1.78c.47-.34,1.03-.64,1.7-.9.66-.26,1.42-.4,2.27-.4,1.28,0,2.27.34,2.99,1.01.72.68,1.08,1.76,1.08,3.26v6.67h-2.44l-.11-.92c-.34.35-.75.63-1.23.85-.48.21-1,.32-1.54.32-.94,0-1.73-.29-2.37-.87-.64-.58-.96-1.38-.96-2.39ZM72.2,13.03c0,.51.17.89.51,1.12.34.24.69.35,1.06.35s.71-.08,1.04-.23c.32-.15.62-.36.88-.61v-2.62c-1.25.06-2.14.24-2.67.55-.54.31-.8.79-.8,1.43Z"/>
  <path class="cls-1" d="M87.71,9.55c0-1.45-.61-2.18-1.83-2.18-.38,0-.76.08-1.12.24-.37.16-.7.37-.99.62v7.97h-2.75V5.53h2.44l.13.86c.4-.34.86-.61,1.4-.81.54-.2,1.11-.31,1.73-.31,1.31,0,2.26.35,2.85,1.05.59.7.89,1.72.89,3.07v6.82h-2.75v-6.65Z"/>
  <path class="cls-1" d="M92.45,13.19c0-1.16.52-2.07,1.55-2.73,1.03-.66,2.51-1.02,4.44-1.08,0-.73-.15-1.25-.46-1.56-.31-.31-.76-.46-1.34-.46-.91,0-1.85.33-2.82.99l-.75-1.78c.47-.34,1.03-.64,1.7-.9.66-.26,1.42-.4,2.27-.4,1.28,0,2.27.34,2.99,1.01.72.68,1.08,1.76,1.08,3.26v6.67h-2.44l-.11-.92c-.34.35-.75.63-1.23.85-.48.21-1,.32-1.54.32-.94,0-1.73-.29-2.37-.87-.64-.58-.96-1.38-.96-2.39ZM100.02,1.87l-4.32,2.42-.9-1.25,3.94-3.04,1.28,1.87ZM94.96,13.03c0,.51.17.89.51,1.12.34.24.69.35,1.06.35s.71-.08,1.04-.23c.32-.15.62-.36.88-.61v-2.62c-1.25.06-2.14.24-2.67.55-.54.31-.8.79-.8,1.43Z"/>
  <path class="cls-1" d="M0,33.94c0-2.32.41-4.33,1.23-6.03.82-1.7,1.96-3.01,3.43-3.93,1.47-.92,3.19-1.39,5.14-1.39,1.85,0,3.43.37,4.74,1.1,1.31.73,2.34,1.77,3.1,3.13l-3.51,3.03c-.6-.95-1.22-1.64-1.85-2.08-.63-.44-1.39-.66-2.27-.66-1.33,0-2.41.56-3.22,1.69-.82,1.13-1.23,2.81-1.23,5.05s.45,3.86,1.35,5c.9,1.14,2.07,1.71,3.51,1.71.88,0,1.69-.13,2.42-.39v-3.26h-2.93v-3.84h7.9v10.41c-.99.47-2.15.84-3.5,1.1-1.34.26-2.7.39-4.08.39-3.37,0-5.92-.93-7.64-2.79-1.72-1.86-2.58-4.6-2.58-8.24Z"/>
  <path class="cls-1" d="M21.67,23.01h5.51v21.5h-5.51v-21.5Z"/>
  <path class="cls-1" d="M30.6,33.94c0-2.32.41-4.33,1.23-6.03.82-1.7,1.96-3.01,3.43-3.93,1.47-.92,3.19-1.39,5.14-1.39,1.85,0,3.43.37,4.74,1.1,1.31.73,2.34,1.77,3.1,3.13l-3.51,3.03c-.6-.95-1.22-1.64-1.85-2.08-.63-.44-1.39-.66-2.27-.66-1.33,0-2.41.56-3.22,1.69-.82,1.13-1.23,2.81-1.23,5.05s.45,3.86,1.35,5c.9,1.14,2.07,1.71,3.51,1.71.88,0,1.69-.13,2.42-.39v-3.26h-2.93v-3.84h7.9v10.41c-.99.47-2.15.84-3.5,1.1-1.34.26-2.7.39-4.08.39-3.37,0-5.92-.93-7.64-2.79-1.72-1.86-2.58-4.6-2.58-8.24Z"/>
  <path class="cls-1" d="M55.99,44.51h-5.74l7.83-21.5h5.25l7.87,21.5h-5.9l-1.39-4.42h-6.58l-1.35,4.42ZM60.63,28.75l-2.1,7.32h4.16l-2.06-7.32Z"/>
  <path class="cls-1" d="M85.77,37.91c0-.82-.17-1.46-.52-1.93-.35-.46-.91-.69-1.68-.69-.48,0-.95.11-1.41.32-.46.21-.86.47-1.21.76v8.15h-1.98v-10.57h1.78l.11.84c.41-.31.88-.57,1.42-.78.54-.21,1.11-.32,1.73-.32,1.35,0,2.31.35,2.88,1.06s.86,1.75.86,3.15v6.63h-1.98v-6.6Z"/>
  <path class="cls-1" d="M89.92,41.47c0-1.16.53-2.07,1.6-2.74,1.06-.67,2.54-1.02,4.44-1.07v-.07c0-.84-.17-1.43-.52-1.78s-.83-.53-1.46-.53c-.97,0-1.92.35-2.84,1.06l-.59-1.41c.41-.32.91-.61,1.5-.87.59-.26,1.31-.39,2.16-.39,1.17,0,2.09.32,2.74.95.65.63.98,1.67.98,3.1v6.78h-1.81l-.07-.9c-.73.76-1.64,1.15-2.73,1.15-.59,0-1.14-.13-1.66-.37s-.94-.62-1.25-1.11-.47-1.09-.47-1.79ZM91.81,41.45c0,.41.1.75.3,1,.2.26.44.45.73.57.29.13.57.19.85.19.44,0,.85-.1,1.23-.3.38-.2.73-.44,1.03-.74v-3.04c-1.5.07-2.56.29-3.19.64-.63.35-.95.91-.95,1.67Z"/>
  <path class="cls-1" d="M100.8,29.83h1.98v4.4c.72-.35,1.48-.53,2.29-.53,1.39,0,2.51.5,3.34,1.49.83.99,1.24,2.34,1.24,4.04,0,1.09-.21,2.05-.64,2.88s-1.02,1.49-1.79,1.95c-.77.46-1.66.69-2.67.69-.65,0-1.29-.07-1.94-.2-.65-.13-1.25-.34-1.81-.62v-14.11ZM106.88,36.38c-.54-.71-1.26-1.07-2.16-1.07-.7,0-1.35.19-1.94.57v6.93c.51.22,1.04.33,1.59.33,1.03,0,1.84-.35,2.43-1.06.59-.7.89-1.67.89-2.88s-.27-2.12-.81-2.83Z"/>
  <path class="cls-1" d="M115.67,29.94l-3.96,2.62-.84-.97,3.66-3.04,1.14,1.39ZM112.01,33.94h1.98v10.57h-1.98v-10.57Z"/>
  <path class="cls-1" d="M116.39,39.16c0-1.09.21-2.04.62-2.86.41-.82.98-1.46,1.7-1.93.72-.46,1.54-.69,2.47-.69.48,0,.9.04,1.26.12.35.08.65.17.9.28v-4.25h1.98v14.68h-1.81l-.13-.86c-.66.73-1.52,1.1-2.58,1.1-.88,0-1.65-.23-2.31-.69-.66-.46-1.17-1.11-1.54-1.95-.37-.84-.55-1.82-.55-2.95ZM118.35,39.23c0,1.23.25,2.19.75,2.88.5.69,1.2,1.03,2.09,1.03s1.58-.34,2.14-1.03v-6.34c-.26-.13-.55-.25-.86-.34-.31-.09-.62-.14-.92-.14-.95,0-1.72.36-2.31,1.08-.59.72-.88,1.67-.88,2.86Z"/>
  <path class="cls-1" d="M130.25,44.51h-1.98v-14.68h1.98v7.95h.95c.4,0,.74-.1,1.03-.3.29-.2.58-.61.86-1.24l.99-2.29h2.11l-1.17,2.55c-.22.48-.45.89-.68,1.21-.24.32-.51.55-.84.68.43.12.76.31,1.01.57.25.26.49.69.73,1.28l1.7,4.27h-2.18l-1.23-3.19c-.28-.68-.54-1.16-.79-1.45s-.68-.44-1.28-.44h-1.21v5.09Z"/>
  <path class="cls-1" d="M138.01,41.47c0-1.16.53-2.07,1.6-2.74,1.06-.67,2.54-1.02,4.44-1.07v-.07c0-.84-.17-1.43-.52-1.78s-.83-.53-1.46-.53c-.97,0-1.92.35-2.84,1.06l-.59-1.41c.41-.32.91-.61,1.5-.87.59-.26,1.31-.39,2.16-.39,1.17,0,2.09.32,2.74.95.65.63.98,1.67.98,3.1v6.78h-1.81l-.07-.9c-.73.76-1.64,1.15-2.73,1.15-.59,0-1.14-.13-1.66-.37s-.94-.62-1.25-1.11-.47-1.09-.47-1.79ZM139.9,41.45c0,.41.1.75.3,1,.2.26.44.45.73.57.29.13.57.19.85.19.44,0,.85-.1,1.23-.3.38-.2.73-.44,1.03-.74v-3.04c-1.5.07-2.56.29-3.19.64-.63.35-.95.91-.95,1.67Z"/>
</svg>