<?xml version="1.0" encoding="UTF-8"?>
<svg id="Layer_1" data-name="Layer 1" xmlns="http://www.w3.org/2000/svg" viewBox="0 0 115.72 34.2">
  <defs>
    <style>
      .cls-1 {
        fill: #fff;
      }
    </style>
  </defs>
  <path class="cls-1" d="M0,19.68V7.6h2.92v12.24c0,3.2,1.47,4.8,4.4,4.8.88,0,1.79-.19,2.72-.58.93-.39,1.72-.9,2.36-1.54V7.6h2.92v19.08h-2.72l-.2-1.48c-.85.69-1.72,1.19-2.6,1.48-.88.29-1.88.44-3,.44-2.35,0-4.07-.6-5.16-1.8-1.09-1.2-1.64-3.08-1.64-5.64Z"/>
  <path class="cls-1" d="M24.04,34.2h-2.92V7.6h2.64l.2,1.4c1.55-1.25,3.31-1.88,5.28-1.88,2.32,0,4.13.86,5.44,2.58,1.31,1.72,1.96,4.13,1.96,7.22,0,2-.38,3.77-1.14,5.3-.76,1.53-1.82,2.73-3.18,3.6-1.36.87-2.93,1.3-4.72,1.3-1.49,0-2.68-.21-3.56-.64v7.72ZM33.72,17.04c0-2.29-.47-4.11-1.4-5.44-.93-1.33-2.21-2-3.84-2s-3.05.67-4.44,2v12.24c.77.53,1.77.8,3,.8,2.03,0,3.65-.69,4.86-2.08,1.21-1.39,1.82-3.23,1.82-5.52Z"/>
  <path class="cls-1" d="M41.56,21.64V0h2.92v22.08c0,1.65.55,2.48,1.64,2.48.48,0,1.11-.19,1.88-.56l.68,2.32c-.91.48-1.91.72-3,.72-1.49,0-2.55-.41-3.18-1.24-.63-.83-.94-2.21-.94-4.16Z"/>
  <path class="cls-1" d="M51.2,21.16c0-2.13.97-3.8,2.92-5,1.95-1.2,4.64-1.84,8.08-1.92v-.2c0-1.6-.33-2.74-1-3.42-.67-.68-1.59-1.02-2.76-1.02-.83,0-1.69.16-2.58.48-.89.32-1.75.81-2.58,1.48l-.96-2.24c.69-.53,1.55-1.03,2.56-1.5,1.01-.47,2.28-.7,3.8-.7,2.05,0,3.64.55,4.76,1.64,1.12,1.09,1.68,2.92,1.68,5.48v12.44h-2.68l-.12-1.64c-1.33,1.39-2.97,2.08-4.92,2.08-1.04,0-2.03-.23-2.98-.68-.95-.45-1.72-1.12-2.32-2-.6-.88-.9-1.97-.9-3.28ZM54.12,21.2c0,.8.19,1.45.58,1.96.39.51.86.88,1.42,1.12.56.24,1.11.36,1.64.36.88,0,1.69-.2,2.42-.6.73-.4,1.41-.87,2.02-1.4v-5.92c-2.93.16-5.01.57-6.24,1.24-1.23.67-1.84,1.75-1.84,3.24Z"/>
  <path class="cls-1" d="M76.32,23.4l5.64-15.8h2.96l-7,19.08h-3.36l-6.6-19.08h3.16l5.2,15.8Z"/>
  <path class="cls-1" d="M86.96,21.16c0-2.13.97-3.8,2.92-5,1.95-1.2,4.64-1.84,8.08-1.92v-.2c0-1.6-.33-2.74-1-3.42-.67-.68-1.59-1.02-2.76-1.02-.83,0-1.69.16-2.58.48-.89.32-1.75.81-2.58,1.48l-.96-2.24c.69-.53,1.55-1.03,2.56-1.5,1.01-.47,2.28-.7,3.8-.7,2.05,0,3.64.55,4.76,1.64,1.12,1.09,1.68,2.92,1.68,5.48v12.44h-2.68l-.12-1.64c-1.33,1.39-2.97,2.08-4.92,2.08-1.04,0-2.03-.23-2.98-.68-.95-.45-1.72-1.12-2.32-2-.6-.88-.9-1.97-.9-3.28ZM89.88,21.2c0,.8.19,1.45.58,1.96.39.51.86.88,1.42,1.12.56.24,1.11.36,1.64.36.88,0,1.69-.2,2.42-.6.73-.4,1.41-.87,2.02-1.4v-5.92c-2.93.16-5.01.57-6.24,1.24-1.23.67-1.84,1.75-1.84,3.24Z"/>
  <path class="cls-1" d="M107.56,22.64v-12.56h-3.12v-2.48h3.12V2.4h2.92v5.2h4.76v2.48h-4.76v12.24c0,.83.15,1.42.44,1.78.29.36.76.54,1.4.54.8,0,1.67-.35,2.6-1.04l.8,2.32c-1.12.8-2.43,1.2-3.92,1.2-2.83,0-4.24-1.49-4.24-4.48Z"/>
</svg>