<?xml version="1.0" encoding="UTF-8"?>
<svg id="Layer_1" data-name="Layer 1" xmlns="http://www.w3.org/2000/svg" viewBox="0 0 113.93 89.81">
  <defs>
    <style>
      .cls-1 {
        fill: #e50000;
      }
    </style>
  </defs>
  <path class="cls-1" d="M86.77,76.35c.86,0,1.56.3,2.1.9.54.6.84,1.43.9,2.48h-6.13c.34-2.26,1.39-3.39,3.13-3.39M90.39,89.3c1.03-.34,1.92-.85,2.65-1.52l-1.19-2.97c-.71.65-1.4,1.11-2.07,1.39-.67.28-1.4.42-2.19.42-1.27,0-2.23-.34-2.87-1.03-.64-.69-1.02-1.79-1.13-3.29h10.1c0-2.82-.6-5-1.81-6.54-1.21-1.54-2.91-2.31-5.1-2.31-1.38,0-2.61.33-3.7.99-1.09.66-1.94,1.59-2.55,2.81-.61,1.22-.92,2.68-.92,4.4,0,2.54.66,4.54,1.97,5.99,1.31,1.45,3.13,2.18,5.45,2.18,1.21,0,2.32-.17,3.36-.52M75.56,89.28c.96-.35,1.71-.77,2.24-1.24l-1.26-3.1c-.47.47-1.02.86-1.63,1.16-.61.3-1.36.45-2.24.45-1.12,0-2.04-.42-2.76-1.27-.72-.85-1.08-2.09-1.08-3.73s.32-2.8.97-3.63c.65-.83,1.45-1.24,2.42-1.24.75,0,1.37.21,1.84.65.47.43.9,1,1.29,1.71l2.81-1.87c-.26-.56-.64-1.12-1.13-1.7-.5-.57-1.14-1.05-1.92-1.44-.79-.39-1.77-.58-2.95-.58-1.33,0-2.56.3-3.66.9-1.11.6-2,1.52-2.66,2.74-.67,1.23-1,2.77-1,4.62s.32,3.25.97,4.45c.65,1.2,1.53,2.11,2.66,2.73,1.13.61,2.39.92,3.79.92,1.25,0,2.35-.18,3.31-.53M61.86,89.49v-9.84c0-2.02-.46-3.56-1.39-4.62-.92-1.05-2.31-1.58-4.16-1.58-.88,0-1.71.15-2.47.45-.76.3-1.45.71-2.05,1.23l-.19-1.29h-3.58v15.65h4.03v-11.52c.45-.37.95-.67,1.49-.92.54-.25,1.07-.37,1.61-.37.92,0,1.6.29,2.03.86.43.57.64,1.38.64,2.44v9.52h4.03ZM39.1,86.54c-.45.2-.94.31-1.45.31-.56,0-1.07-.17-1.53-.52-.46-.34-.69-.85-.69-1.52,0-.95.37-1.63,1.1-2.05.73-.42,1.99-.67,3.78-.76v3.74c-.34.32-.74.59-1.19.79M44.3,89.49v-10.04c0-2.04-.51-3.56-1.53-4.54-1.02-.98-2.47-1.47-4.34-1.47-1.1,0-2.16.18-3.18.53-1.02.35-1.9.79-2.63,1.31l1.23,2.71c.71-.49,1.41-.85,2.1-1.08.69-.23,1.33-.34,1.94-.34.78,0,1.37.2,1.79.61.42.41.63,1.07.63,1.97v.39c-2.8.04-4.95.54-6.45,1.48-1.51.95-2.26,2.28-2.26,4,0,.99.22,1.84.66,2.55.44.71,1.04,1.26,1.79,1.65.75.39,1.58.58,2.49.58,1.68,0,3.02-.52,4.03-1.55l.26,1.23h3.49ZM25.06,71.77l3.84-4.26-1.78-1.58-3.23,3.29-3.1-3.29-1.87,1.58,3.81,4.26h2.32ZM28.26,88.51c1.1-.87,1.65-2.07,1.65-3.6,0-1.27-.37-2.28-1.11-3.03-.74-.75-2.03-1.4-3.86-1.94-.86-.28-1.52-.52-1.97-.71-.45-.19-.76-.4-.92-.61-.16-.21-.24-.48-.24-.81,0-.97.73-1.45,2.19-1.45.69,0,1.41.15,2.18.44.76.29,1.45.68,2.05,1.18l1.36-2.68c-.71-.58-1.57-1.03-2.57-1.36-1-.32-2.05-.48-3.15-.48-1.79,0-3.22.43-4.29,1.27-1.08.85-1.61,2-1.61,3.44,0,1.25.37,2.23,1.11,2.94.74.71,2.06,1.36,3.95,1.94,1.27.41,2.1.75,2.49,1.02.39.27.58.65.58,1.15,0,1.1-.79,1.65-2.36,1.65-.77,0-1.6-.16-2.49-.48-.88-.32-1.66-.75-2.32-1.29l-1.29,2.94c.65.54,1.54.97,2.69,1.31s2.29.5,3.4.5c1.92,0,3.42-.44,4.52-1.31"/>
  <path class="cls-1" d="M89.18,40.76l2.84,9.68h-5.68l2.84-9.68ZM82.86,61.25l1.68-4.86h9.25l1.72,4.86h7.7l-10.33-28.7h-7.27l-10.41,28.7h7.66ZM73.09,60.04v-14.55h-10.72v5.68h3.87v4c-1.09.23-2.09.34-3.01.34-2.01,0-3.53-.77-4.56-2.3-1.03-1.53-1.55-3.61-1.55-6.22s.5-4.84,1.51-6.33c1-1.49,2.41-2.24,4.22-2.24,1.09,0,2.02.25,2.8.75.77.5,1.56,1.38,2.37,2.65l5.12-4c-1.35-2.04-2.88-3.52-4.58-4.45-1.71-.93-3.76-1.4-6.18-1.4-2.64,0-4.92.6-6.84,1.81-1.92,1.2-3.4,2.93-4.43,5.16-1.03,2.24-1.55,4.89-1.55,7.96s.52,5.68,1.57,7.92c1.05,2.24,2.54,3.97,4.48,5.19,1.94,1.22,4.24,1.83,6.91,1.83,4.22,0,7.75-.6,10.59-1.81M45.2,32.55h-7.36v28.7h7.36v-28.7ZM33.02,60.04v-14.55h-10.72v5.68h3.87v4c-1.09.23-2.09.34-3.01.34-2.01,0-3.53-.77-4.56-2.3-1.03-1.53-1.55-3.61-1.55-6.22s.5-4.84,1.51-6.33c1-1.49,2.41-2.24,4.22-2.24,1.09,0,2.02.25,2.8.75.78.5,1.56,1.38,2.37,2.65l5.12-4c-1.35-2.04-2.88-3.52-4.58-4.45-1.71-.93-3.77-1.4-6.18-1.4-2.64,0-4.92.6-6.84,1.81-1.92,1.2-3.4,2.93-4.43,5.16-1.03,2.24-1.55,4.89-1.55,7.96s.52,5.68,1.57,7.92c1.05,2.24,2.54,3.97,4.48,5.19,1.94,1.22,4.24,1.83,6.91,1.83,4.22,0,7.75-.6,10.59-1.81"/>
  <path class="cls-1" d="M113.93,2.74l-1.78-2.74-5.87,4.33,1.23,1.81,6.42-3.39ZM111.71,7.94h-4.04v15.65h4.04V7.94ZM103.96,23.59v-9.84c0-2.02-.46-3.56-1.39-4.62-.93-1.05-2.31-1.58-4.16-1.58-.88,0-1.7.15-2.47.45-.76.3-1.45.71-2.05,1.23l-.19-1.29h-3.58v15.65h4.04v-11.52c.45-.36.95-.67,1.48-.92.54-.25,1.08-.37,1.61-.37.92,0,1.6.29,2.03.86.43.57.65,1.38.65,2.44v9.52h4.03ZM79.72,20.72c-1.08,0-1.92-.44-2.53-1.32-.61-.88-.92-2.11-.92-3.68s.36-2.74,1.07-3.63,1.66-1.34,2.84-1.34c.69,0,1.4.18,2.13.55v8.33c-.75.73-1.61,1.1-2.58,1.1M82.53,22.34l.23,1.26h3.58V2.07h-4.03v6c-.39-.15-.84-.27-1.36-.37-.52-.1-1.08-.15-1.68-.15-1.38,0-2.59.34-3.65,1.03s-1.88,1.64-2.47,2.86c-.59,1.22-.89,2.63-.89,4.24s.27,3.07.82,4.31c.55,1.24,1.32,2.2,2.31,2.89.99.69,2.13,1.03,3.42,1.03,1.57,0,2.81-.53,3.71-1.58M63.36,10.46c.86,0,1.56.3,2.1.9.54.6.84,1.43.9,2.49h-6.13c.34-2.26,1.39-3.39,3.13-3.39M66.97,23.4c1.03-.34,1.92-.85,2.65-1.52l-1.19-2.97c-.71.65-1.4,1.11-2.07,1.39-.67.28-1.4.42-2.19.42-1.27,0-2.23-.34-2.87-1.03-.65-.69-1.02-1.79-1.13-3.29h10.1c0-2.82-.6-5-1.81-6.53-1.21-1.54-2.91-2.31-5.1-2.31-1.38,0-2.61.33-3.69.98-1.09.66-1.94,1.59-2.55,2.81-.61,1.22-.92,2.68-.92,4.41,0,2.54.66,4.54,1.97,5.99,1.31,1.45,3.13,2.18,5.46,2.18,1.2,0,2.32-.17,3.36-.52M53.77,23.71c.58-.14,1.02-.28,1.32-.44l-.61-2.94c-.5.22-.93.32-1.29.32-.43,0-.73-.13-.9-.39-.17-.26-.26-.66-.26-1.2V2.07h-4.04v17.33c0,1.59.32,2.74.97,3.45.65.71,1.65,1.07,3,1.07.62,0,1.23-.07,1.81-.21M43.51,22.61c1.1-.87,1.65-2.07,1.65-3.6,0-1.27-.37-2.28-1.11-3.03-.74-.75-2.03-1.4-3.86-1.94-.86-.28-1.52-.52-1.97-.71-.45-.19-.76-.4-.92-.61-.16-.21-.24-.48-.24-.81,0-.97.73-1.45,2.19-1.45.69,0,1.41.14,2.18.43.76.29,1.45.68,2.05,1.18l1.35-2.68c-.71-.58-1.56-1.03-2.57-1.36-1-.32-2.05-.48-3.15-.48-1.79,0-3.22.42-4.29,1.28-1.08.85-1.61,2-1.61,3.44,0,1.25.37,2.23,1.11,2.94.74.71,2.06,1.36,3.95,1.94,1.27.41,2.1.75,2.49,1.02.39.27.58.65.58,1.15,0,1.1-.78,1.65-2.36,1.65-.77,0-1.6-.16-2.49-.48-.88-.32-1.66-.75-2.32-1.29l-1.29,2.94c.65.54,1.54.97,2.69,1.31,1.15.33,2.29.5,3.4.5,1.92,0,3.42-.44,4.52-1.31M21.37,19.37c-.62-.9-.94-2.13-.94-3.68s.31-2.7.92-3.6c.61-.89,1.45-1.34,2.5-1.34s1.89.45,2.5,1.34.92,2.09.92,3.6-.31,2.78-.94,3.68c-.62.9-1.45,1.36-2.49,1.36s-1.86-.45-2.49-1.36M27.74,22.88c1.11-.69,1.97-1.65,2.6-2.89.62-1.24.94-2.67.94-4.31s-.31-3.06-.94-4.28-1.49-2.16-2.6-2.84c-1.11-.68-2.4-1.02-3.89-1.02s-2.76.34-3.87,1.02c-1.12.68-1.99,1.62-2.61,2.84s-.94,2.64-.94,4.28.31,3.07.94,4.31c.62,1.24,1.49,2.2,2.61,2.89,1.12.69,2.41,1.03,3.87,1.03s2.78-.34,3.89-1.03M4.1,5.71h3.07c2.35,0,3.52,1.09,3.52,3.26,0,1.05-.31,1.86-.92,2.42-.61.56-1.49.84-2.63.84h-3.03v-6.52ZM4.1,23.59v-7.75h3.16c2.47,0,4.36-.6,5.66-1.79,1.3-1.19,1.95-2.9,1.95-5.11s-.66-3.94-1.97-5.12c-1.31-1.17-3.22-1.76-5.71-1.76H0v21.53h4.1Z"/>
</svg>