<?xml version="1.0" encoding="UTF-8"?>
<svg id="Layer_1" data-name="Layer 1" xmlns="http://www.w3.org/2000/svg" viewBox="0 0 126 85.04">
  <defs>
    <style>
      .cls-1 {
        fill: #e60000;
      }
    </style>
  </defs>
  <path class="cls-1" d="M0,1.9h3.53v15.29h7.94v3.09H0V1.9Z"/>
  <path class="cls-1" d="M13.4,3.25c0-.53.17-.97.52-1.32s.83-.52,1.43-.52,1.08.17,1.43.51c.35.34.52.79.52,1.34s-.17,1-.52,1.35-.83.52-1.43.52-1.08-.17-1.43-.51c-.35-.34-.52-.79-.52-1.36ZM13.62,6.92h3.44v13.37h-3.44V6.92Z"/>
  <path class="cls-1" d="M20.5,6.92h3.06l.17,1.07c.48-.39,1.04-.72,1.69-.99.65-.28,1.35-.41,2.08-.41.85,0,1.55.14,2.12.43.57.29,1.03.68,1.38,1.17.55-.46,1.19-.84,1.93-1.14.74-.3,1.51-.45,2.32-.45,1.69,0,2.9.47,3.62,1.42.73.95,1.09,2.35,1.09,4.2v8.07h-3.44v-8.29c0-.86-.16-1.53-.48-2.01-.32-.48-.88-.72-1.67-.72-.46,0-.92.11-1.38.33-.46.22-.85.46-1.16.72.09.57.14,1.19.14,1.87v8.1h-3.44v-8.29c0-.81-.14-1.47-.43-1.97-.29-.5-.81-.76-1.58-.76-.44,0-.89.12-1.34.34s-.86.49-1.23.79v9.89h-3.44V6.92Z"/>
  <path class="cls-1" d="M43.05,3.25c0-.53.17-.97.52-1.32s.83-.52,1.43-.52,1.08.17,1.43.51c.35.34.52.79.52,1.34s-.17,1-.52,1.35-.83.52-1.43.52-1.08-.17-1.43-.51c-.35-.34-.52-.79-.52-1.36ZM43.27,6.92h3.44v13.37h-3.44V6.92Z"/>
  <path class="cls-1" d="M50.8,17v-7.47h-1.98v-2.62h1.98v-3.44h3.44v3.44h3.11v2.62h-3.11v7c0,.94.38,1.41,1.13,1.41.51,0,1.08-.23,1.71-.69l.83,2.31c-.48.35-1.02.61-1.61.77-.6.17-1.21.25-1.83.25-2.44,0-3.67-1.19-3.67-3.58Z"/>
  <path class="cls-1" d="M59.03,13.54c0-1.39.27-2.6.8-3.65.53-1.05,1.28-1.86,2.23-2.44.95-.58,2.06-.87,3.32-.87s2.36.29,3.31.88c.95.59,1.68,1.4,2.22,2.45.53,1.05.8,2.26.8,3.65s-.27,2.6-.8,3.65c-.53,1.05-1.28,1.87-2.23,2.47-.95.6-2.06.9-3.31.9s-2.35-.3-3.31-.9c-.96-.6-1.7-1.42-2.23-2.48s-.8-2.28-.8-3.67ZM62.45,13.53c0,1.34.27,2.41.81,3.21s1.25,1.2,2.12,1.2,1.57-.4,2.11-1.19c.53-.79.8-1.85.8-3.18s-.26-2.39-.79-3.17-1.23-1.17-2.12-1.17-1.6.39-2.14,1.17c-.53.78-.8,1.82-.8,3.13Z"/>
  <path class="cls-1" d="M79.14,16.84l3.11-9.92h3.5l-4.96,13.37h-3.47l-4.79-13.37h3.72l2.89,9.92Z"/>
  <path class="cls-1" d="M86.68,16.51c0-1.45.65-2.59,1.94-3.42,1.29-.83,3.15-1.28,5.55-1.35,0-.92-.19-1.57-.58-1.96-.39-.39-.95-.58-1.68-.58-1.14,0-2.31.41-3.53,1.24l-.94-2.23c.59-.42,1.29-.8,2.12-1.13.83-.33,1.77-.5,2.84-.5,1.6,0,2.85.42,3.75,1.27.9.85,1.35,2.2,1.35,4.08v8.35h-3.06l-.14-1.16c-.42.44-.94.79-1.54,1.06-.61.27-1.25.4-1.93.4-1.18,0-2.16-.36-2.96-1.09-.8-.73-1.2-1.72-1.2-2.99ZM89.82,16.31c0,.64.21,1.11.63,1.41.42.29.86.44,1.32.44s.89-.1,1.3-.29c.4-.19.77-.45,1.1-.76v-3.28c-1.56.07-2.68.3-3.35.69-.67.39-1.01.98-1.01,1.79Z"/>
  <path class="cls-1" d="M109.24,11.96c0-1.82-.76-2.73-2.29-2.73-.48,0-.95.1-1.4.3-.46.2-.87.46-1.24.77v9.98h-3.44V6.92h3.06l.17,1.07c.5-.42,1.08-.76,1.75-1.02.67-.26,1.39-.39,2.16-.39,1.64,0,2.82.44,3.57,1.31.74.87,1.12,2.15,1.12,3.84v8.54h-3.44v-8.32Z"/>
  <path class="cls-1" d="M115.17,16.51c0-1.45.65-2.59,1.94-3.42,1.29-.83,3.15-1.28,5.55-1.35,0-.92-.19-1.57-.58-1.96-.39-.39-.95-.58-1.68-.58-1.14,0-2.31.41-3.53,1.24l-.94-2.23c.59-.42,1.29-.8,2.12-1.13.83-.33,1.77-.5,2.84-.5,1.6,0,2.85.42,3.75,1.27.9.85,1.35,2.2,1.35,4.08v8.35h-3.06l-.14-1.16c-.42.44-.94.79-1.54,1.06-.61.27-1.25.4-1.93.4-1.18,0-2.16-.36-2.96-1.09-.8-.73-1.2-1.72-1.2-2.99ZM124.65,2.34l-5.4,3.03-1.13-1.57,4.93-3.8,1.6,2.34ZM118.31,16.31c0,.64.21,1.11.63,1.41.42.29.86.44,1.32.44s.89-.1,1.3-.29c.4-.19.77-.45,1.1-.76v-3.28c-1.56.07-2.68.3-3.35.69-.67.39-1.01.98-1.01,1.79Z"/>
  <path class="cls-1" d="M17.55,43.48c0-2.9.51-5.42,1.53-7.55,1.02-2.12,2.45-3.77,4.3-4.92,1.84-1.16,3.99-1.74,6.44-1.74,2.31,0,4.29.46,5.93,1.37,1.64.92,2.93,2.22,3.87,3.91l-4.4,3.79c-.75-1.18-1.53-2.05-2.32-2.6-.79-.55-1.74-.83-2.84-.83-1.67,0-3.01.71-4.04,2.12-1.02,1.41-1.53,3.52-1.53,6.32s.57,4.83,1.69,6.25c1.13,1.43,2.6,2.14,4.4,2.14,1.1,0,2.11-.16,3.03-.48v-4.08h-3.67v-4.8h9.89v13.03c-1.24.59-2.7,1.05-4.38,1.37-1.68.32-3.38.48-5.1.48-4.22,0-7.41-1.16-9.56-3.49-2.15-2.33-3.23-5.76-3.23-10.31Z"/>
  <path class="cls-1" d="M44.67,29.8h6.9v26.91h-6.9v-26.91Z"/>
  <path class="cls-1" d="M55.85,43.48c0-2.9.51-5.42,1.53-7.55,1.02-2.12,2.45-3.77,4.3-4.92,1.84-1.16,3.99-1.74,6.44-1.74,2.31,0,4.29.46,5.93,1.37,1.64.92,2.93,2.22,3.87,3.91l-4.4,3.79c-.75-1.18-1.53-2.05-2.32-2.6-.79-.55-1.74-.83-2.84-.83-1.67,0-3.01.71-4.04,2.12-1.02,1.41-1.53,3.52-1.53,6.32s.57,4.83,1.69,6.25c1.13,1.43,2.6,2.14,4.4,2.14,1.1,0,2.11-.16,3.03-.48v-4.08h-3.67v-4.8h9.89v13.03c-1.24.59-2.7,1.05-4.38,1.37-1.68.32-3.38.48-5.1.48-4.22,0-7.41-1.16-9.56-3.49-2.15-2.33-3.23-5.76-3.23-10.31Z"/>
  <path class="cls-1" d="M87.63,56.71h-7.18l9.81-26.91h6.58l9.85,26.91h-7.38l-1.74-5.53h-8.23l-1.69,5.53ZM93.44,36.98l-2.62,9.16h5.21l-2.58-9.16Z"/>
  <path class="cls-1" d="M31.78,76.47c0-1.03-.22-1.83-.65-2.41-.43-.58-1.13-.87-2.11-.87-.61,0-1.19.13-1.76.4-.57.27-1.07.58-1.52.95v10.2h-2.48v-13.23h2.23l.14,1.05c.51-.39,1.11-.71,1.78-.98.67-.27,1.39-.4,2.16-.4,1.69,0,2.89.44,3.61,1.32s1.07,2.19,1.07,3.94v8.29h-2.48v-8.27Z"/>
  <path class="cls-1" d="M36.97,80.93c0-1.45.67-2.59,2-3.43,1.33-.84,3.18-1.28,5.55-1.34v-.08c0-1.05-.22-1.79-.65-2.23s-1.04-.66-1.83-.66c-1.21,0-2.4.44-3.55,1.32l-.74-1.76c.51-.4,1.14-.77,1.87-1.09.73-.32,1.64-.48,2.7-.48,1.47,0,2.61.4,3.43,1.19.82.79,1.23,2.09,1.23,3.88v8.49h-2.26l-.08-1.13c-.92.96-2.06,1.43-3.42,1.43-.73,0-1.43-.16-2.08-.47s-1.18-.78-1.57-1.39-.59-1.36-.59-2.25ZM39.34,80.9c0,.51.12.93.37,1.25.25.32.55.56.91.72.36.16.71.23,1.06.23.55,0,1.07-.12,1.54-.37.48-.25.91-.56,1.29-.92v-3.8c-1.87.09-3.21.36-4,.8-.79.44-1.19,1.14-1.19,2.09Z"/>
  <path class="cls-1" d="M50.6,66.35h2.48v5.51c.9-.44,1.86-.66,2.87-.66,1.74,0,3.14.62,4.17,1.86,1.04,1.24,1.56,2.93,1.56,5.06,0,1.36-.27,2.56-.8,3.61s-1.28,1.86-2.25,2.44c-.96.58-2.08.87-3.35.87-.81,0-1.62-.08-2.43-.25-.81-.16-1.56-.42-2.26-.77v-17.66ZM58.21,74.55c-.68-.89-1.58-1.34-2.7-1.34-.88,0-1.69.24-2.43.72v8.68c.64.28,1.3.41,1.98.41,1.29,0,2.3-.44,3.04-1.32.74-.88,1.12-2.09,1.12-3.61s-.34-2.65-1.02-3.54Z"/>
  <path class="cls-1" d="M69.2,66.49l-4.96,3.28-1.05-1.21,4.58-3.8,1.43,1.74ZM64.63,71.51h2.48v13.23h-2.48v-13.23Z"/>
  <path class="cls-1" d="M70.11,78.04c0-1.36.26-2.55.77-3.58.51-1.03,1.22-1.83,2.12-2.41.9-.58,1.93-.87,3.09-.87.61,0,1.13.05,1.57.15.44.1.82.22,1.13.34v-5.32h2.48v18.38h-2.26l-.17-1.07c-.83.92-1.9,1.38-3.22,1.38-1.1,0-2.07-.29-2.89-.87-.83-.58-1.47-1.39-1.93-2.44-.46-1.05-.69-2.28-.69-3.69ZM72.57,78.12c0,1.54.31,2.75.94,3.61.62.86,1.5,1.29,2.62,1.29s1.97-.43,2.67-1.29v-7.94c-.33-.17-.69-.31-1.07-.43-.39-.12-.77-.18-1.16-.18-1.19,0-2.16.45-2.89,1.35-.73.9-1.1,2.09-1.1,3.58Z"/>
  <path class="cls-1" d="M87.45,84.73h-2.48v-18.38h2.48v9.95h1.19c.5,0,.93-.12,1.29-.37.37-.25.73-.77,1.07-1.56l1.24-2.87h2.65l-1.46,3.2c-.28.61-.56,1.11-.85,1.52-.29.4-.64.69-1.05.85.53.15.95.39,1.27.72.31.33.61.86.91,1.6l2.12,5.35h-2.73l-1.54-4c-.35-.85-.68-1.45-.99-1.82s-.85-.55-1.6-.55h-1.52v6.37Z"/>
  <path class="cls-1" d="M97.17,80.93c0-1.45.67-2.59,2-3.43,1.33-.84,3.18-1.28,5.55-1.34v-.08c0-1.05-.22-1.79-.65-2.23s-1.04-.66-1.83-.66c-1.21,0-2.4.44-3.55,1.32l-.74-1.76c.51-.4,1.14-.77,1.87-1.09.73-.32,1.64-.48,2.7-.48,1.47,0,2.61.4,3.43,1.19.82.79,1.23,2.09,1.23,3.88v8.49h-2.26l-.08-1.13c-.92.96-2.06,1.43-3.42,1.43-.73,0-1.43-.16-2.08-.47s-1.18-.78-1.57-1.39-.59-1.36-.59-2.25ZM99.54,80.9c0,.51.12.93.37,1.25.25.32.55.56.91.72.36.16.71.23,1.06.23.55,0,1.07-.12,1.54-.37.48-.25.91-.56,1.29-.92v-3.8c-1.87.09-3.21.36-4,.8-.79.44-1.19,1.14-1.19,2.09Z"/>
</svg>