<?xml version="1.0" encoding="UTF-8"?>
<svg id="Layer_1" data-name="Layer 1" xmlns="http://www.w3.org/2000/svg" viewBox="0 0 130 70.59">
  <defs>
    <style>
      .cls-1 {
        fill: #fff;
      }
    </style>
  </defs>
  <path class="cls-1" d="M.92,1.81h3.39l6.75,11.19V1.81h3.28v17.52h-2.89L4.2,7.35v11.98H.92V1.81Z"/>
  <path class="cls-1" d="M17.29,12.95c0-1.4.25-2.6.75-3.59.5-.99,1.19-1.75,2.08-2.28.88-.53,1.9-.8,3.03-.8,1.79,0,3.17.61,4.16,1.84.99,1.23,1.48,2.99,1.48,5.31h-8.35c.14,2.49,1.26,3.73,3.36,3.73.65,0,1.27-.12,1.88-.37.6-.24,1.15-.6,1.64-1.08l.92,2.28c-1.24,1.09-2.86,1.63-4.86,1.63-1.87,0-3.36-.59-4.45-1.77-1.09-1.18-1.64-2.81-1.64-4.9ZM24.89,9.31c-.45-.48-1.03-.72-1.75-.72-1.45,0-2.33.92-2.63,2.76h5.2c-.11-.88-.38-1.55-.83-2.04Z"/>
  <path class="cls-1" d="M30.74,12.91c0-1.32.25-2.48.76-3.48.51-1,1.22-1.77,2.13-2.32.91-.55,1.97-.83,3.16-.83s2.25.28,3.15.84c.9.56,1.61,1.34,2.11,2.34s.76,2.16.76,3.48-.25,2.48-.76,3.48-1.22,1.78-2.13,2.35c-.91.57-1.96.85-3.15.85s-2.24-.29-3.15-.85c-.91-.57-1.62-1.36-2.13-2.36-.51-1.01-.76-2.17-.76-3.49ZM34,12.9c0,1.28.26,2.3.78,3.06.52.76,1.19,1.14,2.02,1.14s1.5-.38,2.01-1.13c.51-.75.76-1.76.76-3.03s-.25-2.28-.75-3.02c-.5-.74-1.17-1.12-2.02-1.12s-1.53.37-2.04,1.12c-.51.75-.76,1.74-.76,2.98Z"/>
  <path class="cls-1" d="M45.45,6.59h2.92l.16,1.02c.45-.37.99-.68,1.61-.95s1.28-.39,1.98-.39c.8,0,1.48.14,2.02.41.54.27.98.64,1.31,1.12.53-.44,1.14-.8,1.84-1.09s1.44-.43,2.21-.43c1.61,0,2.76.45,3.45,1.35s1.04,2.24,1.04,4.01v7.7h-3.28v-7.91c0-.82-.15-1.46-.46-1.92s-.84-.68-1.59-.68c-.44,0-.88.11-1.31.32-.44.21-.81.44-1.1.68.09.54.13,1.14.13,1.79v7.72h-3.28v-7.91c0-.77-.14-1.4-.41-1.88-.27-.48-.77-.72-1.51-.72-.42,0-.85.11-1.27.33-.43.22-.82.47-1.17.75v9.43h-3.28V6.59Z"/>
  <path class="cls-1" d="M66.57,12.95c0-1.4.25-2.6.75-3.59.5-.99,1.19-1.75,2.08-2.28.88-.53,1.9-.8,3.03-.8,1.79,0,3.17.61,4.16,1.84.99,1.23,1.48,2.99,1.48,5.31h-8.35c.14,2.49,1.26,3.73,3.36,3.73.65,0,1.27-.12,1.88-.37.6-.24,1.15-.6,1.64-1.08l.92,2.28c-1.24,1.09-2.86,1.63-4.86,1.63-1.87,0-3.36-.59-4.45-1.77-1.09-1.18-1.64-2.81-1.64-4.9ZM74.18,9.31c-.45-.48-1.03-.72-1.75-.72-1.45,0-2.33.92-2.63,2.76h5.2c-.11-.88-.38-1.55-.83-2.04Z"/>
  <path class="cls-1" d="M79.74,16.89l6.75-7.8h-6.49v-2.5h10.11v2.6l-6.7,7.64h6.91v2.49h-10.59v-2.44Z"/>
  <path class="cls-1" d="M91.98,12.95c0-1.4.25-2.6.75-3.59.5-.99,1.19-1.75,2.08-2.28.88-.53,1.9-.8,3.03-.8,1.79,0,3.17.61,4.16,1.84.99,1.23,1.48,2.99,1.48,5.31h-8.35c.14,2.49,1.26,3.73,3.36,3.73.65,0,1.27-.12,1.88-.37.6-.24,1.15-.6,1.64-1.08l.92,2.28c-1.24,1.09-2.86,1.63-4.86,1.63-1.87,0-3.36-.59-4.45-1.77-1.09-1.18-1.64-2.81-1.64-4.9ZM99.59,9.31c-.45-.48-1.03-.72-1.75-.72-1.45,0-2.33.92-2.63,2.76h5.2c-.11-.88-.38-1.55-.83-2.04Z"/>
  <path class="cls-1" d="M114.02,11.4c0-1.73-.73-2.6-2.18-2.6-.46,0-.9.1-1.34.29-.44.19-.83.44-1.18.74v9.51h-3.28V6.59h2.92l.16,1.02c.47-.4,1.03-.73,1.67-.97.64-.24,1.33-.37,2.06-.37,1.56,0,2.69.42,3.4,1.25.71.83,1.06,2.05,1.06,3.66v8.14h-3.28v-7.93Z"/>
  <path class="cls-1" d="M119.68,15.73c0-1.38.62-2.47,1.85-3.26,1.23-.79,3-1.22,5.29-1.29,0-.88-.18-1.5-.55-1.87-.37-.37-.9-.55-1.6-.55-1.09,0-2.21.39-3.36,1.18l-.89-2.13c.56-.4,1.23-.76,2.02-1.08s1.69-.47,2.71-.47c1.52,0,2.71.4,3.57,1.21.86.81,1.29,2.1,1.29,3.89v7.96h-2.92l-.13-1.1c-.4.42-.89.76-1.47,1.01-.58.25-1.19.38-1.84.38-1.12,0-2.06-.35-2.82-1.04-.76-.69-1.14-1.64-1.14-2.85ZM128.71,2.23l-5.15,2.89-1.08-1.5,4.7-3.62,1.52,2.23ZM122.67,15.55c0,.61.2,1.06.6,1.34.4.28.82.42,1.26.42s.85-.09,1.23-.28c.38-.18.74-.42,1.05-.72v-3.13c-1.49.07-2.55.29-3.19.66-.64.37-.96.94-.96,1.71Z"/>
  <path class="cls-1" d="M0,38.42c0-1.34.24-2.51.74-3.51s1.17-1.78,2.04-2.34c.87-.56,1.86-.84,2.98-.84.53,0,.98.04,1.38.12s.74.18,1.04.3v-4.89h3.28v17.52h-2.94l-.16-.97c-.75.84-1.79,1.26-3.1,1.26-1.05,0-1.97-.27-2.76-.81s-1.4-1.32-1.84-2.32c-.44-1.01-.66-2.18-.66-3.52ZM8.17,34.73c-.25-.14-.52-.25-.81-.34-.3-.09-.6-.13-.89-.13-.98,0-1.76.37-2.34,1.1-.58.74-.87,1.75-.87,3.05s.25,2.38.75,3.09c.5.71,1.2,1.06,2.11,1.06.8,0,1.49-.3,2.05-.89v-6.93Z"/>
  <path class="cls-1" d="M13.88,41.19c0-1.38.62-2.47,1.85-3.26,1.23-.79,3-1.22,5.29-1.29,0-.88-.18-1.5-.55-1.87-.37-.37-.9-.55-1.6-.55-1.09,0-2.21.39-3.36,1.18l-.89-2.13c.56-.4,1.23-.76,2.02-1.08s1.69-.47,2.71-.47c1.52,0,2.71.4,3.57,1.21.86.81,1.29,2.1,1.29,3.89v7.96h-2.92l-.13-1.1c-.4.42-.89.76-1.47,1.01-.58.25-1.19.38-1.84.38-1.12,0-2.06-.35-2.82-1.04-.76-.69-1.14-1.64-1.14-2.85ZM16.88,41.01c0,.61.2,1.06.6,1.34.4.28.82.42,1.26.42s.85-.09,1.23-.28c.38-.18.74-.42,1.05-.72v-3.13c-1.49.07-2.55.29-3.19.66-.64.37-.96.94-.96,1.71Z"/>
  <path class="cls-1" d="M27.97,41.66v-7.12h-1.89v-2.5h1.89v-3.28h3.28v3.28h2.97v2.5h-2.97v6.67c0,.89.36,1.34,1.08,1.34.49,0,1.03-.22,1.63-.66l.79,2.21c-.46.33-.97.58-1.54.74s-1.15.24-1.75.24c-2.33,0-3.49-1.14-3.49-3.41Z"/>
  <path class="cls-1" d="M35.97,41.19c0-1.38.62-2.47,1.85-3.26,1.23-.79,3-1.22,5.29-1.29,0-.88-.18-1.5-.55-1.87-.37-.37-.9-.55-1.6-.55-1.09,0-2.21.39-3.36,1.18l-.89-2.13c.56-.4,1.23-.76,2.02-1.08s1.69-.47,2.71-.47c1.52,0,2.71.4,3.57,1.21.86.81,1.29,2.1,1.29,3.89v7.96h-2.92l-.13-1.1c-.4.42-.89.76-1.47,1.01-.58.25-1.19.38-1.84.38-1.12,0-2.06-.35-2.82-1.04-.76-.69-1.14-1.64-1.14-2.85ZM38.97,41.01c0,.61.2,1.06.6,1.34.4.28.82.42,1.26.42s.85-.09,1.23-.28c.38-.18.74-.42,1.05-.72v-3.13c-1.49.07-2.55.29-3.19.66-.64.37-.96.94-.96,1.71Z"/>
  <path class="cls-1" d="M49.15,43.21c0-.49.16-.93.47-1.33s.78-.59,1.38-.59,1.08.22,1.42.66c.34.44.51.99.51,1.65s-.13,1.24-.39,1.84c-.26.6-.61,1.13-1.04,1.6-.43.47-.88.85-1.35,1.13l-.87-1.18c.33-.25.64-.54.93-.89.29-.35.47-.69.54-1.02-.44-.05-.81-.24-1.13-.56s-.47-.76-.47-1.3Z"/>
  <path class="cls-1" d="M64.94,41.51l2.97-9.46h3.34l-4.73,12.74h-3.31l-4.57-12.74h3.55l2.76,9.46Z"/>
  <path class="cls-1" d="M72,38.37c0-1.32.25-2.48.76-3.48.51-1,1.22-1.77,2.13-2.32.91-.55,1.97-.83,3.16-.83s2.25.28,3.15.84c.9.56,1.61,1.34,2.11,2.34s.76,2.16.76,3.48-.25,2.48-.76,3.48-1.22,1.78-2.13,2.35c-.91.57-1.96.85-3.15.85s-2.24-.29-3.15-.85c-.91-.57-1.62-1.36-2.13-2.36-.51-1.01-.76-2.17-.76-3.49ZM75.25,38.35c0,1.28.26,2.3.78,3.06.52.76,1.19,1.14,2.02,1.14s1.5-.38,2.01-1.13c.51-.75.76-1.76.76-3.03s-.25-2.28-.75-3.02c-.5-.74-1.17-1.12-2.02-1.12s-1.53.37-2.04,1.12c-.51.75-.76,1.74-.76,2.98Z"/>
  <path class="cls-1" d="M86.71,41.24v-13.97h3.28v13.95c0,.86.32,1.29.95,1.29.32,0,.67-.1,1.08-.29l.5,2.28c-.32.18-.71.31-1.18.41-.47.1-.93.14-1.37.14-1.12,0-1.94-.29-2.47-.87-.53-.58-.79-1.56-.79-2.94Z"/>
  <path class="cls-1" d="M93.82,41.19c0-1.38.62-2.47,1.85-3.26,1.23-.79,3-1.22,5.29-1.29,0-.88-.18-1.5-.55-1.87-.37-.37-.9-.55-1.6-.55-1.09,0-2.21.39-3.36,1.18l-.89-2.13c.56-.4,1.23-.76,2.02-1.08s1.69-.47,2.71-.47c1.52,0,2.71.4,3.57,1.21.86.81,1.29,2.1,1.29,3.89v7.96h-2.92l-.13-1.1c-.4.42-.89.76-1.47,1.01-.58.25-1.19.38-1.84.38-1.12,0-2.06-.35-2.82-1.04-.76-.69-1.14-1.64-1.14-2.85ZM102.86,27.69l-5.15,2.89-1.08-1.5,4.7-3.62,1.52,2.23ZM96.82,41.01c0,.61.2,1.06.6,1.34.4.28.82.42,1.26.42s.85-.09,1.23-.28c.38-.18.74-.42,1.05-.72v-3.13c-1.49.07-2.55.29-3.19.66-.64.37-.96.94-.96,1.71Z"/>
  <path class="cls-1" d="M115.32,36.86c0-1.73-.73-2.6-2.18-2.6-.46,0-.9.1-1.34.29-.44.19-.83.44-1.18.74v9.51h-3.28v-12.74h2.92l.16,1.02c.47-.4,1.03-.73,1.67-.97.64-.24,1.33-.37,2.06-.37,1.56,0,2.69.42,3.4,1.25.71.83,1.06,2.05,1.06,3.66v8.14h-3.28v-7.93Z"/>
  <path class="cls-1" d="M126.82,27.69l-5.15,2.89-1.08-1.5,4.7-3.62,1.52,2.23ZM121.81,32.05h3.28v12.74h-3.28v-12.74Z"/>
  <path class="cls-1" d="M.39,54.01c0-.51.17-.93.5-1.26s.79-.5,1.37-.5,1.03.16,1.37.49c.33.32.5.75.5,1.27s-.17.95-.5,1.29-.79.5-1.37.5-1.03-.16-1.37-.49c-.33-.32-.5-.76-.5-1.3ZM.6,57.5h3.28v12.74H.6v-12.74Z"/>
  <path class="cls-1" d="M19.73,65.54c0-.56-.18-1.04-.55-1.43-.37-.39-1.01-.76-1.92-1.09l-1.92-.74c-1.31-.46-2.31-1.09-2.99-1.89-.68-.8-1.02-1.8-1.02-2.99,0-1,.24-1.87.72-2.63.48-.75,1.16-1.34,2.05-1.76.88-.42,1.93-.63,3.13-.63s2.31.21,3.32.64,1.86,1.02,2.52,1.77l-1.58,2.29c-1.3-1.3-2.74-1.94-4.33-1.94s-2.44.67-2.44,2c0,.51.15.94.46,1.29s.89.69,1.75,1.02l1.92.74c1.49.54,2.57,1.22,3.26,2.02.68.81,1.02,1.8,1.02,2.99,0,1.68-.56,3-1.67,3.95s-2.66,1.43-4.64,1.43c-1.09,0-2.16-.16-3.23-.47-1.07-.32-1.94-.76-2.6-1.34l1.21-2.73c1.52,1.17,3.08,1.76,4.68,1.76.91,0,1.61-.2,2.11-.6.5-.4.75-.95.75-1.66Z"/>
  <path class="cls-1" d="M39.33,58.21l-3.99,12.21h-2.31l-3.89-11.82-.55,11.64h-3.02l.89-17.52h3.62l4.2,12.87,4.26-12.87h3.57l.84,17.52h-3.1l-.53-12.03Z"/>
  <path class="cls-1" d="M54.02,65.54c0-.56-.18-1.04-.55-1.43-.37-.39-1.01-.76-1.92-1.09l-1.92-.74c-1.31-.46-2.31-1.09-2.99-1.89-.68-.8-1.02-1.8-1.02-2.99,0-1,.24-1.87.72-2.63.48-.75,1.16-1.34,2.05-1.76.88-.42,1.93-.63,3.13-.63s2.31.21,3.32.64,1.86,1.02,2.52,1.77l-1.58,2.29c-1.3-1.3-2.74-1.94-4.33-1.94s-2.44.67-2.44,2c0,.51.15.94.46,1.29s.89.69,1.75,1.02l1.92.74c1.49.54,2.57,1.22,3.26,2.02.68.81,1.02,1.8,1.02,2.99,0,1.68-.56,3-1.67,3.95s-2.66,1.43-4.64,1.43c-1.09,0-2.16-.16-3.23-.47-1.07-.32-1.94-.76-2.6-1.34l1.21-2.73c1.52,1.17,3.08,1.76,4.68,1.76.91,0,1.61-.2,2.11-.6.5-.4.75-.95.75-1.66Z"/>
</svg>