<?xml version="1.0" encoding="UTF-8"?>
<svg id="Layer_1" data-name="Layer 1" xmlns="http://www.w3.org/2000/svg" viewBox="0 0 109.79 109.79">
  <defs>
    <style>
      .cls-1 {
        fill: #e40000;
      }

      .cls-2 {
        fill: #fff;
      }
    </style>
  </defs>
  <path class="cls-2" d="M109.79,54.9c0,30.32-24.58,54.9-54.9,54.9S0,85.22,0,54.9,24.58,0,54.9,0s54.9,24.58,54.9,54.9"/>
  <polygon class="cls-1" points="31.98 44.29 28.98 37.04 30.94 37.04 32.82 41.85 34.63 37.04 36.51 37.04 33.59 44.29 31.98 44.29"/>
  <g>
    <path class="cls-1" d="M44.43,37.04c-.37,1.45-.76,2.79-1.18,4-.42,1.21-.83,2.23-1.24,3.07-.19.38-.38.75-.59,1.11-.2.36-.47.68-.8.97-.33.29-.74.52-1.24.69-.5.17-1.13.27-1.9.28l-.16-1.67c.18,0,.38-.01.61-.03.23-.02.45-.06.68-.12.22-.06.43-.14.63-.25.2-.11.36-.25.49-.43.04-.05.07-.1.1-.15.03-.05.06-.12.1-.2l-2.95-7.27h1.98l1.99,5.56c.15-.36.3-.77.45-1.22.15-.45.29-.92.43-1.4.14-.49.27-.98.4-1.48.13-.5.25-.99.36-1.46h1.82Z"/>
    <path class="cls-1" d="M49.96,40.58c0-.71-.18-1.25-.54-1.6-.36-.36-.79-.53-1.31-.53-.28,0-.58.05-.91.16v4.13c.13.03.26.06.39.09.13.03.26.05.38.05.59,0,1.06-.2,1.43-.59.37-.39.55-.96.55-1.71M51.76,40.53c0,.7-.1,1.3-.3,1.8-.2.5-.47.9-.8,1.22-.34.32-.73.55-1.18.69-.45.15-.93.22-1.42.22-.47,0-.92-.05-1.37-.17-.45-.11-.89-.26-1.33-.45v-9.57h1.85v2.76c.2-.05.39-.09.57-.12.18-.03.39-.04.63-.04.57,0,1.06.1,1.48.32.42.21.77.49,1.04.83.27.35.48.74.62,1.17.14.44.21.88.21,1.35"/>
    <path class="cls-1" d="M57.23,38.62c-.08-.02-.17-.04-.28-.05-.11,0-.22-.01-.34-.01-.35,0-.66.09-.94.28-.28.19-.51.38-.7.58v4.87h-1.85v-7.24h1.68l.12.77c.08-.1.18-.21.31-.32.12-.11.27-.21.42-.3.16-.09.33-.16.5-.22.17-.05.36-.08.54-.08.17,0,.33.01.49.04.16.03.26.05.31.07l-.27,1.62Z"/>
    <path class="cls-1" d="M61.95,40.91c-.2,0-.4.03-.61.05-.21.03-.41.06-.59.1-.4.08-.67.22-.83.41s-.23.41-.23.64.09.43.26.58c.17.15.42.22.74.22.24,0,.47-.05.69-.15.22-.1.42-.23.57-.38v-1.47ZM62.1,44.29l-.07-.54c-.2.22-.45.39-.76.52-.31.12-.64.19-1.01.19-.31,0-.6-.05-.89-.16-.28-.1-.53-.25-.75-.45-.22-.2-.39-.44-.53-.72-.13-.29-.2-.61-.2-.97s.07-.68.21-.95c.14-.28.33-.51.57-.7.24-.19.51-.35.82-.47.31-.12.63-.21.97-.27.24-.05.5-.09.78-.11.28-.02.52-.05.71-.07v-.1c0-.4-.1-.69-.31-.86-.2-.17-.48-.26-.84-.26-.21,0-.41.02-.6.08-.19.05-.36.11-.51.19-.15.07-.28.15-.39.23-.11.08-.21.14-.28.2l-.61-1.31c.08-.07.2-.15.37-.26.16-.1.36-.2.59-.29.23-.1.5-.18.79-.24s.61-.1.94-.1c.4,0,.76.05,1.09.16.33.11.61.27.85.5.24.23.42.51.56.86.13.35.2.76.2,1.26v4.66h-1.7Z"/>
    <path class="cls-1" d="M70.08,44.29v-4.13c0-.55-.11-.98-.34-1.28-.23-.3-.54-.45-.95-.45-.29,0-.55.08-.8.23-.24.15-.45.31-.63.5v5.14h-1.85v-7.24h1.68l.09.57c.29-.24.61-.43.97-.56.36-.13.73-.19,1.09-.19s.72.06,1.04.17c.32.12.59.3.82.55.23.25.4.58.53.98.12.4.19.88.19,1.44v4.28h-1.85Z"/>
    <path class="cls-1" d="M75.4,36.2l-.49-.81,2.84-2.12.88,1.25-3.23,1.68ZM79.95,37.04c-.37,1.45-.76,2.79-1.18,4-.42,1.21-.83,2.23-1.24,3.07-.19.38-.38.75-.59,1.11-.2.36-.47.68-.8.97-.33.29-.74.52-1.24.69-.5.17-1.13.27-1.9.28l-.16-1.67c.18,0,.38-.01.61-.03.23-.02.45-.06.68-.12.22-.06.43-.14.63-.25.2-.11.36-.25.49-.43.04-.05.07-.1.1-.15s.06-.12.1-.2l-2.95-7.27h1.98l1.99,5.56c.15-.36.3-.77.45-1.22.15-.45.29-.92.43-1.4.14-.49.27-.98.4-1.48.13-.5.25-.99.36-1.46h1.82Z"/>
    <path class="cls-1" d="M89.7,44.29v-4.25c0-.48-.09-.87-.27-1.16-.18-.3-.51-.44-1-.44-.14,0-.28.02-.42.07-.14.05-.28.1-.41.16-.13.06-.24.12-.34.19s-.18.12-.24.17c.02.12.04.26.06.4.02.15.03.32.03.5v4.37h-1.85v-4.25c0-.22-.02-.43-.05-.62-.03-.2-.1-.37-.19-.51-.09-.15-.21-.26-.35-.35-.15-.08-.33-.13-.54-.13-.28,0-.54.08-.79.23-.25.15-.46.31-.62.48v5.15h-1.85v-7.24h1.7l.07.54c.22-.2.49-.37.81-.51.32-.14.65-.21.97-.21s.67.05,1,.16c.33.11.64.29.93.55.33-.2.69-.37,1.08-.5.39-.14.81-.2,1.26-.2.54,0,.98.07,1.35.21.36.14.65.34.87.6.22.26.37.58.47.96.09.38.14.82.14,1.31v4.34h-1.83Z"/>
    <path class="cls-1" d="M14.94,71.34c-1.27,0-2.21-.36-2.83-1.08-.62-.72-.92-1.59-.92-2.62v-8.12h-2.02v-3.01h2.02v-3.76h3.66v3.76h3.3v3.01h-3.3v7.36c0,.46.11.78.33.96.22.18.48.27.77.27.73,0,1.37-.21,1.9-.63l.95,2.68c-.46.34-1.03.62-1.71.84-.69.22-1.41.33-2.16.33"/>
    <path class="cls-1" d="M28.02,64.24c-.4.02-.8.06-1.22.11-.42.05-.81.11-1.19.19-.79.16-1.35.44-1.65.83-.31.39-.46.82-.46,1.28s.17.87.52,1.16c.35.29.84.43,1.47.43.48,0,.94-.1,1.38-.3.45-.2.83-.45,1.15-.75v-2.95ZM28.31,71.01l-.15-1.08c-.4.44-.9.79-1.52,1.04-.62.25-1.29.38-2.02.38-.62,0-1.21-.11-1.77-.32-.57-.21-1.07-.51-1.5-.9-.44-.39-.79-.87-1.06-1.44-.27-.57-.4-1.22-.4-1.94s.14-1.36.42-1.91c.28-.55.66-1.02,1.13-1.4.48-.38,1.02-.69,1.64-.93.61-.24,1.26-.42,1.93-.54.48-.1,1-.17,1.56-.23.57-.05,1.04-.1,1.41-.14v-.21c0-.8-.2-1.37-.61-1.71-.41-.34-.97-.51-1.68-.51-.42,0-.81.05-1.19.15-.38.1-.71.23-1.01.38-.3.15-.56.3-.79.45-.23.15-.41.29-.55.41l-1.22-2.61c.16-.14.4-.31.73-.51.33-.2.72-.4,1.19-.59.47-.19.99-.35,1.58-.48.59-.13,1.22-.2,1.89-.2.79,0,1.52.11,2.17.32.65.21,1.22.54,1.7.99.48.45.85,1.02,1.12,1.71.27.69.4,1.53.4,2.51v9.32h-3.39Z"/>
    <path class="cls-1" d="M43.2,59.68c-.16-.04-.35-.07-.57-.09-.22-.02-.45-.03-.68-.03-.69,0-1.32.18-1.88.56-.56.37-1.02.76-1.4,1.16v9.74h-3.69v-14.49h3.36l.24,1.53c.16-.2.36-.41.61-.63.25-.22.53-.42.85-.6.32-.18.65-.33,1-.44.35-.11.71-.17,1.09-.17.34,0,.66.02.98.08.32.05.52.1.62.13l-.54,3.25Z"/>
    <path class="cls-1" d="M45.43,56.52h3.66v14.49h-3.66v-14.49ZM47.27,55.17c-.75,0-1.31-.22-1.68-.66-.37-.44-.55-.93-.55-1.47s.18-1,.55-1.44.93-.66,1.68-.66,1.28.22,1.65.66c.37.44.55.92.55,1.44s-.18,1.03-.55,1.47c-.37.44-.92.66-1.65.66"/>
    <path class="cls-1" d="M60.53,54.27c-.12-.06-.35-.14-.7-.26-.35-.11-.81-.16-1.38-.16-.52,0-.95.16-1.29.47-.35.31-.52.82-.52,1.52v.69h3.1v3.01h-3.06v11.48h-3.69v-11.48h-1.9v-3.01h1.9v-.78c0-.94.12-1.74.36-2.39.24-.65.57-1.18,1-1.59.43-.41.93-.71,1.5-.9.58-.19,1.2-.29,1.88-.29.89,0,1.63.09,2.22.26.58.17.93.28,1.03.35l-.42,3.1Z"/>
    <path class="cls-1" d="M69.51,51.83c0-.4-.11-.73-.31-.99-.21-.26-.5-.39-.88-.39-.36,0-.64.13-.85.39-.21.26-.31.59-.31.99s.1.73.31.99c.21.26.49.39.85.39.38,0,.67-.13.88-.39.21-.26.31-.59.31-.99M71.45,51.83c0,.4-.07.8-.19,1.19-.13.39-.32.74-.58,1.05-.26.31-.59.56-.98.75-.4.19-.85.29-1.37.29s-.97-.1-1.35-.29c-.39-.19-.71-.44-.97-.74-.26-.3-.45-.65-.58-1.04-.13-.39-.19-.79-.19-1.19s.06-.8.19-1.19c.13-.39.32-.74.58-1.05.26-.31.58-.56.97-.75.39-.19.84-.29,1.35-.29s.97.1,1.37.29c.4.19.72.44.98.74.26.3.45.65.58,1.04.13.39.19.79.19,1.19M66.87,71.31c-1.69,0-2.97-.51-3.84-1.53-.87-1.02-1.31-2.57-1.31-4.63v-8.63h3.69v8.24c0,1,.18,1.81.54,2.43.36.62.97.93,1.84.93.72,0,1.32-.14,1.82-.44.5-.29.89-.57,1.19-.83v-10.34h3.69v14.49h-3.39l-.12-1.14c-.65.56-1.33.94-2.04,1.14-.71.2-1.39.3-2.07.3"/>
    <path class="cls-1" d="M95.62,71.01v-8.51c0-.96-.18-1.74-.54-2.33-.36-.59-1.02-.89-1.99-.89-.28,0-.56.04-.85.13-.29.09-.56.2-.82.32-.26.12-.49.24-.68.38-.2.13-.36.25-.48.35.04.24.08.51.12.81.04.3.06.63.06.99v8.75h-3.69v-8.51c0-.44-.04-.86-.1-1.25-.07-.39-.19-.73-.37-1.02-.18-.29-.41-.52-.7-.69-.29-.17-.65-.26-1.09-.26-.56,0-1.08.15-1.58.45-.5.3-.91.62-1.25.96v10.31h-3.69v-14.49h3.39l.15,1.08c.44-.4.98-.74,1.62-1.02.64-.28,1.29-.42,1.95-.42s1.34.11,2.01.32c.66.21,1.28.58,1.86,1.1.65-.4,1.37-.74,2.16-1.01.78-.27,1.62-.41,2.51-.41,1.07,0,1.97.14,2.69.42.72.28,1.3.68,1.74,1.2.44.52.75,1.16.94,1.92.19.76.28,1.63.28,2.62v8.69h-3.66Z"/>
  </g>
  <path class="cls-1" d="M23.71,34.26h2.01l-1.56,3.5c-.14.3-.27.53-.4.69-.13.16-.29.3-.48.41.23.12.41.27.56.45.15.18.27.42.38.71l1.68,4.27h-2.07l-1.22-3.13c-.16-.4-.31-.7-.46-.89-.15-.19-.37-.29-.65-.29h-1.12v4.3h-1.9v-10.02h1.9v4.04h1c.19,0,.35-.05.49-.14.14-.1.28-.32.43-.67l1.41-3.23Z"/>
</svg>