<?xml version="1.0" encoding="UTF-8"?>
<svg id="Layer_1" data-name="Layer 1" xmlns="http://www.w3.org/2000/svg" viewBox="0 0 107 107">
  <defs>
    <style>
      .cls-1 {
        fill: #fff;
      }

      .cls-2 {
        fill: #e50000;
      }
    </style>
  </defs>
  <path class="cls-1" d="M53.5,107c29.55,0,53.5-23.95,53.5-53.5S83.05,0,53.5,0,0,23.95,0,53.5s23.95,53.5,53.5,53.5"/>
  <path class="cls-2" d="M78.31,69.6c-.19-.21-.28-.5-.28-.85s.09-.62.28-.84c.19-.22.43-.33.71-.33s.53.11.7.32c.17.21.25.5.25.85s-.09.65-.26.86c-.18.21-.41.31-.69.31s-.52-.11-.71-.32M80.4,70.22c.37-.39.56-.87.56-1.45,0-.61-.18-1.11-.55-1.49-.36-.38-.83-.57-1.41-.57s-1.03.19-1.4.57c-.37.38-.56.87-.56,1.49,0,.57.18,1.05.56,1.45.37.39.84.59,1.4.59s1.03-.19,1.4-.59M81.19,80.51l.12.74h1.6v-9.38h-1.76v7.19c-.3.29-.66.51-1.07.68-.42.17-.82.25-1.21.25-1.32,0-1.97-.73-1.97-2.19v-5.94h-1.76v5.94c0,1.24.27,2.16.82,2.76s1.39.9,2.52.9c1.03,0,1.93-.32,2.72-.96M73.79,81.26l-1.51-3.81c-.21-.51-.43-.88-.65-1.11-.23-.23-.54-.4-.93-.51.3-.12.56-.32.78-.6.22-.28.42-.63.61-1.06l1.03-2.29h-1.89l-.84,1.97c-.26.59-.53.97-.8,1.15-.27.18-.58.27-.92.27h-.82v-7.05h-1.76v13.03h1.76v-4.49h1.06c.53,0,.92.13,1.15.4.24.27.48.72.72,1.36l1.09,2.74h1.92ZM64.13,81.26v-1.43h-5.32l5.16-6.29v-1.66h-6.88v1.43h4.96l-5.16,6.39v1.56h7.23ZM52.32,79.8c-.33.18-.69.26-1.08.26-.25,0-.5-.06-.75-.17s-.47-.28-.64-.51-.25-.52-.25-.87c0-.68.27-1.17.82-1.46.55-.3,1.49-.48,2.81-.55v2.68c-.27.23-.58.44-.91.62M54.97,81.26v-6.08c0-1.24-.29-2.14-.86-2.7-.57-.56-1.38-.84-2.42-.84-.72,0-1.34.11-1.88.34-.53.23-.99.48-1.37.75l.57,1.27c.42-.31.84-.54,1.26-.69.42-.15.84-.23,1.24-.23.53,0,.95.15,1.26.46.31.31.46.81.46,1.52v.14c-1.68.04-2.99.35-3.94.93-.94.58-1.42,1.39-1.42,2.43,0,.63.14,1.15.42,1.58.28.43.65.76,1.11.99.46.23.95.34,1.48.34.48,0,.93-.09,1.35-.26.42-.18.78-.42,1.07-.73l.1.78h1.56ZM44.11,81.26l3.5-9.38h-1.8l-2.58,7.39-2.42-7.39h-1.92l3.36,9.38h1.86ZM37.21,68.34l-.98-1.21-3.26,2.68.72.84,3.52-2.31ZM35.42,79.8c-.33.18-.69.26-1.08.26-.25,0-.5-.06-.75-.17-.25-.11-.47-.28-.64-.51-.17-.23-.25-.52-.25-.87,0-.68.27-1.17.82-1.46.55-.3,1.49-.48,2.81-.55v2.68c-.27.23-.58.44-.91.62M38.07,81.26v-6.08c0-1.24-.29-2.14-.86-2.7-.57-.56-1.38-.84-2.42-.84-.72,0-1.34.11-1.88.34s-.99.48-1.37.75l.57,1.27c.42-.31.84-.54,1.26-.69.42-.15.84-.23,1.24-.23.53,0,.95.15,1.26.46.31.31.46.81.46,1.52v.14c-1.68.04-2.99.35-3.94.93-.94.58-1.42,1.39-1.42,2.43,0,.63.14,1.15.42,1.58.28.43.65.76,1.11.99.46.23.95.34,1.48.34.48,0,.93-.09,1.35-.26.42-.18.77-.42,1.07-.73l.1.78h1.56ZM29.74,81.26v-1.43h-5.31l5.16-6.29v-1.66h-6.88v1.43h4.96l-5.16,6.39v1.56h7.23Z"/>
  <path class="cls-2" d="M72.53,63.26v-1.43h-5.32l5.16-6.29v-1.66h-6.88v1.43h4.96l-5.16,6.39v1.56h7.23ZM59.94,55.05c.62,0,1.13.21,1.51.62.38.42.61.99.67,1.72h-4.46c.22-1.56.98-2.35,2.27-2.35M62.03,63.16c.6-.21,1.1-.51,1.51-.9l-.53-1.37c-.79.76-1.69,1.13-2.7,1.13-1.75,0-2.65-1.1-2.72-3.3h6.31c0-1.6-.35-2.85-1.05-3.74-.7-.89-1.67-1.34-2.92-1.34-.81,0-1.52.2-2.14.61-.62.4-1.1.97-1.45,1.7-.35.73-.52,1.6-.52,2.6,0,1.54.38,2.74,1.13,3.62.76.87,1.8,1.31,3.13,1.31.69,0,1.33-.1,1.93-.31M49.84,55.11c.79,0,1.43.31,1.91.94.48.62.72,1.45.72,2.48s-.26,1.92-.79,2.55c-.53.63-1.25.95-2.16.95-.47,0-.94-.1-1.41-.29v-6.12c.53-.34,1.11-.51,1.72-.51M52.06,62.85c.68-.42,1.22-.99,1.59-1.73.38-.73.57-1.59.57-2.57,0-1.5-.36-2.69-1.08-3.57-.72-.88-1.7-1.32-2.94-1.32-.73,0-1.42.16-2.07.47v-3.91h-1.76v12.52c.5.25,1.03.43,1.6.55.57.12,1.15.18,1.72.18.9,0,1.69-.21,2.37-.62M37.66,61.8c-.33.18-.69.26-1.08.26-.25,0-.5-.06-.75-.17-.25-.11-.47-.28-.64-.51-.17-.23-.25-.52-.25-.87,0-.68.27-1.17.82-1.46.55-.3,1.49-.48,2.81-.55v2.68c-.27.23-.58.44-.91.62M40.3,63.26v-6.08c0-1.24-.29-2.14-.86-2.7-.57-.56-1.38-.84-2.42-.84-.72,0-1.34.11-1.88.34s-.99.48-1.37.75l.57,1.27c.42-.31.84-.54,1.26-.69.42-.15.84-.23,1.24-.23.53,0,.95.15,1.26.46.31.31.46.81.46,1.52v.14c-1.68.04-2.99.35-3.94.93-.94.58-1.42,1.39-1.42,2.43,0,.63.14,1.15.42,1.58.28.43.65.76,1.11.99.46.23.95.34,1.47.34.48,0,.93-.09,1.35-.26.42-.18.78-.42,1.08-.73l.1.78h1.56Z"/>
  <path class="cls-2" d="M91.69,37.62c.39,0,.71.15.96.45.25.3.39.71.43,1.23h-2.83c.17-1.12.65-1.68,1.45-1.68M95.72,44.18l-.96-2.31c-.47.39-.88.67-1.24.82-.36.16-.76.23-1.2.23-.64,0-1.12-.14-1.44-.41-.33-.27-.54-.74-.63-1.41h5.88c0-1.82-.38-3.23-1.15-4.21-.77-.98-1.86-1.48-3.28-1.48-.87,0-1.66.2-2.35.59-.7.39-1.25.96-1.66,1.71-.41.75-.62,1.66-.62,2.73,0,1.56.42,2.79,1.27,3.67.85.89,2.02,1.33,3.52,1.33,1.58,0,2.87-.42,3.87-1.27M85.48,45.26v-6.08c0-1.2-.31-2.12-.93-2.77-.62-.65-1.44-.98-2.45-.98-.53,0-1.03.09-1.49.27-.46.18-.86.44-1.21.76l-.14-.82h-2.87v9.61h3.26v-6.66c.47-.42.92-.63,1.35-.63.81,0,1.21.53,1.21,1.58v5.71h3.26ZM73.94,34.44c.29-.28.44-.64.44-1.08s-.15-.8-.44-1.09c-.29-.3-.71-.45-1.26-.45s-.97.15-1.26.45c-.29.3-.44.66-.44,1.09s.15.8.44,1.08c.29.28.71.42,1.26.42s.97-.14,1.26-.42M74.32,35.64h-3.26v9.61h3.26v-9.61ZM69.13,45.32c.43-.09.73-.17.9-.25l-.41-2.32c-.25.1-.47.16-.68.16-.25,0-.41-.06-.5-.18-.09-.12-.13-.32-.13-.58v-9.91h-3.26v10.43c0,.96.23,1.67.69,2.12.46.45,1.14.67,2.02.67.48,0,.94-.05,1.37-.14M63.01,45.26v-6.08c0-1.2-.31-2.12-.93-2.77-.62-.65-1.44-.98-2.45-.98-.54,0-1.03.09-1.49.27-.46.18-.86.44-1.21.76l-.14-.82h-2.87v9.61h3.26v-6.66c.47-.42.92-.63,1.35-.63.81,0,1.21.53,1.21,1.58v5.71h3.26ZM46.36,42.27c-.27-.44-.41-1.07-.41-1.88s.14-1.37.41-1.8c.27-.43.66-.65,1.15-.65s.88.22,1.15.65c.27.43.41,1.03.41,1.8,0,.81-.14,1.43-.41,1.88-.27.44-.66.66-1.15.66s-.88-.22-1.15-.66M50.04,44.83c.72-.42,1.27-1.01,1.67-1.77.4-.76.6-1.65.6-2.67s-.2-1.88-.6-2.62c-.4-.74-.95-1.32-1.67-1.73-.72-.41-1.56-.62-2.52-.62s-1.81.21-2.52.62c-.72.41-1.27.99-1.67,1.73-.4.74-.6,1.62-.6,2.62s.2,1.9.6,2.67c.4.76.96,1.35,1.67,1.77.72.42,1.56.62,2.52.62s1.8-.21,2.52-.62M38.02,45.26v-6.08c0-1.2-.31-2.12-.93-2.77-.62-.65-1.44-.98-2.45-.98-.53,0-1.03.09-1.48.27-.46.18-.86.44-1.21.76l-.14-.82h-2.87v9.61h3.26v-6.66c.47-.42.92-.63,1.35-.63.81,0,1.21.53,1.21,1.58v5.71h3.26ZM22.93,37.62c.39,0,.71.15.96.45.25.3.39.71.43,1.23h-2.83c.17-1.12.65-1.68,1.45-1.68M26.96,44.18l-.96-2.31c-.47.39-.88.67-1.24.82-.36.16-.76.23-1.2.23-.64,0-1.12-.14-1.45-.41-.33-.27-.53-.74-.62-1.41h5.88c0-1.82-.38-3.23-1.15-4.21-.77-.98-1.86-1.48-3.28-1.48-.87,0-1.66.2-2.35.59-.7.39-1.25.96-1.66,1.71-.41.75-.61,1.66-.61,2.73,0,1.56.42,2.79,1.27,3.67.85.89,2.02,1.33,3.52,1.33,1.58,0,2.87-.42,3.87-1.27M15.66,44.52c.73-.67,1.09-1.62,1.09-2.84v-9.46h-3.34v8.73c0,.56-.11.97-.34,1.23-.23.26-.57.39-1.03.39-.31,0-.65-.05-1.03-.16-.37-.1-.71-.23-1.01-.39l-.76,2.83c.38.19.88.35,1.49.48.62.12,1.22.18,1.81.18,1.34,0,2.38-.34,3.11-1.01"/>
</svg>