<?xml version="1.0" encoding="UTF-8"?>
<svg id="Layer_1" data-name="Layer 1" xmlns="http://www.w3.org/2000/svg" viewBox="0 0 669 252.75">
  <defs>
    <style>
      .cls-1 {
        fill: #b778ff;
      }

      .cls-2 {
        fill: #ff961f;
      }

      .cls-3 {
        fill: #fff;
      }

      .cls-4 {
        fill: #00bdbd;
      }

      .cls-5 {
        fill: #ff3456;
      }
    </style>
  </defs>
  <g>
    <path class="cls-3" d="M0,46h29.56v13.09c2.78-8.53,14.48-14.88,29.76-14.88,28.37,0,49.6,22.82,49.6,51.79s-21.23,51.79-49.6,51.79c-15.28,0-26.98-6.15-29.76-14.88v43.09H0S0,46,0,46ZM53.97,121c14.29,0,25.4-10.91,25.4-25s-11.11-25-25.4-25-26.19,10.91-26.19,25,11.71,25,26.19,25ZM124,46h29.56v13.69c4.56-10.12,15.28-15.87,28.97-15.87,2.78,0,6.15.4,7.74.59v27.78c-2.78-.59-6.15-.99-9.92-.99-16.87,0-26.79,9.72-26.79,25.99v48.81h-29.56V46h0ZM218.79,36c9.95,0,18-7.88,18-17.89S228.74,0,218.79,0s-18,7.88-18,18.11,8.26,17.89,18,17.89ZM204,146h29.56V46h-29.56v100ZM254,46h29.56v12.5c3.77-8.73,13.69-14.68,25.99-14.68,13.69,0,22.62,5.55,27.18,15.87,6.55-12.5,19.25-15.87,33.33-15.87,22.82,0,35.52,15.67,35.52,41.47v60.72h-29.56v-57.14c0-11.51-5.16-18.85-14.88-18.85s-16.67,8.14-16.67,19.84v56.15h-29.56v-57.14c0-11.51-5.16-18.85-14.88-18.85s-16.47,8.14-16.47,19.84v56.15h-29.56V46h0ZM469.68,44.22c15.28,0,26.98,6.15,29.76,14.88v-13.09h29.56v100h-29.56v-13.09c-2.78,8.53-14.48,14.88-29.76,14.88-28.37,0-49.6-22.82-49.6-51.79s21.23-51.79,49.6-51.79h0ZM475.04,121c14.48,0,26.19-10.91,26.19-25s-11.71-25-26.19-25-25.4,10.91-25.4,25,11.11,25,25.4,25Z"/>
    <g>
      <path class="cls-4" d="M626,93v43c0,8.8-7.2,16-16,16s-16-7.2-16-16v-43c0-8.8,7.2-16,16-16s16,7.2,16,16Z"/>
      <path class="cls-1" d="M610,109h-43c-8.8,0-16-7.2-16-16s7.2-16,16-16h43c8.8,0,16,7.2,16,16s-7.2,16-16,16Z"/>
      <path class="cls-5" d="M626,50v43c0,8.8-7.2,16-16,16s-16-7.2-16-16v-43c0-8.8,7.2-16,16-16s16,7.2,16,16Z"/>
      <path class="cls-2" d="M653,109h-43c-8.8,0-16-7.2-16-16s7.2-16,16-16h43c8.8,0,16,7.2,16,16s-7.2,16-16,16Z"/>
    </g>
  </g>
  <g>
    <path class="cls-3" d="M157.14,185.19h19.67c7.09,0,12.4,1.67,15.95,5.02s5.32,8.36,5.32,15.05c0,4.24-.81,7.81-2.43,10.73-1.62,2.91-4.04,5.12-7.25,6.61s-7.17,2.23-11.87,2.23h-15.5v-6.95h16c4.24,0,7.47-1.09,9.69-3.28s3.33-5.37,3.33-9.54-1.09-7.63-3.28-9.79c-2.19-2.15-5.46-3.23-9.84-3.23h-15.5l3.28-3.28v62.69h-7.55v-66.27h-.02Z"/>
    <path class="cls-3" d="M208.2,185.19h21.16c6.29,0,11.24,1.57,14.85,4.72s5.41,7.63,5.41,13.46c0,4.04-1.03,7.45-3.08,10.23s-5.04,4.87-8.94,6.26v-.79c1.52.27,2.78.79,3.78,1.59.99.79,1.87,1.99,2.63,3.58s1.51,3.78,2.24,6.56l5.56,20.66h-7.95l-4.97-18.78c-.93-3.64-2.14-6.26-3.63-7.85-1.49-1.59-3.43-2.38-5.81-2.38h-17.49v-6.85h16.39c4.5,0,7.86-1.01,10.08-3.03s3.33-4.95,3.33-8.79-1.09-6.67-3.28-8.69-5.46-3.03-9.83-3.03h-15.1l2.19-2.19v61.6h-7.55v-66.27h.01Z"/>
    <path class="cls-3" d="M262.84,185.19h36.76v6.86h-32.49l3.28-3.28v59.11l-3.38-3.28h34.77v6.85h-38.94v-66.27h0ZM267.11,213.31h24.14v6.85h-24.14v-6.85h0Z"/>
    <path class="cls-3" d="M369.14,251.45h-7.25l-2.38-54.44,1.19.2-18.98,55.34h-4.97l-18.28-55.64,1.19-.2-2.78,54.74h-6.56l3.18-66.27h8.84l17.29,54.15,17.98-54.15h8.74l2.78,66.27h.01Z"/>
    <path class="cls-3" d="M382.85,185.19h7.55v66.27h-7.55v-66.27Z"/>
    <path class="cls-3" d="M405.21,229.3v-44.11h7.55v42.62c0,5.56,1.39,9.93,4.17,13.11,2.78,3.18,6.62,4.77,11.53,4.77s8.84-1.52,11.62-4.57,4.17-7.48,4.17-13.31v-42.62h7.55v44.11c0,5.17-1.11,9.49-3.33,12.97s-5.12,6.09-8.69,7.85c-3.58,1.75-7.42,2.63-11.52,2.63-4.37,0-8.3-.88-11.77-2.63-3.48-1.75-6.23-4.37-8.25-7.85-2.02-3.48-3.03-7.8-3.03-12.97h0Z"/>
    <path class="cls-3" d="M523.83,251.45h-7.25l-2.38-54.44,1.19.2-18.98,55.34h-4.97l-18.28-55.64,1.19-.2-2.78,54.74h-6.56l3.18-66.27h8.84l17.29,54.15,17.98-54.15h8.74l2.78,66.27h.01Z"/>
  </g>
</svg>