<?xml version="1.0" encoding="UTF-8"?>
<svg id="Layer_1" data-name="Layer 1" xmlns="http://www.w3.org/2000/svg" viewBox="0 0 280.84 29.31">
  <defs>
    <style>
      .cls-1 {
        fill: #fff;
      }
    </style>
  </defs>
  <path class="cls-1" d="M0,2.59h9.77c3.22,0,5.66.75,7.34,2.26s2.51,3.67,2.51,6.49c0,1.88-.35,3.47-1.06,4.77-.71,1.29-1.77,2.28-3.2,2.94-1.43.67-3.2,1-5.32,1H3.26v-5.34h6.12c1.12,0,1.98-.3,2.57-.9.59-.6.88-1.44.88-2.51s-.28-1.94-.84-2.51c-.56-.58-1.41-.86-2.53-.86H3.69l2.86-2.47v23.31H0V2.59Z"/>
  <path class="cls-1" d="M27.67,28.77h-6.55V9.5h5.77l.78,4.63v14.64ZM29.99,7.42h-3.69l-4.63-5.26L24.73.04l3.45,3.57L31.91.04l2.79,2.12-4.71,5.26ZM26.77,12.56c.86-1.28,1.71-2.19,2.53-2.73.82-.54,1.73-.8,2.73-.8.42,0,.83.03,1.24.1.41.07.74.15,1,.25l-.78,5.3c-.29-.1-.6-.18-.92-.24-.33-.05-.65-.08-.96-.08-.84,0-1.64.21-2.39.63-.76.42-1.44,1.01-2.04,1.77l-.39-4.2Z"/>
  <path class="cls-1" d="M34.23,19.15c0-2.17.41-4.01,1.24-5.51.82-1.5,1.94-2.65,3.35-3.43,1.41-.78,3-1.18,4.75-1.18,2.88,0,5.1.94,6.67,2.83,1.57,1.88,2.35,4.7,2.35,8.44h-15.38v-3.57h10.01l-.43.82c-.05-1.39-.36-2.44-.92-3.16-.56-.72-1.31-1.08-2.26-1.08-1.05,0-1.86.46-2.45,1.37-.59.92-.88,2.3-.88,4.16,0,1.99.38,3.43,1.14,4.34.76.9,1.9,1.35,3.41,1.35.92,0,1.82-.18,2.71-.55.89-.37,1.67-.88,2.35-1.53l1.77,4.28c-.99.81-2.15,1.43-3.45,1.86-1.31.43-2.71.65-4.2.65-1.99,0-3.71-.41-5.16-1.22-1.45-.81-2.58-1.97-3.39-3.47-.81-1.5-1.22-3.3-1.22-5.4Z"/>
  <path class="cls-1" d="M63.65,23.35c0-.29-.09-.54-.27-.77-.18-.22-.52-.44-1-.67-.48-.22-1.2-.46-2.14-.73-2.22-.58-3.85-1.36-4.87-2.35-1.02-.99-1.53-2.25-1.53-3.77,0-1.26.33-2.33.98-3.24.65-.9,1.56-1.6,2.71-2.08,1.15-.48,2.47-.73,3.96-.73,1.33,0,2.68.2,4.04.61,1.36.41,2.5.95,3.41,1.63l-1.84,4c-.89-.68-1.82-1.18-2.79-1.51-.97-.33-1.9-.49-2.79-.49-.68,0-1.2.12-1.55.35-.35.24-.53.56-.53.98,0,.29.09.54.27.75.18.21.52.41,1,.61.48.2,1.2.44,2.14.73,2.28.63,3.9,1.43,4.89,2.39.98.97,1.47,2.25,1.47,3.85,0,1.99-.7,3.54-2.1,4.65-1.4,1.11-3.37,1.67-5.91,1.67-.92,0-1.87-.08-2.86-.25-.99-.17-1.94-.43-2.83-.78-.89-.35-1.66-.79-2.32-1.31l1.96-4.12c.97.73,1.99,1.28,3.06,1.65,1.07.37,2.08.55,3.02.55.86,0,1.48-.13,1.84-.39.37-.26.55-.67.55-1.22Z"/>
  <path class="cls-1" d="M84.02,8.87l2.28.27-6.4,4.67-3.22-4.43,8.99-6.51h5.14v25.9h-6.79V8.87Z"/>
  <path class="cls-1" d="M94.76,15.81c0-2.69.39-5.05,1.18-7.06.78-2.01,1.92-3.59,3.41-4.73s3.27-1.71,5.34-1.71,3.84.57,5.32,1.71c1.48,1.14,2.61,2.71,3.39,4.73.79,2.01,1.18,4.36,1.18,7.04s-.39,5.04-1.18,7.06c-.78,2.03-1.92,3.61-3.39,4.75-1.48,1.14-3.25,1.71-5.32,1.71s-3.84-.57-5.32-1.71c-1.48-1.14-2.62-2.71-3.41-4.73-.8-2.01-1.2-4.37-1.2-7.06ZM101.95,11.24c-.24,1.19-.35,2.71-.35,4.55s.12,3.37.35,4.57c.24,1.2.59,2.1,1.06,2.69.47.59,1.03.88,1.69.88s1.21-.29,1.67-.88c.46-.59.81-1.48,1.06-2.69.25-1.2.37-2.73.37-4.57s-.12-3.36-.37-4.55c-.25-1.19-.6-2.08-1.06-2.67-.46-.59-1.02-.88-1.69-.88s-1.23.29-1.69.88c-.46.59-.8,1.48-1.04,2.67Z"/>
  <path class="cls-1" d="M115.9,15.81c0-2.69.39-5.05,1.18-7.06.78-2.01,1.92-3.59,3.41-4.73s3.27-1.71,5.34-1.71,3.84.57,5.32,1.71c1.48,1.14,2.61,2.71,3.39,4.73.79,2.01,1.18,4.36,1.18,7.04s-.39,5.04-1.18,7.06c-.78,2.03-1.92,3.61-3.39,4.75-1.48,1.14-3.25,1.71-5.32,1.71s-3.84-.57-5.32-1.71c-1.48-1.14-2.62-2.71-3.41-4.73-.8-2.01-1.2-4.37-1.2-7.06ZM123.08,11.24c-.24,1.19-.35,2.71-.35,4.55s.12,3.37.35,4.57c.24,1.2.59,2.1,1.06,2.69.47.59,1.03.88,1.69.88s1.21-.29,1.67-.88c.46-.59.81-1.48,1.06-2.69.25-1.2.37-2.73.37-4.57s-.12-3.36-.37-4.55c-.25-1.19-.6-2.08-1.06-2.67-.46-.59-1.02-.88-1.69-.88s-1.23.29-1.69.88c-.46.59-.8,1.48-1.04,2.67Z"/>
  <path class="cls-1" d="M141.49,2.59h18.37v2.71h-18.37v-2.71ZM149.18,3.96h2.98v24.8h-2.98V3.96Z"/>
  <path class="cls-1" d="M178.33,2.59h3.14l-8.91,26.17h-2.75l-9.03-26.17h3.3l7.53,22.8h-.79l7.5-22.8Z"/>
  <path class="cls-1" d="M189.75,2.59h2.86v26.17h-2.86V2.59ZM191.44,16.99h3.1c.76,0,1.42-.19,1.98-.57.56-.38,1.12-1.18,1.67-2.41l1.73-3.96h3.1l-1.96,4.32c-.31.73-.65,1.37-1,1.9-.35.54-.73.96-1.14,1.26-.41.3-.87.48-1.39.53v-.35c.65.13,1.21.31,1.67.53.46.22.86.56,1.22,1.02.35.46.7,1.12,1.04,1.98l2.98,7.53h-3.18l-2.24-5.65c-.34-.89-.67-1.6-1-2.14-.33-.54-.71-.93-1.16-1.18s-1.06-.37-1.84-.37h-3.57v-2.43Z"/>
  <path class="cls-1" d="M216.3,18.95c-3.09.13-5.27.52-6.55,1.18-1.28.65-1.92,1.74-1.92,3.26,0,.79.19,1.43.57,1.92.38.5.84.86,1.39,1.1s1.09.35,1.61.35c.97,0,1.85-.24,2.65-.73.8-.48,1.51-1.03,2.14-1.63l.08,2.32c-.65.78-1.42,1.39-2.29,1.82-.88.43-1.85.65-2.92.65s-2-.22-2.92-.67c-.93-.44-1.69-1.1-2.28-1.96s-.88-1.94-.88-3.22c0-2.15,1.01-3.81,3.02-5,2.01-1.19,4.79-1.79,8.32-1.79v2.39ZM215.75,16.36c0-1.57-.33-2.69-.98-3.35-.65-.67-1.56-1-2.71-1-.81,0-1.66.16-2.53.47-.88.31-1.72.8-2.53,1.45l-.94-2.2c.68-.52,1.52-1.01,2.51-1.47.99-.46,2.24-.69,3.73-.69,2.01,0,3.57.54,4.67,1.61,1.1,1.07,1.65,2.86,1.65,5.38v12.2h-2.63l-.23-3.22v-9.18Z"/>
  <path class="cls-1" d="M222.47,10.05h2.63l.24,2.08v16.64h-2.87V10.05ZM234.71,17.03c0-1.57-.33-2.8-1-3.69-.67-.89-1.76-1.33-3.28-1.33-1.05,0-2.07.26-3.06.79s-1.83,1.09-2.51,1.69v-2.59c.76-.65,1.66-1.2,2.69-1.65s2.15-.67,3.36-.67c2.46,0,4.19.62,5.18,1.86.99,1.24,1.49,3.13,1.49,5.67v11.66h-2.86v-11.73Z"/>
  <path class="cls-1" d="M251.38,18.95c-3.09.13-5.27.52-6.55,1.18-1.28.65-1.92,1.74-1.92,3.26,0,.79.19,1.43.57,1.92.38.5.84.86,1.39,1.1s1.08.35,1.61.35c.97,0,1.85-.24,2.65-.73.8-.48,1.51-1.03,2.14-1.63l.08,2.32c-.65.78-1.42,1.39-2.3,1.82-.88.43-1.85.65-2.92.65s-2-.22-2.92-.67c-.93-.44-1.69-1.1-2.28-1.96-.59-.86-.88-1.94-.88-3.22,0-2.15,1.01-3.81,3.02-5,2.01-1.19,4.79-1.79,8.32-1.79v2.39ZM250.83,16.36c0-1.57-.33-2.69-.98-3.35-.65-.67-1.56-1-2.71-1-.81,0-1.66.16-2.53.47-.88.31-1.72.8-2.53,1.45l-.94-2.2c.68-.52,1.52-1.01,2.51-1.47.99-.46,2.24-.69,3.73-.69,2.01,0,3.57.54,4.67,1.61,1.1,1.07,1.65,2.86,1.65,5.38v12.2h-2.63l-.24-3.22v-9.18ZM252.04,2.55l-6.75,4.87-1.41-1.45,6.24-5.45,1.92,2.04Z"/>
  <path class="cls-1" d="M257.51,23.82V2.59h2.87v21.66c0,.84.12,1.45.37,1.84.25.39.66.59,1.24.59.47,0,1.09-.18,1.84-.55l.67,2.28c-.42.21-.88.38-1.39.51-.51.13-1.03.2-1.55.2-1.46,0-2.5-.41-3.12-1.22-.62-.81-.92-2.17-.92-4.08Z"/>
  <path class="cls-1" d="M265.81,21.9v-11.85h2.86v12.01c0,1.6.35,2.78,1.06,3.55.71.77,1.79,1.16,3.26,1.16.97,0,1.96-.24,2.98-.71,1.02-.47,1.82-1.07,2.39-1.81l.16,2.63c-.97.81-1.91,1.4-2.83,1.77s-1.99.55-3.22.55c-2.3,0-3.99-.59-5.06-1.77-1.07-1.18-1.61-3.02-1.61-5.53ZM269.5,3.92c0-1.15.35-2.09,1.06-2.83s1.6-1.1,2.67-1.1,1.96.37,2.67,1.1,1.06,1.67,1.06,2.83-.35,2.02-1.06,2.75c-.71.73-1.59,1.1-2.65,1.1s-1.95-.37-2.67-1.1c-.72-.73-1.08-1.65-1.08-2.75ZM275.19,3.9c0-.72-.17-1.29-.51-1.73s-.8-.65-1.39-.65-1.07.22-1.45.67c-.38.45-.57,1.01-.57,1.71s.19,1.26.57,1.69c.38.43.86.65,1.43.65s1.04-.21,1.39-.63c.35-.42.53-.99.53-1.71ZM277.98,10.05h2.86v18.72h-2.67l-.2-1.61V10.05Z"/>
</svg>