<?xml version="1.0" encoding="UTF-8"?>
<svg id="Layer_1" data-name="Layer 1" xmlns="http://www.w3.org/2000/svg" viewBox="0 0 223.32 272.19">
  <defs>
    <style>
      .cls-1 {
        fill: rgba(255, 255, 255, .49);
      }

      .cls-2 {
        fill: rgba(255, 255, 255, .15);
      }

      .cls-3 {
        fill: #fff;
      }

      .cls-4 {
        fill: rgba(255, 255, 255, .32);
      }

      .cls-5 {
        fill: rgba(255, 255, 255, .66);
      }

      .cls-6 {
        fill: rgba(255, 255, 255, .83);
      }
    </style>
  </defs>
  <g>
    <path class="cls-3" d="M149.25,29.02c0-.8.65-1.45,1.45-1.45s1.45.65,1.45,1.45-.65,1.45-1.45,1.45-1.45-.65-1.45-1.45Z"/>
    <path class="cls-3" d="M138,29.96c0-.8.65-1.45,1.45-1.45s1.45.65,1.45,1.45-.65,1.45-1.45,1.45-1.45-.65-1.45-1.45Z"/>
    <path class="cls-3" d="M126.9,31.98c0-.8.65-1.45,1.45-1.45s1.45.65,1.45,1.45-.65,1.45-1.45,1.45-1.45-.65-1.45-1.45Z"/>
    <path class="cls-3" d="M116.04,34.97c0-.8.65-1.45,1.45-1.45s1.45.65,1.45,1.45-.65,1.45-1.45,1.45-1.45-.65-1.45-1.45Z"/>
    <path class="cls-3" d="M105.49,38.89c0-.8.65-1.45,1.45-1.45s1.45.65,1.45,1.45-.65,1.45-1.45,1.45-1.45-.65-1.45-1.45Z"/>
    <path class="cls-3" d="M95.31,43.71c0-.8.65-1.45,1.45-1.45s1.45.65,1.45,1.45-.65,1.45-1.45,1.45-1.45-.65-1.45-1.45Z"/>
    <path class="cls-3" d="M85.59,49.44c0-.8.65-1.45,1.45-1.45s1.45.65,1.45,1.45-.65,1.45-1.45,1.45-1.45-.65-1.45-1.45Z"/>
    <path class="cls-3" d="M76.42,56.08c0-.8.65-1.45,1.45-1.45s1.45.65,1.45,1.45-.65,1.45-1.45,1.45-1.45-.65-1.45-1.45Z"/>
    <path class="cls-3" d="M67.99,63.3c0-.8.65-1.45,1.45-1.45s1.45.65,1.45,1.45-.65,1.45-1.45,1.45-1.45-.65-1.45-1.45Z"/>
    <path class="cls-3" d="M60.04,71.28c0-.8.65-1.45,1.45-1.45s1.45.65,1.45,1.45-.65,1.45-1.45,1.45-1.45-.65-1.45-1.45Z"/>
    <path class="cls-3" d="M52.83,79.98c0-.8.65-1.45,1.45-1.45s1.45.65,1.45,1.45-.65,1.45-1.45,1.45-1.45-.65-1.45-1.45Z"/>
    <path class="cls-3" d="M46.48,89.22c0-.8.65-1.45,1.45-1.45s1.45.65,1.45,1.45-.65,1.45-1.45,1.45-1.45-.65-1.45-1.45Z"/>
    <path class="cls-3" d="M40.92,99.01c0-.8.65-1.45,1.45-1.45s1.45.65,1.45,1.45-.65,1.45-1.45,1.45-1.45-.65-1.45-1.45Z"/>
    <path class="cls-3" d="M36.22,109.28c0-.8.65-1.45,1.45-1.45s1.45.65,1.45,1.45-.65,1.45-1.45,1.45-1.45-.65-1.45-1.45Z"/>
    <path class="cls-3" d="M32.49,119.87c0-.8.65-1.45,1.45-1.45s1.45.65,1.45,1.45-.65,1.45-1.45,1.45-1.45-.65-1.45-1.45Z"/>
    <path class="cls-3" d="M29.73,130.84c0-.8.65-1.45,1.45-1.45s1.45.65,1.45,1.45-.65,1.45-1.45,1.45-1.45-.65-1.45-1.45Z"/>
    <path class="cls-3" d="M28.06,142.09c0-.8.65-1.45,1.45-1.45s1.45.65,1.45,1.45-.65,1.45-1.45,1.45-1.45-.65-1.45-1.45Z"/>
    <path class="cls-3" d="M27.59,153.39c0-.8.65-1.45,1.45-1.45s1.45.65,1.45,1.45-.65,1.45-1.45,1.45-1.45-.65-1.45-1.45Z"/>
    <path class="cls-3" d="M28.32,164.77c0-.8.65-1.45,1.45-1.45s1.45.65,1.45,1.45-.65,1.45-1.45,1.45-1.45-.65-1.45-1.45Z"/>
    <path class="cls-3" d="M30.35,175.99c0-.8.65-1.45,1.45-1.45s1.45.65,1.45,1.45-.65,1.45-1.45,1.45-1.45-.65-1.45-1.45Z"/>
    <path class="cls-3" d="M33.72,186.92c0-.8.65-1.45,1.45-1.45s1.45.65,1.45,1.45-.65,1.45-1.45,1.45-1.45-.65-1.45-1.45Z"/>
    <path class="cls-3" d="M38.43,197.38c0-.8.65-1.45,1.45-1.45s1.45.65,1.45,1.45-.65,1.45-1.45,1.45-1.45-.65-1.45-1.45Z"/>
    <path class="cls-3" d="M44.45,207.17c0-.8.65-1.45,1.45-1.45s1.45.65,1.45,1.45-.65,1.45-1.45,1.45-1.45-.65-1.45-1.45Z"/>
    <path class="cls-3" d="M51.69,216.07c0-.8.65-1.45,1.45-1.45s1.45.65,1.45,1.45-.65,1.45-1.45,1.45-1.45-.65-1.45-1.45Z"/>
    <path class="cls-3" d="M60.05,223.97c0-.8.65-1.45,1.45-1.45s1.45.65,1.45,1.45-.65,1.45-1.45,1.45-1.45-.65-1.45-1.45Z"/>
    <path class="cls-3" d="M69.37,230.69c0-.8.65-1.45,1.45-1.45s1.45.65,1.45,1.45-.65,1.45-1.45,1.45-1.45-.65-1.45-1.45Z"/>
    <path class="cls-3" d="M79.52,236.11c0-.8.65-1.45,1.45-1.45s1.45.65,1.45,1.45-.65,1.45-1.45,1.45-1.45-.65-1.45-1.45Z"/>
    <path class="cls-3" d="M90.38,240.1c0-.8.65-1.45,1.45-1.45s1.45.65,1.45,1.45-.65,1.45-1.45,1.45-1.45-.65-1.45-1.45Z"/>
    <path class="cls-3" d="M101.7,242.49c0-.8.65-1.45,1.45-1.45s1.45.65,1.45,1.45-.65,1.45-1.45,1.45-1.45-.65-1.45-1.45Z"/>
    <path class="cls-3" d="M113.27,243.16c0-.8.65-1.45,1.45-1.45s1.45.65,1.45,1.45-.65,1.45-1.45,1.45-1.45-.65-1.45-1.45Z"/>
    <path class="cls-3" d="M124.74,242.2c0-.8.65-1.45,1.45-1.45s1.45.65,1.45,1.45-.65,1.45-1.45,1.45-1.45-.65-1.45-1.45Z"/>
    <path class="cls-3" d="M136.02,239.67c0-.8.65-1.45,1.45-1.45s1.45.65,1.45,1.45-.65,1.45-1.45,1.45-1.45-.65-1.45-1.45Z"/>
    <path class="cls-3" d="M146.81,235.51c0-.8.65-1.45,1.45-1.45s1.45.65,1.45,1.45-.65,1.45-1.45,1.45-1.45-.65-1.45-1.45Z"/>
    <path class="cls-3" d="M156.89,229.79c0-.8.65-1.45,1.45-1.45s1.45.65,1.45,1.45-.65,1.45-1.45,1.45-1.45-.65-1.45-1.45Z"/>
    <path class="cls-3" d="M166.01,222.64c0-.8.65-1.45,1.45-1.45s1.45.65,1.45,1.45-.65,1.45-1.45,1.45-1.45-.65-1.45-1.45Z"/>
    <path class="cls-3" d="M173.97,214.28c0-.8.65-1.45,1.45-1.45s1.45.65,1.45,1.45-.65,1.45-1.45,1.45-1.45-.65-1.45-1.45Z"/>
    <path class="cls-3" d="M180.67,204.88c0-.8.65-1.45,1.45-1.45s1.45.65,1.45,1.45-.65,1.45-1.45,1.45-1.45-.65-1.45-1.45Z"/>
    <path class="cls-3" d="M186,194.69c0-.8.65-1.45,1.45-1.45s1.45.65,1.45,1.45-.65,1.45-1.45,1.45-1.45-.65-1.45-1.45Z"/>
    <path class="cls-3" d="M189.89,183.84c0-.8.65-1.45,1.45-1.45s1.45.65,1.45,1.45-.65,1.45-1.45,1.45-1.45-.65-1.45-1.45Z"/>
    <path class="cls-3" d="M192.22,172.49c0-.8.65-1.45,1.45-1.45s1.45.65,1.45,1.45-.65,1.45-1.45,1.45-1.45-.65-1.45-1.45Z"/>
    <path class="cls-3" d="M192.84,160.96c0-.8.65-1.45,1.45-1.45s1.45.65,1.45,1.45-.65,1.45-1.45,1.45-1.45-.65-1.45-1.45Z"/>
    <path class="cls-3" d="M191.92,149.52c0-.8.65-1.45,1.45-1.45s1.45.65,1.45,1.45-.65,1.45-1.45,1.45-1.45-.65-1.45-1.45Z"/>
    <path class="cls-3" d="M189.45,138.21c0-.8.65-1.45,1.45-1.45s1.45.65,1.45,1.45-.65,1.45-1.45,1.45-1.45-.65-1.45-1.45Z"/>
    <path class="cls-3" d="M185.19,127.32c0-.8.65-1.45,1.45-1.45s1.45.65,1.45,1.45-.65,1.45-1.45,1.45-1.45-.65-1.45-1.45Z"/>
    <path class="cls-3" d="M179.09,117.29c0-.8.65-1.45,1.45-1.45s1.45.65,1.45,1.45-.65,1.45-1.45,1.45-1.45-.65-1.45-1.45Z"/>
    <path class="cls-3" d="M171.36,108.5c0-.8.65-1.45,1.45-1.45s1.45.65,1.45,1.45-.65,1.45-1.45,1.45-1.45-.65-1.45-1.45Z"/>
    <path class="cls-3" d="M162.39,101.16c0-.8.65-1.45,1.45-1.45s1.45.65,1.45,1.45-.65,1.45-1.45,1.45-1.45-.65-1.45-1.45Z"/>
    <path class="cls-3" d="M152.53,95.22c0-.8.65-1.45,1.45-1.45s1.45.65,1.45,1.45-.65,1.45-1.45,1.45-1.45-.65-1.45-1.45Z"/>
    <path class="cls-6" d="M149.21,22.29c0-.67.54-1.21,1.21-1.21s1.21.54,1.21,1.21-.54,1.21-1.21,1.21-1.21-.54-1.21-1.21Z"/>
    <path class="cls-6" d="M137.32,23.3c0-.67.54-1.21,1.21-1.21s1.21.54,1.21,1.21-.54,1.21-1.21,1.21-1.21-.54-1.21-1.21Z"/>
    <path class="cls-6" d="M125.61,25.43c0-.67.54-1.21,1.21-1.21s1.21.54,1.21,1.21-.54,1.21-1.21,1.21-1.21-.54-1.21-1.21Z"/>
    <path class="cls-6" d="M114.16,28.58c0-.67.54-1.21,1.21-1.21s1.21.54,1.21,1.21-.54,1.21-1.21,1.21-1.21-.54-1.21-1.21Z"/>
    <path class="cls-6" d="M103.06,32.71c0-.67.54-1.21,1.21-1.21s1.21.54,1.21,1.21-.54,1.21-1.21,1.21-1.21-.54-1.21-1.21Z"/>
    <path class="cls-6" d="M92.34,37.8c0-.67.54-1.21,1.21-1.21s1.21.54,1.21,1.21-.54,1.21-1.21,1.21-1.21-.54-1.21-1.21Z"/>
    <path class="cls-6" d="M82.09,43.85c0-.67.54-1.21,1.21-1.21s1.21.54,1.21,1.21-.54,1.21-1.21,1.21-1.21-.54-1.21-1.21Z"/>
    <path class="cls-6" d="M72.39,50.88c0-.67.54-1.21,1.21-1.21s1.21.54,1.21,1.21-.54,1.21-1.21,1.21-1.21-.54-1.21-1.21Z"/>
    <path class="cls-6" d="M63.66,58.36c0-.67.54-1.21,1.21-1.21s1.21.54,1.21,1.21-.54,1.21-1.21,1.21-1.21-.54-1.21-1.21Z"/>
    <path class="cls-6" d="M55.29,66.77c0-.67.54-1.21,1.21-1.21s1.21.54,1.21,1.21-.54,1.21-1.21,1.21-1.21-.54-1.21-1.21Z"/>
    <path class="cls-6" d="M47.67,75.98c0-.67.54-1.21,1.21-1.21s1.21.54,1.21,1.21-.54,1.21-1.21,1.21-1.21-.54-1.21-1.21Z"/>
    <path class="cls-6" d="M41,85.67c0-.67.54-1.21,1.21-1.21s1.21.54,1.21,1.21-.54,1.21-1.21,1.21-1.21-.54-1.21-1.21Z"/>
    <path class="cls-6" d="M35.16,95.96c0-.67.54-1.21,1.21-1.21s1.21.54,1.21,1.21-.54,1.21-1.21,1.21-1.21-.54-1.21-1.21Z"/>
    <path class="cls-6" d="M30.2,106.82c0-.67.54-1.21,1.21-1.21s1.21.54,1.21,1.21-.54,1.21-1.21,1.21-1.21-.54-1.21-1.21Z"/>
    <path class="cls-6" d="M26.28,117.94c0-.67.54-1.21,1.21-1.21s1.21.54,1.21,1.21-.54,1.21-1.21,1.21-1.21-.54-1.21-1.21Z"/>
    <path class="cls-6" d="M23.37,129.56c0-.67.54-1.21,1.21-1.21s1.21.54,1.21,1.21-.54,1.21-1.21,1.21-1.21-.54-1.21-1.21Z"/>
    <path class="cls-6" d="M21.59,141.54c0-.67.54-1.21,1.21-1.21s1.21.54,1.21,1.21-.54,1.21-1.21,1.21-1.21-.54-1.21-1.21Z"/>
    <path class="cls-6" d="M21.1,153.49c0-.67.54-1.21,1.21-1.21s1.21.54,1.21,1.21-.54,1.21-1.21,1.21-1.21-.54-1.21-1.21Z"/>
    <path class="cls-6" d="M21.9,165.66c0-.67.54-1.21,1.21-1.21s1.21.54,1.21,1.21-.54,1.21-1.21,1.21-1.21-.54-1.21-1.21Z"/>
    <path class="cls-6" d="M24.07,177.62c0-.67.54-1.21,1.21-1.21s1.21.54,1.21,1.21-.54,1.21-1.21,1.21-1.21-.54-1.21-1.21Z"/>
    <path class="cls-6" d="M27.68,189.34c0-.67.54-1.21,1.21-1.21s1.21.54,1.21,1.21-.54,1.21-1.21,1.21-1.21-.54-1.21-1.21Z"/>
    <path class="cls-6" d="M32.76,200.59c0-.67.54-1.21,1.21-1.21s1.21.54,1.21,1.21-.54,1.21-1.21,1.21-1.21-.54-1.21-1.21Z"/>
    <path class="cls-6" d="M39.25,211.12c0-.67.54-1.21,1.21-1.21s1.21.54,1.21,1.21-.54,1.21-1.21,1.21-1.21-.54-1.21-1.21Z"/>
    <path class="cls-6" d="M47.03,220.68c0-.67.54-1.21,1.21-1.21s1.21.54,1.21,1.21-.54,1.21-1.21,1.21-1.21-.54-1.21-1.21Z"/>
    <path class="cls-6" d="M56.05,229.2c0-.67.54-1.21,1.21-1.21s1.21.54,1.21,1.21-.54,1.21-1.21,1.21-1.21-.54-1.21-1.21Z"/>
    <path class="cls-6" d="M66.1,236.43c0-.67.54-1.21,1.21-1.21s1.21.54,1.21,1.21-.54,1.21-1.21,1.21-1.21-.54-1.21-1.21Z"/>
    <path class="cls-6" d="M77.05,242.27c0-.67.54-1.21,1.21-1.21s1.21.54,1.21,1.21-.54,1.21-1.21,1.21-1.21-.54-1.21-1.21Z"/>
    <path class="cls-6" d="M88.84,246.59c0-.67.54-1.21,1.21-1.21s1.21.54,1.21,1.21-.54,1.21-1.21,1.21-1.21-.54-1.21-1.21Z"/>
    <path class="cls-6" d="M101.12,249.17c0-.67.54-1.21,1.21-1.21s1.21.54,1.21,1.21-.54,1.21-1.21,1.21-1.21-.54-1.21-1.21Z"/>
    <path class="cls-6" d="M113.69,249.88c0-.67.54-1.21,1.21-1.21s1.21.54,1.21,1.21-.54,1.21-1.21,1.21-1.21-.54-1.21-1.21Z"/>
    <path class="cls-6" d="M126.06,248.84c0-.67.54-1.21,1.21-1.21s1.21.54,1.21,1.21-.54,1.21-1.21,1.21-1.21-.54-1.21-1.21Z"/>
    <path class="cls-6" d="M138.29,246.08c0-.67.54-1.21,1.21-1.21s1.21.54,1.21,1.21-.54,1.21-1.21,1.21-1.21-.54-1.21-1.21Z"/>
    <path class="cls-6" d="M149.99,241.56c0-.67.54-1.21,1.21-1.21s1.21.54,1.21,1.21-.54,1.21-1.21,1.21-1.21-.54-1.21-1.21Z"/>
    <path class="cls-6" d="M160.93,235.34c0-.67.54-1.21,1.21-1.21s1.21.54,1.21,1.21-.54,1.21-1.21,1.21-1.21-.54-1.21-1.21Z"/>
    <path class="cls-6" d="M170.83,227.57c0-.67.54-1.21,1.21-1.21s1.21.54,1.21,1.21-.54,1.21-1.21,1.21-1.21-.54-1.21-1.21Z"/>
    <path class="cls-6" d="M179.45,218.5c0-.67.54-1.21,1.21-1.21s1.21.54,1.21,1.21-.54,1.21-1.21,1.21-1.21-.54-1.21-1.21Z"/>
    <path class="cls-6" d="M186.69,208.34c0-.67.54-1.21,1.21-1.21s1.21.54,1.21,1.21-.54,1.21-1.21,1.21-1.21-.54-1.21-1.21Z"/>
    <path class="cls-6" d="M192.43,197.35c0-.67.54-1.21,1.21-1.21s1.21.54,1.21,1.21-.54,1.21-1.21,1.21-1.21-.54-1.21-1.21Z"/>
    <path class="cls-6" d="M196.62,185.62c0-.67.54-1.21,1.21-1.21s1.21.54,1.21,1.21-.54,1.21-1.21,1.21-1.21-.54-1.21-1.21Z"/>
    <path class="cls-6" d="M199.14,173.3c0-.67.54-1.21,1.21-1.21s1.21.54,1.21,1.21-.54,1.21-1.21,1.21-1.21-.54-1.21-1.21Z"/>
    <path class="cls-6" d="M199.8,160.79c0-.67.54-1.21,1.21-1.21s1.21.54,1.21,1.21-.54,1.21-1.21,1.21-1.21-.54-1.21-1.21Z"/>
    <path class="cls-6" d="M198.82,148.49c0-.67.54-1.21,1.21-1.21s1.21.54,1.21,1.21-.54,1.21-1.21,1.21-1.21-.54-1.21-1.21Z"/>
    <path class="cls-6" d="M196.12,136.21c0-.67.54-1.21,1.21-1.21s1.21.54,1.21,1.21-.54,1.21-1.21,1.21-1.21-.54-1.21-1.21Z"/>
    <path class="cls-6" d="M191.43,124.28c0-.67.54-1.21,1.21-1.21s1.21.54,1.21,1.21-.54,1.21-1.21,1.21-1.21-.54-1.21-1.21Z"/>
    <path class="cls-6" d="M184.71,113.24c0-.67.54-1.21,1.21-1.21s1.21.54,1.21,1.21-.54,1.21-1.21,1.21-1.21-.54-1.21-1.21Z"/>
    <path class="cls-6" d="M176.2,103.58c0-.67.54-1.21,1.21-1.21s1.21.54,1.21,1.21-.54,1.21-1.21,1.21-1.21-.54-1.21-1.21Z"/>
    <path class="cls-6" d="M166.44,95.61c0-.67.54-1.21,1.21-1.21s1.21.54,1.21,1.21-.54,1.21-1.21,1.21-1.21-.54-1.21-1.21Z"/>
    <path class="cls-6" d="M155.81,89.22c0-.67.54-1.21,1.21-1.21s1.21.54,1.21,1.21-.54,1.21-1.21,1.21-1.21-.54-1.21-1.21Z"/>
    <path class="cls-5" d="M149.19,16.06c0-.53.43-.97.97-.97s.97.43.97.97-.43.97-.97.97-.97-.43-.97-.97Z"/>
    <path class="cls-5" d="M136.71,17.11c0-.53.43-.97.97-.97s.97.43.97.97-.43.97-.97.97-.97-.43-.97-.97Z"/>
    <path class="cls-5" d="M124.43,19.35c0-.53.43-.97.97-.97s.97.43.97.97-.43.97-.97.97-.97-.43-.97-.97Z"/>
    <path class="cls-5" d="M112.44,22.65c0-.53.43-.97.97-.97s.97.43.97.97-.43.97-.97.97-.97-.43-.97-.97Z"/>
    <path class="cls-5" d="M100.83,26.98c0-.53.43-.97.97-.97s.97.43.97.97-.43.97-.97.97-.97-.43-.97-.97Z"/>
    <path class="cls-5" d="M89.6,32.31c0-.53.43-.97.97-.97s.97.43.97.97-.43.97-.97.97-.97-.43-.97-.97Z"/>
    <path class="cls-5" d="M78.86,38.65c0-.53.43-.97.97-.97s.97.43.97.97-.43.97-.97.97-.97-.43-.97-.97Z"/>
    <path class="cls-5" d="M68.67,46.06c0-.53.43-.97.97-.97s.97.43.97.97-.43.97-.97.97-.97-.43-.97-.97Z"/>
    <path class="cls-5" d="M59.65,53.79c0-.53.43-.97.97-.97s.97.43.97.97-.43.97-.97.97-.97-.43-.97-.97Z"/>
    <path class="cls-5" d="M50.89,62.59c0-.53.43-.97.97-.97s.97.43.97.97-.43.97-.97.97-.97-.43-.97-.97Z"/>
    <path class="cls-5" d="M42.89,72.27c0-.53.43-.97.97-.97s.97.43.97.97-.43.97-.97.97-.97-.43-.97-.97Z"/>
    <path class="cls-5" d="M35.94,82.38c0-.53.43-.97.97-.97s.97.43.97.97-.43.97-.97.97-.97-.43-.97-.97Z"/>
    <path class="cls-5" d="M29.84,93.14c0-.53.43-.97.97-.97s.97.43.97.97-.43.97-.97.97-.97-.43-.97-.97Z"/>
    <path class="cls-5" d="M24.62,104.54c0-.53.43-.97.97-.97s.97.43.97.97-.43.97-.97.97-.97-.43-.97-.97Z"/>
    <path class="cls-5" d="M20.54,116.15c0-.53.43-.97.97-.97s.97.43.97.97-.43.97-.97.97-.97-.43-.97-.97Z"/>
    <path class="cls-5" d="M17.48,128.37c0-.53.43-.97.97-.97s.97.43.97.97-.43.97-.97.97-.97-.43-.97-.97Z"/>
    <path class="cls-5" d="M15.61,141.04c0-.53.43-.97.97-.97s.97.43.97.97-.43.97-.97.97-.97-.43-.97-.97Z"/>
    <path class="cls-5" d="M15.1,153.59c0-.53.43-.97.97-.97s.97.43.97.97-.43.97-.97.97-.97-.43-.97-.97Z"/>
    <path class="cls-5" d="M15.95,166.48c0-.53.43-.97.97-.97s.97.43.97.97-.43.97-.97.97-.97-.43-.97-.97Z"/>
    <path class="cls-5" d="M18.26,179.14c0-.53.43-.97.97-.97s.97.43.97.97-.43.97-.97.97-.97-.43-.97-.97Z"/>
    <path class="cls-5" d="M22.09,191.58c0-.53.43-.97.97-.97s.97.43.97.97-.43.97-.97.97-.97-.43-.97-.97Z"/>
    <path class="cls-5" d="M27.51,203.56c0-.53.43-.97.97-.97s.97.43.97.97-.43.97-.97.97-.97-.43-.97-.97Z"/>
    <path class="cls-5" d="M34.44,214.79c0-.53.43-.97.97-.97s.97.43.97.97-.43.97-.97.97-.97-.43-.97-.97Z"/>
    <path class="cls-5" d="M42.72,224.96c0-.53.43-.97.97-.97s.97.43.97.97-.43.97-.97.97-.97-.43-.97-.97Z"/>
    <path class="cls-5" d="M52.36,234.05c0-.53.43-.97.97-.97s.97.43.97.97-.43.97-.97.97-.97-.43-.97-.97Z"/>
    <path class="cls-5" d="M63.08,241.75c0-.53.43-.97.97-.97s.97.43.97.97-.43.97-.97.97-.97-.43-.97-.97Z"/>
    <path class="cls-5" d="M74.78,247.98c0-.53.43-.97.97-.97s.97.43.97.97-.43.97-.97.97-.97-.43-.97-.97Z"/>
    <path class="cls-5" d="M87.42,252.61c0-.53.43-.97.97-.97s.97.43.97.97-.43.97-.97.97-.97-.43-.97-.97Z"/>
    <path class="cls-5" d="M100.6,255.37c0-.53.43-.97.97-.97s.97.43.97.97-.43.97-.97.97-.97-.43-.97-.97Z"/>
    <path class="cls-5" d="M114.1,256.12c0-.53.43-.97.97-.97s.97.43.97.97-.43.97-.97.97-.97-.43-.97-.97Z"/>
    <path class="cls-5" d="M127.3,255c0-.53.43-.97.97-.97s.97.43.97.97-.43.97-.97.97-.97-.43-.97-.97Z"/>
    <path class="cls-5" d="M140.42,252.03c0-.53.43-.97.97-.97s.97.43.97.97-.43.97-.97.97-.97-.43-.97-.97Z"/>
    <path class="cls-5" d="M152.95,247.18c0-.53.43-.97.97-.97s.97.43.97.97-.43.97-.97.97-.97-.43-.97-.97Z"/>
    <path class="cls-5" d="M164.7,240.5c0-.53.43-.97.97-.97s.97.43.97.97-.43.97-.97.97-.97-.43-.97-.97Z"/>
    <path class="cls-5" d="M175.33,232.14c0-.53.43-.97.97-.97s.97.43.97.97-.43.97-.97.97-.97-.43-.97-.97Z"/>
    <path class="cls-5" d="M184.55,222.42c0-.53.43-.97.97-.97s.97.43.97.97-.43.97-.97.97-.97-.43-.97-.97Z"/>
    <path class="cls-5" d="M192.29,211.54c0-.53.43-.97.97-.97s.97.43.97.97-.43.97-.97.97-.97-.43-.97-.97Z"/>
    <path class="cls-5" d="M198.41,199.81c0-.53.43-.97.97-.97s.97.43.97.97-.43.97-.97.97-.97-.43-.97-.97Z"/>
    <path class="cls-5" d="M202.88,187.27c0-.53.43-.97.97-.97s.97.43.97.97-.43.97-.97.97-.97-.43-.97-.97Z"/>
    <path class="cls-5" d="M205.58,174.04c0-.53.43-.97.97-.97s.97.43.97.97-.43.97-.97.97-.97-.43-.97-.97Z"/>
    <path class="cls-5" d="M206.29,160.64c0-.53.43-.97.97-.97s.97.43.97.97-.43.97-.97.97-.97-.43-.97-.97Z"/>
    <path class="cls-5" d="M205.23,147.54c0-.53.43-.97.97-.97s.97.43.97.97-.43.97-.97.97-.97-.43-.97-.97Z"/>
    <path class="cls-5" d="M202.32,134.36c0-.53.43-.97.97-.97s.97.43.97.97-.43.97-.97.97-.97-.43-.97-.97Z"/>
    <path class="cls-5" d="M197.24,121.45c0-.53.43-.97.97-.97s.97.43.97.97-.43.97-.97.97-.97-.43-.97-.97Z"/>
    <path class="cls-5" d="M189.93,109.48c0-.53.43-.97.97-.97s.97.43.97.97-.43.97-.97.97-.97-.43-.97-.97Z"/>
    <path class="cls-5" d="M180.71,99.02c0-.53.43-.97.97-.97s.97.43.97.97-.43.97-.97.97-.97-.43-.97-.97Z"/>
    <path class="cls-5" d="M170.21,90.46c0-.53.43-.97.97-.97s.97.43.97.97-.43.97-.97.97-.97-.43-.97-.97Z"/>
    <path class="cls-5" d="M158.87,83.65c0-.53.43-.97.97-.97s.97.43.97.97-.43.97-.97.97-.97-.43-.97-.97Z"/>
    <path class="cls-1" d="M149.19,10.3c0-.4.33-.73.73-.73s.73.33.73.73-.33.73-.73.73-.73-.33-.73-.73Z"/>
    <path class="cls-1" d="M136.16,11.41c0-.4.33-.73.73-.73s.73.33.73.73-.33.73-.73.73-.73-.33-.73-.73Z"/>
    <path class="cls-1" d="M123.36,13.74c0-.4.33-.73.73-.73s.73.33.73.73-.33.73-.73.73-.73-.33-.73-.73Z"/>
    <path class="cls-1" d="M110.88,17.19c0-.4.33-.73.73-.73s.73.33.73.73-.33.73-.73.73-.73-.33-.73-.73Z"/>
    <path class="cls-1" d="M98.79,21.69c0-.4.33-.73.73-.73s.73.33.73.73-.33.73-.73.73-.73-.33-.73-.73Z"/>
    <path class="cls-1" d="M87.1,27.25c0-.4.33-.73.73-.73s.73.33.73.73-.33.73-.73.73-.73-.33-.73-.73Z"/>
    <path class="cls-1" d="M75.91,33.87c0-.4.33-.73.73-.73s.73.33.73.73-.33.73-.73.73-.73-.33-.73-.73Z"/>
    <path class="cls-1" d="M65.25,41.61c0-.4.33-.73.73-.73s.73.33.73.73-.33.73-.73.73-.73-.33-.73-.73Z"/>
    <path class="cls-1" d="M55.98,49.56c0-.4.33-.73.73-.73s.73.33.73.73-.33.73-.73.73-.73-.33-.73-.73Z"/>
    <path class="cls-1" d="M46.85,58.74c0-.4.33-.73.73-.73s.73.33.73.73-.33.73-.73.73-.73-.33-.73-.73Z"/>
    <path class="cls-1" d="M38.5,68.84c0-.4.33-.73.73-.73s.73.33.73.73-.33.73-.73.73-.73-.33-.73-.73Z"/>
    <path class="cls-1" d="M31.29,79.34c0-.4.33-.73.73-.73s.73.33.73.73-.33.73-.73.73-.73-.33-.73-.73Z"/>
    <path class="cls-1" d="M24.94,90.54c0-.4.33-.73.73-.73s.73.33.73.73-.33.73-.73.73-.73-.33-.73-.73Z"/>
    <path class="cls-1" d="M19.5,102.44c0-.4.33-.73.73-.73s.73.33.73.73-.33.73-.73.73-.73-.33-.73-.73Z"/>
    <path class="cls-1" d="M15.27,114.5c0-.4.33-.73.73-.73s.73.33.73.73-.33.73-.73.73-.73-.33-.73-.73Z"/>
    <path class="cls-1" d="M12.07,127.28c0-.4.33-.73.73-.73s.73.33.73.73-.33.73-.73.73-.73-.33-.73-.73Z"/>
    <path class="cls-1" d="M10.12,140.57c0-.4.33-.73.73-.73s.73.33.73.73-.33.73-.73.73-.73-.33-.73-.73Z"/>
    <path class="cls-1" d="M9.58,153.67c0-.4.33-.73.73-.73s.73.33.73.73-.33.73-.73.73-.73-.33-.73-.73Z"/>
    <path class="cls-1" d="M10.48,167.23c0-.4.33-.73.73-.73s.73.33.73.73-.33.73-.73.73-.73-.33-.73-.73Z"/>
    <path class="cls-1" d="M12.91,180.54c0-.4.33-.73.73-.73s.73.33.73.73-.33.73-.73.73-.73-.33-.73-.73Z"/>
    <path class="cls-1" d="M16.96,193.65c0-.4.33-.73.73-.73s.73.33.73.73-.33.73-.73.73-.73-.33-.73-.73Z"/>
    <path class="cls-1" d="M22.69,206.3c0-.4.33-.73.73-.73s.73.33.73.73-.33.73-.73.73-.73-.33-.73-.73Z"/>
    <path class="cls-1" d="M30.02,218.17c0-.4.33-.73.73-.73s.73.33.73.73-.33.73-.73.73-.73-.33-.73-.73Z"/>
    <path class="cls-1" d="M38.77,228.9c0-.4.33-.73.73-.73s.73.33.73.73-.33.73-.73.73-.73-.33-.73-.73Z"/>
    <path class="cls-1" d="M48.98,238.52c0-.4.33-.73.73-.73s.73.33.73.73-.33.73-.73.73-.73-.33-.73-.73Z"/>
    <path class="cls-1" d="M60.31,246.66c0-.4.33-.73.73-.73s.73.33.73.73-.33.73-.73.73-.73-.33-.73-.73Z"/>
    <path class="cls-1" d="M72.7,253.25c0-.4.33-.73.73-.73s.73.33.73.73-.33.73-.73.73-.73-.33-.73-.73Z"/>
    <path class="cls-1" d="M86.13,258.16c0-.4.33-.73.73-.73s.73.33.73.73-.33.73-.73.73-.73-.33-.73-.73Z"/>
    <path class="cls-1" d="M100.13,261.08c0-.4.33-.73.73-.73s.73.33.73.73-.33.73-.73.73-.73-.33-.73-.73Z"/>
    <path class="cls-1" d="M114.49,261.88c0-.4.33-.73.73-.73s.73.33.73.73-.33.73-.73.73-.73-.33-.73-.73Z"/>
    <path class="cls-1" d="M128.47,260.69c0-.4.33-.73.73-.73s.73.33.73.73-.33.73-.73.73-.73-.33-.73-.73Z"/>
    <path class="cls-1" d="M142.39,257.53c0-.4.33-.73.73-.73s.73.33.73.73-.33.73-.73.73-.73-.33-.73-.73Z"/>
    <path class="cls-1" d="M155.7,252.37c0-.4.33-.73.73-.73s.73.33.73.73-.33.73-.73.73-.73-.33-.73-.73Z"/>
    <path class="cls-1" d="M168.19,245.25c0-.4.33-.73.73-.73s.73.33.73.73-.33.73-.73.73-.73-.33-.73-.73Z"/>
    <path class="cls-1" d="M179.49,236.36c0-.4.33-.73.73-.73s.73.33.73.73-.33.73-.73.73-.73-.33-.73-.73Z"/>
    <path class="cls-1" d="M189.28,226.03c0-.4.33-.73.73-.73s.73.33.73.73-.33.73-.73.73-.73-.33-.73-.73Z"/>
    <path class="cls-1" d="M197.48,214.5c0-.4.33-.73.73-.73s.73.33.73.73-.33.73-.73.73-.73-.33-.73-.73Z"/>
    <path class="cls-1" d="M203.94,202.08c0-.4.33-.73.73-.73s.73.33.73.73-.33.73-.73.73-.73-.33-.73-.73Z"/>
    <path class="cls-1" d="M208.68,188.79c0-.4.33-.73.73-.73s.73.33.73.73-.33.73-.73.73-.73-.33-.73-.73Z"/>
    <path class="cls-1" d="M211.54,174.72c0-.4.33-.73.73-.73s.73.33.73.73-.33.73-.73.73-.73-.33-.73-.73Z"/>
    <path class="cls-1" d="M212.29,160.5c0-.4.33-.73.73-.73s.73.33.73.73-.33.73-.73.73-.73-.33-.73-.73Z"/>
    <path class="cls-1" d="M211.16,146.66c0-.4.33-.73.73-.73s.73.33.73.73-.33.73-.73.73-.73-.33-.73-.73Z"/>
    <path class="cls-1" d="M208.06,132.66c0-.4.33-.73.73-.73s.73.33.73.73-.33.73-.73.73-.73-.33-.73-.73Z"/>
    <path class="cls-1" d="M202.62,118.84c0-.4.33-.73.73-.73s.73.33.73.73-.33.73-.73.73-.73-.33-.73-.73Z"/>
    <path class="cls-1" d="M194.77,106.02c0-.4.33-.73.73-.73s.73.33.73.73-.33.73-.73.73-.73-.33-.73-.73Z"/>
    <path class="cls-1" d="M184.88,94.82c0-.4.33-.73.73-.73s.73.33.73.73-.33.73-.73.73-.73-.33-.73-.73Z"/>
    <path class="cls-1" d="M173.72,85.72c0-.4.33-.73.73-.73s.73.33.73.73-.33.73-.73.73-.73-.33-.73-.73Z"/>
    <path class="cls-1" d="M161.71,78.51c0-.4.33-.73.73-.73s.73.33.73.73-.33.73-.73.73-.73-.33-.73-.73Z"/>
    <path class="cls-4" d="M149.21,5.03c0-.27.22-.48.48-.48s.48.22.48.48-.22.48-.48.48-.48-.22-.48-.48Z"/>
    <path class="cls-4" d="M135.69,6.18c0-.27.22-.48.48-.48s.48.22.48.48-.22.48-.48.48-.48-.22-.48-.48Z"/>
    <path class="cls-4" d="M122.4,8.6c0-.27.22-.48.48-.48s.48.22.48.48-.22.48-.48.48-.48-.22-.48-.48Z"/>
    <path class="cls-4" d="M109.46,12.18c0-.27.22-.48.48-.48s.48.22.48.48-.22.48-.48.48-.48-.22-.48-.48Z"/>
    <path class="cls-4" d="M96.94,16.84c0-.27.22-.48.48-.48s.48.22.48.48-.22.48-.48.48-.48-.22-.48-.48Z"/>
    <path class="cls-4" d="M84.83,22.61c0-.27.22-.48.48-.48s.48.22.48.48-.22.48-.48.48-.48-.22-.48-.48Z"/>
    <path class="cls-4" d="M73.22,29.48c0-.27.22-.48.48-.48s.48.22.48.48-.22.48-.48.48-.48-.22-.48-.48Z"/>
    <path class="cls-4" d="M62.14,37.54c0-.27.22-.48.48-.48s.48.22.48.48-.22.48-.48.48-.48-.22-.48-.48Z"/>
    <path class="cls-4" d="M52.63,45.7c0-.27.22-.48.48-.48s.48.22.48.48-.22.48-.48.48-.48-.22-.48-.48Z"/>
    <path class="cls-4" d="M43.18,55.21c0-.27.22-.48.48-.48s.48.22.48.48-.22.48-.48.48-.48-.22-.48-.48Z"/>
    <path class="cls-4" d="M34.5,65.71c0-.27.22-.48.48-.48s.48.22.48.48-.22.48-.48.48-.48-.22-.48-.48Z"/>
    <path class="cls-4" d="M27.05,76.56c0-.27.22-.48.48-.48s.48.22.48.48-.22.48-.48.48-.48-.22-.48-.48Z"/>
    <path class="cls-4" d="M20.48,88.15c0-.27.22-.48.48-.48s.48.22.48.48-.22.48-.48.48-.48-.22-.48-.48Z"/>
    <path class="cls-4" d="M14.83,100.51c0-.27.22-.48.48-.48s.48.22.48.48-.22.48-.48.48-.48-.22-.48-.48Z"/>
    <path class="cls-4" d="M10.45,112.98c0-.27.22-.48.48-.48s.48.22.48.48-.22.48-.48.48-.48-.22-.48-.48Z"/>
    <path class="cls-4" d="M7.13,126.27c0-.27.22-.48.48-.48s.48.22.48.48-.22.48-.48.48-.48-.22-.48-.48Z"/>
    <path class="cls-4" d="M5.1,140.14c0-.27.22-.48.48-.48s.48.22.48.48-.22.48-.48.48-.48-.22-.48-.48Z"/>
    <path class="cls-4" d="M4.55,153.75c0-.27.22-.48.48-.48s.48.22.48.48-.22.48-.48.48-.48-.22-.48-.48Z"/>
    <path class="cls-4" d="M5.49,167.93c0-.27.22-.48.48-.48s.48.22.48.48-.22.48-.48.48-.48-.22-.48-.48Z"/>
    <path class="cls-4" d="M8.04,181.83c0-.27.22-.48.48-.48s.48.22.48.48-.22.48-.48.48-.48-.22-.48-.48Z"/>
    <path class="cls-4" d="M12.28,195.55c0-.27.22-.48.48-.48s.48.22.48.48-.22.48-.48.48-.48-.22-.48-.48Z"/>
    <path class="cls-4" d="M18.29,208.82c0-.27.22-.48.48-.48s.48.22.48.48-.22.48-.48.48-.48-.22-.48-.48Z"/>
    <path class="cls-4" d="M25.99,221.27c0-.27.22-.48.48-.48s.48.22.48.48-.22.48-.48.48-.48-.22-.48-.48Z"/>
    <path class="cls-4" d="M35.17,232.52c0-.27.22-.48.48-.48s.48.22.48.48-.22.48-.48.48-.48-.22-.48-.48Z"/>
    <path class="cls-4" d="M45.9,242.62c0-.27.22-.48.48-.48s.48.22.48.48-.22.48-.48.48-.48-.22-.48-.48Z"/>
    <path class="cls-4" d="M57.79,251.16c0-.27.22-.48.48-.48s.48.22.48.48-.22.48-.48.48-.48-.22-.48-.48Z"/>
    <path class="cls-4" d="M70.82,258.08c0-.27.22-.48.48-.48s.48.22.48.48-.22.48-.48.48-.48-.22-.48-.48Z"/>
    <path class="cls-4" d="M84.97,263.25c0-.27.22-.48.48-.48s.48.22.48.48-.22.48-.48.48-.48-.22-.48-.48Z"/>
    <path class="cls-4" d="M99.73,266.32c0-.27.22-.48.48-.48s.48.22.48.48-.22.48-.48.48-.48-.22-.48-.48Z"/>
    <path class="cls-4" d="M114.88,267.15c0-.27.22-.48.48-.48s.48.22.48.48-.22.48-.48.48-.48-.22-.48-.48Z"/>
    <path class="cls-4" d="M129.56,265.9c0-.27.22-.48.48-.48s.48.22.48.48-.22.48-.48.48-.48-.22-.48-.48Z"/>
    <path class="cls-4" d="M144.23,262.56c0-.27.22-.48.48-.48s.48.22.48.48-.22.48-.48.48-.48-.22-.48-.48Z"/>
    <path class="cls-4" d="M158.24,257.12c0-.27.22-.48.48-.48s.48.22.48.48-.22.48-.48.48-.48-.22-.48-.48Z"/>
    <path class="cls-4" d="M171.41,249.6c0-.27.22-.48.48-.48s.48.22.48.48-.22.48-.48.48-.48-.22-.48-.48Z"/>
    <path class="cls-4" d="M183.33,240.22c0-.27.22-.48.48-.48s.48.22.48.48-.22.48-.48.48-.48-.22-.48-.48Z"/>
    <path class="cls-4" d="M193.63,229.34c0-.27.22-.48.48-.48s.48.22.48.48-.22.48-.48.48-.48-.22-.48-.48Z"/>
    <path class="cls-4" d="M202.25,217.2c0-.27.22-.48.48-.48s.48.22.48.48-.22.48-.48.48-.48-.22-.48-.48Z"/>
    <path class="cls-4" d="M209.03,204.16c0-.27.22-.48.48-.48s.48.22.48.48-.22.48-.48.48-.48-.22-.48-.48Z"/>
    <path class="cls-4" d="M214.01,190.19c0-.27.22-.48.48-.48s.48.22.48.48-.22.48-.48.48-.48-.22-.48-.48Z"/>
    <path class="cls-4" d="M217.02,175.35c0-.27.22-.48.48-.48s.48.22.48.48-.22.48-.48.48-.48-.22-.48-.48Z"/>
    <path class="cls-4" d="M217.8,160.37c0-.27.22-.48.48-.48s.48.22.48.48-.22.48-.48.48-.48-.22-.48-.48Z"/>
    <path class="cls-4" d="M216.62,145.85c0-.27.22-.48.48-.48s.48.22.48.48-.22.48-.48.48-.48-.22-.48-.48Z"/>
    <path class="cls-4" d="M213.34,131.09c0-.27.22-.48.48-.48s.48.22.48.48-.22.48-.48.48-.48-.22-.48-.48Z"/>
    <path class="cls-4" d="M207.56,116.46c0-.27.22-.48.48-.48s.48.22.48.48-.22.48-.48.48-.48-.22-.48-.48Z"/>
    <path class="cls-4" d="M199.23,102.84c0-.27.22-.48.48-.48s.48.22.48.48-.22.48-.48.48-.48-.22-.48-.48Z"/>
    <path class="cls-4" d="M188.73,90.96c0-.27.22-.48.48-.48s.48.22.48.48-.22.48-.48.48-.48-.22-.48-.48Z"/>
    <path class="cls-4" d="M176.94,81.37c0-.27.22-.48.48-.48s.48.22.48.48-.22.48-.48.48-.48-.22-.48-.48Z"/>
    <path class="cls-4" d="M164.33,73.8c0-.27.22-.48.48-.48s.48.22.48.48-.22.48-.48.48-.48-.22-.48-.48Z"/>
    <path class="cls-2" d="M149.26.24c0-.13.11-.24.24-.24s.24.11.24.24-.11.24-.24.24-.24-.11-.24-.24Z"/>
    <path class="cls-2" d="M135.27,1.43c0-.13.11-.24.24-.24s.24.11.24.24-.11.24-.24.24-.24-.11-.24-.24Z"/>
    <path class="cls-2" d="M121.55,3.93c0-.13.11-.24.24-.24s.24.11.24.24-.11.24-.24.24-.24-.11-.24-.24Z"/>
    <path class="cls-2" d="M108.2,7.63c0-.13.11-.24.24-.24s.24.11.24.24-.11.24-.24.24-.24-.11-.24-.24Z"/>
    <path class="cls-2" d="M95.29,12.44c0-.13.11-.24.24-.24s.24.11.24.24-.11.24-.24.24-.24-.11-.24-.24Z"/>
    <path class="cls-2" d="M82.78,18.4c0-.13.11-.24.24-.24s.24.11.24.24-.11.24-.24.24-.24-.11-.24-.24Z"/>
    <path class="cls-2" d="M70.79,25.5c0-.13.11-.24.24-.24s.24.11.24.24-.11.24-.24.24-.24-.11-.24-.24Z"/>
    <path class="cls-2" d="M59.34,33.84c0-.13.11-.24.24-.24s.24.11.24.24-.11.24-.24.24-.24-.11-.24-.24Z"/>
    <path class="cls-2" d="M49.61,42.18c0-.13.11-.24.24-.24s.24.11.24.24-.11.24-.24.24-.24-.11-.24-.24Z"/>
    <path class="cls-2" d="M39.86,52c0-.13.11-.24.24-.24s.24.11.24.24-.11.24-.24.24-.24-.11-.24-.24Z"/>
    <path class="cls-2" d="M30.89,62.86c0-.13.11-.24.24-.24s.24.11.24.24-.11.24-.24.24-.24-.11-.24-.24Z"/>
    <path class="cls-2" d="M23.22,74.03c0-.13.11-.24.24-.24s.24.11.24.24-.11.24-.24.24-.24-.11-.24-.24Z"/>
    <path class="cls-2" d="M16.45,85.98c0-.13.11-.24.24-.24s.24.11.24.24-.11.24-.24.24-.24-.11-.24-.24Z"/>
    <path class="cls-2" d="M10.61,98.76c0-.13.11-.24.24-.24s.24.11.24.24-.11.24-.24.24-.24-.11-.24-.24Z"/>
    <path class="cls-2" d="M6.11,111.61c0-.13.11-.24.24-.24s.24.11.24.24-.11.24-.24.24-.24-.11-.24-.24Z"/>
    <path class="cls-2" d="M2.67,125.36c0-.13.11-.24.24-.24s.24.11.24.24-.11.24-.24.24-.24-.11-.24-.24Z"/>
    <path class="cls-2" d="M.57,139.75c0-.13.11-.24.24-.24s.24.11.24.24-.11.24-.24.24-.24-.11-.24-.24Z"/>
    <path class="cls-2" d="M0,153.83c0-.13.11-.24.24-.24s.24.11.24.24-.11.24-.24.24-.24-.11-.24-.24Z"/>
    <path class="cls-2" d="M.99,168.56c0-.13.11-.24.24-.24s.24.11.24.24-.11.24-.24.24-.24-.11-.24-.24Z"/>
    <path class="cls-2" d="M3.63,182.99c0-.13.11-.24.24-.24s.24.11.24.24-.11.24-.24.24-.24-.11-.24-.24Z"/>
    <path class="cls-2" d="M8.05,197.27c0-.13.11-.24.24-.24s.24.11.24.24-.11.24-.24.24-.24-.11-.24-.24Z"/>
    <path class="cls-2" d="M14.32,211.1c0-.13.11-.24.24-.24s.24.11.24.24-.11.24-.24.24-.24-.11-.24-.24Z"/>
    <path class="cls-2" d="M22.36,224.09c0-.13.11-.24.24-.24s.24.11.24.24-.11.24-.24.24-.24-.11-.24-.24Z"/>
    <path class="cls-2" d="M31.92,235.8c0-.13.11-.24.24-.24s.24.11.24.24-.11.24-.24.24-.24-.11-.24-.24Z"/>
    <path class="cls-2" d="M43.12,246.34c0-.13.11-.24.24-.24s.24.11.24.24-.11.24-.24.24-.24-.11-.24-.24Z"/>
    <path class="cls-2" d="M55.53,255.25c0-.13.11-.24.24-.24s.24.11.24.24-.11.24-.24.24-.24-.11-.24-.24Z"/>
    <path class="cls-2" d="M69.13,262.47c0-.13.11-.24.24-.24s.24.11.24.24-.11.24-.24.24-.24-.11-.24-.24Z"/>
    <path class="cls-2" d="M83.93,267.87c0-.13.11-.24.24-.24s.24.11.24.24-.11.24-.24.24-.24-.11-.24-.24Z"/>
    <path class="cls-2" d="M99.38,271.08c0-.13.11-.24.24-.24s.24.11.24.24-.11.24-.24.24-.24-.11-.24-.24Z"/>
    <path class="cls-2" d="M115.24,271.94c0-.13.11-.24.24-.24s.24.11.24.24-.11.24-.24.24-.24-.11-.24-.24Z"/>
    <path class="cls-2" d="M130.57,270.63c0-.13.11-.24.24-.24s.24.11.24.24-.11.24-.24.24-.24-.11-.24-.24Z"/>
    <path class="cls-2" d="M145.91,267.12c0-.13.11-.24.24-.24s.24.11.24.24-.11.24-.24.24-.24-.11-.24-.24Z"/>
    <path class="cls-2" d="M160.57,261.43c0-.13.11-.24.24-.24s.24.11.24.24-.11.24-.24.24-.24-.11-.24-.24Z"/>
    <path class="cls-2" d="M174.36,253.56c0-.13.11-.24.24-.24s.24.11.24.24-.11.24-.24.24-.24-.11-.24-.24Z"/>
    <path class="cls-2" d="M186.83,243.73c0-.13.11-.24.24-.24s.24.11.24.24-.11.24-.24.24-.24-.11-.24-.24Z"/>
    <path class="cls-2" d="M197.6,232.35c0-.13.11-.24.24-.24s.24.11.24.24-.11.24-.24.24-.24-.11-.24-.24Z"/>
    <path class="cls-2" d="M206.6,219.66c0-.13.11-.24.24-.24s.24.11.24.24-.11.24-.24.24-.24-.11-.24-.24Z"/>
    <path class="cls-2" d="M213.68,206.05c0-.13.11-.24.24-.24s.24.11.24.24-.11.24-.24.24-.24-.11-.24-.24Z"/>
    <path class="cls-2" d="M218.87,191.45c0-.13.11-.24.24-.24s.24.11.24.24-.11.24-.24.24-.24-.11-.24-.24Z"/>
    <path class="cls-2" d="M222.02,175.92c0-.13.11-.24.24-.24s.24.11.24.24-.11.24-.24.24-.24-.11-.24-.24Z"/>
    <path class="cls-2" d="M222.84,160.25c0-.13.11-.24.24-.24s.24.11.24.24-.11.24-.24.24-.24-.11-.24-.24Z"/>
    <path class="cls-2" d="M221.6,145.12c0-.13.11-.24.24-.24s.24.11.24.24-.11.24-.24.24-.24-.11-.24-.24Z"/>
    <path class="cls-2" d="M218.16,129.67c0-.13.11-.24.24-.24s.24.11.24.24-.11.24-.24.24-.24-.11-.24-.24Z"/>
    <path class="cls-2" d="M212.08,114.29c0-.13.11-.24.24-.24s.24.11.24.24-.11.24-.24.24-.24-.11-.24-.24Z"/>
    <path class="cls-2" d="M203.3,99.95c0-.13.11-.24.24-.24s.24.11.24.24-.11.24-.24.24-.24-.11-.24-.24Z"/>
    <path class="cls-2" d="M192.24,87.46c0-.13.11-.24.24-.24s.24.11.24.24-.11.24-.24.24-.24-.11-.24-.24Z"/>
    <path class="cls-2" d="M179.9,77.42c0-.13.11-.24.24-.24s.24.11.24.24-.11.24-.24.24-.24-.11-.24-.24Z"/>
    <path class="cls-2" d="M166.73,69.52c0-.13.11-.24.24-.24s.24.11.24.24-.11.24-.24.24-.24-.11-.24-.24Z"/>
  </g>
  <path class="cls-3" d="M126.64,91.11v-.32s.01-.32.01-.32v-.32s.01-.32.01-.32v-.32s.01-.32.01-.32v-.32s.01-.32.01-.32v-.32s.01-.32.01-.32v-.32s.02-.32.02-.32v-.32s.02-.32.02-.32v-.32s.02-.32.02-.32l.02-.32.02-.32.02-.32.02-.32.02-.32.02-.32.02-.32.02-.32.02-.32.02-.32.02-.32.02-.32.02-.32.02-.32.03-.32.03-.32.03-.32.03-.32.03-.32.03-.32.03-.32.03-.32.03-.32.04-.32.04-.32.04-.32.04-.32.05-.32.05-.32.05-.32.05-.32.05-.32.05-.31.06-.31.06-.31.06-.31.06-.31.06-.31.06-.31.06-.31.06-.31.06-.31.07-.31.07-.31.07-.31.07-.31.07-.31.08-.31.08-.31.08-.31.08-.31.08-.31.08-.31.08-.31.08-.31.08-.31.08-.31.09-.31.09-.31.09-.31.09-.31.09-.31.09-.31.1-.3.1-.3.1-.3.1-.3.1-.3.11-.3.11-.3.11-.3.11-.3.11-.3.11-.3.12-.3.12-.3.12-.3.12-.3.12-.3.12-.3.13-.29.13-.29.13-.29.13-.29.13-.29.13-.29.14-.29.14-.29.14-.29.14-.29.14-.29.14-.29.15-.28.15-.28.15-.28.15-.28.15-.28.15-.28.16-.28.16-.28.16-.28.16-.28.16-.28.16-.27.17-.27.17-.27.17-.27.17-.27.17-.27.17-.27.18-.26.18-.26.18-.26.18-.26.18-.26.18-.26.19-.26.19-.26.19-.26.19-.26.19-.26.19-.26.19-.25.2-.25.2-.25.2-.25.2-.25.2-.25.2-.25.21-.24.21-.24.21-.24.21-.24.21-.24.21-.24.21-.24.22-.23.22-.23.22-.23.22-.23.22-.23.22-.23.23-.23.23-.23.23-.23.23-.23.23-.23.23-.22.23-.22.23-.22.23-.22.23-.22.23-.22.23-.22.24-.21.24-.21.24-.21.24-.21.24-.21.24-.21.24-.21.25-.2.25-.2.25-.2.25-.2.25-.2.25-.2.25-.2.25-.19.25-.19.26-.19.26-.19.26-.19.26-.18.26-.18.26-.18.27-.18.27-.17.27-.17.27-.17.28-.16.28-.16.28-.15.28-.15.28-.15.27-.17.25-.2.19-.26.09-.3-.07-.31-.21-.23-.28-.15-.31-.08-.32-.03h-.32s-.32,0-.32,0h-.32s-.32.02-.32.02h-.32s-.32.02-.32.02h-.32s-.32.02-.32.02l-.32.02-.32.02-.32.02-.32.02-.32.02-.32.02-.32.02-.32.02-.32.02-.32.02-.32.02-.32.02-.32.02-.32.02-.32.02-.32.03-.32.03-.32.03-.32.03-.32.03-.32.03-.32.03-.32.03-.32.04-.32.04-.32.04-.32.04-.32.04-.32.04-.32.04-.32.04-.32.04-.32.04-.32.04-.32.04-.32.04-.32.04-.32.04-.32.05-.32.05-.32.05-.32.05-.32.05-.32.05-.32.05-.32.05-.31.06-.31.06-.31.06-.31.06-.31.06-.31.06-.31.06-.31.06-.31.06-.31.06-.31.06-.31.06-.31.06-.31.06-.31.06-.31.07-.31.07-.31.07-.31.07-.31.07-.31.07-.31.07-.31.07-.31.07-.31.08-.31.08-.31.08-.31.08-.31.08-.31.08-.31.08-.31.08-.31.08-.31.08-.31.08-.31.08-.31.08-.31.08-.31.08-.31.09-.31.09-.31.09-.31.09-.31.09-.31.09-.31.09-.31.09-.31.09-.3.1-.3.1-.3.1-.3.1-.3.1-.3.1-.3.1-.3.1-.3.1-.3.1-.3.1-.3.1-.3.1-.3.1-.3.1-.3.1-.3.11-.3.11-.3.11-.3.11-.3.11-.3.11-.3.11-.3.11-.3.11-.3.12-.3.12-.3.12-.3.12-.3.12-.3.12-.3.12-.3.12-.3.12-.3.12-.3.12-.3.12-.3.12-.3.12-.3.12-.29.12-.29.13-.29.13-.29.13-.29.13-.29.13-.29.13-.29.13-.29.13-.29.13-.29.13-.29.13-.29.13-.29.13-.29.13-.29.13-.29.13-.29.14-.29.14-.29.14-.29.14-.29.14-.29.14-.29.14-.29.14-.29.14-.28.15-.28.15-.28.15-.28.15-.28.15-.28.15-.28.15-.28.15-.28.15-.28.15-.28.15-.28.15-.28.15-.28.15-.28.15-.28.15-.28.16-.28.16-.28.16-.28.16-.28.16-.28.16-.28.16-.28.16-.28.16-.27.17-.27.17-.27.17-.27.17-.27.17-.27.17-.27.17-.27.17-.27.17-.27.17-.27.17-.27.17-.27.17-.27.17-.27.17-.27.17-.27.18-.27.18-.27.18-.27.18-.27.18-.27.18-.27.18-.27.18-.26.18-.26.18-.26.18-.26.18-.26.18-.26.18-.26.18-.26.18-.26.18-.26.19-.26.19-.26.19-.26.19-.26.19-.26.19-.26.19-.26.19-.25.19-.25.2-.25.2-.25.2-.25.2-.25.2-.25.2-.25.2-.25.2-.25.2-.25.2-.25.2-.25.2-.25.2-.25.2-.25.2-.25.2-.24.21-.24.21-.24.21-.24.21-.24.21-.24.21-.24.21-.24.21-.24.21-.24.21-.24.21-.24.21-.24.21-.24.21-.24.21-.24.21-.24.21-.24.21-.24.21-.24.21-.24.21-.24.21-.24.21-.24.21-.24.21-.24.21-.24.21-.23.22-.23.22-.23.22-.23.22-.23.22-.23.22-.23.22-.23.22-.23.22-.23.22-.23.23-.23.23-.23.23-.23.23-.23.23-.23.23-.23.23-.23.23-.23.23-.22.23-.22.23-.22.23-.22.23-.22.23-.22.23-.22.23-.22.23-.22.23-.22.23-.21.24-.21.24-.21.24-.21.24-.21.24-.21.24-.21.24-.21.24-.21.24-.21.24-.21.24-.21.24-.21.24-.21.24-.21.24-.21.24-.21.24-.21.24-.21.24-.2.25-.2.25-.2.25-.2.25-.2.25-.2.25-.2.25-.2.25-.2.25-.2.25-.2.25-.2.25-.2.25-.2.25-.2.25-.2.25-.2.25-.2.25-.2.25-.19.26-.19.26-.19.26-.19.26-.19.26-.19.26-.19.26-.19.26-.19.26-.19.26-.18.26-.18.26-.18.26-.18.26-.18.26-.18.26-.18.26-.18.26-.18.26-.18.26-.18.27-.18.27-.18.27-.18.27-.18.27-.18.27-.18.27-.18.27-.18.27-.17.27-.17.27-.17.27-.17.27-.17.27-.17.27-.17.27-.17.27-.17.27-.17.27-.16.27-.16.28-.16.28-.16.28-.16.28-.16.28-.16.28-.16.28-.16.28-.16.28-.16.28-.15.28-.15.28-.15.28-.15.28-.15.28-.15.28-.15.28-.15.28-.15.28-.15.28-.15.28-.15.28-.15.28-.15.28-.15.28-.15.28-.15.28-.15.28-.15.28-.14.29-.14.29-.14.29-.14.29-.14.29-.14.29-.14.29-.14.29-.14.29-.14.29-.14.29-.13.29-.13.29-.13.29-.13.29-.13.29-.13.29-.13.29-.13.29-.13.29-.13.29-.12.29-.12.29-.12.29-.12.29-.12.29-.12.29-.12.29-.12.29-.12.29-.12.3-.12.3-.12.3-.12.3-.12.3-.12.3-.12.3-.12.3-.12.3-.12.3-.11.3-.11.3-.11.3-.11.3-.11.3-.11.3-.11.3-.11.3-.11.3-.11.3-.11.3-.1.3-.1.3-.1.3-.1.3-.1.3-.1.3-.1.3-.1.3-.1.3-.1.3-.09.31-.09.31-.09.31-.09.31-.09.31-.09.31-.09.31-.09.31-.09.31-.09.31-.08.31-.08.31-.08.31-.08.31-.08.31-.08.31-.08.31-.08.31-.08.31-.08.31-.08.31-.07.31-.07.31-.07.31-.07.31-.07.31-.07.31-.07.31-.07.31-.07.31-.07.31-.06.31-.06.31-.06.31-.06.31-.06.31-.06.31-.06.31-.06.31-.06.31-.06.31-.06.31-.06.31-.06.31-.06.31-.06.31-.06.31-.06.31-.06.31-.06.31-.05.31-.05.32-.05.32-.05.32-.05.32-.05.32-.05.32-.05.32-.05.32-.05.32-.04.32-.04.32-.04.32-.04.32-.04.32-.04.32-.04.32-.04.32-.04.32-.04.32-.04.32-.03.32-.03.32-.03.32-.03.32-.03.32-.03.32-.03.32-.03.32-.03.32-.03.32-.02.32-.02.32-.02.32-.02.32-.02.32-.02.32-.02.32-.02.32-.02.32-.02.32v.32s-.02.32-.02.32v.32s-.02.32-.02.32v.32s-.01.32-.01.32v.32s0,.32,0,.32v.32s0,.32,0,.32v.32s0,.32,0,.32v.32s0,.32,0,.32v.32s0,.32,0,.32v.32s0,.32,0,.32v.32s.02.32.02.32v.32s.02.32.02.32v.32s.02.32.02.32v.32s.02.32.02.32l.02.32.02.32.02.32.02.32.02.32.02.32.02.32.02.32.03.32.03.32.03.32.03.32.03.32.03.32.03.32.03.32.03.32.03.32.03.32.03.32.03.32.03.32.04.32.04.32.04.32.04.32.04.32.04.32.04.32.05.32.05.32.05.32.05.32.05.32.05.32.05.32.05.32.06.31.06.31.06.31.06.31.06.31.06.31.06.31.07.31.07.31.07.31.07.31.07.31.07.31.07.31.07.31.07.31.07.31.07.31.07.31.07.31.07.31.08.31.08.31.08.31.08.31.08.31.08.31.08.31.09.31.09.31.09.31.09.31.09.31.09.31.09.31.1.3.1.3.1.3.1.3.1.3.1.3.1.3.1.3.1.3.1.3.1.3.1.3.1.3.11.3.11.3.11.3.11.3.11.3.11.3.11.3.12.3.12.3.12.3.12.3.12.3.12.3.12.3.13.29.13.29.13.29.13.29.13.29.13.29.13.29.13.29.13.29.13.29.13.29.13.29.13.29.14.29.14.29.14.29.14.29.14.29.14.29.14.29.15.28.15.28.15.28.15.28.15.28.15.28.15.28.16.28.16.28.16.28.16.28.16.28.16.28.16.28.16.28.16.28.16.28.16.28.16.28.17.27.17.27.17.27.17.27.17.27.17.27.17.27.18.27.18.27.18.27.18.27.18.27.18.27.18.26.18.26.18.26.18.26.18.26.18.26.19.26.19.26.19.26.19.26.19.26.19.26.19.26.19.25.19.25.19.25.19.25.19.25.2.25.2.25.2.25.2.25.2.25.2.25.2.25.21.24.21.24.21.24.21.24.21.24.21.24.21.24.21.24.21.24.21.24.21.24.21.24.22.24.22.23.22.23.22.23.22.23.22.23.22.23.22.23.22.23.22.23.22.23.22.23.22.23.23.22.23.22.23.22.23.22.23.22.23.22.23.22.23.22.23.22.23.22.23.22.23.22.24.21.24.21.24.21.24.21.24.21.24.21.24.21.24.21.24.21.24.21.24.21.24.21.25.2.25.2.25.2.25.2.25.2.25.2.25.2.25.19.25.19.25.19.25.19.25.19.26.19.26.19.26.19.26.19.26.19.26.19.26.18.26.18.26.18.26.18.26.18.26.18.27.18.27.18.27.18.27.18.27.18.27.18.27.17.27.17.27.17.27.17.27.17.27.17.27.16.28.16.28.16.28.16.28.16.28.16.28.16.28.16.28.16.28.16.28.16.28.16.28.15.28.15.28.15.28.15.28.15.28.15.29.14.29.14.29.14.29.14.29.14.29.14.29.14.29.14.29.14.29.14.29.14.29.13.29.13.29.13.29.13.29.13.29.13.29.13.3.12.3.12.3.12.3.12.3.12.3.12.3.11.3.11.3.11.3.11.3.11.3.11.3.11.3.11.3.11.3.11.3.11.3.1.3.1.3.1.3.1.3.1.3.1.31.09.31.09.31.09.31.09.31.09.31.09.31.08.31.08.31.08.31.08.31.08.31.08.31.08.31.08.31.08.31.08.31.08.31.07.31.07.31.07.31.07.31.07.31.07.31.06.31.06.31.06.31.06.31.06.31.06.32.05.31.05.31.05.32.05.31.05.32.05.32.05.32.05.32.05.32.05.32.05.32.04.32.04.32.04.32.04.32.04.32.04.32.03.32.03.32.03.32.03.32.03.32.03.32.02.32.02.32.02.32.02.32.02h.32s.32.03.32.03h.32s.32.03.32.03h.32s.32.02.32.02h.32s.32,0,.32,0h.32s.32,0,.32,0h.32s.32,0,.32,0h.32s.32,0,.32,0h.32s.32,0,.32,0h.32s.32,0,.32,0h.32s.32-.02.32-.02h.32s.32-.02.32-.02h.32s.32-.02.32-.02h.32s.32-.03.32-.03l.32-.02.32-.02.32-.02.32-.02.32-.02.32-.02.32-.03.32-.03.32-.03.32-.03.32-.03.32-.03.32-.03.32-.04.32-.04.32-.04.32-.04.32-.04.32-.04.32-.04.32-.05.32-.05.32-.05.32-.05.32-.05.32-.05.31-.05.31-.05.31-.05.31-.05.31-.05.31-.05.31-.06.31-.06.31-.06.31-.06.31-.06.31-.06.31-.07.31-.07.31-.07.31-.07.31-.07.31-.07.31-.07.31-.08.31-.08.31-.08.31-.08.31-.08.31-.08.31-.09.31-.09.31-.09.31-.09.31-.09.31-.09.31-.09.3-.1.3-.1.3-.1.3-.1.3-.1.3-.1.3-.1.3-.1.3-.1.3-.1.3-.1.3-.11.3-.11.3-.11.3-.11.3-.11.3-.11.3-.11.3-.12.3-.12.3-.12.3-.12.3-.12.3-.12.29-.13.29-.13.29-.13.29-.13.29-.13.29-.13.29-.14.29-.14.29-.14.29-.14.29-.14.29-.14.29-.14.29-.14.29-.14.29-.14.29-.14.29-.14.28-.15.28-.15.28-.15.28-.15.28-.15.28-.15.28-.16.28-.16.28-.16.28-.16.28-.16.28-.16.27-.17.27-.17.27-.17.27-.17.27-.17.27-.17.27-.17.27-.17.27-.17.27-.17.27-.17.27-.18.26-.18.26-.18.26-.18.26-.18.26-.18.26-.18.26-.19.26-.19.26-.19.26-.19.26-.19.26-.19.25-.19.25-.19.25-.19.25-.19.25-.19.25-.2.25-.2.25-.2.25-.2.25-.2.25-.2.24-.21.24-.21.24-.21.24-.21.24-.21.24-.21.24-.21.24-.21.24-.21.24-.21.24-.21.24-.22.23-.22.23-.22.23-.22.23-.22.23-.22.23-.22.23-.22.23-.22.23-.22.23-.22.23-.22.22-.23.22-.23.22-.23.22-.23.22-.23.22-.23.22-.23.22-.23.22-.23.22-.23.22-.23.21-.24.21-.24.21-.24.21-.24.21-.24.21-.24.21-.24.21-.24.21-.24.21-.24.21-.24.2-.25.2-.25.2-.25.2-.25.2-.25.2-.25.19-.25.19-.25.19-.25.19-.25.19-.25.19-.26.19-.26.19-.26.19-.26.19-.26.19-.26.18-.26.18-.26.18-.26.18-.26.18-.26.18-.26.18-.27.18-.27.18-.27.18-.27.18-.27.17-.27.17-.27.17-.27.17-.27.17-.27.17-.27.16-.27.16-.27.16-.27.16-.27.16-.27.16-.28.16-.28.16-.28.16-.28.16-.28.16-.28.15-.28.15-.28.15-.28.15-.28.15-.28.15-.28.15-.28.15-.28.15-.28.15-.28.15-.28.14-.29.14-.29.14-.29.14-.29.14-.29.14-.29.13-.29.13-.29.13-.29.13-.29.13-.29.13-.29.13-.29.13-.29.13-.29.13-.29.12-.29.12-.3.12-.3.12-.3.12-.3.12-.3.11-.3.11-.3.11-.3.11-.3.11-.3.11-.3.11-.3.11-.3.11-.3.11-.3.11-.3.1-.3.1-.3.1-.3.1-.3.1-.3.09-.31.09-.31.09-.31.09-.31.09-.31.09-.31.09-.31.09-.31.09-.31.09-.31.09-.31.08-.31.08-.31.08-.31.08-.31.08-.31.08-.31.07-.31.07-.31.07-.31.07-.31.07-.31.06-.31.06-.31.06-.31.06-.31.06-.31.06-.31.06-.31.06-.31.06-.31.06-.31.05-.31.05-.32.05-.32.05-.32.05-.32.05-.32.04-.32.04-.32.04-.32.04-.32.04-.32.04-.32.03-.32.03-.32.03-.32.03-.32.03-.32.03-.32.03-.32.03-.32.03-.32.03-.32.02-.32.02-.32.02-.32.02-.32.02-.32v-.32s.02-.32.02-.32v-.32s.02-.32.02-.32v-.32s.02-.32.02-.32v-.32s0-.32,0-.32v-.32s0-.32,0-.32v-.32s0-.32,0-.32v-.32s0-.32,0-.32v-.32s0-.32,0-.32v-.32s-.02-.32-.02-.32v-.32s-.02-.32-.02-.32v-.32s-.02-.32-.02-.32v-.32s-.03-.32-.03-.32v-.32s-.03-.32-.03-.32l-.02-.32-.02-.32-.02-.32-.02-.32-.02-.32-.03-.32-.03-.32-.03-.32-.03-.32-.03-.32-.03-.32-.03-.32-.03-.32-.03-.32-.03-.32-.04-.32-.04-.32-.04-.32-.04-.32-.04-.32-.04-.32-.04-.32-.04-.32-.04-.32-.04-.32-.05-.32-.05-.32-.05-.32-.05-.32-.05-.32-.06-.31-.06-.31-.06-.31-.06-.31-.06-.31-.06-.31-.06-.31-.06-.31-.06-.31-.07-.31-.07-.31-.07-.31-.07-.31-.07-.31-.07-.31-.08-.31-.08-.31-.08-.31-.08-.31-.08-.31-.08-.31-.08-.31-.08-.31-.08-.31-.09-.31-.09-.31-.09-.31-.09-.31-.09-.31-.1-.3-.1-.3-.1-.3-.1-.3-.1-.3-.1-.3-.1-.3-.1-.3-.1-.3-.11-.3-.11-.3-.11-.3-.11-.3-.11-.3-.12-.3-.12-.3-.12-.3-.12-.3-.12-.29-.12-.29-.12-.29-.12-.29-.13-.29-.13-.29-.13-.29-.13-.29-.13-.29-.13-.29-.14-.29-.14-.29-.14-.29-.14-.29-.14-.28-.14-.29-.14-.29-.14-.28-.15-.28-.15-.28-.15-.28-.15-.28-.15-.28-.16-.28-.16-.28-.16-.28-.16-.28-.16-.28-.16-.27-.16-.27-.16-.27-.16-.27-.17-.27-.17-.27-.17-.27-.17-.27-.17-.27-.18-.27-.18-.27-.18-.27-.18-.27-.18-.26-.18-.26-.18-.26-.18-.26-.18-.26-.19-.26-.19-.26-.19-.26-.19-.26-.19-.26-.2-.25-.2-.25-.2-.25-.2-.25-.2-.25-.2-.25-.2-.25-.2-.25-.2-.25-.21-.24-.21-.24-.21-.24-.21-.24-.21-.24-.21-.24-.21-.24-.21-.24-.21-.24-.22-.23-.22-.23-.22-.23-.22-.23-.22-.23-.22-.23-.22-.23-.22-.23-.22-.23-.22-.23-.23-.22-.23-.22-.23-.22-.23-.22-.23-.22-.24-.22-.24-.22-.24-.22-.23-.22-.24-.21-.24-.21-.24-.21-.24-.21-.24-.21-.24-.21-.24-.21-.24-.21-.24-.21-.24-.21-.25-.2-.25-.2-.25-.2-.25-.2-.25-.2-.25-.19-.25-.19-.25-.19-.25-.19-.25-.19-.26-.19-.26-.19-.26-.19-.26-.19-.26-.19-.26-.18-.26-.18-.26-.18-.26-.18-.26-.18-.27-.18-.27-.18-.27-.18-.27-.18-.27-.18-.27-.17-.27-.17-.27-.17-.27-.17-.27-.17-.27-.17-.27-.17-.27-.17-.27-.17-.27-.17-.27-.16-.28-.16-.28-.16-.28-.16-.28-.16-.28-.16-.28-.15-.28-.15-.28-.15-.28-.15-.28-.15-.28-.15-.28-.15-.28-.15-.28-.15-.28-.15-.28-.15-.29-.14-.29-.14-.29-.14-.29-.14-.29-.14-.29-.14-.29-.14-.29-.14-.29-.14-.29-.14-.29-.13-.29-.13-.29-.13-.29-.13-.29-.13-.29-.13-.29-.13-.29-.13-.29-.13-.29-.13-.29-.13-.29-.13-.3-.12-.3-.12-.3-.12-.3-.12-.3-.12-.3-.12-.3-.12-.3-.12-.3-.12-.3-.12-.3-.12-.3-.11-.3-.11-.3-.11-.3-.11-.3-.11-.3-.11-.3-.11-.3-.11-.3-.11-.3-.11-.3-.11-.3-.11-.3-.1-.3-.1-.3-.1-.3-.1-.3-.1-.3-.1-.3-.1-.3-.1-.3-.1-.3-.1-.3-.1-.3-.1-.31-.09-.31-.09-.31-.09-.31-.09-.31-.09-.31-.09-.31-.09-.31-.09-.31-.09-.31-.09-.31-.09-.31-.09-.31-.08-.31-.08-.31-.08-.31-.08-.31-.08-.31-.08-.31-.08-.31-.08-.31-.08-.31-.08-.31-.08-.31-.08-.31-.08M113.04,230.7h-.32s-.32,0-.32,0h-.32s-.32,0-.32,0h-.32s-.32-.01-.32-.01h-.32s-.32-.03-.32-.03h-.32s-.32-.03-.32-.03l-.32-.02-.32-.02-.32-.02-.32-.02-.32-.02-.32-.02-.32-.03-.32-.03-.32-.03-.32-.03-.32-.03-.32-.04-.32-.04-.32-.04-.32-.04-.32-.04-.32-.04-.32-.05-.32-.05-.32-.05-.32-.05-.32-.05-.31-.06-.31-.06-.31-.06-.31-.06-.31-.06-.31-.06-.31-.06-.31-.06-.31-.06-.31-.06-.31-.07-.31-.07-.31-.07-.31-.07-.31-.07-.31-.07-.31-.08-.31-.08-.31-.08-.31-.08-.31-.08-.31-.09-.31-.09-.31-.09-.31-.09-.31-.09-.31-.09-.3-.1-.3-.1-.3-.1-.3-.09-.3-.1-.3-.1-.3-.1-.3-.1-.3-.1-.3-.1-.3-.11-.3-.11-.3-.11-.3-.11-.3-.11-.3-.12-.3-.12-.3-.12-.3-.12-.3-.12-.3-.12-.29-.13-.29-.13-.29-.13-.29-.13-.29-.13-.29-.13-.29-.13-.29-.13-.29-.13-.29-.13-.29-.14-.29-.14-.29-.14-.29-.14-.29-.14-.29-.14-.28-.15-.28-.15-.28-.15-.28-.15-.28-.15-.28-.15-.28-.15-.28-.15-.28-.15-.28-.15-.28-.16-.28-.16-.28-.16-.28-.16-.28-.16-.28-.16-.27-.17-.27-.17-.27-.17-.27-.17-.27-.17-.27-.17-.27-.17-.27-.17-.27-.17-.27-.17-.27-.17-.26-.18-.26-.18-.26-.18-.26-.18-.26-.18-.26-.18-.26-.19-.26-.19-.26-.19-.26-.19-.26-.19-.25-.19-.25-.19-.25-.19-.25-.19-.25-.19-.25-.2-.25-.2-.25-.2-.25-.2-.25-.2-.25-.2-.25-.2-.25-.2-.25-.2-.25-.2-.25-.2-.24-.21-.24-.21-.24-.21-.24-.21-.24-.21-.24-.21-.24-.22-.24-.22-.23-.22-.24-.22-.24-.22-.23-.22-.23-.22-.23-.22-.23-.22-.23-.22-.23-.22-.23-.23-.22-.23-.22-.23-.22-.23-.22-.23-.22-.23-.22-.23-.22-.23-.22-.23-.22-.23-.22-.23-.22-.24-.21-.24-.21-.24-.21-.24-.21-.24-.21-.24-.21-.24-.21-.24-.21-.24-.21-.24-.21-.24-.21-.24-.2-.25-.2-.25-.2-.25-.2-.25-.2-.25-.2-.25-.2-.25-.2-.25-.2-.25-.2-.25-.2-.25-.19-.26-.19-.26-.19-.26-.19-.26-.19-.26-.19-.26-.18-.26-.18-.26-.18-.26-.18-.26-.18-.26-.18-.26-.18-.27-.18-.27-.18-.27-.18-.27-.18-.27-.17-.27-.17-.27-.17-.27-.17-.27-.17-.27-.17-.27-.17-.27-.16-.27-.16-.27-.16-.27-.16-.27-.16-.27-.16-.28-.16-.28-.16-.28-.16-.28-.16-.28-.16-.28-.15-.28-.15-.28-.15-.28-.15-.28-.15-.28-.15-.28-.14-.28-.14-.28-.14-.28-.14-.28-.14-.28-.14-.29-.14-.29-.14-.29-.14-.29-.14-.29-.14-.29-.14-.29-.13-.29-.13-.29-.13-.29-.13-.29-.13-.29-.13-.29-.12-.29-.12-.29-.12-.29-.12-.29-.12-.29-.12-.3-.12-.3-.12-.3-.12-.3-.12-.3-.12-.3-.12-.3-.11-.3-.11-.3-.11-.3-.11-.3-.11-.3-.11-.3-.1-.3-.1-.3-.1-.3-.1-.3-.1-.3-.1-.3-.1-.3-.1-.3-.1-.3-.1-.3-.1-.3-.1-.3-.09-.31-.09-.31-.09-.31-.09-.31-.09-.31-.09-.31-.09-.31-.08-.31-.08-.31-.08-.31-.08-.31-.08-.31-.08-.31-.07-.31-.07-.31-.07-.31-.07-.31-.07-.31-.07-.31-.07-.31-.07-.31-.07-.31-.07-.31-.07-.31-.07-.31-.06-.31-.06-.31-.06-.31-.06-.31-.06-.31-.06-.31-.06-.31-.05-.31-.05-.32-.05-.32-.05-.32-.05-.32-.05-.32-.05-.32-.04-.32-.04-.32-.04-.32-.04-.32-.04-.32-.04-.32-.04-.32-.04-.32-.04-.32-.04-.32-.04-.32-.04-.32-.03-.32-.03-.32-.03-.32-.03-.32-.03-.32-.03-.32-.03-.32-.02-.32-.02-.32-.02-.32-.02-.32-.02-.32-.02-.32-.02-.32-.02-.32v-.32s-.03-.32-.03-.32v-.32s-.03-.32-.03-.32v-.32s-.03-.32-.03-.32v-.32s-.01-.32-.01-.32v-.32s-.01-.32-.01-.32v-.32s-.01-.32-.01-.32v-.32s0-.32,0-.32v-.32s0-.32,0-.32v-.32s0-.32,0-.32v-.32s0-.32,0-.32v-.32s.01-.32.01-.32v-.32s.02-.32.02-.32v-.32s.02-.32.02-.32v-.32s.02-.32.02-.32v-.32s.03-.32.03-.32l.02-.32.02-.32.02-.32.02-.32.02-.32.02-.32.02-.32.02-.32.03-.32.03-.32.03-.32.03-.32.03-.32.03-.32.03-.32.03-.32.03-.32.04-.32.04-.32.04-.32.04-.32.04-.32.04-.32.04-.32.04-.32.04-.32.05-.32.05-.32.05-.32.05-.32.05-.32.05-.32.05-.32.05-.32.06-.31.06-.31.06-.31.06-.31.06-.31.06-.31.06-.31.06-.31.06-.31.07-.31.07-.31.07-.31.07-.31.07-.31.07-.31.07-.31.07-.31.07-.31.08-.31.08-.31.08-.31.08-.31.08-.31.08-.31.08-.31.08-.31.08-.31.08-.31.08-.31.08-.31.08-.31.08-.31.08-.31.08-.31.08-.31.09-.31.09-.31.09-.31.09-.31.09-.31.09-.31.09-.31.09-.31.09-.31.09-.31.1-.3.1-.3.1-.3.1-.3.1-.3.1-.3.1-.3.1-.3.1-.3.11-.3.11-.3.11-.3.11-.3.11-.3.11-.3.11-.3.11-.3.11-.3.11-.3.12-.3.12-.3.12-.3.12-.3.12-.3.12-.3.12-.3.12-.3.12-.3.13-.29.13-.29.13-.29.13-.29.13-.29.13-.29.13-.29.13-.29.13-.29.13-.29.13-.29.13-.29.13-.29.13-.29.13-.29.13-.29.13-.29.13-.29.14-.29.14-.29.14-.29.14-.29.14-.29.14-.29.14-.29.14-.29.14-.29.14-.29.15-.28.15-.28.15-.28.15-.28.15-.28.15-.28.15-.28.15-.28.15-.28.16-.28.16-.28.16-.28.16-.28.16-.28.16-.28.16-.28.16-.28.16-.28.16-.28.16-.28.16-.28.16-.28.16-.28.16-.28.16-.28.16-.28.16-.28.16-.28.17-.27.17-.27.17-.27.17-.27.17-.27.17-.27.17-.27.17-.27.17-.27.17-.27.18-.27.18-.27.18-.27.18-.27.18-.27.18-.27.18-.27.18-.27.18-.27.18-.26.18-.26.18-.26.18-.26.18-.26.18-.26.18-.26.18-.26.18-.26.18-.26.19-.26.19-.26.19-.26.19-.26.19-.26.19-.26.19-.26.19-.26.19-.26.19-.25.2-.25.2-.25.2-.25.2-.25.2-.25.2-.25.2-.25.2-.25.2-.25.2-.25.2-.25.2-.25.2-.25.2-.25.2-.25.2-.25.2-.25.2-.25.2-.25.21-.24.21-.24.21-.24.21-.24.21-.24.21-.24.21-.24.21-.24.21-.24.21-.24.22-.23.22-.23.22-.23.22-.23.22-.23.22-.23.22-.23.22-.23.22-.23.22-.23.22-.23.22-.23.22-.23.22-.23.22-.23.22-.23.22-.23.22-.23.22-.23.23-.23.23-.22.23-.22.23-.22.23-.22.23-.22.23-.22.23-.22.23-.22.23-.22.23-.22.24-.22.24-.22.24-.22.24-.22.24-.22.24-.22.24-.22.24-.22.24-.22.24-.21.24-.21.24-.21.24-.21.24-.21.24-.21.24-.21.24-.21.24-.21.24-.21.24-.21.25-.2.25-.2.25-.2.25-.2.25-.2.25-.2.25-.2.25-.2.25-.2.25-.2.25-.2.25-.2.25-.2.25-.2.25-.2.25-.2.25-.2.25-.2.25-.2.25-.2.25-.2.25-.2.26-.19.26-.19.26-.19.26-.19.26-.19.26-.19.26-.19.26-.19.26-.19.26-.19.26-.19.26-.19.26-.18.26-.18.26-.18.26-.18.26-.18.26-.18.26-.18.26-.18.26-.18.26-.18.26-.18.27-.18.27-.17.27-.17.27-.17.27-.17.27-.17.27-.17.27-.17.27-.17.27-.17.27-.17.27-.17.27-.17.27-.17.27-.17.27-.17.27-.17.27-.17.27-.16.27-.16.27-.16.27-.16.27-.16.28-.16.28-.16.28-.16.28-.16.28-.16.28-.16.28-.16.28-.15.28-.15.28-.15.28-.15.28-.15.28-.15.28-.15.28-.15.28-.15.28-.15.28-.15.28-.14.28-.14.28-.14.28-.14.28-.14.29-.14.29-.14.29-.14.29-.14.29-.14.29-.14.29-.14.29-.13.29-.13.29-.13.29-.13.29-.13.29-.13.29-.13.29-.13.29-.13.29-.13.29-.13.29-.13.29-.12.29-.12.29-.12.29-.12.29-.12.3-.12.3-.12.3-.12.3-.12.3-.12.3-.12.3-.12.3-.11.3-.11.3-.11.3-.11.3-.11.3-.11.3-.11.3-.11.3-.11.3-.11.3-.11.3-.1.3-.1.3-.1.3-.1.3-.1.3-.1.3-.1.3-.1.3-.1.3-.1.3-.1.3-.1.31-.09.31-.09.31-.09.31-.09.31-.09.31-.09.31-.09.31-.08.31-.08.31-.08.31-.08.31-.08.31-.08.31-.08.31-.08.31-.08.31-.08.31-.08.31-.08.31-.07.31-.07.31-.07.31-.07.31-.07.31-.07.31-.07.31-.07.31-.07.31-.07.31-.07.31-.07.31-.06.31-.06.31-.06.31-.06.31-.06.31-.06.31-.06.31-.05.32-.05.32-.05.31-.05.32-.05.31-.05.15.04-.22.24-.22.24-.22.24-.22.24-.21.24-.21.24-.21.24-.21.24-.2.25-.2.25-.2.25-.2.25-.2.25-.2.25-.2.25-.2.25-.19.26-.19.26-.19.26-.19.26-.19.26-.18.26-.18.26-.18.26-.18.26-.18.27-.18.27-.18.27-.17.27-.17.27-.17.27-.17.27-.17.27-.16.27-.16.27-.16.27-.16.28-.16.28-.16.28-.16.28-.15.28-.15.28-.15.28-.15.28-.15.28-.15.28-.15.28-.15.28-.14.29-.14.29-.14.29-.14.29-.13.29-.13.29-.13.29-.13.29-.13.29-.13.29-.13.29-.13.29-.12.29-.12.29-.12.29-.12.3-.11.3-.11.3-.11.3-.11.3-.11.3-.11.3-.11.3-.1.3-.1.3-.1.3-.1.3-.1.3-.1.3-.1.3-.1.3-.09.31-.09.31-.09.31-.09.31-.09.31-.09.31-.09.31-.08.31-.08.31-.08.31-.08.31-.08.31-.08.31-.08.31-.07.31-.07.31-.07.31-.07.31-.07.31-.07.31-.07.31-.07.31-.07.31-.07.31-.07.31-.07.31-.07.31-.06.31-.06.31-.06.31-.06.31-.06.31-.06.31-.06.31-.05.32-.05.32-.05.32-.05.32-.05.32-.05.32-.05.32-.04.32-.04.32-.04.32-.04.32-.04.32-.04.32-.04.32-.04.32-.04.32-.04.32-.04.32-.03.32-.03.32-.03.32-.03.32-.03.32-.03.32-.03.32-.02.32-.02.32-.02.32-.02.32-.02.32-.02.32-.02.32-.02.32-.02.32-.02.32v.32s-.02.32-.02.32v.32s-.02.32-.02.32v.32s-.01.32-.01.32v.32s0,.32,0,.32v.32s0,.32,0,.32v.32s0,.32,0,.32v.32s0,.32,0,.32v.32s.01.32.01.32v.32s.01.32.01.32v.32s.01.32.01.32v.32s.02.32.02.32l.02.32.02.32.02.32.02.32.02.32.02.32.02.32.03.32.11.24.32.05.31.06.31.06.31.06.31.06.31.06.31.07.31.07.31.07.31.07.31.07.31.07.31.07.31.07.31.07.31.07.31.07.31.07.31.08.31.08.31.08.31.08.31.08.31.08.31.08.31.09.31.08.31.09.31.08.31.09.31.09.31.09.31.09.31.09.31.09.31.09.3.1.3.1.3.1.3.1.3.1.3.1.3.1.3.1.3.1.3.1.3.1.3.1.3.1.3.1.3.11.3.11.3.11.3.11.3.11.3.11.3.11.3.12.3.12.3.12.3.12.3.12.3.12.3.12.3.12.29.12.29.13.29.13.29.13.29.13.29.13.29.13.29.13.29.13.29.13.29.13.29.13.29.13.29.13.29.13.29.13.29.13.29.14.29.14.29.14.29.14.29.14.29.14.29.14.29.14.28.15.28.15.28.15.28.15.28.15.28.15.28.15.28.15.28.15.28.16.28.16.28.16.28.16.28.16.27.16.27.16.27.16.27.16.27.17.27.17.27.17.27.17.27.17.27.17.27.17.27.17.27.17.27.17.26.18.26.18.26.18.26.18.26.18.26.18.26.18.26.18.26.18.26.19.26.19.26.19.26.19.26.19.25.2.25.2.25.2.25.2.25.2.25.2.25.2.25.2.25.2.25.2.24.21.24.21.24.21.24.21.24.21.24.21.24.21.24.21.24.21.24.22.23.22.23.22.23.22.23.22.23.22.23.22.23.22.23.22.23.22.22.23.22.23.22.23.22.23.22.23.22.24.21.24.21.24.21.24.21.24.21.24.21.24.21.24.21.24.21.24.2.25.2.25.2.25.2.25.2.25.2.25.19.25.19.25.19.25.19.25.19.26.19.26.19.26.19.26.19.26.18.26.18.27.18.27.18.27.18.27.18.27.17.27.17.27.17.27.17.27.17.27.16.28.16.28.16.28.16.28.16.28.15.28.15.28.15.28.15.28.15.28.15.28.14.29.14.29.14.29.14.29.14.29.13.29.13.29.13.29.13.29.13.29.13.29.12.3.12.3.12.29.12.3.12.3.11.3.11.3.11.3.11.3.11.3.11.3.1.3.1.3.1.3.1.3.1.3.09.31.09.31.09.31.09.31.09.31.09.31.09.31.08.31.08.31.08.31.08.31.08.31.08.31.08.31.07.31.07.31.07.31.07.31.07.31.07.31.07.31.07.31.07.31.07.31.07.31.07.31.07.31.06.31.06.31.06.31.06.31.06.31.06.31.06.31.05.32.05.32.05.32.05.32.05.32.05.32.05.32.04.32.04.32.04.32.04.32.04.32.04.32.04.32.03.32.03.32.03.32.03.32.03.32.03.32.02.32.02.32.02.32.02.32.02.32.02.32.02.32v.32s.02.32.02.32v.32s.02.32.02.32v.32s.02.32.02.32v.32s0,.32,0,.32v.32s0,.32,0,.32v.32s0,.32,0,.32v.32s0,.32,0,.32v.32s-.02.32-.02.32v.32s-.02.32-.02.32v.32s-.02.32-.02.32l-.02.32-.02.32-.02.32-.02.32-.02.32-.02.32-.03.32-.03.32-.03.32-.03.32-.03.32-.03.32-.03.32-.04.32-.04.32-.04.32-.04.32-.04.32-.04.32-.05.32-.05.32-.05.32-.05.32-.05.32-.05.32-.06.31-.06.31-.06.31-.06.31-.06.31-.06.31-.06.31-.07.31-.07.31-.07.31-.07.31-.07.31-.07.31-.07.31-.07.31-.07.31-.07.31-.07.31-.07.31-.08.31-.08.31-.08.31-.08.31-.08.31-.08.31-.09.31-.09.31-.09.31-.09.31-.09.31-.09.31-.1.3-.1.3-.1.3-.1.3-.1.3-.1.3-.1.3-.11.3-.11.3-.11.3-.11.3-.11.3-.11.3-.12.3-.12.3-.12.3-.12.3-.12.3-.12.3-.13.29-.13.29-.13.29-.13.29-.13.29-.13.29-.13.29-.14.29-.14.29-.14.29-.14.29-.14.29-.14.29-.14.28-.14.29-.14.28-.14.28-.14.28-.15.28-.15.28-.15.28-.15.28-.15.28-.15.28-.16.28-.16.28-.16.28-.16.28-.16.28-.16.28-.16.28-.17.27-.17.27-.17.27-.17.27-.17.27-.17.27-.18.27-.18.27-.18.27-.18.27-.18.27-.18.27-.18.26-.18.26-.18.26-.18.26-.18.26-.18.26-.19.26-.19.26-.19.26-.19.26-.19.26-.19.26-.2.25-.2.25-.2.25-.2.25-.2.25-.2.25-.2.25-.21.24-.21.24-.21.24-.21.24-.21.24-.21.24-.21.24-.21.24-.21.24-.21.24-.21.24-.22.24-.22.23-.22.23-.22.23-.22.23-.22.23-.22.23-.23.23-.23.23-.23.23-.23.23-.23.23-.23.22-.23.22-.23.22-.23.22-.23.22-.23.22-.23.22-.24.21-.24.21-.24.21-.24.21-.24.21-.24.21-.24.21-.25.21-.25.2-.25.2-.25.21-.25.2-.25.2-.25.2-.25.2-.25.2-.25.2-.25.2-.25.19-.26.19-.26.19-.26.19-.26.19-.26.19-.26.19-.26.18-.26.18-.26.18-.26.18-.26.18-.26.18-.27.17-.27.17-.27.17-.27.17-.27.17-.27.17-.27.17-.27.17-.27.17-.27.17-.27.17-.27.17-.28.16-.28.16-.28.16-.28.16-.28.16-.28.16-.28.15-.28.15-.28.15-.28.15-.28.15-.28.15-.28.15-.29.14-.29.14-.29.14-.29.14-.29.14-.29.14-.29.13-.29.13-.29.13-.29.13-.29.13-.29.13-.29.13-.29.12-.29.12-.29.12-.29.12-.29.12-.3.12-.3.12-.3.12-.3.12-.3.12-.3.12-.3.12-.3.11-.3.11-.3.11-.3.11-.3.11-.3.11-.3.1-.3.1-.3.1-.3.1-.3.1-.3.1-.3.1-.31.09-.31.09-.31.09-.31.09-.31.09-.31.09-.31.08-.31.08-.31.08-.31.08-.31.08-.31.08-.31.08-.31.07-.31.07-.31.07-.31.07-.31.07-.31.07-.31.06-.31.06-.31.06-.31.06-.31.06-.31.06-.31.06-.32.05-.32.05-.32.05-.32.05-.32.05-.32.05-.32.05-.32.04-.32.04-.32.04-.32.04-.32.04-.32.04-.32.04-.32.03-.32.03-.32.03-.32.03-.32.03-.32.03-.32.02-.32.02-.32.02-.32.02-.32.02-.32.02-.32.02h-.32s-.32.03-.32.03h-.32s-.32.03-.32.03h-.32s-.32.03-.32.03h-.32s-.32.02-.32.02h-.32s-.32,0-.32,0h-.32s-.32,0-.32,0h-.32s-.18,0-.18,0Z"/>
</svg>