<?xml version="1.0" encoding="UTF-8"?>
<svg id="Layer_1" data-name="Layer 1" xmlns="http://www.w3.org/2000/svg" viewBox="0 0 76 52">
  <defs>
    <style>
      .cls-1 {
        fill: #fff;
      }

      .cls-2 {
        fill: #e50000;
      }
    </style>
  </defs>
  <path class="cls-1" d="M75.97,31.64l-3.71-29.51c-.17-1.34-1.37-2.28-2.69-2.11L2.1,8.78C.78,8.95-.15,10.17.02,11.51l4.83,38.36c.17,1.34,1.37,2.28,2.69,2.11l58.76-7.63c1.01-.13,1.93-.67,2.56-1.49l6.35-8.34c.62-.82.9-1.86.77-2.89"/>
  <g>
    <path class="cls-2" d="M39.96,23.38c1.45,0,2.54-.99,2.54-2.79s-1.06-2.88-2.54-2.88-2.51,1.05-2.51,2.88,1.03,2.79,2.51,2.79"/>
    <path class="cls-2" d="M69.78,17.7c-1.45,0-2.51,1.05-2.51,2.88s1.04,2.79,2.51,2.79,2.54-.99,2.54-2.79-1.06-2.88-2.54-2.88"/>
    <path class="cls-2" d="M9.11,20.52c0-1.62-.8-2.82-2.54-2.82s-2.54,1.2-2.54,2.82.8,2.88,2.54,2.88,2.54-1.29,2.54-2.88"/>
    <path class="cls-2" d="M60.29,26.08c-1.54,0-2.84-.66-2.84-3.64v-4.51h-1.36v-2.61h1.36v-2.67h3.34v2.67h2.07v2.61h-2.07v3.34c0,1.53.35,1.83,1.12,1.83.24,0,.5-.06.74-.09l.41,2.58c-1.3.39-1.75.48-2.78.48M54.63,18.27c-.41-.18-.89-.27-1.3-.27-1.27,0-2.4.72-2.4,3.13v4.66h-3.31v-10.46h3.31v1.35c.71-1.08,1.77-1.65,2.9-1.65.62,0,1.15.21,1.66.51l-.86,2.73ZM49.17,35.01c-2.69,3.52-7.96,4.83-10.94,4.83s-8.26-1.32-10.94-4.83c-.3-.39.11-.95.51-.71.39.23,1.68,1.06,2.08,1.26,2.72,1.42,5.13,1.78,8.35,1.78,3.22,0,5.64-.35,8.35-1.78.4-.2,1.68-1.03,2.08-1.26.4-.24.81.32.51.71M33.86,20.61c0-3.33,1.86-5.59,5.09-5.59,2.01,0,2.96.72,3.31,1.35v-1.05h3.34v10.46h-3.34v-.99c-.36.57-1.6,1.29-3.34,1.29-3.25,0-5.06-2.16-5.06-5.47M17.3,26.05c-1.51,0-3.31-.24-4.35-.75l.74-2.31c1.06.39,2.19.63,3.22.63s1.66-.27,1.66-.84c0-1.5-5.03-.66-5.03-4.48,0-2.34,1.86-3.28,4.2-3.28,1.39,0,2.6.33,3.88.84l-.71,2.22c-.83-.36-1.98-.66-2.81-.66-.77,0-1.36.27-1.36.78,0,1.41,5.03.72,5.03,4.48,0,2.4-2.04,3.36-4.47,3.36M75.97,31.64l-.74-5.86h-3.14v-.99c-.36.57-1.6,1.29-3.34,1.29-3.25,0-5.06-2.16-5.06-5.47s1.86-5.59,5.09-5.59c2.01,0,2.96.72,3.31,1.35v-1.05h1.83l-1.66-13.19c-.17-1.34-1.37-2.28-2.69-2.11L26.56,5.6v13.96l3.58-4.24h3.96l-4.61,5.11,4.61,5.35h-4.05l-3.49-4.21v4.21h-3.31V6.03L2.1,8.78C.78,8.95-.15,10.17.02,11.51l.91,7.23c.64-2.4,2.67-3.72,5.64-3.72,3.61,0,5.89,1.98,5.89,5.5s-2.28,5.56-5.89,5.56c-2.31,0-4.05-.82-5.01-2.32l3.29,26.11c.17,1.34,1.37,2.28,2.69,2.11l58.76-7.63c1.01-.13,1.93-.67,2.56-1.49l6.35-8.34c.62-.82.9-1.86.77-2.89"/>
  </g>
</svg>