<?xml version="1.0" encoding="UTF-8"?>
<svg id="Layer_1" data-name="Layer 1" xmlns="http://www.w3.org/2000/svg" viewBox="0 0 355.97 36">
  <defs>
    <style>
      .cls-1 {
        fill: #fff;
      }
    </style>
  </defs>
  <path class="cls-1" d="M.01,1.95h12.45c4.1,0,7.22.96,9.35,2.88s3.2,4.68,3.2,8.27c0,2.4-.45,4.43-1.35,6.08s-2.26,2.9-4.08,3.75-4.08,1.27-6.77,1.27H4.16v-6.8h7.8c1.43,0,2.52-.38,3.27-1.15s1.12-1.83,1.12-3.2-.36-2.47-1.07-3.2c-.72-.73-1.79-1.1-3.23-1.1h-7.35l3.65-3.15v29.7H0V1.95h.01Z"/>
  <path class="cls-1" d="M35,35.3h-8.35V10.75h7.35l1,5.9v18.65ZM33.86,14.65c1.1-1.63,2.17-2.79,3.23-3.48,1.05-.68,2.21-1.02,3.47-1.02.53,0,1.06.04,1.58.12.52.08.94.19,1.27.32l-1,6.75c-.37-.13-.76-.23-1.17-.3-.42-.07-.83-.1-1.23-.1-1.07,0-2.08.27-3.05.8s-1.83,1.28-2.6,2.25l-.5-5.35h0Z"/>
  <path class="cls-1" d="M44.16,4.15c0-1.17.39-2.15,1.17-2.95.78-.8,1.88-1.2,3.27-1.2s2.49.39,3.28,1.17c.78.78,1.17,1.76,1.17,2.92s-.39,2.15-1.17,2.95c-.78.8-1.88,1.2-3.28,1.2s-2.49-.39-3.27-1.18c-.78-.78-1.17-1.76-1.17-2.92h0ZM44.46,10.75h8.35v24.55h-8.35V10.75Z"/>
  <path class="cls-1" d="M56.56,10.75h7.35l1,5.7v18.85h-8.35V10.75h0ZM71.02,20.15c0-.83-.09-1.52-.27-2.08-.18-.55-.48-.98-.88-1.27-.4-.3-.93-.45-1.6-.45s-1.37.19-2.1.58c-.73.38-1.38.89-1.95,1.52l-.7-5.1c.97-.97,2.1-1.74,3.4-2.32,1.3-.58,2.65-.88,4.05-.88,2,0,3.62.43,4.85,1.3,1.23.87,2.13,2.07,2.7,3.6.57,1.53.85,3.3.85,5.3v14.95h-8.35v-15.15h0ZM76.62,13.65c1.03-1.1,2.29-1.96,3.77-2.58,1.48-.62,2.99-.92,4.52-.92,2,0,3.65.38,4.95,1.12,1.3.75,2.27,1.89,2.92,3.42s.98,3.43.98,5.7v14.9h-8.35v-15.15c0-1.27-.22-2.22-.65-2.85s-1.17-.95-2.2-.95c-.5,0-1,.08-1.5.25s-.98.42-1.42.75c-.45.33-.84.7-1.18,1.1l-1.85-4.8h0Z"/>
  <path class="cls-1" d="M109.96,24.25c-2.37.03-4.07.34-5.1.92-1.03.58-1.55,1.46-1.55,2.62,0,.6.12,1.09.38,1.48.25.38.58.67,1,.88.42.2.86.3,1.33.3.73,0,1.44-.18,2.12-.55s1.26-.85,1.73-1.45l.3,4.2c-.7.93-1.67,1.71-2.9,2.32-1.23.62-2.55.93-3.95.93s-2.76-.32-3.88-.95c-1.12-.63-1.98-1.5-2.6-2.6-.62-1.1-.93-2.38-.93-3.85,0-2.7,1.19-4.79,3.58-6.28,2.38-1.48,5.88-2.27,10.48-2.38v4.4h0ZM109.41,20.1c0-1.43-.3-2.43-.9-3-.6-.57-1.52-.85-2.75-.85-1,0-2.01.17-3.02.5-1.02.33-2.11.87-3.27,1.6l-2.1-5.1c1.2-.9,2.64-1.64,4.32-2.23,1.68-.58,3.53-.88,5.53-.88,3.2,0,5.7.82,7.5,2.48,1.8,1.65,2.7,4.26,2.7,7.82v14.85h-7.35l-.65-4.45v-10.75h0Z"/>
  <path class="cls-1" d="M119.66,15.4h24.1v6.55h-24.1v-6.55ZM128.31,5.8h6.85v25.75h-6.85V5.8Z"/>
  <path class="cls-1" d="M154.41,1.95h12.45c4.1,0,7.22.96,9.35,2.88s3.2,4.68,3.2,8.27c0,2.4-.45,4.43-1.35,6.08-.9,1.65-2.26,2.9-4.08,3.75s-4.08,1.27-6.77,1.27h-8.65v-6.8h7.8c1.43,0,2.52-.38,3.27-1.15s1.12-1.83,1.12-3.2-.36-2.47-1.07-3.2c-.72-.73-1.79-1.1-3.23-1.1h-7.35l3.65-3.15v29.7h-8.35V1.95h.01Z"/>
  <path class="cls-1" d="M181.47,1.95h12.55c4.07,0,7.13.87,9.2,2.6s3.1,4.12,3.1,7.15c0,2.1-.53,3.87-1.6,5.3s-2.55,2.43-4.45,3v-.4c.93.2,1.68.53,2.25,1s1.04,1.08,1.42,1.85c.38.77.73,1.72,1.02,2.85l2.7,10h-8.8l-2-8.2c-.3-1.33-.73-2.26-1.3-2.77-.57-.52-1.37-.77-2.4-.77h-7.6v-6.85h7.5c1.57,0,2.73-.36,3.48-1.07s1.12-1.71,1.12-2.98-.37-2.19-1.1-2.88c-.73-.68-1.88-1.02-3.45-1.02h-4.8l1.35-1.6v28.15h-8.2V1.96h0Z"/>
  <path class="cls-1" d="M210.13,1.95h22.5v7.15h-17.7l3.55-3.2v25.45l-3.55-3.2h18.75v7.15h-23.55V1.95h0ZM214.98,15.1h13.85v6.55h-13.85v-6.55Z"/>
  <path class="cls-1" d="M271.86,35.3h-7.75l-.9-22.25h.6l-7.05,22.45h-5.95l-7.05-21.7.85-.05-.95,21.55h-7.8l1.85-33.35h8.9l7.35,22.3,7.4-22.3h8.7l1.8,33.35h0Z"/>
  <path class="cls-1" d="M275.9,1.95h8.55v33.35h-8.55V1.95Z"/>
  <path class="cls-1" d="M289.06,22.95V1.95h8.55v20.75c0,2.03.46,3.54,1.38,4.52.92.98,2.16,1.48,3.72,1.48s2.86-.48,3.78-1.45,1.38-2.48,1.38-4.55V1.95h8.55v21c0,2.9-.57,5.32-1.7,7.25s-2.72,3.38-4.77,4.35-4.48,1.45-7.27,1.45-5.27-.48-7.3-1.45-3.59-2.42-4.68-4.35c-1.08-1.93-1.62-4.35-1.62-7.25h-.02Z"/>
  <path class="cls-1" d="M355.97,35.3h-7.75l-.9-22.25h.6l-7.05,22.45h-5.95l-7.05-21.7.85-.05-.95,21.55h-7.8l1.85-33.35h8.9l7.35,22.3,7.4-22.3h8.7l1.8,33.35h0Z"/>
</svg>