<?xml version="1.0" encoding="UTF-8"?>
<svg id="Layer_1" xmlns="http://www.w3.org/2000/svg" version="1.1" viewBox="0 0 287.65 30.44">
  <!-- Generator: Adobe Illustrator 29.6.0, SVG Export Plug-In . SVG Version: 2.1.1 Build 207)  -->
  <defs>
    <style>
      .st0 {
        fill: #fff;
      }
    </style>
  </defs>
  <path class="st0" d="M11.92,17.76c0-2-.83-3-2.48-3-.99,0-1.91.37-2.76,1.12v14.08H0V10.32h5.88l.28,1.6c.72-.64,1.56-1.15,2.52-1.52.96-.37,2-.56,3.12-.56,2.24,0,3.93.63,5.08,1.88,1.15,1.25,1.72,3.05,1.72,5.4v12.84h-6.68s0-12.2,0-12.2Z"/>
  <path class="st0" d="M22.4,20.16c0-2.21.42-4.09,1.26-5.62s1.98-2.7,3.42-3.5,3.05-1.2,4.84-1.2c2.93,0,5.2.96,6.8,2.88,1.6,1.92,2.4,4.79,2.4,8.6h-12.48c.19,1.49.65,2.59,1.4,3.28s1.8,1.04,3.16,1.04c.93,0,1.85-.19,2.76-.56.91-.37,1.71-.89,2.4-1.56l1.8,4.36c-2.08,1.71-4.68,2.56-7.8,2.56s-5.49-.91-7.28-2.72c-1.79-1.81-2.68-4.33-2.68-7.56ZM31.96,14.2c-1.76,0-2.84,1.16-3.24,3.48h6.4c-.29-2.32-1.35-3.48-3.16-3.48Z"/>
  <path class="st0" d="M43.92,20.04c0-2.05.41-3.84,1.24-5.36s1.97-2.71,3.44-3.56c1.47-.85,3.18-1.28,5.14-1.28s3.67.43,5.14,1.28c1.47.85,2.61,2.05,3.42,3.6.81,1.55,1.22,3.36,1.22,5.44s-.41,3.81-1.22,5.36c-.81,1.55-1.95,2.75-3.42,3.62-1.47.87-3.18,1.3-5.14,1.3s-3.67-.43-5.14-1.3c-1.47-.87-2.61-2.09-3.44-3.66-.83-1.57-1.24-3.39-1.24-5.44ZM50.52,20.04c0,1.71.29,3.04.86,4s1.36,1.44,2.36,1.44,1.79-.47,2.36-1.4.86-2.24.86-3.92-.29-3.07-.86-4-1.36-1.4-2.36-1.4-1.79.47-2.36,1.4c-.57.93-.86,2.23-.86,3.88Z"/>
  <path class="st0" d="M67.44,10.32h5.88l.28,1.52c.72-.61,1.55-1.1,2.48-1.46s1.89-.54,2.88-.54c1.17,0,2.19.19,3.04.58s1.55.94,2.08,1.66c.8-.69,1.73-1.24,2.8-1.64,1.07-.4,2.15-.6,3.24-.6,4.72,0,7.08,2.73,7.08,8.2v11.92h-6.68v-12.12c0-1.01-.17-1.77-.52-2.28-.35-.51-.93-.76-1.76-.76-.48,0-.95.1-1.42.3s-.9.46-1.3.78c.11.67.16,1.37.16,2.12v11.96h-6.68v-12.12c0-.96-.17-1.71-.5-2.24-.33-.53-.9-.8-1.7-.8-.91,0-1.8.37-2.68,1.12v14.04h-6.68s0-19.64,0-19.64Z"/>
  <path class="st0" d="M101,20.16c0-2.21.42-4.09,1.26-5.62.84-1.53,1.98-2.7,3.42-3.5,1.44-.8,3.05-1.2,4.84-1.2,2.93,0,5.2.96,6.8,2.88,1.6,1.92,2.4,4.79,2.4,8.6h-12.48c.19,1.49.65,2.59,1.4,3.28s1.8,1.04,3.16,1.04c.93,0,1.85-.19,2.76-.56.91-.37,1.71-.89,2.4-1.56l1.8,4.36c-2.08,1.71-4.68,2.56-7.8,2.56s-5.49-.91-7.28-2.72-2.68-4.33-2.68-7.56h0ZM110.56,14.2c-1.76,0-2.84,1.16-3.24,3.48h6.4c-.29-2.32-1.35-3.48-3.16-3.48Z"/>
  <path class="st0" d="M122.4,25.68l9.68-10.48h-9.24v-4.88h16.96v4.6l-9.44,10.16h9.76v4.88h-17.72s0-4.28,0-4.28Z"/>
  <path class="st0" d="M142.88,20.16c0-2.21.42-4.09,1.26-5.62s1.98-2.7,3.42-3.5,3.05-1.2,4.84-1.2c2.93,0,5.2.96,6.8,2.88s2.4,4.79,2.4,8.6h-12.48c.19,1.49.65,2.59,1.4,3.28s1.8,1.04,3.16,1.04c.93,0,1.85-.19,2.76-.56.91-.37,1.71-.89,2.4-1.56l1.8,4.36c-2.08,1.71-4.68,2.56-7.8,2.56s-5.49-.91-7.28-2.72-2.68-4.33-2.68-7.56h0ZM152.44,14.2c-1.76,0-2.84,1.16-3.24,3.48h6.4c-.29-2.32-1.35-3.48-3.16-3.48h0Z"/>
  <path class="st0" d="M177.28,17.76c0-2-.83-3-2.48-3-.99,0-1.91.37-2.76,1.12v14.08h-6.68V10.32h5.88l.28,1.6c.72-.64,1.56-1.15,2.52-1.52.96-.37,2-.56,3.12-.56,2.24,0,3.93.63,5.08,1.88,1.15,1.25,1.72,3.05,1.72,5.4v12.84h-6.68v-12.2h0Z"/>
  <path class="st0" d="M187.52,24.52c0-2.11.91-3.76,2.74-4.96,1.83-1.2,4.51-1.85,8.06-1.96-.03-1.07-.28-1.81-.76-2.24s-1.2-.64-2.16-.64c-1.57,0-3.25.56-5.04,1.68l-1.68-4.08c.96-.69,2.11-1.28,3.46-1.76s2.82-.72,4.42-.72c2.56,0,4.56.66,6,1.98,1.44,1.32,2.16,3.41,2.16,6.26v11.88h-5.88l-.24-1.72c-.59.67-1.34,1.2-2.26,1.6s-1.89.6-2.9.6c-1.79,0-3.22-.55-4.3-1.64s-1.62-2.52-1.62-4.28h0ZM202.52,4.48l-8.6,3.96-1.8-2.96L199.92,0s2.6,4.48,2.6,4.48ZM198.32,21.12c-1.73.08-2.98.35-3.74.8-.76.45-1.14,1.13-1.14,2.04,0,.72.22,1.25.66,1.6s.94.52,1.5.52c1.01,0,1.92-.4,2.72-1.2,0,0,0-3.76,0-3.76Z"/>
  <path class="st0" d="M211.17,20.06c0-2.13.37-3.97,1.12-5.52.75-1.55,1.79-2.75,3.12-3.6s2.87-1.28,4.6-1.28c.69,0,1.31.05,1.86.16s1.03.24,1.46.4V3.1h6.68v26.68h-5.88l-.28-1.44c-1.09,1.28-2.68,1.92-4.76,1.92-2.43,0-4.35-.92-5.78-2.76-1.43-1.84-2.14-4.32-2.14-7.44ZM223.33,15.06c-.27-.13-.55-.25-.86-.34-.31-.09-.62-.14-.94-.14-1.2,0-2.13.45-2.78,1.36-.65.91-.98,2.24-.98,4s.3,3.16.9,4.04c.6.88,1.43,1.32,2.5,1.32.8,0,1.52-.25,2.16-.76,0,0,0-9.48,0-9.48Z"/>
  <path class="st0" d="M233.77,24.34c0-2.11.91-3.76,2.74-4.96,1.83-1.2,4.51-1.85,8.06-1.96-.03-1.07-.28-1.81-.76-2.24s-1.2-.64-2.16-.64c-1.57,0-3.25.56-5.04,1.68l-1.68-4.08c.96-.69,2.11-1.28,3.46-1.76,1.35-.48,2.82-.72,4.42-.72,2.56,0,4.56.66,6,1.98,1.44,1.32,2.16,3.41,2.16,6.26v11.88h-5.88l-.24-1.72c-.59.67-1.34,1.2-2.26,1.6s-1.89.6-2.9.6c-1.79,0-3.22-.55-4.3-1.64s-1.62-2.52-1.62-4.28ZM244.57,20.94c-1.73.08-2.98.35-3.74.8-.76.45-1.14,1.13-1.14,2.04,0,.72.22,1.25.66,1.6s.94.52,1.5.52c1.01,0,1.92-.4,2.72-1.2,0,0,0-3.76,0-3.76Z"/>
  <path class="st0" d="M256.45,24.42v-9.4h-2.64v-4.88h2.64v-4.84h6.68v4.84h4.32v4.88h-4.32v8.48c0,1.17.49,1.76,1.48,1.76.77,0,1.57-.32,2.4-.96l1.52,4.24c-.8.59-1.72,1.02-2.76,1.3-1.04.28-2.08.42-3.12.42-4.13,0-6.2-1.95-6.2-5.84Z"/>
  <path class="st0" d="M270.45,24.34c0-2.11.91-3.76,2.74-4.96,1.83-1.2,4.51-1.85,8.06-1.96-.03-1.07-.28-1.81-.76-2.24s-1.2-.64-2.16-.64c-1.57,0-3.25.56-5.04,1.68l-1.68-4.08c.96-.69,2.11-1.28,3.46-1.76,1.35-.48,2.82-.72,4.42-.72,2.56,0,4.56.66,6,1.98,1.44,1.32,2.16,3.41,2.16,6.26v11.88h-5.88l-.24-1.72c-.59.67-1.34,1.2-2.26,1.6-.92.4-1.89.6-2.9.6-1.79,0-3.22-.55-4.3-1.64-1.08-1.09-1.62-2.52-1.62-4.28ZM281.25,20.94c-1.73.08-2.98.35-3.74.8-.76.45-1.14,1.13-1.14,2.04,0,.72.22,1.25.66,1.6s.94.52,1.5.52c1.01,0,1.92-.4,2.72-1.2,0,0,0-3.76,0-3.76Z"/>
</svg>