<?xml version="1.0" encoding="UTF-8"?>
<svg id="Layer_1" xmlns="http://www.w3.org/2000/svg" version="1.1" viewBox="0 0 152.08 37.88">
  <!-- Generator: Adobe Illustrator 29.6.0, SVG Export Plug-In . SVG Version: 2.1.1 Build 207)  -->
  <defs>
    <style>
      .st0 {
        fill: #fff;
      }
    </style>
  </defs>
  <path class="st0" d="M11.92,17.76c0-2-.83-3-2.48-3-.99,0-1.91.37-2.76,1.12v14.08H0V10.32h5.88l.28,1.6c.72-.64,1.56-1.15,2.52-1.52.96-.37,2-.56,3.12-.56,2.24,0,3.93.63,5.08,1.88s1.72,3.05,1.72,5.4v12.84h-6.68s0-12.2,0-12.2Z"/>
  <path class="st0" d="M22.16,24.52c0-2.11.91-3.76,2.74-4.96,1.83-1.2,4.51-1.85,8.06-1.96-.03-1.07-.28-1.81-.76-2.24s-1.2-.64-2.16-.64c-1.57,0-3.25.56-5.04,1.68l-1.68-4.08c.96-.69,2.11-1.28,3.46-1.76,1.35-.48,2.82-.72,4.42-.72,2.56,0,4.56.66,6,1.98,1.44,1.32,2.16,3.41,2.16,6.26v11.88h-5.88l-.24-1.72c-.59.67-1.34,1.2-2.26,1.6-.92.4-1.89.6-2.9.6-1.79,0-3.22-.55-4.3-1.64s-1.62-2.52-1.62-4.28h0ZM32.96,21.12c-1.73.08-2.98.35-3.74.8-.76.45-1.14,1.13-1.14,2.04,0,.72.22,1.25.66,1.6s.94.52,1.5.52c1.01,0,1.92-.4,2.72-1.2,0,0,0-3.76,0-3.76Z"/>
  <path class="st0" d="M52.32,24.6v-9.4h-2.64v-4.88h2.64v-4.84h6.68v4.84h4.32v4.88h-4.32v8.48c0,1.17.49,1.76,1.48,1.76.77,0,1.57-.32,2.4-.96l1.52,4.24c-.8.59-1.72,1.02-2.76,1.3-1.04.28-2.08.42-3.12.42-4.13,0-6.2-1.95-6.2-5.84Z"/>
  <path class="st0" d="M65.8,32.52c1.52-.03,2.89-.19,4.1-.48s2.25-.92,3.1-1.88l-7.16-19.84h7.32l3.56,13.36c.72-2.11,1.38-4.33,1.98-6.68.6-2.35,1.09-4.57,1.46-6.68h6.6c-.77,3.39-1.71,6.67-2.8,9.86s-2.25,5.99-3.48,8.42c-1.04,2.05-2.2,3.77-3.48,5.14-1.28,1.37-2.78,2.41-4.5,3.1s-3.78,1.04-6.18,1.04l-.52-5.36h0ZM82.24,4.48l-8.6,3.96-1.8-2.96L79.64,0s2.6,4.48,2.6,4.48Z"/>
  <path class="st0" d="M88.2,20.24c0-2.13.37-3.97,1.12-5.52.75-1.55,1.79-2.75,3.12-3.6s2.87-1.28,4.6-1.28c.69,0,1.31.05,1.86.16s1.03.24,1.46.4V3.28h6.68v26.68h-5.88l-.28-1.44c-1.09,1.28-2.68,1.92-4.76,1.92-2.43,0-4.35-.92-5.78-2.76s-2.14-4.32-2.14-7.44ZM100.36,15.24c-.27-.13-.55-.25-.86-.34s-.62-.14-.94-.14c-1.2,0-2.13.45-2.78,1.36s-.98,2.24-.98,4,.3,3.16.9,4.04c.6.88,1.43,1.32,2.5,1.32.8,0,1.52-.25,2.16-.76v-9.48Z"/>
  <path class="st0" d="M111,20.16c0-2.21.42-4.09,1.26-5.62s1.98-2.7,3.42-3.5,3.05-1.2,4.84-1.2c2.93,0,5.2.96,6.8,2.88s2.4,4.79,2.4,8.6h-12.48c.19,1.49.65,2.59,1.4,3.28s1.8,1.04,3.16,1.04c.93,0,1.85-.19,2.76-.56.91-.37,1.71-.89,2.4-1.56l1.8,4.36c-2.08,1.71-4.68,2.56-7.8,2.56s-5.49-.91-7.28-2.72-2.68-4.33-2.68-7.56h0ZM120.56,14.2c-1.76,0-2.84,1.16-3.24,3.48h6.4c-.29-2.32-1.35-3.48-3.16-3.48h0Z"/>
  <path class="st0" d="M145.4,17.76c0-2-.83-3-2.48-3-.99,0-1.91.37-2.76,1.12v14.08h-6.68V10.32h5.88l.28,1.6c.72-.64,1.56-1.15,2.52-1.52.96-.37,2-.56,3.12-.56,2.24,0,3.93.63,5.08,1.88,1.15,1.25,1.72,3.05,1.72,5.4v12.84h-6.68v-12.2h0Z"/>
</svg>