<?xml version="1.0" encoding="UTF-8"?>
<svg id="Layer_1" data-name="Layer 1" xmlns="http://www.w3.org/2000/svg" viewBox="0 0 338.21 19.13">
  <path d="M0,.46h7.08c2.96,0,4.74,1.5,4.74,3.91,0,1.44-.74,2.62-2.09,3.26,1.54.59,2.43,1.82,2.43,3.53,0,2.5-1.8,4.1-4.86,4.1H0V.46ZM2.81,2.68v3.93h4.1c1.31,0,2.14-.68,2.14-1.97s-.82-1.97-2.14-1.97H2.81ZM2.81,8.79v4.27h4.27c1.44,0,2.28-.76,2.28-2.11s-.85-2.16-2.28-2.16H2.81Z"/>
  <path d="M13.25,12.35c0-2.26,2.37-3.02,4.8-3.76,1.8-.55,2.66-.97,2.66-1.82s-.72-1.33-2.03-1.33c-1.48,0-2.45.85-2.71,2.26h-2.5c.34-2.47,2.37-4.17,5.27-4.17s4.63,1.37,4.63,3.93v7.8h-2.66v-1.29c-.87.95-2.16,1.48-3.62,1.48-2.37,0-3.85-1.23-3.85-3.11h0ZM17.79,13.63c1.1,0,2.24-.44,2.92-1.21v-3.17c-.49.4-1.25.66-2.11.95-1.54.51-2.71.91-2.71,2.05,0,.89.74,1.37,1.9,1.37h0Z"/>
  <path d="M25.27.46h2.71v14.8h-2.71s0-14.8,0-14.8Z"/>
  <path d="M29.87,3.78h2.71v11.48h-2.71s0-11.48,0-11.48ZM31.67.25h2.83l-2.33,2.58h-2.22l1.71-2.58h0Z"/>
  <path d="M34.01,9.53c0-3.81,2.26-6.05,5.58-6.05,2.92,0,5.01,1.78,5.39,4.88h-2.58c-.3-1.9-1.33-2.9-2.81-2.9-1.73,0-2.88,1.4-2.88,4.04s1.14,4.04,2.88,4.04c1.52,0,2.58-1.06,2.83-3.07h2.56c-.32,3.21-2.39,5.05-5.39,5.05-3.34,0-5.58-2.22-5.58-6.01v.02ZM43.36.25l-2.62,2.41h-2.3l-2.6-2.41h2.52l1.27,1.25,1.29-1.25h2.45-.01Z"/>
  <path d="M46.45.46h2.66l-.04,8.78,4.76-5.46h3.02l-3.95,4.48,4.19,7h-3.09l-2.88-4.97-2.05,2.33.04,2.64h-2.66s0-14.8,0-14.8Z"/>
  <path d="M59.1,17.1h1.5c.78,0,1.21-.3,1.54-1.01l.13-.36-4.69-11.95h2.9l3.13,8.23,2.94-8.23h2.75l-4.95,13.11c-.63,1.56-1.69,2.24-3.26,2.24h-1.99s0-2.03,0-2.03Z"/>
  <path d="M74.67,11.18h2.52c.3,1.65,1.31,2.47,2.85,2.47s2.26-.59,2.26-1.42c0-1.04-1.21-1.42-2.64-1.76-2.16-.53-4.82-1.01-4.82-3.57,0-1.95,1.73-3.4,4.61-3.4s4.93,1.5,5.35,4.08h-2.47c-.36-1.52-1.35-2.2-2.85-2.2-1.33,0-2.05.57-2.05,1.27,0,1.04,1.35,1.35,2.92,1.73,2.11.51,4.57,1.08,4.57,3.57,0,2.01-1.82,3.57-4.8,3.57s-5.03-1.44-5.43-4.36l-.02.02Z"/>
  <path d="M86.44.52h2.71v2.3h-2.71V.52ZM86.44,3.78h2.71v11.48h-2.71V3.78Z"/>
  <path d="M95.24,11.18h2.52c.3,1.65,1.31,2.47,2.85,2.47s2.26-.59,2.26-1.42c0-1.04-1.21-1.42-2.64-1.76-2.16-.53-4.82-1.01-4.82-3.57,0-1.95,1.73-3.4,4.61-3.4s4.93,1.5,5.35,4.08h-2.47c-.36-1.52-1.35-2.2-2.85-2.2-1.33,0-2.05.57-2.05,1.27,0,1.04,1.35,1.35,2.92,1.73,2.11.51,4.57,1.08,4.57,3.57,0,2.01-1.82,3.57-4.8,3.57s-5.03-1.44-5.43-4.36l-.02.02Z"/>
  <path d="M107.02.46h2.71v14.8h-2.71V.46Z"/>
  <path d="M111.24,9.53c0-3.81,2.28-6.05,5.65-6.05s5.67,2.24,5.67,6.05-2.26,6.01-5.67,6.01-5.65-2.24-5.65-6.01ZM119.85,9.51c0-2.64-1.16-4.04-2.96-4.04s-2.94,1.4-2.94,4.04,1.16,4.04,2.94,4.04,2.96-1.37,2.96-4.04Z"/>
  <path d="M123.22,13.49l6.32-7.74-6.2.02v-1.99h9.49v1.8l-6.34,7.72,6.28-.02v1.99h-9.56v-1.78h0ZM131.8.25l-2.62,2.58h-2.3l-2.6-2.58h2.43l1.35,1.37,1.35-1.37h2.39,0Z"/>
  <path d="M136.58,12.64v-6.87h-2.71v-1.99h2.71V1.5h2.66v2.28h3.36v1.99h-3.36v6.39c0,.76.4,1.1,1.33,1.1h2.03v2.01h-3.28c-1.86,0-2.75-.93-2.75-2.62h0Z"/>
  <path d="M143.25,9.53c0-3.72,2.28-6.05,5.56-6.05,3.11,0,5.43,2.2,5.43,6.09v.21h-8.33c.08,2.47,1.18,3.81,2.9,3.81,1.4,0,2.37-.89,2.75-2.62h2.56c-.51,2.88-2.45,4.57-5.33,4.57-3.3,0-5.54-2.26-5.54-6.01h0ZM146.02,8.18h5.52c-.36-1.8-1.35-2.75-2.75-2.75s-2.43.97-2.77,2.75Z"/>
  <path d="M155.34,17.04c1.08-.08,1.54-.63,1.54-1.78h-1.52v-2.64h2.98v2.47c0,2.03-1.16,3.19-3,3.19v-1.25h0Z"/>
  <path d="M164.66,17.21h.72c.72,0,.99-.25.99-.95V3.68h2.71v12.77c0,1.65-.99,2.58-2.83,2.58h-1.59v-1.82ZM166.37.42h2.71v2.3h-2.71V.42Z"/>
  <path d="M170.52,12.23c0-2.26,2.37-3.02,4.8-3.76,1.8-.55,2.66-.97,2.66-1.82s-.72-1.33-2.03-1.33c-1.48,0-2.45.85-2.71,2.26h-2.5c.34-2.47,2.37-4.17,5.27-4.17s4.63,1.37,4.63,3.93v7.8h-2.66v-1.29c-.87.95-2.16,1.48-3.62,1.48-2.37,0-3.85-1.23-3.85-3.11h0ZM175.06,13.53c1.1,0,2.24-.44,2.92-1.2v-3.17c-.49.4-1.25.66-2.11.95-1.54.51-2.71.91-2.71,2.05,0,.89.74,1.37,1.9,1.37Z"/>
  <path d="M182.54.36h2.66l-.04,8.78,4.76-5.46h3.02l-3.95,4.48,4.19,7h-3.09l-2.88-4.97-2.05,2.33.04,2.64h-2.66s0-14.8,0-14.8Z"/>
  <path d="M198.44,13.37l6.32-7.74-6.2.02v-1.99h9.49v1.8l-6.34,7.72,6.28-.02v1.99h-9.56v-1.78h.01Z"/>
  <path d="M209.35,3.68h2.71v1.82c.74-1.29,1.92-2.01,3.45-2.01h.27v2.47c-.27-.04-.55-.06-.82-.06-1.21,0-2.33.49-2.9,1.42v7.84h-2.71s0-11.48,0-11.48Z"/>
  <path d="M216.52,9.43c0-3.81,2.28-6.05,5.65-6.05s5.67,2.24,5.67,6.05-2.26,6.01-5.67,6.01-5.65-2.24-5.65-6.01ZM225.12,9.4c0-2.64-1.16-4.04-2.96-4.04s-2.94,1.4-2.94,4.04,1.16,4.04,2.94,4.04,2.96-1.37,2.96-4.04Z"/>
  <path d="M227.97,3.68h2.85l1.52,4.42,1.5,4.4,1.52-4.4,1.54-4.42h2.73l-4.31,11.48h-3.04s-4.31-11.48-4.31-11.48Z"/>
  <path d="M240.64,3.68h2.71v1.33c.8-.97,1.99-1.56,3.43-1.56,2.45,0,4.06,1.54,4.06,3.89v7.82h-2.69v-7.4c0-1.5-.93-2.3-2.33-2.3-1.04,0-1.95.49-2.47,1.23v8.48h-2.71V3.69h0Z"/>
  <path d="M252.24,12.23c0-2.26,2.37-3.02,4.8-3.76,1.8-.55,2.66-.97,2.66-1.82s-.72-1.33-2.03-1.33c-1.48,0-2.45.85-2.71,2.26h-2.5c.34-2.47,2.37-4.17,5.27-4.17s4.63,1.37,4.63,3.93v7.8h-2.66v-1.29c-.87.95-2.16,1.48-3.62,1.48-2.37,0-3.85-1.23-3.85-3.11h.01ZM256.79,13.53c1.1,0,2.24-.44,2.92-1.2v-3.17c-.49.4-1.25.66-2.11.95-1.54.51-2.71.91-2.71,2.05,0,.89.74,1.37,1.9,1.37Z"/>
  <path d="M270.07,9.07c0-3.81,2.26-6.05,5.58-6.05,2.92,0,5.01,1.78,5.39,4.88h-2.58c-.3-1.9-1.33-2.9-2.81-2.9-1.73,0-2.88,1.4-2.88,4.04s1.14,4.04,2.88,4.04c1.52,0,2.58-1.06,2.83-3.07h2.56c-.32,3.21-2.39,5.05-5.39,5.05-3.34,0-5.58-2.22-5.58-6.01v.02Z"/>
  <path d="M282.51,0h2.71v4.63c.8-.95,1.99-1.54,3.4-1.54,2.47,0,4.08,1.54,4.08,3.89v7.82h-2.69v-7.4c0-1.5-.93-2.3-2.33-2.3-1.04,0-1.95.49-2.47,1.23v8.48h-2.71V.01h.01Z"/>
  <path d="M294.17,9.07c0-3.81,2.26-6.05,5.58-6.05,2.92,0,5.01,1.78,5.39,4.88h-2.58c-.3-1.9-1.33-2.9-2.81-2.9-1.73,0-2.88,1.4-2.88,4.04s1.14,4.04,2.88,4.04c1.52,0,2.58-1.06,2.83-3.07h2.56c-.32,3.21-2.39,5.05-5.39,5.05-3.34,0-5.58-2.22-5.58-6.01v.02Z"/>
  <path d="M306.21,9.07c0-3.72,2.28-6.05,5.56-6.05,3.11,0,5.43,2.2,5.43,6.09v.21h-8.33c.08,2.47,1.18,3.81,2.9,3.81,1.4,0,2.37-.89,2.75-2.62h2.56c-.51,2.88-2.45,4.57-5.33,4.57-3.3,0-5.54-2.26-5.54-6.01h0ZM308.98,7.72h5.52c-.36-1.8-1.35-2.75-2.75-2.75s-2.43.97-2.77,2.75Z"/>
  <path d="M320.55,12.18v-6.87h-2.71v-1.99h2.71V1.04h2.66v2.28h3.36v1.99h-3.36v6.39c0,.76.4,1.1,1.33,1.1h2.03v2.01h-3.28c-1.86,0-2.75-.93-2.75-2.62h0Z"/>
  <path d="M327.22,9.07c0-3.72,2.28-6.05,5.56-6.05,3.11,0,5.43,2.2,5.43,6.09v.21h-8.33c.08,2.47,1.18,3.81,2.9,3.81,1.4,0,2.37-.89,2.75-2.62h2.56c-.51,2.88-2.45,4.57-5.33,4.57-3.3,0-5.54-2.26-5.54-6.01h0ZM329.99,7.72h5.52c-.36-1.8-1.35-2.75-2.75-2.75s-2.43.97-2.77,2.75Z"/>
</svg>