<?xml version="1.0" encoding="UTF-8"?>
<svg id="Layer_1" data-name="Layer 1" xmlns="http://www.w3.org/2000/svg" viewBox="0 0 108.33 107.44">
  <defs>
    <style>
      .cls-1 {
        fill: #fff;
      }

      .cls-2 {
        fill: #a1b728;
      }
    </style>
  </defs>
  <path class="cls-2" d="M108.33,66.19c0-6.83-5.6-12.38-12.5-12.38-2.84,0-5.88.76-8.25,2.24-4.05,2.53-4.24-.34-4.24-9.46v-21.66h-21.88c-1.42,0-2.67,0-3.8.03-6.29-.11-8.11-.75-5.94-4.22,1.48-2.37,2.24-5.42,2.24-8.26,0-6.9-5.54-12.5-12.37-12.5s-12.38,5.6-12.38,12.5c0,2.84.75,5.88,2.24,8.26,2.16,3.45.37,4.1-5.86,4.22-1.1-.02-2.33-.03-3.71-.03H0v82.5h21.87c9.21,0,12.11-.19,9.55-4.2-1.5-2.35-2.26-5.36-2.26-8.17,0-6.83,5.6-12.38,12.5-12.38s12.5,5.54,12.5,12.38c0,2.81-.76,5.82-2.26,8.17-2.55,4.01.34,4.2,9.55,4.2h21.88v-21.65c0-9.11.19-11.99,4.24-9.46,2.37,1.48,5.42,2.24,8.25,2.24,6.9,0,12.5-5.54,12.5-12.38"/>
  <g id="volani">
    <path class="cls-1" d="M16.82,51.77h2.43l1.3,3.76,1.28,3.75,1.3-3.75,1.31-3.76h2.32l-3.67,9.78h-2.59l-3.67-9.78Z"/>
    <path class="cls-1" d="M26.81,56.67c0-3.24,1.94-5.15,4.81-5.15s4.83,1.91,4.83,5.15-1.93,5.11-4.83,5.11-4.81-1.91-4.81-5.11ZM34.14,56.65c0-2.25-.99-3.44-2.52-3.44s-2.5,1.19-2.5,3.44.99,3.44,2.5,3.44,2.52-1.17,2.52-3.44Z"/>
    <path class="cls-1" d="M37.63,48.95h2.3v12.6h-2.3v-12.6Z"/>
    <path class="cls-1" d="M41.08,59.07c0-1.93,2.02-2.57,4.09-3.2,1.53-.47,2.27-.83,2.27-1.55s-.61-1.13-1.73-1.13c-1.26,0-2.09.72-2.3,1.93h-2.12c.29-2.11,2.02-3.55,4.48-3.55s3.94,1.17,3.94,3.35v6.64h-2.27v-1.1c-.74.81-1.84,1.26-3.08,1.26-2.02,0-3.28-1.04-3.28-2.65ZM44.95,60.17c.94,0,1.91-.38,2.48-1.03v-2.7c-.41.34-1.06.56-1.8.81-1.31.43-2.3.77-2.3,1.75,0,.76.63,1.17,1.62,1.17ZM46.14,48.77h2.54l-2.14,2.05h-2l1.6-2.05Z"/>
    <path class="cls-1" d="M51.09,51.77h2.3v1.13c.68-.83,1.69-1.33,2.92-1.33,2.09,0,3.46,1.31,3.46,3.31v6.66h-2.29v-6.3c0-1.28-.79-1.96-1.98-1.96-.88,0-1.66.41-2.11,1.04v7.22h-2.3v-9.78Z"/>
    <path class="cls-1" d="M61.15,51.77h2.3v9.78h-2.3v-9.78ZM62.68,48.77h2.41l-1.98,2.2h-1.89l1.46-2.2Z"/>
  </g>
</svg>