<?xml version="1.0" encoding="UTF-8"?>
<svg id="Layer_1" data-name="Layer 1" xmlns="http://www.w3.org/2000/svg" viewBox="0 0 255.39 82.68">
  <defs>
    <style>
      .cls-1 {
        fill: #fff;
      }
    </style>
  </defs>
  <path class="cls-1" d="M246.76,50.26l6.66-7.39-3.08-2.74-5.6,5.71-5.38-5.71-3.25,2.74,6.61,7.39h4.03ZM250.88,80.64c1.66-.62,2.96-1.33,3.89-2.16l-2.18-5.38c-.82.82-1.76,1.49-2.83,2.02-1.06.52-2.36.78-3.89.78-1.94,0-3.54-.74-4.79-2.21-1.25-1.47-1.88-3.63-1.88-6.47s.56-4.86,1.68-6.3c1.12-1.44,2.52-2.16,4.2-2.16,1.31,0,2.37.37,3.19,1.12.82.75,1.57,1.74,2.24,2.97l4.87-3.25c-.45-.97-1.1-1.95-1.96-2.94-.86-.99-1.97-1.82-3.33-2.49-1.36-.67-3.07-1.01-5.12-1.01-2.32,0-4.43.52-6.36,1.57-1.92,1.05-3.46,2.63-4.62,4.76-1.16,2.13-1.74,4.8-1.74,8.01s.56,5.64,1.68,7.73c1.12,2.09,2.66,3.67,4.62,4.73,1.96,1.06,4.15,1.6,6.58,1.6,2.16,0,4.08-.31,5.74-.92M230.21,81l-6.16-15.01c-.52-1.31-1.12-2.34-1.79-3.11-.67-.76-1.55-1.33-2.63-1.71,1.68-.63,3.06-2.18,4.14-4.65l5.6-12.88h-7.9l-4.7,11.82c-.6,1.49-1.23,2.46-1.9,2.88-.67.43-1.44.64-2.3.64h-3.36v-15.34h-7.17v37.35h7.17v-15.57h3.92c1.34,0,2.32.39,2.94,1.18s1.28,2.05,1.99,3.81l4.2,10.58h7.95ZM165.22,37.44c-1.36.32-2.6.48-3.72.48-2.88,0-5.16-1-6.84-3-1.68-2-2.52-4.52-2.52-7.56s.78-5.42,2.34-7.38c1.56-1.96,3.46-2.94,5.7-2.94,6,0,9,5.24,9,15.72v3.12c-1.28.72-2.6,1.24-3.96,1.56M168.88,76.8c6.68-3.92,11.78-9.64,15.3-17.16,3.52-7.52,5.28-16.6,5.28-27.24,0-6.56-1.2-12.26-3.6-17.1-2.4-4.84-5.78-8.6-10.14-11.28-4.36-2.68-9.5-4.02-15.42-4.02s-10.66,1.18-14.94,3.54c-4.28,2.36-7.62,5.62-10.02,9.78-2.4,4.16-3.6,9-3.6,14.52,0,4.96.98,9.36,2.94,13.2,1.96,3.84,4.66,6.84,8.1,9,3.44,2.16,7.4,3.24,11.88,3.24,3.84,0,7.84-.96,12-2.88-3.6,10.56-10.88,15.84-21.84,15.84-1.52,0-3-.12-4.44-.36l-2.16,16.44c2.16.24,4.36.36,6.6.36,9.36,0,17.38-1.96,24.06-5.88M99.53,37.44c-1.36.32-2.6.48-3.72.48-2.88,0-5.16-1-6.84-3-1.68-2-2.52-4.52-2.52-7.56s.78-5.42,2.34-7.38c1.56-1.96,3.46-2.94,5.7-2.94,6,0,9,5.24,9,15.72v3.12c-1.28.72-2.6,1.24-3.96,1.56M103.19,76.8c6.68-3.92,11.78-9.64,15.3-17.16,3.52-7.52,5.28-16.6,5.28-27.24,0-6.56-1.2-12.26-3.6-17.1-2.4-4.84-5.78-8.6-10.14-11.28-4.36-2.68-9.5-4.02-15.42-4.02s-10.66,1.18-14.94,3.54c-4.28,2.36-7.62,5.62-10.02,9.78-2.4,4.16-3.6,9-3.6,14.52,0,4.96.98,9.36,2.94,13.2,1.96,3.84,4.66,6.84,8.1,9,3.44,2.16,7.4,3.24,11.88,3.24,3.84,0,7.84-.96,12-2.88-3.6,10.56-10.88,15.84-21.84,15.84-1.52,0-3-.12-4.44-.36l-2.16,16.44c2.16.24,4.36.36,6.6.36,9.36,0,17.38-1.96,24.06-5.88M16.56,49.68l16.68-22.44v22.44h-16.68ZM52.8,81v-15.24h8.04v-16.08h-8.04V1.8h-17.4L0,49.68v16.08h33.24v15.24h19.56Z"/>
</svg>