<?xml version="1.0" encoding="UTF-8"?>
<svg id="Layer_1" data-name="Layer 1" xmlns="http://www.w3.org/2000/svg" viewBox="0 0 137.16 47.17">
  <defs>
    <style>
      .cls-1 {
        fill: #fff;
      }
    </style>
  </defs>
  <g>
    <path class="cls-1" d="M1.59,1.86h3.48l6.94,11.5V1.86h3.38v18.01h-2.97L4.97,7.56v12.31H1.59V1.86Z"/>
    <path class="cls-1" d="M18.58,13.31c0-1.44.26-2.67.77-3.69.51-1.02,1.22-1.8,2.13-2.35.91-.55,1.95-.82,3.12-.82,1.84,0,3.26.63,4.28,1.89,1.02,1.26,1.53,3.08,1.53,5.45h-8.59c.14,2.56,1.3,3.83,3.46,3.83.67,0,1.31-.13,1.93-.38s1.18-.62,1.69-1.11l.94,2.35c-1.28,1.12-2.94,1.67-5,1.67-1.93,0-3.45-.61-4.58-1.82-1.13-1.21-1.69-2.89-1.69-5.04ZM26.39,9.57c-.46-.49-1.06-.74-1.8-.74-1.49,0-2.39.95-2.7,2.83h5.35c-.11-.9-.39-1.6-.85-2.09Z"/>
    <path class="cls-1" d="M32.56,13.27c0-1.36.26-2.55.78-3.58.52-1.03,1.25-1.82,2.19-2.39.94-.57,2.02-.85,3.25-.85s2.31.29,3.24.86c.93.58,1.65,1.38,2.17,2.4.52,1.03.78,2.22.78,3.58s-.26,2.55-.78,3.58-1.25,1.83-2.19,2.42c-.94.58-2.02.88-3.24.88s-2.3-.29-3.24-.88c-.94-.58-1.67-1.4-2.19-2.43-.52-1.03-.78-2.23-.78-3.59ZM35.91,13.26c0,1.31.27,2.36.8,3.15.53.78,1.22,1.17,2.08,1.17s1.54-.39,2.07-1.16c.52-.77.78-1.81.78-3.12s-.26-2.34-.77-3.11c-.51-.76-1.21-1.15-2.08-1.15s-1.57.38-2.09,1.15c-.52.77-.78,1.79-.78,3.06Z"/>
    <path class="cls-1" d="M47.84,6.78h3l.16,1.05c.47-.38,1.02-.7,1.66-.97.64-.27,1.32-.41,2.04-.41.83,0,1.52.14,2.08.42.56.28,1.01.66,1.35,1.15.54-.45,1.17-.82,1.89-1.12.72-.3,1.48-.45,2.27-.45,1.66,0,2.84.46,3.55,1.39s1.07,2.3,1.07,4.12v7.91h-3.38v-8.13c0-.85-.16-1.5-.47-1.97-.32-.47-.86-.7-1.63-.7-.45,0-.9.11-1.35.32-.45.22-.83.45-1.13.7.09.56.14,1.17.14,1.84v7.94h-3.38v-8.13c0-.79-.14-1.44-.42-1.93-.28-.5-.8-.74-1.55-.74-.43,0-.87.11-1.31.34-.44.23-.84.48-1.2.77v9.69h-3.38V6.78Z"/>
    <path class="cls-1" d="M69.66,13.31c0-1.44.26-2.67.77-3.69.51-1.02,1.22-1.8,2.13-2.35.91-.55,1.95-.82,3.12-.82,1.84,0,3.26.63,4.28,1.89,1.02,1.26,1.53,3.08,1.53,5.45h-8.59c.14,2.56,1.3,3.83,3.46,3.83.67,0,1.31-.13,1.93-.38s1.18-.62,1.69-1.11l.95,2.35c-1.28,1.12-2.94,1.67-5,1.67-1.93,0-3.45-.61-4.58-1.82s-1.69-2.89-1.69-5.04ZM77.48,9.57c-.46-.49-1.06-.74-1.79-.74-1.49,0-2.39.95-2.7,2.83h5.35c-.11-.9-.39-1.6-.85-2.09Z"/>
    <path class="cls-1" d="M83.4,17.36l6.94-8.02h-6.67v-2.56h10.39v2.67l-6.88,7.86h7.1v2.57h-10.88v-2.51Z"/>
    <path class="cls-1" d="M96.17,13.31c0-1.44.26-2.67.77-3.69.51-1.02,1.22-1.8,2.13-2.35.91-.55,1.95-.82,3.12-.82,1.84,0,3.26.63,4.28,1.89,1.02,1.26,1.53,3.08,1.53,5.45h-8.59c.14,2.56,1.3,3.83,3.46,3.83.67,0,1.31-.13,1.93-.38s1.18-.62,1.69-1.11l.95,2.35c-1.28,1.12-2.94,1.67-5,1.67-1.93,0-3.45-.61-4.58-1.82s-1.69-2.89-1.69-5.04ZM103.99,9.57c-.46-.49-1.06-.74-1.79-.74-1.49,0-2.39.95-2.7,2.83h5.35c-.11-.9-.39-1.6-.85-2.09Z"/>
    <path class="cls-1" d="M118.99,11.72c0-1.78-.75-2.67-2.24-2.67-.47,0-.93.1-1.38.3-.45.2-.85.45-1.21.76v9.77h-3.38V6.78h3l.16,1.05c.49-.41,1.06-.75,1.71-1,.66-.25,1.36-.38,2.12-.38,1.6,0,2.77.43,3.5,1.28.73.86,1.09,2.11,1.09,3.77v8.37h-3.38v-8.15Z"/>
    <path class="cls-1" d="M123.93,22.33c1.15-.02,2.14-.18,2.96-.47s1.49-.84,2.01-1.63l-4.86-13.45h3.73l3.05,10.1c.58-1.46,1.12-3.06,1.62-4.82s.94-3.51,1.32-5.28h3.4c-.58,2.38-1.25,4.66-2.01,6.86-.76,2.2-1.54,4.1-2.33,5.7-.68,1.37-1.42,2.48-2.2,3.33-.78.85-1.69,1.48-2.71,1.89s-2.25.61-3.67.61l-.3-2.83ZM134.24,2.29l-5.29,2.97-1.11-1.54,4.83-3.73,1.57,2.29Z"/>
  </g>
  <g>
    <path class="cls-1" d="M1.94,43.66v-7.32H0v-2.56h1.94v-3.38h3.38v3.38h3.05v2.56h-3.05v6.86c0,.92.37,1.38,1.11,1.38.5,0,1.06-.22,1.67-.67l.81,2.27c-.47.34-.99.59-1.58.76s-1.18.24-1.8.24c-2.39,0-3.59-1.17-3.59-3.51Z"/>
    <path class="cls-1" d="M10.34,43.17c0-1.42.63-2.54,1.9-3.35,1.27-.81,3.08-1.25,5.44-1.32,0-.9-.19-1.54-.57-1.92s-.93-.57-1.65-.57c-1.12,0-2.27.4-3.46,1.21l-.92-2.19c.58-.41,1.27-.78,2.08-1.11.81-.32,1.74-.49,2.78-.49,1.57,0,2.79.41,3.67,1.24.88.83,1.32,2.16,1.32,4v8.18h-3l-.13-1.13c-.41.43-.92.78-1.51,1.04-.59.26-1.22.39-1.89.39-1.15,0-2.12-.36-2.9-1.07s-1.17-1.69-1.17-2.93ZM13.42,42.98c0,.63.21,1.09.62,1.38s.85.43,1.3.43.87-.09,1.27-.28c.4-.19.76-.44,1.08-.74v-3.21c-1.53.07-2.62.3-3.28.68-.66.38-.99.96-.99,1.75Z"/>
    <path class="cls-1" d="M27.76,46.87h-3.38v-13.09h3l.22,1.46c1.08-1.19,2.17-1.78,3.27-1.78.22,0,.44.02.67.05.23.04.46.08.67.13l-.4,2.89c-.34-.11-.71-.16-1.11-.16-1.06,0-2.04.47-2.94,1.4v9.1Z"/>
    <path class="cls-1" d="M33.99,30.19c0-.52.17-.95.51-1.3.34-.34.81-.51,1.4-.51s1.06.17,1.4.5c.34.33.51.77.51,1.31s-.17.98-.51,1.32c-.34.34-.81.51-1.4.51s-1.06-.17-1.4-.5c-.34-.33-.51-.78-.51-1.34ZM34.21,33.78h3.38v13.09h-3.38v-13.09Z"/>
    <path class="cls-1" d="M41.77,36.4h-1.75v-2.57h1.75v-.54c0-1.55.39-2.73,1.16-3.55.77-.82,1.87-1.23,3.29-1.23.59,0,1.11.05,1.55.16.44.11.83.23,1.17.38l-.3,2.27c-.22-.13-.49-.22-.81-.28-.32-.06-.64-.09-.94-.09-.61,0-1.06.17-1.34.53-.28.35-.42.95-.42,1.79v.57h2.78v2.57h-2.78v10.48h-3.38v-10.48Z"/>
  </g>
</svg>