<?xml version="1.0" encoding="UTF-8"?>
<svg id="Layer_1" data-name="Layer 1" xmlns="http://www.w3.org/2000/svg" viewBox="0 0 110.12 21.87">
  <defs>
    <style>
      .cls-1 {
        fill: #fff;
      }
    </style>
  </defs>
  <path class="cls-1" d="M105.5,5.22l3.57-4.32-1.23-.9-3.03,3.36-3-3.36-1.29.9,3.6,4.32h1.38ZM107.86,21.46c.83-.27,1.5-.63,2.03-1.1l-.63-1.89c-.48.44-1.03.8-1.64,1.1-.61.29-1.38.43-2.29.43-1.16,0-2.16-.49-3-1.47-.84-.98-1.26-2.37-1.26-4.17s.39-3.19,1.18-4.17c.79-.98,1.73-1.47,2.84-1.47.88,0,1.57.2,2.08.61.51.41.98.96,1.43,1.64l1.53-1.14c-.18-.38-.47-.8-.87-1.26-.4-.46-.94-.86-1.62-1.2-.68-.34-1.54-.51-2.58-.51s-1.98.26-2.92.77c-.95.51-1.73,1.32-2.34,2.43-.61,1.11-.92,2.57-.92,4.37,0,1.68.3,3.07.92,4.17.61,1.1,1.4,1.92,2.36,2.46.96.54,1.98.81,3.06.81.94,0,1.82-.13,2.65-.4M97.04,21.54l-3.3-8.28c-.28-.7-.58-1.24-.92-1.64-.33-.39-.79-.65-1.36-.79.8-.32,1.5-1.16,2.1-2.52l3.03-6.78h-2.46l-2.85,6.51c-.42.94-.83,1.55-1.23,1.82s-.89.4-1.47.4h-2.43V1.53h-2.28v20.01h2.28v-9.33h2.79c.6,0,1.07.1,1.41.3.34.2.64.53.89.99.25.46.52,1.07.82,1.83l2.55,6.21h2.43ZM66.53,21.54c.28-3.1,1.03-6.15,2.23-9.17,1.21-3.01,2.85-5.88,4.91-8.6V1.74h-12.48v2.04h10.08c-1.34,1.7-2.51,3.54-3.51,5.51s-1.81,4-2.43,6.09c-.62,2.09-1.02,4.15-1.2,6.17h2.4ZM48.38,14.49l6.48-8.73v8.73h-6.48ZM56.99,21.54v-5.04h2.13v-2.01h-2.13V1.74h-1.44l-9.36,12.63v2.13h8.67v5.04h2.13ZM38.94,21.54c.28-3.1,1.02-6.15,2.24-9.17,1.21-3.01,2.85-5.88,4.9-8.6V1.74h-12.48v2.04h10.08c-1.34,1.7-2.51,3.54-3.51,5.51-1,1.97-1.81,4-2.43,6.09-.62,2.09-1.02,4.15-1.2,6.17h2.4ZM19.79,19.56c-.55.3-1.15.45-1.81.45-.4,0-.81-.09-1.23-.27-.42-.18-.78-.46-1.06-.84-.29-.38-.44-.87-.44-1.47,0-1.12.46-1.93,1.38-2.43.92-.5,2.48-.81,4.68-.93v4.44c-.46.4-.97.75-1.52,1.05M23.49,21.54v-9.33c0-1.92-.42-3.29-1.26-4.11-.84-.82-2.03-1.23-3.57-1.23-1.14,0-2.09.18-2.85.53-.76.35-1.4.72-1.92,1.12l.72,1.68c.62-.5,1.26-.87,1.94-1.11.67-.24,1.31-.36,1.94-.36.88,0,1.57.26,2.07.76.5.51.75,1.37.75,2.57v.15c-2.58.06-4.6.54-6.06,1.44-1.46.9-2.19,2.15-2.19,3.75,0,.98.22,1.8.67,2.46s1.03,1.16,1.74,1.5c.71.34,1.46.51,2.24.51,1.46,0,2.69-.52,3.69-1.56l.09,1.23h2.01ZM10.59,21.54v-1.86H2.16l8.19-10.08v-2.37H.3v1.86h7.83L0,19.29v2.25h10.59Z"/>
</svg>