<?xml version="1.0" encoding="UTF-8"?>
<svg id="Layer_1" xmlns="http://www.w3.org/2000/svg" version="1.1" viewBox="0 0 316.6 38.42">
  <!-- Generator: Adobe Illustrator 30.0.0, SVG Export Plug-In . SVG Version: 2.1.1 Build 123)  -->
  <defs>
    <style>
      .st0 {
        fill: #fff;
      }
    </style>
  </defs>
  <path class="st0" d="M12.7,33.57h-1.05l7.6-21.3h3.7l-8.75,23.85h-4.2L1.75,12.27h3.95s7,21.3,7,21.3Z"/>
  <path class="st0" d="M22.99,24.12c0-2.53.42-4.73,1.25-6.58.83-1.85,2.02-3.29,3.55-4.32,1.53-1.03,3.32-1.55,5.35-1.55,3.13,0,5.57,1.11,7.3,3.33s2.6,5.31,2.6,9.27h-18.05v-3.1h14.85l-.6,1.1c0-2.3-.55-4.12-1.65-5.48-1.1-1.35-2.58-2.02-4.45-2.02-2.1,0-3.7.77-4.8,2.33-1.1,1.55-1.65,3.84-1.65,6.88s.62,5.56,1.85,7.17c1.23,1.62,3.05,2.43,5.45,2.43,1.33,0,2.58-.24,3.75-.73,1.17-.48,2.25-1.23,3.25-2.23l1.1,3c-1,.97-2.25,1.72-3.75,2.25s-3.1.8-4.8.8c-2.2,0-4.08-.5-5.65-1.5s-2.77-2.44-3.62-4.32c-.85-1.88-1.27-4.12-1.27-6.73h-.01Z"/>
  <path class="st0" d="M74.18,2.77h8.8l-11.4,33.35h-8.3L51.83,2.77h9.2l7.35,26.45h-1.5l7.3-26.45h0Z"/>
  <path class="st0" d="M80.75,23.72c0-2.53.52-4.77,1.55-6.7,1.03-1.93,2.48-3.42,4.33-4.48,1.85-1.05,3.99-1.57,6.42-1.57s4.57.53,6.4,1.6c1.83,1.07,3.26,2.57,4.27,4.5,1.02,1.93,1.52,4.2,1.52,6.8s-.51,4.77-1.52,6.7c-1.02,1.93-2.44,3.44-4.27,4.52s-3.97,1.62-6.4,1.62-4.57-.54-6.42-1.62c-1.85-1.08-3.29-2.61-4.33-4.58-1.03-1.97-1.55-4.23-1.55-6.8h0ZM89,23.72c0,1.43.17,2.66.5,3.67.33,1.02.8,1.79,1.4,2.33.6.53,1.3.8,2.1.8.87,0,1.59-.26,2.17-.77.58-.52,1.04-1.27,1.38-2.27.33-1,.5-2.2.5-3.6,0-2.17-.36-3.83-1.07-5-.72-1.17-1.71-1.75-2.98-1.75s-2.21.58-2.92,1.75c-.72,1.17-1.08,2.78-1.08,4.85h0Z"/>
  <path class="st0" d="M106.67,23.97c0-2.63.47-4.93,1.4-6.9s2.23-3.48,3.9-4.53,3.58-1.57,5.75-1.57c1.13,0,2.12.1,2.95.3.83.2,1.53.47,2.1.8v6.25c-.4-.33-.88-.62-1.45-.85-.57-.23-1.13-.35-1.7-.35-1.5,0-2.66.57-3.48,1.7-.82,1.13-1.23,2.8-1.23,5s.37,3.95,1.1,5.05c.73,1.1,1.78,1.65,3.15,1.65.67,0,1.33-.17,2-.5s1.25-.85,1.75-1.55v5.35c-.63.93-1.5,1.65-2.6,2.15s-2.35.75-3.75.75c-2,0-3.74-.52-5.23-1.58-1.48-1.05-2.63-2.52-3.45-4.42-.82-1.9-1.23-4.15-1.23-6.75h.02ZM121.87,2.77h8.35v33.35h-7.35l-1-5.1V2.77Z"/>
  <path class="st0" d="M146.55,25.07c-2.37.03-4.07.34-5.1.92-1.03.58-1.55,1.46-1.55,2.62,0,.6.12,1.09.38,1.48.25.38.58.67,1,.88.42.2.86.3,1.33.3.73,0,1.44-.18,2.12-.55s1.26-.85,1.73-1.45l.3,4.2c-.7.93-1.67,1.71-2.9,2.32-1.23.62-2.55.93-3.95.93s-2.76-.32-3.88-.95c-1.12-.63-1.98-1.5-2.6-2.6-.62-1.1-.93-2.38-.93-3.85,0-2.7,1.19-4.79,3.58-6.28,2.38-1.48,5.88-2.27,10.48-2.38v4.4h0ZM146,20.92c0-1.43-.3-2.43-.9-3-.6-.57-1.52-.85-2.75-.85-1,0-2.01.17-3.02.5-1.02.33-2.11.87-3.27,1.6l-2.1-5.1c1.2-.9,2.64-1.64,4.32-2.23,1.68-.58,3.53-.88,5.53-.88,3.2,0,5.7.82,7.5,2.48,1.8,1.65,2.7,4.26,2.7,7.82v14.85h-7.35l-.65-4.45v-10.75h0Z"/>
  <path class="st0" d="M155.53,11.72h16.45v6.1h-16.45v-6.1ZM158.68,11.37c0-3,.82-5.29,2.47-6.88,1.65-1.58,3.94-2.38,6.88-2.38,1.33,0,2.5.12,3.5.38s1.8.52,2.4.83l-.75,5.1c-.37-.23-.84-.41-1.43-.52-.58-.12-1.16-.17-1.73-.17-1.07,0-1.83.27-2.3.82-.47.55-.7,1.48-.7,2.78v24.8h-8.35V11.38h.01Z"/>
  <path class="st0" d="M172.43,23.72c0-2.53.52-4.77,1.55-6.7,1.03-1.93,2.48-3.42,4.33-4.48,1.85-1.05,3.99-1.57,6.42-1.57s4.57.53,6.4,1.6,3.26,2.57,4.27,4.5c1.02,1.93,1.52,4.2,1.52,6.8s-.51,4.77-1.52,6.7c-1.02,1.93-2.44,3.44-4.27,4.52s-3.97,1.62-6.4,1.62-4.57-.54-6.42-1.62-3.29-2.61-4.33-4.58c-1.03-1.97-1.55-4.23-1.55-6.8h0ZM180.68,23.72c0,1.43.17,2.66.5,3.67.33,1.02.8,1.79,1.4,2.33.6.53,1.3.8,2.1.8.87,0,1.59-.26,2.17-.77.58-.52,1.04-1.27,1.38-2.27.33-1,.5-2.2.5-3.6,0-2.17-.36-3.83-1.07-5-.72-1.17-1.71-1.75-2.98-1.75s-2.21.58-2.92,1.75c-.72,1.17-1.08,2.78-1.08,4.85h0Z"/>
  <path class="st0" d="M199.49,11.57h7.35l1,5.85v18.7h-8.35V11.57h0ZM214.39,20.87c0-1.27-.26-2.21-.77-2.83-.52-.62-1.29-.92-2.32-.92-.73,0-1.48.19-2.23.58-.75.38-1.41.91-1.98,1.57l-.45-5.15c.9-.97,2.01-1.73,3.33-2.3,1.32-.57,2.74-.85,4.27-.85,2.83,0,4.96.78,6.38,2.35s2.12,3.82,2.12,6.75v16.05h-8.35v-15.25h0Z"/>
  <path class="st0" d="M225.2,23.87c0-2.77.52-5.11,1.58-7.02,1.05-1.92,2.47-3.38,4.27-4.38s3.82-1.5,6.05-1.5c3.67,0,6.5,1.2,8.5,3.6s3,5.98,3,10.75h-19.6v-4.55h12.75l-.55,1.05c-.07-1.77-.46-3.11-1.17-4.03-.72-.92-1.68-1.38-2.88-1.38-1.33,0-2.38.58-3.12,1.75-.75,1.17-1.12,2.93-1.12,5.3,0,2.53.48,4.38,1.45,5.52.97,1.15,2.42,1.73,4.35,1.73,1.17,0,2.32-.23,3.45-.7s2.13-1.12,3-1.95l2.25,5.45c-1.27,1.03-2.73,1.83-4.4,2.38-1.67.55-3.45.83-5.35.83-2.53,0-4.73-.52-6.58-1.55-1.85-1.03-3.29-2.51-4.33-4.42-1.03-1.92-1.55-4.21-1.55-6.88h0Z"/>
  <path class="st0" d="M256,2.77h26.25v7.35h-26.25V2.77ZM264.85,6.67h8.55v29.45h-8.55V6.67Z"/>
  <path class="st0" d="M305,2.77h8.8l-11.4,33.35h-8.3l-11.45-33.35h9.2l7.35,26.45h-1.5l7.3-26.45Z"/>
</svg>