<?xml version="1.0" encoding="UTF-8"?>
<svg id="Layer_1" data-name="Layer 1" xmlns="http://www.w3.org/2000/svg" viewBox="0 0 99.55 78.48">
  <defs>
    <style>
      .cls-1 {
        fill: #e50000;
      }
    </style>
  </defs>
  <path class="cls-1" d="M75.82,66.72c.75,0,1.36.26,1.83.79.47.53.73,1.25.79,2.17h-5.36c.3-1.97,1.21-2.96,2.73-2.96M78.98,78.03c.9-.3,1.67-.74,2.31-1.33l-1.04-2.59c-.62.56-1.22.97-1.8,1.21-.58.24-1.22.37-1.92.37-1.11,0-1.95-.3-2.51-.9-.57-.6-.89-1.56-.99-2.88h8.83c0-2.46-.53-4.37-1.58-5.71-1.05-1.34-2.54-2.02-4.46-2.02-1.2,0-2.28.29-3.23.86-.95.57-1.69,1.39-2.23,2.45-.53,1.06-.8,2.35-.8,3.85,0,2.22.57,3.96,1.72,5.23,1.15,1.27,2.74,1.9,4.77,1.9,1.05,0,2.03-.15,2.93-.45M66.02,78.01c.84-.31,1.49-.67,1.96-1.09l-1.1-2.71c-.41.41-.89.75-1.42,1.02-.54.26-1.19.39-1.96.39-.98,0-1.78-.37-2.41-1.11-.63-.74-.95-1.83-.95-3.26s.28-2.45.85-3.17c.56-.72,1.27-1.09,2.11-1.09.66,0,1.19.19,1.61.56.41.38.79.87,1.13,1.49l2.45-1.64c-.22-.49-.55-.98-.99-1.48-.43-.5-.99-.92-1.68-1.25-.69-.34-1.55-.51-2.58-.51-1.17,0-2.23.26-3.2.79-.97.53-1.74,1.33-2.33,2.4-.58,1.07-.87,2.42-.87,4.03s.28,2.84.85,3.89c.56,1.05,1.34,1.85,2.33,2.38.99.54,2.09.8,3.31.8,1.09,0,2.05-.16,2.89-.47M54.05,78.2v-8.6c0-1.77-.4-3.11-1.21-4.03-.81-.92-2.02-1.38-3.64-1.38-.77,0-1.49.13-2.16.39-.67.26-1.26.62-1.79,1.07l-.17-1.13h-3.13v13.68h3.52v-10.07c.4-.32.83-.59,1.3-.8.47-.22.94-.32,1.41-.32.81,0,1.4.25,1.78.75.38.5.56,1.21.56,2.13v8.32h3.52ZM34.17,75.62c-.4.18-.82.27-1.27.27-.49,0-.94-.15-1.34-.45-.4-.3-.61-.74-.61-1.32,0-.83.32-1.42.96-1.79.64-.37,1.74-.59,3.3-.66v3.27c-.3.28-.65.51-1.04.69M38.71,78.2v-8.77c0-1.79-.45-3.11-1.34-3.96s-2.16-1.28-3.79-1.28c-.96,0-1.89.15-2.78.47-.89.31-1.66.69-2.3,1.14l1.07,2.37c.62-.43,1.23-.75,1.83-.94.6-.2,1.17-.3,1.69-.3.68,0,1.2.18,1.57.54.37.36.55.93.55,1.72v.34c-2.44.04-4.32.47-5.64,1.3-1.32.83-1.97,1.99-1.97,3.5,0,.87.19,1.61.58,2.23.39.62.91,1.1,1.57,1.44.66.34,1.38.51,2.17.51,1.47,0,2.64-.45,3.53-1.35l.23,1.07h3.04ZM21.9,62.71l3.36-3.72-1.55-1.38-2.82,2.88-2.71-2.88-1.64,1.38,3.33,3.72h2.03ZM24.69,77.34c.96-.76,1.44-1.81,1.44-3.14,0-1.11-.32-1.99-.97-2.65-.65-.66-1.77-1.22-3.37-1.69-.75-.24-1.32-.45-1.72-.62-.4-.17-.66-.35-.8-.54s-.21-.42-.21-.7c0-.85.64-1.27,1.92-1.27.6,0,1.24.13,1.9.38.67.25,1.26.6,1.79,1.03l1.18-2.34c-.62-.51-1.37-.9-2.24-1.18-.87-.28-1.79-.42-2.75-.42-1.56,0-2.81.37-3.75,1.11-.94.74-1.41,1.74-1.41,3,0,1.09.33,1.95.97,2.57.65.62,1.8,1.18,3.46,1.69,1.11.36,1.83.65,2.17.89.34.23.51.57.51,1,0,.96-.69,1.44-2.06,1.44-.68,0-1.4-.14-2.17-.42-.77-.28-1.45-.66-2.03-1.13l-1.13,2.57c.56.47,1.35.85,2.35,1.14s2,.44,2.98.44c1.67,0,2.99-.38,3.95-1.14"/>
  <path class="cls-1" d="M77.93,35.62l2.48,8.46h-4.96l2.48-8.46ZM72.4,53.52l1.47-4.25h8.09l1.5,4.25h6.73l-9.03-25.08h-6.35l-9.1,25.08h6.69ZM63.86,52.47v-12.71h-9.36v4.96h3.38v3.5c-.95.2-1.83.3-2.63.3-1.75,0-3.08-.67-3.99-2.01-.9-1.34-1.35-3.15-1.35-5.43s.44-4.22,1.32-5.53c.88-1.3,2.11-1.96,3.68-1.96.95,0,1.77.22,2.45.66.68.44,1.37,1.21,2.07,2.31l4.48-3.5c-1.18-1.78-2.51-3.08-4.01-3.89-1.49-.81-3.29-1.22-5.4-1.22-2.31,0-4.3.53-5.98,1.58-1.68,1.05-2.97,2.56-3.87,4.51-.9,1.96-1.35,4.27-1.35,6.96s.46,4.96,1.37,6.92c.91,1.95,2.22,3.47,3.91,4.53,1.69,1.07,3.7,1.6,6.04,1.6,3.68,0,6.77-.53,9.25-1.58M39.5,28.44h-6.43v25.08h6.43v-25.08ZM28.86,52.47v-12.71h-9.36v4.96h3.38v3.5c-.95.2-1.83.3-2.63.3-1.76,0-3.08-.67-3.99-2.01-.9-1.34-1.35-3.15-1.35-5.43s.44-4.22,1.32-5.53c.88-1.3,2.11-1.96,3.68-1.96.95,0,1.77.22,2.45.66.68.44,1.37,1.21,2.07,2.31l4.48-3.5c-1.18-1.78-2.51-3.08-4.01-3.89-1.49-.81-3.29-1.22-5.4-1.22-2.31,0-4.3.53-5.98,1.58-1.68,1.05-2.97,2.56-3.87,4.51-.9,1.96-1.35,4.27-1.35,6.96s.46,4.96,1.37,6.92c.91,1.95,2.22,3.47,3.91,4.53,1.69,1.07,3.7,1.6,6.04,1.6,3.68,0,6.77-.53,9.25-1.58"/>
  <path class="cls-1" d="M99.55,2.4l-1.55-2.4-5.13,3.78,1.07,1.58,5.61-2.96ZM97.61,6.94h-3.53v13.68h3.53V6.94ZM90.84,20.62v-8.6c0-1.77-.41-3.11-1.21-4.03-.81-.92-2.02-1.38-3.64-1.38-.77,0-1.49.13-2.16.39-.67.26-1.26.62-1.79,1.07l-.17-1.13h-3.13v13.68h3.53v-10.07c.39-.32.83-.59,1.3-.8.47-.22.94-.32,1.41-.32.81,0,1.4.25,1.78.75.38.5.56,1.21.56,2.13v8.32h3.53ZM69.66,18.11c-.94,0-1.68-.38-2.21-1.16-.54-.77-.8-1.84-.8-3.21s.31-2.39.93-3.17c.62-.78,1.45-1.17,2.48-1.17.6,0,1.22.16,1.86.48v7.28c-.66.64-1.41.96-2.26.96M72.11,19.52l.2,1.1h3.13V1.8h-3.53v5.25c-.34-.13-.73-.24-1.18-.32-.45-.08-.94-.13-1.47-.13-1.2,0-2.27.3-3.19.9-.92.6-1.64,1.43-2.16,2.5-.52,1.06-.78,2.3-.78,3.71s.24,2.69.72,3.77c.48,1.08,1.15,1.92,2.02,2.52.86.6,1.86.9,2.99.9,1.37,0,2.45-.46,3.24-1.38M55.36,9.14c.75,0,1.36.26,1.83.79.47.53.73,1.25.79,2.17h-5.36c.3-1.97,1.21-2.96,2.74-2.96M58.52,20.45c.9-.3,1.67-.74,2.31-1.33l-1.04-2.59c-.62.56-1.22.97-1.8,1.21-.58.24-1.22.37-1.92.37-1.11,0-1.95-.3-2.51-.9-.56-.6-.89-1.56-.99-2.88h8.83c0-2.46-.53-4.37-1.58-5.71-1.05-1.34-2.54-2.02-4.46-2.02-1.2,0-2.28.29-3.23.86-.95.57-1.69,1.39-2.23,2.45-.54,1.06-.8,2.35-.8,3.85,0,2.22.57,3.96,1.72,5.23,1.15,1.27,2.73,1.9,4.77,1.9,1.05,0,2.03-.15,2.93-.45M46.98,20.71c.51-.12.89-.25,1.16-.38l-.54-2.57c-.43.19-.81.28-1.13.28-.38,0-.64-.11-.79-.34-.15-.22-.23-.57-.23-1.04V1.8h-3.53v15.15c0,1.39.28,2.4.85,3.02.56.62,1.44.93,2.62.93.55,0,1.07-.06,1.58-.18M38.02,19.76c.96-.76,1.44-1.81,1.44-3.14,0-1.11-.32-1.99-.97-2.65-.65-.66-1.77-1.22-3.37-1.69-.75-.24-1.33-.45-1.72-.62-.4-.17-.66-.35-.8-.54-.14-.19-.21-.42-.21-.71,0-.85.64-1.27,1.92-1.27.6,0,1.24.13,1.9.38.67.25,1.26.6,1.79,1.03l1.18-2.34c-.62-.51-1.37-.9-2.24-1.19-.87-.28-1.79-.42-2.75-.42-1.56,0-2.81.37-3.75,1.11-.94.74-1.41,1.75-1.41,3,0,1.09.33,1.95.97,2.57.65.62,1.8,1.18,3.46,1.69,1.11.36,1.83.65,2.17.89.34.24.51.57.51,1,0,.96-.69,1.44-2.06,1.44-.68,0-1.4-.14-2.17-.42s-1.45-.66-2.03-1.13l-1.13,2.57c.56.47,1.35.85,2.35,1.14,1.01.29,2,.44,2.98.44,1.67,0,2.99-.38,3.95-1.14M18.67,16.92c-.55-.79-.82-1.86-.82-3.22s.27-2.36.8-3.14c.54-.78,1.26-1.17,2.19-1.17s1.65.39,2.18,1.17.8,1.83.8,3.14-.27,2.43-.82,3.22c-.54.79-1.27,1.18-2.17,1.18s-1.63-.39-2.17-1.18M24.24,20c.97-.6,1.72-1.44,2.27-2.52.55-1.08.82-2.34.82-3.77s-.27-2.67-.82-3.74c-.54-1.06-1.3-1.89-2.27-2.48-.97-.59-2.1-.89-3.4-.89s-2.41.3-3.39.89c-.98.59-1.74,1.42-2.28,2.48-.55,1.06-.82,2.31-.82,3.74s.27,2.69.82,3.77c.54,1.08,1.31,1.92,2.28,2.52.98.6,2.11.9,3.39.9s2.43-.3,3.4-.9M3.58,4.99h2.68c2.05,0,3.07.95,3.07,2.85,0,.92-.27,1.63-.8,2.12-.53.49-1.3.73-2.3.73h-2.65v-5.7ZM3.58,20.62v-6.77h2.76c2.16,0,3.81-.52,4.95-1.57,1.14-1.04,1.71-2.53,1.71-4.47s-.57-3.44-1.72-4.47c-1.15-1.02-2.81-1.54-4.99-1.54H0v18.81h3.58Z"/>
</svg>