<?xml version="1.0" encoding="UTF-8"?>
<svg id="Layer_1" data-name="Layer 1" xmlns="http://www.w3.org/2000/svg" viewBox="0 0 205.92 35.12">
  <defs>
    <style>
      .cls-1 {
        fill: #fff;
      }
    </style>
  </defs>
  <path class="cls-1" d="M12.76,18.68c0-2.59-1.99-3.88-5.96-3.88-.69,0-1.43.03-2.2.1-.77.07-1.55.18-2.32.34V.8h15.88v5.36h-10.12v3.84c.51-.05,1.03-.08,1.56-.08,3.07,0,5.47.77,7.2,2.3,1.73,1.53,2.6,3.7,2.6,6.5,0,1.81-.43,3.4-1.28,4.76-.85,1.36-2.05,2.41-3.58,3.16-1.53.75-3.33,1.12-5.38,1.12-1.81,0-3.54-.29-5.18-.88-1.64-.59-2.97-1.41-3.98-2.48l2.76-5.04c.88.88,1.87,1.59,2.96,2.12,1.09.53,2.17.8,3.24.8,1.15,0,2.07-.31,2.76-.94.69-.63,1.04-1.51,1.04-2.66Z"/>
  <path class="cls-1" d="M22.92,14.08c0-2.88.51-5.37,1.52-7.48,1.01-2.11,2.43-3.73,4.26-4.88,1.83-1.15,3.95-1.72,6.38-1.72,2.29,0,4.25.45,5.88,1.36,1.63.91,2.91,2.2,3.84,3.88l-4.36,3.76c-.75-1.17-1.51-2.03-2.3-2.58-.79-.55-1.73-.82-2.82-.82-1.65,0-2.99.7-4,2.1-1.01,1.4-1.52,3.49-1.52,6.26s.56,4.79,1.68,6.2c1.12,1.41,2.57,2.12,4.36,2.12,1.09,0,2.09-.16,3-.48v-4.04h-3.64v-4.76h9.8v12.92c-1.23.59-2.67,1.04-4.34,1.36-1.67.32-3.35.48-5.06.48-4.19,0-7.35-1.15-9.48-3.46-2.13-2.31-3.2-5.71-3.2-10.22Z"/>
  <path class="cls-1" d="M63.52,27.2h-6.68V7.56h5.88l.4,2.4c.77-1.01,1.55-1.75,2.32-2.2.77-.45,1.61-.68,2.52-.68.43,0,.85.03,1.26.1.41.07.75.15,1.02.26l-.8,5.4c-.59-.21-1.23-.32-1.92-.32-1.49,0-2.83.61-4,1.84v12.84Z"/>
  <path class="cls-1" d="M72.16,29.76c1.52-.03,2.89-.19,4.1-.48,1.21-.29,2.25-.92,3.1-1.88l-7.16-19.84h7.32l3.56,13.36c.72-2.11,1.38-4.33,1.98-6.68.6-2.35,1.09-4.57,1.46-6.68h6.6c-.77,3.39-1.71,6.67-2.8,9.86-1.09,3.19-2.25,5.99-3.48,8.42-1.04,2.05-2.2,3.77-3.48,5.14-1.28,1.37-2.78,2.41-4.5,3.1-1.72.69-3.78,1.04-6.18,1.04l-.52-5.36Z"/>
  <path class="cls-1" d="M94.56,17.44c0-2.24.43-4.13,1.28-5.68.85-1.55,2.02-2.71,3.5-3.5,1.48-.79,3.14-1.18,4.98-1.18,2.19,0,3.93.47,5.22,1.42,1.29.95,2.25,2.14,2.86,3.58l-4.24,2.72c-.51-.91-1.01-1.58-1.52-2.02-.51-.44-1.17-.66-2-.66-.91,0-1.71.42-2.42,1.26-.71.84-1.06,2.07-1.06,3.7,0,1.81.38,3.18,1.14,4.1.76.92,1.73,1.38,2.9,1.38,1.73,0,3.31-.65,4.72-1.96l1.96,4.56c-.85.77-1.97,1.39-3.36,1.84-1.39.45-2.87.68-4.44.68-2.96,0-5.29-.89-6.98-2.66-1.69-1.77-2.54-4.3-2.54-7.58Z"/>
  <path class="cls-1" d="M127.52,15c0-1.04-.22-1.8-.66-2.28s-1.05-.72-1.82-.72c-.91,0-1.83.39-2.76,1.16v14.04h-6.68V.52h6.68v8.2c1.44-1.09,3.11-1.64,5-1.64,2.11,0,3.79.65,5.04,1.96,1.25,1.31,1.88,3.21,1.88,5.72v12.44h-6.68v-12.2Z"/>
  <path class="cls-1" d="M138.92,21.52V.52h6.68v20.56c0,1.04.43,1.56,1.28,1.56.45,0,.93-.12,1.44-.36l.84,4.44c-.51.27-1.21.49-2.1.66-.89.17-1.71.26-2.46.26-1.92,0-3.35-.47-4.28-1.42-.93-.95-1.4-2.51-1.4-4.7Z"/>
  <path class="cls-1" d="M150.84,17.28c0-2.05.41-3.84,1.24-5.36.83-1.52,1.97-2.71,3.44-3.56s3.18-1.28,5.14-1.28,3.67.43,5.14,1.28c1.47.85,2.61,2.05,3.42,3.6.81,1.55,1.22,3.36,1.22,5.44s-.41,3.81-1.22,5.36c-.81,1.55-1.95,2.75-3.42,3.62-1.47.87-3.18,1.3-5.14,1.3s-3.67-.43-5.14-1.3-2.61-2.09-3.44-3.66c-.83-1.57-1.24-3.39-1.24-5.44ZM157.44,17.28c0,1.71.29,3.04.86,4,.57.96,1.36,1.44,2.36,1.44s1.79-.47,2.36-1.4c.57-.93.86-2.24.86-3.92s-.29-3.07-.86-4c-.57-.93-1.36-1.4-2.36-1.4s-1.79.47-2.36,1.4c-.57.93-.86,2.23-.86,3.88Z"/>
  <path class="cls-1" d="M183.68,21.68c0-.45-.23-.83-.68-1.12-.45-.29-1.39-.65-2.8-1.08-2.27-.61-3.92-1.42-4.96-2.42s-1.56-2.27-1.56-3.82c0-1.89.73-3.39,2.2-4.5,1.47-1.11,3.33-1.66,5.6-1.66,1.36,0,2.73.21,4.12.62,1.39.41,2.55.97,3.48,1.66l-1.88,4.08c-.91-.69-1.85-1.21-2.84-1.54-.99-.33-1.93-.5-2.84-.5-1.41,0-2.12.45-2.12,1.36,0,.43.22.78.66,1.06.44.28,1.38.63,2.82,1.06,2.32.64,3.98,1.45,4.98,2.44,1,.99,1.5,2.29,1.5,3.92,0,2.03-.71,3.61-2.14,4.74-1.43,1.13-3.43,1.7-6.02,1.7-1.41,0-2.87-.2-4.38-.6-1.51-.4-2.77-1-3.78-1.8l2-4.2c.96.75,1.99,1.31,3.08,1.68,1.09.37,2.13.56,3.12.56.85,0,1.47-.13,1.86-.4.39-.27.58-.68.58-1.24Z"/>
  <path class="cls-1" d="M193.84,21.84v-9.4h-2.64v-4.88h2.64V2.72h6.68v4.84h4.32v4.88h-4.32v8.48c0,1.17.49,1.76,1.48,1.76.77,0,1.57-.32,2.4-.96l1.52,4.24c-.8.59-1.72,1.02-2.76,1.3-1.04.28-2.08.42-3.12.42-4.13,0-6.2-1.95-6.2-5.84Z"/>
</svg>