<?xml version="1.0" encoding="UTF-8"?>
<svg id="Layer_1" data-name="Layer 1" xmlns="http://www.w3.org/2000/svg" viewBox="0 0 256.05 29.79">
  <defs>
    <style>
      .cls-1 {
        fill: #fff;
      }
    </style>
  </defs>
  <path class="cls-1" d="M10.11,17.28L5.89,2.08H0l7.33,21.34h5.31L19.94,2.08h-5.63l-4.19,15.2Z"/>
  <path class="cls-1" d="M20.66,29.76c1.92,0,3.57-.28,4.94-.83,1.38-.55,2.58-1.38,3.6-2.48,1.02-1.1,1.95-2.47,2.78-4.11.98-1.94,1.91-4.19,2.78-6.74.87-2.55,1.62-5.18,2.24-7.89h-5.28c-.3,1.69-.69,3.47-1.17,5.34-.48,1.88-1.01,3.66-1.58,5.34l-2.85-10.69h-5.86l5.73,15.87c-.68.77-1.51,1.27-2.48,1.5-.97.23-2.06.36-3.28.38l.42,4.29Z"/>
  <path class="cls-1" d="M38.49,23.42h14.18v-3.9h-7.81l7.55-8.13v-3.68h-13.57v3.9h7.39l-7.74,8.38v3.42Z"/>
  <path class="cls-1" d="M61.13,17.06h.9c.55,0,.95.12,1.18.35.23.23.46.65.67,1.25l1.79,4.77h5.73l-2.66-6.53c-.28-.66-.56-1.18-.85-1.57s-.72-.67-1.3-.86c.43-.21.78-.5,1.06-.86.28-.36.54-.82.8-1.38l2.05-4.51h-5.5l-1.47,3.62c-.23.58-.49.96-.75,1.15-.27.19-.6.29-1.01.29h-.64V2.08h-5.34v21.34h5.34v-6.37Z"/>
  <path class="cls-1" d="M73.36,19.84c.66,1.26,1.58,2.23,2.75,2.93,1.17.69,2.54,1.04,4.11,1.04s2.94-.35,4.11-1.04c1.17-.69,2.08-1.66,2.74-2.9.65-1.24.98-2.67.98-4.29s-.33-3.11-.98-4.35c-.65-1.24-1.56-2.2-2.74-2.88-1.17-.68-2.54-1.02-4.11-1.02s-2.94.34-4.11,1.02c-1.17.68-2.09,1.63-2.75,2.85-.66,1.22-.99,2.65-.99,4.29s.33,3.09.99,4.35ZM78.34,12.38c.46-.75,1.09-1.12,1.89-1.12s1.43.37,1.89,1.12c.46.75.69,1.81.69,3.2s-.23,2.39-.69,3.14c-.46.75-1.09,1.12-1.89,1.12s-1.43-.38-1.89-1.15c-.46-.77-.69-1.83-.69-3.2s.23-2.36.69-3.1Z"/>
  <path class="cls-1" d="M92.28,22.32c.94.99,2.28,1.49,4.03,1.49s3.24-.55,4.48-1.66l.22,1.28h4.7V7.71h-5.34v11.26c-.32.3-.67.52-1.06.66-.38.14-.76.21-1.12.21-.64,0-1.13-.18-1.47-.54-.34-.36-.51-.95-.51-1.76V7.71h-5.34v10.3c0,1.88.47,3.31,1.41,4.3Z"/>
  <path class="cls-1" d="M116.52,20c-.31.21-.81.32-1.49.32-.79,0-1.62-.15-2.5-.45-.87-.3-1.7-.75-2.46-1.34l-1.6,3.36c.81.64,1.82,1.12,3.02,1.44,1.2.32,2.37.48,3.5.48,2.07,0,3.67-.45,4.82-1.36,1.14-.91,1.71-2.17,1.71-3.79,0-1.3-.4-2.35-1.2-3.14-.8-.79-2.13-1.44-3.98-1.95-1.15-.34-1.9-.62-2.26-.85s-.53-.51-.53-.85c0-.72.56-1.09,1.7-1.09.72,0,1.48.13,2.27.4.79.27,1.55.68,2.27,1.23l1.5-3.26c-.75-.55-1.67-1-2.78-1.33-1.11-.33-2.21-.5-3.3-.5-1.81,0-3.31.44-4.48,1.33-1.17.89-1.76,2.09-1.76,3.6,0,1.24.42,2.26,1.25,3.06s2.15,1.45,3.97,1.94c1.13.34,1.88.63,2.24.86.36.23.54.53.54.9,0,.45-.15.78-.46.99ZM113.79,6.02h3.01l3.84-4.29-2.27-1.73-3.04,2.91-2.82-2.91-2.5,1.73,3.78,4.29Z"/>
  <path class="cls-1" d="M125.6,21.63c1.43,1.45,3.37,2.18,5.82,2.18s4.58-.68,6.24-2.05l-1.44-3.49c-.55.53-1.19.95-1.92,1.25-.73.3-1.46.45-2.21.45-1.09,0-1.93-.28-2.53-.83-.6-.55-.97-1.43-1.12-2.62h9.98c0-3.05-.64-5.34-1.92-6.88s-3.09-2.3-5.44-2.3c-1.43,0-2.72.32-3.87.96s-2.06,1.57-2.74,2.8c-.67,1.23-1.01,2.73-1.01,4.5,0,2.58.71,4.6,2.14,6.05ZM133.63,13.6h-5.12c.32-1.86,1.18-2.78,2.59-2.78s2.29.93,2.53,2.78h0Z"/>
  <path class="cls-1" d="M140.76,24.53c-.27.46-.81.9-1.62,1.33l2.08,3.94c1.73-.53,3.04-1.35,3.94-2.45.9-1.1,1.34-2.68,1.34-4.75V7.71h-5.34v14.91c0,.81-.13,1.44-.4,1.9ZM141.71,5.36c.49.5,1.19.75,2.11.75s1.62-.26,2.11-.77c.49-.51.74-1.14.74-1.89s-.25-1.37-.74-1.87c-.49-.5-1.19-.75-2.11-.75s-1.62.25-2.11.75c-.49.5-.74,1.13-.74,1.89s.24,1.39.74,1.89Z"/>
  <path class="cls-1" d="M155.92,23.81c.83,0,1.66-.11,2.5-.34s1.57-.57,2.21-1.04l-1.22-3.39c-.66.51-1.3.77-1.92.77-.79,0-1.18-.47-1.18-1.41v-6.78h3.46v-3.9h-3.46v-3.87h-5.34v3.87h-2.11v3.9h2.11v7.52c0,3.11,1.65,4.67,4.96,4.67h0Z"/>
  <path class="cls-1" d="M163.99,21.63c1.43,1.45,3.37,2.18,5.82,2.18s4.58-.68,6.24-2.05l-1.44-3.49c-.55.53-1.19.95-1.92,1.25-.73.3-1.46.45-2.21.45-1.09,0-1.93-.28-2.53-.83-.6-.55-.97-1.43-1.12-2.62h9.98c0-3.05-.64-5.34-1.92-6.88s-3.09-2.3-5.44-2.3c-1.43,0-2.72.32-3.87.96s-2.06,1.57-2.74,2.8c-.67,1.23-1.01,2.73-1.01,4.5,0,2.58.71,4.6,2.14,6.05ZM172.02,13.6h-5.12c.32-1.86,1.18-2.78,2.59-2.78s2.29.93,2.53,2.78h0Z"/>
  <path class="cls-1" d="M187.73,21.1c1.71,1.85,4.23,2.77,7.58,2.77,1.36,0,2.71-.13,4.05-.38,1.33-.26,2.49-.62,3.47-1.09v-10.34h-7.84v3.81h2.91v3.23c-.73.26-1.53.38-2.4.38-1.43,0-2.59-.56-3.49-1.7-.9-1.13-1.34-2.78-1.34-4.96s.4-3.89,1.22-5.01c.81-1.12,1.88-1.68,3.2-1.68.87,0,1.63.22,2.26.66.63.44,1.24,1.13,1.84,2.06l3.49-3.01c-.75-1.34-1.77-2.38-3.07-3.1-1.3-.72-2.87-1.09-4.7-1.09-1.94,0-3.64.46-5.1,1.38-1.46.92-2.6,2.22-3.41,3.9-.81,1.69-1.22,3.68-1.22,5.98,0,3.61.85,6.33,2.56,8.18Z"/>
  <path class="cls-1" d="M206.75,23.42h5.47V2.08h-5.47v21.34Z"/>
  <path class="cls-1" d="M218.23,21.1c1.71,1.85,4.23,2.77,7.58,2.77,1.36,0,2.71-.13,4.05-.38,1.33-.26,2.49-.62,3.47-1.09v-10.34h-7.84v3.81h2.91v3.23c-.73.26-1.53.38-2.4.38-1.43,0-2.59-.56-3.49-1.7-.9-1.13-1.34-2.78-1.34-4.96s.4-3.89,1.22-5.01c.81-1.12,1.88-1.68,3.2-1.68.87,0,1.63.22,2.26.66.63.44,1.24,1.13,1.84,2.06l3.49-3.01c-.75-1.34-1.77-2.38-3.07-3.1-1.3-.72-2.87-1.09-4.7-1.09-1.94,0-3.64.46-5.1,1.38-1.46.92-2.6,2.22-3.41,3.9-.81,1.69-1.22,3.68-1.22,5.98,0,3.61.85,6.33,2.56,8.18Z"/>
  <path class="cls-1" d="M242.29,19.04h6.53l1.38,4.38h5.86l-7.81-21.34h-5.22l-7.78,21.34h5.7l1.34-4.38ZM247.6,15.04h-4.13l2.08-7.26,2.05,7.26Z"/>
</svg>