<?xml version="1.0" encoding="UTF-8"?>
<svg id="Layer_1" data-name="Layer 1" xmlns="http://www.w3.org/2000/svg" viewBox="0 0 213.13 29.98">
  <defs>
    <style>
      .cls-1 {
        fill: #fff;
      }
    </style>
  </defs>
  <path class="cls-1" d="M9.54,23.97h5.34v-10.27c0-1.88-.46-3.32-1.38-4.32-.92-1-2.27-1.5-4.06-1.5-.9,0-1.73.15-2.5.45-.77.3-1.44.7-2.02,1.22l-.22-1.28H0v15.71h5.34v-11.26c.68-.6,1.42-.9,2.21-.9,1.32,0,1.98.8,1.98,2.4v9.76Z"/>
  <path class="cls-1" d="M18.8,23.04c.86.87,2.01,1.31,3.44,1.31.81,0,1.58-.16,2.32-.48s1.34-.75,1.81-1.28l.19,1.38h4.7v-9.5c0-2.28-.58-3.95-1.73-5.01s-2.75-1.58-4.8-1.58c-1.28,0-2.46.19-3.54.58-1.08.38-2,.85-2.77,1.41l1.34,3.26c1.43-.9,2.77-1.34,4.03-1.34.77,0,1.34.17,1.73.51.38.34.59.94.61,1.79-2.84.09-4.99.61-6.45,1.57-1.46.96-2.19,2.28-2.19,3.97,0,1.41.43,2.55,1.3,3.42ZM26.14,19.9c-.64.64-1.37.96-2.18.96-.45,0-.85-.14-1.2-.42-.35-.28-.53-.7-.53-1.28,0-.72.3-1.27.91-1.63.61-.36,1.6-.58,2.99-.64v3.01Z"/>
  <path class="cls-1" d="M34.84,23.04c.92.38,1.93.7,3.02.94,1.1.24,2.3.37,3.6.37,2.62,0,4.68-.75,6.16-2.26,1.48-1.5,2.22-3.55,2.22-6.14s-.64-4.59-1.9-5.98c-1.27-1.4-3-2.1-5.2-2.1-.88,0-1.73.14-2.56.42V2.62h-5.34v20.42ZM44.6,16.1c0,1.39-.27,2.45-.8,3.18-.53.74-1.29,1.1-2.27,1.1-.43,0-.88-.06-1.34-.19v-8.06c.53-.21,1.05-.32,1.54-.32,1.92,0,2.88,1.43,2.88,4.29h0Z"/>
  <path class="cls-1" d="M52.66,23.97h5.34v-15.71h-5.34v15.71ZM57.68,0l-6.24,4.38,1.44,2.37,6.88-3.17-2.08-3.58Z"/>
  <path class="cls-1" d="M62.62,22.14c1.14,1.47,2.68,2.21,4.62,2.21,1.66,0,2.93-.51,3.81-1.54l.22,1.15h4.7V2.62h-5.34v5.7c-.34-.13-.73-.23-1.17-.32-.44-.08-.93-.13-1.49-.13-1.39,0-2.61.34-3.68,1.02-1.07.68-1.9,1.64-2.5,2.88-.6,1.24-.9,2.71-.9,4.42,0,2.5.57,4.48,1.71,5.95ZM70.64,19.78c-.51.41-1.09.61-1.73.61-.85,0-1.52-.35-2-1.06s-.72-1.78-.72-3.23.26-2.47.78-3.2c.52-.72,1.26-1.09,2.22-1.09.26,0,.51.04.75.11.24.07.47.17.69.27v7.58Z"/>
  <path class="cls-1" d="M85,17.6h.9c.55,0,.95.12,1.18.35.23.23.46.65.67,1.25l1.79,4.77h5.73l-2.66-6.53c-.28-.66-.56-1.18-.85-1.57s-.72-.67-1.3-.86c.43-.21.78-.5,1.06-.86.28-.36.54-.82.8-1.38l2.05-4.51h-5.5l-1.47,3.62c-.23.58-.49.96-.75,1.15-.27.19-.6.29-1.01.29h-.64V2.62h-5.34v21.34h5.34v-6.37Z"/>
  <path class="cls-1" d="M98.54,22.86c.94.99,2.28,1.49,4.03,1.49s3.24-.55,4.48-1.66l.22,1.28h4.7v-15.71h-5.34v11.26c-.32.3-.67.52-1.06.66-.38.14-.76.21-1.12.21-.64,0-1.13-.18-1.47-.54-.34-.36-.51-.95-.51-1.76v-9.82h-5.34v10.3c0,1.88.47,3.31,1.41,4.3Z"/>
  <path class="cls-1" d="M128.86,20.54c-.31.21-.81.32-1.49.32-.79,0-1.62-.15-2.5-.45-.87-.3-1.7-.75-2.46-1.34l-1.6,3.36c.81.64,1.82,1.12,3.02,1.44,1.2.32,2.37.48,3.5.48,2.07,0,3.67-.45,4.82-1.36,1.14-.91,1.71-2.17,1.71-3.79,0-1.3-.4-2.35-1.2-3.14-.8-.79-2.13-1.44-3.98-1.95-1.15-.34-1.9-.62-2.26-.85s-.53-.51-.53-.85c0-.72.56-1.09,1.7-1.09.72,0,1.48.13,2.27.4.79.27,1.55.68,2.27,1.23l1.5-3.26c-.75-.55-1.67-1-2.78-1.33-1.11-.33-2.21-.5-3.3-.5-1.81,0-3.31.44-4.48,1.33-1.17.89-1.76,2.09-1.76,3.6,0,1.24.42,2.26,1.25,3.06s2.15,1.45,3.97,1.94c1.13.34,1.88.63,2.24.86.36.23.54.53.54.9,0,.45-.15.78-.46.99Z"/>
  <path class="cls-1" d="M142.01,23.9c.32.15.7.26,1.14.34.44.07.91.11,1.42.11,1.41,0,2.64-.34,3.71-1.02,1.07-.68,1.9-1.66,2.51-2.93.61-1.27.91-2.77.91-4.5,0-2.5-.55-4.46-1.65-5.89-1.1-1.43-2.61-2.14-4.53-2.14-1.69,0-3,.49-3.94,1.47l-.22-1.09h-4.7v21.73h5.34v-6.08ZM145.63,19.31c-.53.71-1.3,1.07-2.3,1.07-.47,0-.91-.11-1.31-.32v-7.65c.58-.4,1.16-.61,1.76-.61.85,0,1.51.35,1.97,1.06.46.7.69,1.78.69,3.22s-.27,2.52-.8,3.23Z"/>
  <path class="cls-1" d="M154.92,20.38c.66,1.26,1.58,2.23,2.75,2.93,1.17.69,2.54,1.04,4.11,1.04s2.94-.35,4.11-1.04c1.17-.69,2.08-1.66,2.74-2.9.65-1.24.98-2.67.98-4.29s-.33-3.11-.98-4.35c-.65-1.24-1.56-2.2-2.74-2.88-1.17-.68-2.54-1.02-4.11-1.02s-2.94.34-4.11,1.02c-1.17.68-2.09,1.63-2.75,2.85-.66,1.22-.99,2.65-.99,4.29s.33,3.09.99,4.35ZM159.89,12.93c.46-.75,1.09-1.12,1.89-1.12s1.43.37,1.89,1.12c.46.75.69,1.81.69,3.2s-.23,2.39-.69,3.14c-.46.75-1.09,1.12-1.89,1.12s-1.43-.38-1.89-1.15c-.46-.77-.69-1.83-.69-3.2s.23-2.36.69-3.1Z"/>
  <path class="cls-1" d="M177.85,13.7c.94-.98,2-1.47,3.2-1.47.55,0,1.07.09,1.54.26l.64-4.32c-.21-.08-.49-.15-.82-.21-.33-.05-.67-.08-1.01-.08-.73,0-1.4.18-2.02.54-.62.36-1.24.95-1.86,1.76l-.32-1.92h-4.7v15.71h5.34v-10.27Z"/>
  <path class="cls-1" d="M191.6,24.35c.83,0,1.66-.11,2.5-.34s1.57-.57,2.21-1.04l-1.22-3.39c-.66.51-1.3.77-1.92.77-.79,0-1.18-.47-1.18-1.41v-6.78h3.46v-3.9h-3.46v-3.87h-5.34v3.87h-2.11v3.9h2.11v7.52c0,3.11,1.65,4.67,4.96,4.67h0Z"/>
  <path class="cls-1" d="M199.69,22.86c.94.99,2.28,1.49,4.03,1.49s3.24-.55,4.48-1.66l.22,1.28h4.7v-15.71h-5.34v11.26c-.32.3-.67.52-1.06.66-.38.14-.76.21-1.12.21-.64,0-1.13-.18-1.47-.54-.34-.36-.51-.95-.51-1.76v-9.82h-5.34v10.3c0,1.88.47,3.31,1.41,4.3Z"/>
</svg>