<svg 
 xmlns="http://www.w3.org/2000/svg"
 xmlns:xlink="http://www.w3.org/1999/xlink"
 width="140px" height="16px">
<path fill-rule="evenodd"  fill="rgb(255, 255, 255)"
 d="M133.917,15.452 L131.923,15.452 L126.709,0.333 L129.021,0.333 L132.943,12.550 L136.864,0.333 L139.063,0.333 L133.917,15.452 ZM121.378,15.452 L119.270,15.452 L119.270,2.214 L114.895,2.214 L114.895,0.333 L125.730,0.333 L125.730,2.214 L121.378,2.214 L121.378,15.452 ZM105.330,14.069 C106.524,14.069 107.566,13.631 108.458,12.754 L109.047,14.318 C108.579,14.757 107.997,15.097 107.302,15.338 C106.607,15.580 105.859,15.701 105.058,15.701 C103.532,15.701 102.330,15.195 101.454,14.182 C100.577,13.170 100.139,11.772 100.139,9.989 C100.139,8.826 100.336,7.821 100.729,6.974 C101.121,6.128 101.677,5.471 102.395,5.002 C103.112,4.534 103.940,4.300 104.877,4.300 C106.342,4.300 107.479,4.814 108.288,5.841 C109.096,6.869 109.501,8.312 109.501,10.170 L102.134,10.170 C102.209,12.770 103.275,14.069 105.330,14.069 ZM107.461,8.652 C107.370,7.790 107.098,7.118 106.645,6.634 C106.191,6.151 105.602,5.909 104.877,5.909 C103.381,5.909 102.497,6.824 102.225,8.652 L107.461,8.652 ZM96.009,8.652 C96.009,7.806 95.832,7.144 95.477,6.668 C95.122,6.192 94.544,5.954 93.743,5.954 C93.244,5.954 92.760,6.064 92.292,6.283 C91.824,6.502 91.408,6.763 91.045,7.065 L91.045,15.452 L89.005,15.452 L89.005,4.572 L90.841,4.572 L90.955,5.433 C91.378,5.116 91.865,4.848 92.417,4.628 C92.968,4.410 93.561,4.300 94.196,4.300 C95.586,4.300 96.576,4.662 97.165,5.388 C97.755,6.113 98.049,7.194 98.049,8.629 L98.049,15.452 L96.009,15.452 L96.009,8.652 ZM84.499,14.964 C83.766,15.455 82.920,15.701 81.961,15.701 C81.001,15.701 80.151,15.455 79.411,14.964 C78.670,14.474 78.088,13.797 77.665,12.936 C77.242,12.074 77.031,11.085 77.031,9.966 C77.031,8.848 77.238,7.866 77.654,7.020 C78.069,6.174 78.647,5.509 79.388,5.025 C80.128,4.542 80.982,4.300 81.949,4.300 C82.916,4.300 83.770,4.542 84.511,5.025 C85.251,5.509 85.829,6.174 86.245,7.020 C86.660,7.866 86.868,8.848 86.868,9.966 C86.868,11.085 86.656,12.074 86.233,12.936 C85.810,13.797 85.232,14.474 84.499,14.964 ZM84.035,7.065 C83.506,6.325 82.807,5.954 81.938,5.954 C81.069,5.954 80.370,6.325 79.841,7.065 C79.312,7.806 79.048,8.776 79.048,9.978 C79.048,11.179 79.316,12.158 79.853,12.913 C80.389,13.669 81.084,14.046 81.938,14.046 C82.792,14.046 83.487,13.669 84.023,12.913 C84.560,12.158 84.828,11.179 84.828,9.978 C84.828,8.776 84.563,7.806 84.035,7.065 ZM76.129,1.727 C75.857,1.674 75.592,1.648 75.335,1.648 C74.776,1.648 74.375,1.822 74.134,2.169 C73.892,2.517 73.771,3.091 73.771,3.892 L73.771,4.594 L76.174,4.594 L76.174,6.249 L73.771,6.249 L73.771,15.452 L71.731,15.452 L71.731,6.249 L70.235,6.249 L70.235,4.594 L71.731,4.594 L71.731,3.914 C71.731,2.645 72.018,1.682 72.593,1.024 C73.167,0.367 73.990,0.038 75.063,0.038 C75.456,0.038 75.807,0.069 76.117,0.129 C76.427,0.190 76.733,0.280 77.035,0.401 L76.831,1.965 C76.635,1.860 76.401,1.780 76.129,1.727 ZM66.851,14.522 C66.095,15.308 65.159,15.701 64.040,15.701 C63.436,15.701 62.865,15.573 62.329,15.316 C61.793,15.059 61.362,14.678 61.037,14.171 C60.712,13.665 60.550,13.049 60.550,12.324 C60.550,11.130 61.097,10.190 62.193,9.502 C63.289,8.814 64.811,8.448 66.760,8.402 L66.760,8.334 C66.760,7.473 66.583,6.861 66.228,6.498 C65.873,6.136 65.370,5.954 64.720,5.954 C63.723,5.954 62.748,6.317 61.796,7.042 L61.184,5.592 C61.607,5.260 62.121,4.961 62.726,4.696 C63.330,4.432 64.071,4.300 64.947,4.300 C66.156,4.300 67.097,4.625 67.769,5.274 C68.441,5.924 68.778,6.990 68.778,8.470 L68.778,15.452 L66.919,15.452 L66.851,14.522 ZM66.760,9.921 C65.219,9.997 64.123,10.216 63.474,10.578 C62.824,10.941 62.499,11.516 62.499,12.301 C62.499,12.724 62.601,13.068 62.805,13.332 C63.009,13.597 63.258,13.794 63.553,13.922 C63.848,14.050 64.139,14.114 64.426,14.114 C64.879,14.114 65.302,14.012 65.695,13.808 C66.088,13.604 66.443,13.352 66.760,13.049 L66.760,9.921 ZM56.617,14.568 C55.937,15.324 55.053,15.701 53.965,15.701 C53.058,15.701 52.265,15.463 51.585,14.987 C50.905,14.511 50.376,13.842 49.998,12.981 C49.621,12.120 49.432,11.108 49.432,9.944 C49.432,8.826 49.643,7.844 50.066,6.997 C50.489,6.151 51.071,5.490 51.812,5.014 C52.552,4.538 53.398,4.300 54.350,4.300 C54.849,4.300 55.280,4.342 55.642,4.424 C56.005,4.508 56.315,4.602 56.572,4.708 L56.572,0.333 L58.612,0.333 L58.612,15.452 L56.753,15.452 L56.617,14.568 ZM56.572,6.453 C56.300,6.317 56.005,6.200 55.688,6.102 C55.370,6.004 55.053,5.954 54.736,5.954 C53.753,5.954 52.960,6.325 52.356,7.065 C51.751,7.806 51.449,8.788 51.449,10.012 C51.449,11.281 51.706,12.271 52.220,12.981 C52.733,13.692 53.451,14.046 54.373,14.046 C55.265,14.046 55.997,13.692 56.572,12.981 L56.572,6.453 ZM45.417,14.964 C44.684,15.455 43.838,15.701 42.879,15.701 C41.919,15.701 41.069,15.455 40.329,14.964 C39.588,14.474 39.006,13.797 38.583,12.936 C38.160,12.074 37.949,11.085 37.949,9.966 C37.949,8.848 38.156,7.866 38.572,7.020 C38.988,6.174 39.566,5.509 40.306,5.025 C41.046,4.542 41.900,4.300 42.867,4.300 C43.834,4.300 44.688,4.542 45.429,5.025 C46.169,5.509 46.747,6.174 47.163,7.020 C47.578,7.866 47.786,8.848 47.786,9.966 C47.786,11.085 47.574,12.074 47.151,12.936 C46.728,13.797 46.150,14.474 45.417,14.964 ZM44.953,7.065 C44.424,6.325 43.725,5.954 42.856,5.954 C41.987,5.954 41.288,6.325 40.759,7.065 C40.230,7.806 39.966,8.776 39.966,9.978 C39.966,11.179 40.234,12.158 40.771,12.913 C41.307,13.669 42.002,14.046 42.856,14.046 C43.710,14.046 44.405,13.669 44.941,12.913 C45.478,12.158 45.746,11.179 45.746,9.978 C45.746,8.776 45.482,7.806 44.953,7.065 ZM30.997,15.452 L25.784,0.333 L28.096,0.333 L32.017,12.550 L35.938,0.333 L38.137,0.333 L32.992,15.452 L30.997,15.452 ZM17.986,14.522 C17.230,15.308 16.294,15.701 15.176,15.701 C14.571,15.701 14.000,15.573 13.464,15.316 C12.928,15.059 12.497,14.678 12.172,14.171 C11.847,13.665 11.685,13.049 11.685,12.324 C11.685,11.130 12.232,10.190 13.328,9.502 C14.424,8.814 15.946,8.448 17.896,8.402 L17.896,8.334 C17.896,7.473 17.718,6.861 17.363,6.498 C17.008,6.136 16.505,5.954 15.856,5.954 C14.858,5.954 13.884,6.317 12.932,7.042 L12.320,5.592 C12.742,5.260 13.256,4.961 13.861,4.696 C14.465,4.432 15.206,4.300 16.082,4.300 C17.291,4.300 18.232,4.625 18.904,5.274 C19.576,5.924 19.913,6.990 19.913,8.470 L19.913,15.452 L18.054,15.452 L17.986,14.522 ZM17.896,9.921 C16.354,9.997 15.258,10.216 14.609,10.578 C13.959,10.941 13.634,11.516 13.634,12.301 C13.634,12.724 13.736,13.068 13.940,13.332 C14.144,13.597 14.394,13.794 14.688,13.922 C14.983,14.050 15.274,14.114 15.561,14.114 C16.014,14.114 16.437,14.012 16.830,13.808 C17.223,13.604 17.578,13.352 17.896,13.049 L17.896,9.921 ZM7.782,8.652 C7.782,7.806 7.604,7.144 7.249,6.668 C6.894,6.192 6.316,5.954 5.515,5.954 C5.016,5.954 4.533,6.064 4.064,6.283 C3.596,6.502 3.180,6.763 2.818,7.065 L2.818,15.452 L0.778,15.452 L0.778,4.572 L2.614,4.572 L2.727,5.433 C3.150,5.116 3.637,4.848 4.189,4.628 C4.741,4.410 5.334,4.300 5.968,4.300 C7.359,4.300 8.348,4.662 8.938,5.388 C9.527,6.113 9.822,7.194 9.822,8.629 L9.822,15.452 L7.782,15.452 L7.782,8.652 Z"/>
</svg>