<?xml version="1.0" encoding="UTF-8"?>
<svg id="Layer_1" data-name="Layer 1" xmlns="http://www.w3.org/2000/svg" viewBox="0 0 221.9 70.93">
  <defs>
    <style>
      .cls-1 {
        fill: #e50000;
      }
    </style>
  </defs>
  <path class="cls-1" d="M13.68,2.55h8.36c2.86,0,5.03.67,6.49,2.02,1.47,1.34,2.2,3.31,2.2,5.9s-.73,4.48-2.18,5.81c-1.46,1.33-3.59,2-6.4,2h-3.81v8.95h-4.66V2.55ZM25.85,10.4c0-2.61-1.32-3.92-3.96-3.92h-3.55v7.84h3.52c1.31,0,2.3-.34,2.98-1.02s1.02-1.65,1.02-2.9Z"/>
  <path class="cls-1" d="M32.47,18.19c0-1.86.36-3.5,1.07-4.9.72-1.41,1.71-2.5,3-3.27,1.28-.78,2.77-1.17,4.46-1.17s3.17.4,4.44,1.18c1.27.79,2.26,1.89,2.98,3.29.72,1.41,1.07,3.04,1.07,4.9s-.36,3.5-1.07,4.9c-.72,1.41-1.71,2.51-3,3.31-1.28.8-2.76,1.2-4.44,1.2s-3.16-.4-4.44-1.2c-1.28-.8-2.28-1.91-3-3.33-.72-1.42-1.07-3.06-1.07-4.92ZM37.06,18.17c0,1.8.36,3.24,1.09,4.31.73,1.07,1.68,1.61,2.85,1.61s2.11-.53,2.83-1.59c.72-1.06,1.07-2.48,1.07-4.27s-.35-3.21-1.05-4.26c-.7-1.05-1.65-1.57-2.85-1.57s-2.15.52-2.87,1.57c-.72,1.05-1.07,2.45-1.07,4.2Z"/>
  <path class="cls-1" d="M61.26,22.35c0-.39-.1-.73-.3-1-.2-.27-.56-.54-1.09-.81-.53-.27-1.31-.58-2.35-.92-1.92-.59-3.3-1.31-4.13-2.16-.83-.85-1.24-1.94-1.24-3.27,0-1.63.6-2.92,1.79-3.88,1.2-.96,2.74-1.44,4.64-1.44,1.18,0,2.35.19,3.5.56s2.11.89,2.9,1.55l-1.48,3c-.76-.64-1.57-1.11-2.4-1.41-.84-.3-1.67-.44-2.48-.44-.77,0-1.36.15-1.78.46-.42.31-.63.73-.63,1.28,0,.37.09.68.28.92.18.25.54.49,1.05.72.52.23,1.27.52,2.26.87,1.97.62,3.38,1.36,4.22,2.24.84.88,1.26,2.02,1.26,3.42,0,1.75-.61,3.13-1.83,4.12-1.22,1-2.89,1.5-5.01,1.5-1.21,0-2.44-.18-3.68-.54-1.25-.36-2.29-.88-3.13-1.57l1.44-3.14c1.75,1.36,3.54,2.04,5.37,2.04.99,0,1.7-.17,2.15-.52.44-.34.67-.86.67-1.55Z"/>
  <path class="cls-1" d="M68.36,22.24V2.55h4.62v19.65c0,1.21.44,1.81,1.33,1.81.44,0,.95-.14,1.52-.41l.7,3.22c-.44.25-1,.44-1.67.57s-1.31.2-1.92.2c-1.58,0-2.74-.41-3.48-1.22-.74-.81-1.11-2.2-1.11-4.14Z"/>
  <path class="cls-1" d="M77.76,18.24c0-1.97.35-3.66,1.05-5.05.7-1.39,1.68-2.47,2.92-3.22,1.25-.75,2.67-1.13,4.27-1.13,2.52,0,4.47.86,5.86,2.59s2.09,4.22,2.09,7.47h-11.77c.2,3.5,1.78,5.25,4.74,5.25.91,0,1.79-.17,2.65-.52.85-.35,1.62-.85,2.31-1.52l1.3,3.22c-1.75,1.53-4.03,2.29-6.85,2.29-2.64,0-4.73-.83-6.27-2.5-1.54-1.67-2.31-3.96-2.31-6.9ZM88.47,13.12c-.63-.68-1.45-1.02-2.46-1.02-2.05,0-3.28,1.29-3.7,3.88h7.33c-.15-1.23-.54-2.19-1.17-2.87Z"/>
  <path class="cls-1" d="M96.23,18.26c0-1.89.35-3.53,1.04-4.94.69-1.41,1.65-2.5,2.87-3.29,1.22-.79,2.62-1.18,4.2-1.18.74,0,1.39.06,1.94.17.55.11,1.04.25,1.46.43V2.55h4.62v24.68h-4.14l-.22-1.37c-1.06,1.18-2.52,1.78-4.37,1.78-1.48,0-2.78-.38-3.88-1.15-1.11-.76-1.97-1.86-2.59-3.27-.62-1.42-.92-3.07-.92-4.96ZM107.73,13.06c-.35-.2-.73-.36-1.15-.48-.42-.12-.84-.19-1.26-.19-1.38,0-2.48.52-3.29,1.55-.81,1.04-1.22,2.47-1.22,4.29s.35,3.35,1.05,4.35,1.7,1.5,2.98,1.5c1.13,0,2.1-.42,2.89-1.26v-9.77Z"/>
  <path class="cls-1" d="M127.93,16.06c0-2.44-1.02-3.66-3.07-3.66-.64,0-1.27.14-1.89.41-.62.27-1.17.62-1.67,1.04v13.39h-4.62V9.29h4.11l.22,1.44c.67-.57,1.45-1.02,2.35-1.37.9-.35,1.87-.52,2.9-.52,2.2,0,3.79.59,4.79,1.76,1,1.17,1.5,2.89,1.5,5.16v11.47h-4.62v-11.17Z"/>
  <path class="cls-1" d="M143.92,3.15l-7.25,4.07-1.52-2.11,6.62-5.11,2.15,3.15ZM136.85,9.29h4.62v17.94h-4.62V9.29Z"/>
  <path class="cls-1" d="M0,53.83c0-3.6.63-6.72,1.9-9.35,1.27-2.63,3.04-4.67,5.33-6.1,2.28-1.43,4.94-2.15,7.98-2.15,2.87,0,5.32.57,7.35,1.7,2.03,1.13,3.63,2.75,4.8,4.85l-5.45,4.7c-.93-1.47-1.89-2.54-2.88-3.22-.98-.68-2.16-1.03-3.52-1.03-2.07,0-3.73.88-5,2.62-1.27,1.75-1.9,4.36-1.9,7.83s.7,5.98,2.1,7.75c1.4,1.77,3.22,2.65,5.45,2.65,1.37,0,2.62-.2,3.75-.6v-5.05h-4.55v-5.95h12.25v16.15c-1.53.73-3.34,1.3-5.43,1.7-2.08.4-4.19.6-6.32.6-5.23,0-9.18-1.44-11.85-4.33-2.67-2.88-4-7.14-4-12.78Z"/>
  <path class="cls-1" d="M33.15,36.88h8.55v33.35h-8.55v-33.35Z"/>
  <path class="cls-1" d="M46.75,53.83c0-3.6.63-6.72,1.9-9.35,1.27-2.63,3.04-4.67,5.33-6.1,2.28-1.43,4.94-2.15,7.98-2.15,2.87,0,5.32.57,7.35,1.7,2.03,1.13,3.63,2.75,4.8,4.85l-5.45,4.7c-.93-1.47-1.89-2.54-2.88-3.22-.98-.68-2.16-1.03-3.52-1.03-2.07,0-3.73.88-5,2.62-1.27,1.75-1.9,4.36-1.9,7.83s.7,5.98,2.1,7.75c1.4,1.77,3.22,2.65,5.45,2.65,1.37,0,2.62-.2,3.75-.6v-5.05h-4.55v-5.95h12.25v16.15c-1.53.73-3.34,1.3-5.43,1.7-2.08.4-4.19.6-6.32.6-5.23,0-9.18-1.44-11.85-4.33-2.67-2.88-4-7.14-4-12.78Z"/>
  <path class="cls-1" d="M85.65,70.23h-8.9l12.15-33.35h8.15l12.2,33.35h-9.15l-2.15-6.85h-10.2l-2.1,6.85ZM92.85,45.78l-3.25,11.35h6.45l-3.2-11.35Z"/>
  <path class="cls-1" d="M130.32,64.16c0-.49-.12-.9-.37-1.24-.25-.34-.7-.67-1.36-1.01-.66-.34-1.63-.72-2.92-1.15-2.39-.74-4.1-1.63-5.13-2.69-1.03-1.06-1.54-2.42-1.54-4.07,0-2.02.74-3.63,2.23-4.83,1.49-1.2,3.41-1.79,5.77-1.79,1.47,0,2.92.23,4.35.69,1.43.46,2.63,1.1,3.61,1.93l-1.84,3.73c-.95-.8-1.95-1.38-2.99-1.75-1.04-.37-2.07-.55-3.08-.55-.95,0-1.69.19-2.21.58-.52.38-.78.91-.78,1.59,0,.46.12.84.35,1.15.23.31.67.61,1.31.9.64.29,1.58.65,2.81,1.08,2.45.77,4.2,1.7,5.24,2.78,1.04,1.09,1.56,2.51,1.56,4.25,0,2.18-.76,3.89-2.28,5.13-1.52,1.24-3.6,1.86-6.23,1.86-1.5,0-3.03-.22-4.58-.67-1.55-.44-2.84-1.1-3.89-1.96l1.79-3.91c2.18,1.69,4.4,2.53,6.67,2.53,1.23,0,2.12-.21,2.67-.64.55-.43.83-1.07.83-1.93ZM120.11,38.81l2.9-1.98,4.28,4.65,4.46-4.65,2.67,1.98-5.47,6.39h-3.36l-5.47-6.39Z"/>
  <path class="cls-1" d="M136.62,63.93c0-2.42,1.08-4.32,3.24-5.7s5.25-2.13,9.27-2.25c0-1.53-.32-2.62-.97-3.27-.64-.64-1.58-.97-2.81-.97-1.9,0-3.86.69-5.89,2.07l-1.56-3.73c.98-.71,2.16-1.33,3.54-1.89s2.96-.83,4.74-.83c2.67,0,4.75.71,6.26,2.12,1.5,1.41,2.25,3.68,2.25,6.81v13.94h-5.11l-.23-1.93c-.71.74-1.56,1.33-2.58,1.77-1.01.44-2.08.67-3.22.67-1.96,0-3.61-.61-4.95-1.82-1.33-1.21-2-2.88-2-4.99ZM141.86,63.61c0,1.07.35,1.86,1.06,2.35.71.49,1.44.74,2.21.74s1.49-.16,2.16-.48c.67-.32,1.29-.74,1.84-1.26v-5.47c-2.61.12-4.47.51-5.59,1.15-1.12.64-1.68,1.64-1.68,2.99Z"/>
  <path class="cls-1" d="M172.78,56.34c0-3.04-1.27-4.55-3.82-4.55-.8,0-1.58.17-2.35.51-.77.34-1.46.77-2.07,1.29v16.65h-5.75v-22.31h5.11l.28,1.79c.83-.71,1.8-1.27,2.92-1.7,1.12-.43,2.32-.64,3.61-.64,2.73,0,4.71.73,5.96,2.19,1.24,1.46,1.86,3.6,1.86,6.42v14.26h-5.75v-13.89Z"/>
  <path class="cls-1" d="M181.61,59.15c0-2.67.48-4.87,1.45-6.6.97-1.73,2.25-3.03,3.84-3.89,1.59-.86,3.31-1.29,5.15-1.29,1.66,0,3.05.25,4.19.76,1.13.51,2.06,1.16,2.78,1.95.72.8,1.28,1.64,1.68,2.53l-3.77,2.48c-.61-1.04-1.26-1.84-1.93-2.39-.67-.55-1.58-.83-2.71-.83-1.32,0-2.48.6-3.47,1.79-1,1.2-1.5,2.93-1.5,5.2,0,2.39.53,4.22,1.59,5.47,1.06,1.26,2.37,1.89,3.93,1.89,1.2,0,2.25-.2,3.15-.6.9-.4,1.74-.97,2.51-1.7l1.7,4.19c-.92.83-2.11,1.47-3.57,1.93-1.46.46-3,.69-4.62.69-1.99,0-3.77-.44-5.34-1.31-1.56-.87-2.8-2.17-3.7-3.89-.9-1.72-1.36-3.85-1.36-6.39Z"/>
  <path class="cls-1" d="M201.76,59.05c0-2.45.44-4.55,1.31-6.28.87-1.73,2.08-3.07,3.63-4s3.32-1.4,5.31-1.4c3.13,0,5.56,1.07,7.29,3.22,1.73,2.15,2.6,5.24,2.6,9.29h-14.63c.25,4.35,2.21,6.53,5.89,6.53,1.13,0,2.23-.21,3.29-.64,1.06-.43,2.02-1.06,2.88-1.89l1.61,4c-2.18,1.9-5.01,2.85-8.51,2.85-3.28,0-5.88-1.04-7.8-3.1-1.92-2.07-2.88-4.93-2.88-8.58ZM215.07,52.68c-.78-.84-1.8-1.27-3.06-1.27-2.55,0-4.08,1.61-4.6,4.83h9.11c-.18-1.53-.67-2.72-1.45-3.56Z"/>
</svg>