<?xml version="1.0" encoding="UTF-8"?>
<svg id="Layer_1" data-name="Layer 1" xmlns="http://www.w3.org/2000/svg" viewBox="0 0 336.93 45.8">
  <defs>
    <style>
      .cls-1 {
        fill: #fff;
      }
    </style>
  </defs>
  <path class="cls-1" d="M14.44,23.4c-3.93.17-6.72.67-8.35,1.5s-2.45,2.22-2.45,4.15c0,1,.24,1.82.73,2.45.48.63,1.07,1.1,1.77,1.4s1.38.45,2.05.45c1.23,0,2.36-.31,3.38-.93s1.93-1.31,2.73-2.07l.1,2.95c-.83,1-1.81,1.77-2.93,2.33-1.12.55-2.36.82-3.72.82s-2.54-.28-3.73-.85c-1.18-.57-2.15-1.4-2.9-2.5s-1.12-2.47-1.12-4.1c0-2.73,1.28-4.86,3.85-6.38,2.57-1.52,6.1-2.27,10.6-2.27v3.05h0ZM13.74,20.1c0-2-.42-3.43-1.25-4.28s-1.98-1.27-3.45-1.27c-1.03,0-2.11.2-3.23.6s-2.19,1.02-3.23,1.85l-1.2-2.8c.87-.67,1.93-1.29,3.2-1.88,1.27-.58,2.85-.88,4.75-.88,2.57,0,4.55.68,5.95,2.05,1.4,1.37,2.1,3.65,2.1,6.85v15.55h-3.35l-.3-4.1v-11.7h.01Z"/>
  <path class="cls-1" d="M30.84,2.55h8.55v33.35h-8.55V2.55ZM53.59,22.45h-18.45v-7.35h18.45v7.35ZM49.34,2.55h8.5v33.35h-8.5V2.55Z"/>
  <path class="cls-1" d="M62.66,2.55h12.6c3.5,0,6.21.77,8.12,2.3,1.92,1.53,2.88,3.68,2.88,6.45,0,1.63-.42,3.07-1.25,4.3-.83,1.23-2.03,2.13-3.6,2.7,2.17.53,3.79,1.52,4.88,2.95,1.08,1.43,1.62,3.17,1.62,5.2,0,1.9-.47,3.56-1.4,4.98s-2.24,2.52-3.92,3.3-3.68,1.17-5.98,1.17h-13.95V2.55h0ZM79.41,25.55c0-1.27-.37-2.23-1.1-2.88-.73-.65-1.82-.98-3.25-.98h-8.05v-5.85h7.05c1.2,0,2.14-.32,2.82-.95.68-.63,1.02-1.53,1.02-2.7,0-1.1-.32-1.93-.97-2.5s-1.56-.85-2.73-.85h-3.35v20.4h4.85c1.17,0,2.07-.32,2.73-.95.65-.63.97-1.55.97-2.75h0Z"/>
  <path class="cls-1" d="M88.91,19.17c0-3.48.62-6.52,1.88-9.1,1.25-2.58,3-4.59,5.25-6.02s4.88-2.15,7.9-2.15,5.65.73,7.9,2.17c2.25,1.45,4,3.48,5.25,6.08s1.88,5.64,1.88,9.12-.62,6.52-1.85,9.1c-1.23,2.58-2.98,4.6-5.23,6.05-2.25,1.45-4.89,2.18-7.93,2.18s-5.67-.73-7.92-2.18c-2.25-1.45-4-3.48-5.25-6.1s-1.88-5.67-1.88-9.15ZM98.44,13.75c-.52,1.5-.77,3.32-.77,5.45s.26,3.97.77,5.5c.52,1.53,1.25,2.71,2.2,3.53s2.06,1.22,3.32,1.22,2.37-.41,3.3-1.22c.93-.82,1.66-1.99,2.17-3.53.52-1.53.77-3.35.77-5.45s-.25-3.97-.75-5.5-1.22-2.7-2.15-3.5-2.05-1.2-3.35-1.2-2.42.41-3.35,1.23c-.93.82-1.66,1.98-2.18,3.48h.02Z"/>
  <path class="cls-1" d="M164.66,35.9h-7.75l-.9-22.25h.6l-7.05,22.45h-5.95l-7.05-21.7.85-.05-.95,21.55h-7.8l1.85-33.35h8.9l7.35,22.3,7.4-22.3h8.7l1.8,33.35h0Z"/>
  <path class="cls-1" d="M180.74,24.85c-2.37.03-4.07.34-5.1.92-1.03.58-1.55,1.46-1.55,2.62,0,.6.12,1.09.38,1.48.25.38.58.67,1,.88.42.2.86.3,1.33.3.73,0,1.44-.18,2.12-.55s1.26-.85,1.73-1.45l.3,4.2c-.7.93-1.67,1.71-2.9,2.32-1.23.62-2.55.93-3.95.93s-2.76-.32-3.88-.95c-1.12-.63-1.98-1.5-2.6-2.6-.62-1.1-.93-2.38-.93-3.85,0-2.7,1.19-4.79,3.58-6.28,2.38-1.48,5.88-2.27,10.48-2.38v4.4h0ZM180.19,20.7c0-1.43-.3-2.43-.9-3s-1.52-.85-2.75-.85c-1,0-2.01.17-3.02.5-1.02.33-2.11.87-3.27,1.6l-2.1-5.1c1.2-.9,2.64-1.64,4.32-2.23,1.68-.58,3.53-.88,5.53-.88,3.2,0,5.7.82,7.5,2.48,1.8,1.65,2.7,4.26,2.7,7.82v14.85h-7.35l-.65-4.45v-10.75h-.01Z"/>
  <path class="cls-1" d="M199.4,26.7l-10.1-15.35h8.9l5.3,9.75h-3.4l5.25-9.75h8.2l-9.6,15.1.25-6.2,10.05,15.65h-8.95l-5.25-10h2.9l-5.55,10h-8.25l10-15.35.25,6.15h0Z"/>
  <path class="cls-1" d="M231.1,36.8V12.05h3.65v24.65c0,2.33-.46,4.19-1.38,5.58-.92,1.38-2.29,2.56-4.12,3.52l-1.45-3c1-.7,1.73-1.34,2.2-1.92.47-.58.77-1.2.9-1.85s.2-1.39.2-2.23h0ZM230.55,5.42c0-.78.24-1.39.73-1.82.48-.43,1.06-.65,1.73-.65s1.23.22,1.7.65.7,1.04.7,1.82-.23,1.38-.7,1.8c-.47.42-1.03.62-1.7.62s-1.24-.21-1.73-.62c-.48-.42-.73-1.02-.73-1.8Z"/>
  <path class="cls-1" d="M238.49,23.9c0-2.53.42-4.73,1.25-6.58.83-1.85,2.02-3.29,3.55-4.32s3.32-1.55,5.35-1.55c3.13,0,5.57,1.11,7.3,3.33,1.73,2.22,2.6,5.31,2.6,9.27h-18.05v-3.1h14.85l-.6,1.1c0-2.3-.55-4.12-1.65-5.48-1.1-1.35-2.58-2.02-4.45-2.02-2.1,0-3.7.77-4.8,2.33-1.1,1.55-1.65,3.84-1.65,6.88s.62,5.56,1.85,7.17c1.23,1.62,3.05,2.43,5.45,2.43,1.33,0,2.58-.24,3.75-.73,1.17-.48,2.25-1.23,3.25-2.23l1.1,3c-1,.97-2.25,1.72-3.75,2.25s-3.1.8-4.8.8c-2.2,0-4.08-.5-5.65-1.5s-2.77-2.44-3.62-4.32-1.27-4.12-1.27-6.73h-.01Z"/>
  <path class="cls-1" d="M260.86,23.75c0-2.4.47-4.52,1.4-6.38.93-1.85,2.22-3.3,3.85-4.35,1.63-1.05,3.5-1.58,5.6-1.58,1.33,0,2.45.12,3.35.35s1.63.48,2.2.75v3.45c-.67-.4-1.43-.74-2.3-1.02s-1.75-.43-2.65-.43c-2.33,0-4.22.87-5.65,2.6s-2.15,4-2.15,6.8.62,5.23,1.85,6.9c1.23,1.67,2.92,2.5,5.05,2.5,1.27,0,2.4-.31,3.4-.93s1.83-1.49,2.5-2.62v3.45c-.83,1.1-1.77,1.91-2.8,2.42-1.03.52-2.23.77-3.6.77-2,0-3.76-.52-5.27-1.57-1.52-1.05-2.69-2.53-3.52-4.45s-1.25-4.14-1.25-6.67h-.01ZM276.76,2.55h3.65v33.35h-3.35l-.3-2.15V2.55Z"/>
  <path class="cls-1" d="M284.78,5.42c0-.78.24-1.39.73-1.82.48-.43,1.06-.65,1.73-.65s1.23.22,1.7.65.7,1.04.7,1.82-.23,1.38-.7,1.8c-.47.42-1.03.62-1.7.62s-1.24-.21-1.73-.62c-.48-.42-.73-1.02-.73-1.8ZM285.28,12.05h3.65v23.85h-3.65V12.05Z"/>
  <path class="cls-1" d="M293.86,12.05h3.35l.3,2.65v21.2h-3.65V12.05ZM309.46,20.95c0-2-.42-3.57-1.27-4.7-.85-1.13-2.24-1.7-4.17-1.7-1.33,0-2.63.33-3.9,1s-2.33,1.38-3.2,2.15v-3.3c.97-.83,2.11-1.53,3.42-2.1,1.32-.57,2.74-.85,4.27-.85,3.13,0,5.33.79,6.6,2.38,1.27,1.58,1.9,3.99,1.9,7.23v14.85h-3.65v-14.95h0Z"/>
  <path class="cls-1" d="M316.88,23.9c0-2.53.42-4.73,1.25-6.58.83-1.85,2.02-3.29,3.55-4.32s3.32-1.55,5.35-1.55c3.13,0,5.57,1.11,7.3,3.33,1.73,2.22,2.6,5.31,2.6,9.27h-18.05v-3.1h14.85l-.6,1.1c0-2.3-.55-4.12-1.65-5.48-1.1-1.35-2.58-2.02-4.45-2.02-2.1,0-3.7.77-4.8,2.33-1.1,1.55-1.65,3.84-1.65,6.88s.62,5.56,1.85,7.17c1.23,1.62,3.05,2.43,5.45,2.43,1.33,0,2.58-.24,3.75-.73,1.17-.48,2.25-1.23,3.25-2.23l1.1,3c-1,.97-2.25,1.72-3.75,2.25s-3.1.8-4.8.8c-2.2,0-4.08-.5-5.65-1.5s-2.77-2.44-3.62-4.32-1.27-4.12-1.27-6.73h-.01ZM328.43,8.7h-2.3l-6-7.2,2.15-1.5,5,5.6,5.05-5.6,2.05,1.5-5.95,7.2h0Z"/>
</svg>