<?xml version="1.0" encoding="UTF-8"?>
<svg id="Layer_1" data-name="Layer 1" xmlns="http://www.w3.org/2000/svg" viewBox="0 0 189.94 189.94">
  <defs>
    <style>
      .cls-1 {
        fill: #e60000;
      }

      .cls-2 {
        fill: #fff;
      }
    </style>
  </defs>
  <circle class="cls-2" cx="94.97" cy="94.97" r="94.97"/>
  <g>
    <path class="cls-1" d="M26.62,109.87v-26.62l-6.38,3.98-4.06-7.66,12.98-7.84h7.22v38.15h-9.76,0Z"/>
    <path class="cls-1" d="M68.87,98.92c0,1.54-.27,3.02-.82,4.44s-1.37,2.67-2.48,3.75-2.5,1.94-4.18,2.59c-1.67.65-3.64.98-5.9.98s-4.17-.33-5.84-.98c-1.67-.65-3.07-1.52-4.18-2.59s-1.95-2.32-2.51-3.75c-.56-1.42-.85-2.9-.85-4.44,0-2.04.42-3.79,1.27-5.27.85-1.48,2.06-2.66,3.64-3.54-1.35-.92-2.42-2.04-3.19-3.34-.77-1.31-1.16-3-1.16-5.07,0-1.38.28-2.72.85-4,.56-1.29,1.38-2.42,2.45-3.4s2.41-1.77,4.01-2.36c1.6-.6,3.45-.89,5.56-.89s3.89.29,5.47.86c1.58.58,2.91,1.35,4.01,2.33,1.09.98,1.92,2.11,2.48,3.4s.85,2.62.85,4c0,2.07-.39,3.77-1.16,5.1-.77,1.33-1.82,2.43-3.13,3.31,1.54.92,2.73,2.11,3.55,3.57.83,1.46,1.24,3.23,1.24,5.3,0,0,.02,0,.02,0ZM59.73,98.29c0-1.27-.38-2.34-1.13-3.23-.75-.88-1.79-1.33-3.1-1.33s-2.35.43-3.1,1.3c-.75.86-1.13,1.93-1.13,3.2s.38,2.41,1.13,3.31,1.81,1.35,3.16,1.35,2.34-.44,3.07-1.33c.73-.88,1.1-1.98,1.1-3.28h0ZM59.28,82.61c0-1.11-.34-2.07-1.02-2.88s-1.6-1.21-2.76-1.21-2.04.4-2.74,1.21-1.04,1.79-1.04,2.94.34,2.09,1.02,2.94,1.6,1.27,2.76,1.27,2.09-.42,2.76-1.27c.68-.84,1.02-1.84,1.02-3h0Z"/>
    <path class="cls-1" d="M99.57,90.85c0,2.77-.26,5.36-.79,7.78s-1.36,4.52-2.51,6.31-2.61,3.19-4.4,4.21-3.94,1.53-6.46,1.53-4.73-.51-6.52-1.53c-1.79-1.02-3.25-2.42-4.4-4.21s-1.98-3.89-2.51-6.31-.79-5.01-.79-7.78.26-5.36.79-7.78,1.36-4.52,2.51-6.31,2.61-3.19,4.4-4.21,3.96-1.53,6.52-1.53,4.67.51,6.46,1.53,3.25,2.42,4.4,4.21,1.98,3.89,2.51,6.31.79,5.01.79,7.78ZM89.86,90.85c0-3.73-.35-6.57-1.04-8.53-.7-1.96-1.83-2.94-3.41-2.94s-2.72.98-3.41,2.94c-.7,1.96-1.04,4.8-1.04,8.53s.35,6.57,1.04,8.53c.7,1.96,1.83,2.94,3.41,2.94s2.72-.98,3.41-2.94c.7-1.96,1.04-4.8,1.04-8.53Z"/>
    <path class="cls-1" d="M111.81,109.87v-38.44h9.65v14.98h2.43c.71,0,1.35-.18,1.92-.55.56-.36,1.09-1.22,1.58-2.56l4.23-11.87h10.66l-5.59,13.48c-.53,1.31-1.17,2.33-1.92,3.08s-1.58,1.28-2.48,1.58c1.09.46,1.99,1.1,2.71,1.93.71.83,1.33,1.91,1.86,3.26l6.21,15.1h-10.78l-3.72-10.03c-.56-1.54-1.14-2.67-1.72-3.4s-1.42-1.09-2.51-1.09h-2.88v14.52h-9.65Z"/>
    <path class="cls-1" d="M168.96,107.05c-.9.77-2.24,1.53-4.01,2.28s-3.91,1.12-6.43,1.12c-4.25,0-7.62-1.26-10.1-3.77-2.48-2.52-3.72-6.14-3.72-10.86,0-2.38.34-4.49,1.02-6.34.68-1.84,1.62-3.4,2.82-4.67,1.2-1.27,2.65-2.24,4.34-2.91s3.54-1.01,5.53-1.01c1.62,0,3.04.21,4.26.63s2.29.98,3.19,1.67,1.67,1.48,2.29,2.36,1.14,1.79,1.55,2.71l-6.49,4.26c-.6-1.27-1.26-2.27-1.98-3-.71-.73-1.58-1.09-2.6-1.09-1.43,0-2.56.58-3.39,1.73s-1.24,2.9-1.24,5.24c0,2.5.49,4.35,1.47,5.56s2.37,1.81,4.17,1.81c1.43,0,2.62-.27,3.58-.81s1.87-1.23,2.74-2.07l2.99,7.15h0ZM155.54,78l-6.54-7.03,3.95-3.75,5.25,5.47,5.64-5.47,3.67,3.75-6.66,7.03h-5.31Z"/>
  </g>
  <g>
    <path class="cls-1" d="M31.04,136.79v-6.96c0-.93-.19-1.65-.57-2.15s-.91-.76-1.58-.76c-.48,0-.92.13-1.32.38s-.75.53-1.05.84v8.66h-3.06v-12.2h2.79l.15.96c.48-.41,1.02-.72,1.62-.94s1.21-.33,1.82-.33,1.2.1,1.73.29.98.5,1.36.92.67.97.88,1.65.31,1.49.31,2.43v7.21h-3.08Z"/>
    <path class="cls-1" d="M43.19,136.79l-.12-.91c-.33.37-.75.66-1.26.87s-1.07.32-1.68.32c-.51,0-1-.09-1.47-.27s-.89-.43-1.25-.76-.65-.73-.88-1.21-.33-1.03-.33-1.63.12-1.14.35-1.61.54-.86.94-1.18.85-.58,1.36-.78,1.05-.35,1.61-.46c.4-.08.83-.15,1.3-.19s.86-.08,1.17-.11v-.18c0-.67-.17-1.16-.51-1.44-.34-.29-.8-.43-1.4-.43-.35,0-.68.04-.99.13-.31.08-.59.19-.84.32s-.47.25-.65.38c-.19.13-.34.24-.46.34l-1.01-2.2c.13-.12.33-.26.6-.43.27-.17.6-.33.99-.49s.82-.29,1.31-.4,1.01-.16,1.57-.16c.66,0,1.26.09,1.8.27s1.01.46,1.41.84c.4.38.7.86.93,1.44.22.58.33,1.29.33,2.11v7.85h-2.82v-.03h0ZM42.94,131.09c-.33.02-.67.05-1.01.09-.35.04-.68.1-.99.16-.66.14-1.12.37-1.37.7-.26.33-.38.69-.38,1.08s.14.73.43.97c.29.25.7.37,1.22.37.4,0,.78-.08,1.15-.25s.69-.38.95-.63v-2.48h0Z"/>
    <path class="cls-1" d="M64.04,130.66c0,.79-.12,1.57-.36,2.34s-.6,1.45-1.09,2.05-1.11,1.08-1.87,1.46c-.76.37-1.66.56-2.69.56-.54,0-1.07-.12-1.58-.35v4.86h-3.06v-16.98h2.79l.15.91c.28-.29.65-.56,1.12-.82s1.03-.39,1.67-.39c.81,0,1.52.18,2.14.53s1.13.82,1.54,1.4.72,1.26.93,2.04.31,1.58.31,2.4h0ZM61.05,130.71c0-.47-.05-.94-.16-1.39-.11-.46-.27-.86-.48-1.21s-.48-.64-.8-.86-.7-.33-1.12-.33-.83.12-1.21.37-.66.51-.84.8v5.9c.49.24.97.35,1.43.35.54,0,1.02-.1,1.42-.3s.74-.48,1-.82c.26-.35.46-.73.58-1.16s.19-.87.19-1.33v-.02h-.01Z"/>
    <path class="cls-1" d="M73.06,127.24c-.13-.03-.29-.06-.47-.08s-.37-.03-.57-.03c-.58,0-1.1.16-1.56.47s-.85.64-1.16.97v8.2h-3.06v-12.2h2.79l.2,1.29c.13-.17.3-.35.51-.53.21-.19.44-.35.7-.51.26-.15.54-.27.83-.37s.59-.14.9-.14c.28,0,.55.02.82.06.26.04.44.08.52.11l-.44,2.73v.03h0Z"/>
    <path class="cls-1" d="M78.52,136.79l-4.99-12.2h3.26l3.11,8.1,3.01-8.1h3.11l-4.84,12.2h-2.67.01,0Z"/>
    <path class="cls-1" d="M94.99,136.79v-6.96c0-.93-.19-1.65-.57-2.15s-.91-.76-1.58-.76c-.48,0-.92.13-1.32.38s-.75.53-1.05.84v8.66h-3.06v-12.2h2.79l.15.96c.48-.41,1.02-.72,1.62-.94s1.21-.33,1.82-.33,1.2.1,1.73.29c.53.19.98.5,1.36.92s.67.97.88,1.65.31,1.49.31,2.43v7.21h-3.08Z"/>
    <path class="cls-1" d="M100.13,123.17l-.81-1.37,4.72-3.57,1.46,2.1-5.36,2.83h-.01ZM100.9,136.79v-12.2h3.04v12.2h-3.04Z"/>
    <path class="cls-1" d="M126.04,136.79v-7.16c0-.81-.15-1.46-.44-1.96-.3-.5-.85-.75-1.66-.75-.23,0-.47.04-.7.11-.24.08-.47.16-.68.27-.21.1-.4.21-.57.32-.16.11-.3.21-.4.29.03.2.07.43.1.68s.05.53.05.84v7.37h-3.06v-7.16c0-.37-.03-.72-.09-1.05s-.16-.62-.31-.86-.34-.44-.58-.58c-.24-.14-.54-.21-.9-.21-.46,0-.9.13-1.31.38s-.76.52-1.04.81v8.68h-3.06v-12.2h2.82l.12.91c.36-.34.81-.62,1.35-.86.53-.24,1.07-.35,1.62-.35s1.12.09,1.67.27,1.07.49,1.54.92c.54-.34,1.14-.62,1.79-.85.65-.23,1.35-.34,2.09-.34.89,0,1.63.12,2.24.35.6.24,1.08.57,1.45,1.01.36.44.62.98.78,1.62s.23,1.38.23,2.2v7.31h-3.05Z"/>
    <path class="cls-1" d="M134.3,131.47c.07,1.03.38,1.77.94,2.23.56.46,1.28.68,2.17.68.41,0,.8-.04,1.16-.11.36-.08.68-.17.96-.29s.52-.24.72-.35c.2-.12.35-.23.44-.33l.82,2.56c-.12.08-.3.2-.56.34s-.57.28-.95.4c-.38.13-.82.24-1.33.33s-1.07.14-1.68.14c-.77,0-1.51-.13-2.21-.38s-1.31-.65-1.84-1.18-.95-1.19-1.26-1.99c-.31-.79-.47-1.74-.47-2.83,0-1.03.14-1.94.43-2.73s.68-1.46,1.19-2,1.09-.95,1.75-1.24c.67-.29,1.38-.43,2.14-.43s1.46.13,2.1.38,1.2.65,1.67,1.18.84,1.22,1.11,2.06.41,1.85.41,3.01v.56h-7.71ZM135.6,123.02l-2.84-3.19,1.68-1.22,2.27,2.4,2.37-2.4,1.63,1.04-2.84,3.37h-2.27ZM138.89,129.22c-.03-.42-.12-.79-.26-1.1s-.31-.56-.52-.76c-.21-.19-.43-.34-.67-.43s-.48-.14-.73-.14c-.53,0-1.03.2-1.51.61-.48.4-.76,1.01-.84,1.82h4.53,0Z"/>
    <path class="cls-1" d="M153.29,133.24c0,.66-.13,1.23-.38,1.71s-.6.88-1.04,1.19-.95.54-1.53.7-1.21.23-1.89.23-1.29-.05-1.85-.16c-.56-.11-1.05-.24-1.48-.4s-.8-.33-1.11-.52-.56-.36-.74-.53l1.11-2.4c.18.17.41.35.69.53.28.19.59.35.94.51.35.15.72.28,1.14.38.41.1.85.15,1.31.15.74,0,1.26-.11,1.54-.33.29-.22.43-.51.43-.89,0-.17-.03-.33-.1-.48s-.2-.29-.4-.42-.48-.25-.84-.38-.84-.26-1.43-.39-1.13-.3-1.61-.49-.89-.44-1.22-.73-.59-.65-.77-1.06c-.17-.41-.26-.92-.26-1.51,0-1.08.39-1.96,1.17-2.63.78-.67,1.97-1.01,3.57-1.01.64,0,1.22.05,1.73.15s.96.22,1.33.37c.38.14.69.29.94.43s.43.27.54.37l-1.04,2.28c-.31-.25-.77-.51-1.38-.78s-1.31-.41-2.1-.41c-.72,0-1.21.12-1.47.35-.26.24-.38.52-.38.86,0,.19.04.35.11.48.07.14.2.25.38.35s.43.2.74.29.71.19,1.19.29c.67.14,1.27.3,1.79.51.52.2.95.46,1.3.77s.61.68.79,1.11.27.94.27,1.53v-.02h.01Z"/>
    <path class="cls-1" d="M154.58,123.17l-.81-1.37,4.72-3.57,1.46,2.1-5.36,2.83h-.01ZM155.34,136.79v-12.2h3.04v12.2h-3.04Z"/>
    <path class="cls-1" d="M170.56,135.75c-.12.08-.3.2-.54.35s-.56.3-.93.44-.8.27-1.3.37c-.49.1-1.05.15-1.68.15-.72,0-1.42-.13-2.09-.38s-1.26-.64-1.77-1.16-.92-1.18-1.22-1.97-.46-1.73-.46-2.81.15-2.02.44-2.83c.3-.81.7-1.48,1.2-2.02.5-.54,1.08-.94,1.74-1.2s1.35-.39,2.08-.39,1.3.09,1.82.28.97.42,1.35.7.69.59.93.92c.24.34.43.66.58.96l-2.27,1.57c-.25-.44-.56-.85-.93-1.23s-.85-.57-1.44-.57c-.66,0-1.23.3-1.72.9s-.73,1.53-.73,2.8.25,2.14.74,2.78,1.21.96,2.15.96c.44,0,.84-.05,1.2-.14.35-.09.66-.2.93-.33s.48-.26.66-.39c.17-.13.3-.24.38-.33l.89,2.58h-.01Z"/>
  </g>
  <g>
    <path class="cls-1" d="M79.27,57.21c-.33.76-.78,1.4-1.36,1.94-.58.53-1.25.94-2.01,1.21-.77.28-1.59.42-2.48.42s-1.72-.14-2.48-.42c-.77-.28-1.44-.68-2.01-1.21-.58-.53-1.03-1.18-1.36-1.94s-.49-1.62-.49-2.58v-11.09h3.16v10.76c0,1.01.28,1.84.83,2.49s1.35.97,2.38.97,1.8-.32,2.35-.97c.54-.65.82-1.48.82-2.49v-10.76h3.16v11.09c0,.96-.17,1.82-.49,2.58,0,0-.02,0-.02,0Z"/>
    <path class="cls-1" d="M81.59,60.42v-2.25l6.47-7.42h-6.2v-2.53h9.73v2.38l-6.37,7.31h6.57v2.51h-10.2ZM85.86,46.65l-2.84-3.19,1.68-1.22,2.27,2.4,2.37-2.4,1.63,1.04-2.84,3.37h-2.27Z"/>
    <path class="cls-1" d="M98.21,60.42v-2.25l6.47-7.42h-6.2v-2.53h9.73v2.38l-6.37,7.31h6.57v2.51h-10.2Z"/>
    <path class="cls-1" d="M117.09,60.42l-.12-.91c-.33.37-.75.66-1.26.87s-1.07.32-1.68.32c-.51,0-1-.09-1.47-.27s-.89-.43-1.25-.76-.65-.73-.88-1.21-.33-1.03-.33-1.63.12-1.14.35-1.61.54-.86.94-1.18.85-.58,1.36-.78,1.05-.35,1.61-.46c.4-.08.83-.15,1.3-.19s.86-.08,1.17-.11v-.18c0-.67-.17-1.16-.51-1.44-.34-.29-.8-.43-1.4-.43-.35,0-.68.04-.99.13-.31.08-.59.19-.84.32s-.47.25-.65.38c-.19.13-.34.24-.46.34l-1.01-2.2c.13-.12.33-.26.6-.43.27-.17.6-.33.99-.49s.82-.29,1.31-.4,1.01-.16,1.57-.16c.66,0,1.26.09,1.8.27s1.01.46,1.41.84.7.86.93,1.44c.22.58.33,1.29.33,2.11v7.85h-2.82v-.03ZM116.84,54.73c-.33.02-.67.05-1.01.09-.35.04-.68.1-.99.16-.66.14-1.12.37-1.37.7-.26.33-.38.69-.38,1.08s.14.73.43.97c.29.25.7.37,1.22.37.4,0,.78-.08,1.15-.25s.69-.38.95-.63v-2.48h0Z"/>
  </g>
</svg>