<?xml version="1.0" encoding="UTF-8"?>
<svg id="Layer_1" data-name="Layer 1" xmlns="http://www.w3.org/2000/svg" viewBox="0 0 42 42">
  <defs>
    <style>
      .cls-1 {
        fill: #fff;
      }

      .cls-2 {
        fill: #e50000;
      }
    </style>
  </defs>
  <path class="cls-1" d="M21,42c11.6,0,21-9.4,21-21S32.6,0,21,0,0,9.4,0,21s9.4,21,21,21"/>
  <path class="cls-2" d="M21.17,32.71c-5.77.02-11.77-4.91-11.8-12.81-.02-5.23,2.8-10.26,6.41-13.25,3.52-2.91,8.34-4.78,12.71-4.8.56,0,1.15.05,1.51.17-3.82.79-6.86,4.35-6.85,8.38,0,.13,0,.28.03.34,6.39,1.56,9.3,5.42,9.31,10.75,0,5.33-4.2,11.19-11.32,11.21h0Z"/>
</svg>