<?xml version="1.0" encoding="UTF-8"?>
<svg id="Layer_1" data-name="Layer 1" xmlns="http://www.w3.org/2000/svg" viewBox="0 0 250.4 23.6">
  <defs>
    <style>
      .cls-1 {
        fill: #e50000;
      }
    </style>
  </defs>
  <path class="cls-1" d="M244.4,11.72c.75,0,1.35.26,1.82.78.47.52.73,1.24.78,2.16h-5.32c.3-1.96,1.2-2.94,2.72-2.94M247.54,22.95c.9-.3,1.66-.74,2.3-1.32l-1.04-2.58c-.62.56-1.21.96-1.79,1.2-.58.24-1.21.36-1.9.36-1.1,0-1.93-.3-2.49-.9-.56-.6-.89-1.55-.98-2.86h8.76c0-2.45-.52-4.33-1.57-5.67-1.05-1.33-2.52-2-4.42-2-1.19,0-2.26.29-3.21.85-.94.57-1.68,1.38-2.21,2.44-.53,1.05-.8,2.33-.8,3.82,0,2.2.57,3.93,1.71,5.19s2.72,1.89,4.73,1.89c1.05,0,2.02-.15,2.91-.45M234.68,22.94c.83-.31,1.48-.67,1.95-1.08l-1.09-2.69c-.41.41-.88.75-1.41,1.01-.53.26-1.18.39-1.95.39-.97,0-1.77-.37-2.39-1.11-.63-.74-.94-1.82-.94-3.23s.28-2.43.84-3.15c.56-.72,1.26-1.08,2.1-1.08.65,0,1.18.19,1.6.56.41.37.78.87,1.12,1.48l2.44-1.62c-.22-.49-.55-.98-.98-1.47-.43-.49-.98-.91-1.67-1.25-.68-.34-1.54-.5-2.56-.5-1.16,0-2.22.26-3.18.78-.96.52-1.73,1.32-2.31,2.38-.58,1.06-.87,2.4-.87,4s.28,2.82.84,3.86c.56,1.05,1.33,1.83,2.31,2.37s2.08.8,3.29.8c1.08,0,2.04-.15,2.87-.46M222.79,23.12v-8.54c0-1.75-.4-3.09-1.2-4-.8-.91-2.01-1.37-3.61-1.37-.77,0-1.48.13-2.14.39-.66.26-1.25.62-1.78,1.06l-.17-1.12h-3.11v13.58h3.5v-10c.39-.32.82-.58,1.29-.8.47-.21.93-.32,1.4-.32.8,0,1.39.25,1.76.74.37.49.56,1.2.56,2.11v8.26h3.5ZM203.05,20.56c-.39.18-.81.27-1.26.27-.49,0-.93-.15-1.33-.45-.4-.3-.6-.74-.6-1.32,0-.82.32-1.41.95-1.78.63-.36,1.73-.58,3.28-.66v3.25c-.3.28-.64.51-1.04.69M207.56,23.12v-8.71c0-1.77-.44-3.08-1.33-3.93-.89-.85-2.14-1.27-3.77-1.27-.95,0-1.87.15-2.76.46-.89.31-1.65.69-2.28,1.13l1.06,2.35c.62-.43,1.22-.74,1.82-.94.6-.2,1.16-.29,1.68-.29.67,0,1.19.18,1.55.53.36.36.55.92.55,1.71v.34c-2.43.04-4.29.47-5.6,1.29-1.31.82-1.96,1.98-1.96,3.47,0,.86.19,1.6.57,2.21.38.62.9,1.09,1.55,1.43.65.34,1.37.5,2.16.5,1.46,0,2.62-.45,3.5-1.34l.22,1.06h3.02ZM190.87,7.75l3.33-3.7-1.54-1.37-2.8,2.86-2.69-2.86-1.62,1.37,3.3,3.7h2.02ZM193.64,22.27c.95-.76,1.43-1.8,1.43-3.12,0-1.1-.32-1.98-.97-2.63-.64-.65-1.76-1.21-3.35-1.68-.75-.24-1.32-.45-1.71-.62-.39-.17-.66-.35-.8-.53-.14-.19-.21-.42-.21-.7,0-.84.63-1.26,1.9-1.26.6,0,1.23.13,1.89.38.66.25,1.26.59,1.78,1.02l1.18-2.32c-.62-.5-1.36-.9-2.23-1.18-.87-.28-1.78-.42-2.73-.42-1.55,0-2.79.37-3.72,1.11-.93.74-1.4,1.73-1.4,2.98,0,1.08.32,1.93.97,2.55.64.62,1.79,1.18,3.43,1.68,1.1.35,1.82.65,2.16.88.34.23.5.57.5.99,0,.95-.68,1.43-2.04,1.43-.67,0-1.39-.14-2.16-.42-.77-.28-1.44-.65-2.02-1.12l-1.12,2.55c.56.47,1.34.85,2.34,1.13,1,.29,1.98.43,2.95.43,1.66,0,2.97-.38,3.92-1.13M167.56,6.94l2.24,7.65h-4.49l2.24-7.65ZM162.56,23.12l1.33-3.84h7.31l1.36,3.84h6.09L170.48.44h-5.75l-8.23,22.68h6.05ZM154.84,22.17v-11.49h-8.47v4.49h3.06v3.16c-.86.18-1.65.27-2.38.27-1.59,0-2.79-.61-3.6-1.82-.82-1.21-1.22-2.85-1.22-4.91s.4-3.82,1.19-5c.79-1.18,1.9-1.77,3.33-1.77.86,0,1.6.2,2.21.6.61.4,1.24,1.09,1.87,2.09l4.05-3.16c-1.07-1.61-2.27-2.78-3.62-3.52-1.35-.74-2.98-1.1-4.88-1.1-2.09,0-3.89.48-5.41,1.43-1.52.95-2.69,2.31-3.5,4.08s-1.22,3.86-1.22,6.29.41,4.49,1.24,6.26c.83,1.77,2.01,3.13,3.54,4.1,1.53.96,3.35,1.45,5.46,1.45,3.33,0,6.12-.48,8.36-1.43M132.81.44h-5.81v22.68h5.81V.44ZM123.19,22.17v-11.49h-8.47v4.49h3.06v3.16c-.86.18-1.65.27-2.38.27-1.59,0-2.79-.61-3.6-1.82-.82-1.21-1.22-2.85-1.22-4.91s.4-3.82,1.19-5c.79-1.18,1.9-1.77,3.33-1.77.86,0,1.6.2,2.21.6.61.4,1.24,1.09,1.87,2.09l4.05-3.16c-1.07-1.61-2.27-2.78-3.62-3.52-1.35-.74-2.98-1.1-4.88-1.1-2.09,0-3.89.48-5.41,1.43-1.52.95-2.69,2.31-3.5,4.08-.82,1.77-1.22,3.86-1.22,6.29s.41,4.49,1.24,6.26c.83,1.77,2.01,3.13,3.54,4.1,1.53.96,3.35,1.45,5.46,1.45,3.33,0,6.12-.48,8.36-1.43M98.84,5.03l-1.54-2.38-5.1,3.75,1.06,1.57,5.57-2.94ZM96.91,9.54h-3.5v13.58h3.5v-13.58ZM90.19,23.12v-8.54c0-1.75-.4-3.09-1.2-4-.8-.91-2.01-1.37-3.61-1.37-.77,0-1.48.13-2.14.39-.66.26-1.26.62-1.78,1.06l-.17-1.12h-3.11v13.58h3.5v-10c.39-.32.82-.58,1.29-.8.47-.21.93-.32,1.4-.32.8,0,1.39.25,1.76.74.37.49.56,1.2.56,2.11v8.26h3.5ZM69.16,20.63c-.93,0-1.67-.38-2.2-1.15-.53-.77-.8-1.83-.8-3.19s.31-2.38.92-3.15c.62-.77,1.44-1.16,2.46-1.16.6,0,1.21.16,1.85.48v7.22c-.65.63-1.4.95-2.24.95M71.6,22.03l.2,1.09h3.11V4.44h-3.5v5.21c-.34-.13-.73-.24-1.18-.32-.45-.08-.93-.13-1.46-.13-1.2,0-2.25.3-3.16.9-.92.6-1.63,1.42-2.14,2.48-.51,1.05-.77,2.28-.77,3.68s.24,2.66.71,3.74c.48,1.07,1.14,1.91,2,2.51.86.6,1.85.9,2.97.9,1.36,0,2.44-.46,3.22-1.37M54.96,11.72c.75,0,1.35.26,1.82.78.47.52.73,1.24.78,2.16h-5.32c.3-1.96,1.2-2.94,2.72-2.94M58.1,22.95c.9-.3,1.66-.74,2.3-1.32l-1.04-2.58c-.62.56-1.21.96-1.79,1.2-.58.24-1.21.36-1.9.36-1.1,0-1.93-.3-2.49-.9-.56-.6-.89-1.55-.98-2.86h8.76c0-2.45-.52-4.33-1.57-5.67-1.05-1.33-2.52-2-4.42-2-1.19,0-2.26.29-3.21.85-.94.57-1.68,1.38-2.21,2.44-.53,1.05-.8,2.33-.8,3.82,0,2.2.57,3.93,1.71,5.19,1.14,1.26,2.72,1.89,4.73,1.89,1.04,0,2.02-.15,2.91-.45M46.65,23.22c.5-.12.89-.25,1.15-.38l-.53-2.55c-.43.19-.8.28-1.12.28-.37,0-.64-.11-.78-.34-.15-.22-.22-.57-.22-1.04V4.44h-3.5v15.04c0,1.38.28,2.38.84,3,.56.62,1.43.92,2.6.92.54,0,1.06-.06,1.57-.18M37.74,22.27c.95-.76,1.43-1.8,1.43-3.12,0-1.1-.32-1.98-.97-2.63-.64-.65-1.76-1.21-3.35-1.68-.75-.24-1.32-.45-1.71-.62-.39-.17-.66-.35-.8-.53-.14-.19-.21-.42-.21-.7,0-.84.63-1.26,1.9-1.26.6,0,1.23.13,1.89.38.66.25,1.26.59,1.78,1.02l1.18-2.32c-.62-.5-1.36-.9-2.23-1.18-.87-.28-1.78-.42-2.73-.42-1.55,0-2.79.37-3.72,1.11-.93.74-1.4,1.73-1.4,2.98,0,1.08.32,1.93.97,2.55.64.62,1.79,1.18,3.43,1.68,1.1.35,1.82.65,2.16.88.34.23.5.57.5.99,0,.95-.68,1.43-2.04,1.43-.67,0-1.39-.14-2.16-.42-.77-.28-1.44-.65-2.02-1.12l-1.12,2.55c.56.47,1.34.85,2.34,1.13,1,.29,1.98.43,2.95.43,1.66,0,2.97-.38,3.92-1.13M18.54,19.45c-.54-.78-.81-1.85-.81-3.19s.27-2.35.8-3.12c.53-.77,1.26-1.16,2.17-1.16s1.64.39,2.17,1.16c.53.78.8,1.82.8,3.12s-.27,2.41-.81,3.19c-.54.78-1.26,1.18-2.16,1.18s-1.61-.39-2.16-1.18M24.07,22.5c.96-.6,1.71-1.43,2.25-2.51.54-1.07.81-2.32.81-3.74s-.27-2.66-.81-3.71c-.54-1.05-1.29-1.88-2.25-2.46-.96-.59-2.09-.88-3.37-.88s-2.39.29-3.36.88c-.97.59-1.73,1.41-2.27,2.46-.54,1.05-.81,2.29-.81,3.71s.27,2.66.81,3.74c.54,1.07,1.3,1.91,2.27,2.51.97.6,2.09.9,3.36.9s2.41-.3,3.37-.9M3.56,7.61h2.66c2.03,0,3.05.94,3.05,2.83,0,.92-.27,1.62-.8,2.1-.53.49-1.29.73-2.28.73h-2.63v-5.66ZM3.56,23.12v-6.72h2.74c2.15,0,3.78-.52,4.91-1.55,1.13-1.04,1.69-2.52,1.69-4.44s-.57-3.42-1.71-4.44c-1.14-1.02-2.79-1.53-4.96-1.53H0v18.68h3.56Z"/>
</svg>