<?xml version="1.0" encoding="UTF-8"?>
<svg id="Layer_1" data-name="Layer 1" xmlns="http://www.w3.org/2000/svg" viewBox="0 0 185.6 27.12">
  <defs>
    <style>
      .cls-1 {
        fill: #fff;
      }
    </style>
  </defs>
  <path class="cls-1" d="M0,0h3.08l12.76,19.88V0h3v26.68h-2.24L3,5.52v21.16H0V0Z"/>
  <path class="cls-1" d="M24.2,17.08c0-2.03.33-3.78,1-5.26s1.61-2.63,2.84-3.46c1.23-.83,2.65-1.24,4.28-1.24,2.51,0,4.45.89,5.84,2.66,1.39,1.77,2.08,4.25,2.08,7.42h-13.08c.05,4.96,2,7.44,5.84,7.44,2.16,0,4.03-.79,5.6-2.36l.88,2.4c-.8.77-1.8,1.37-3,1.8s-2.48.64-3.84.64c-2.64,0-4.71-.89-6.2-2.66-1.49-1.77-2.24-4.23-2.24-7.38ZM35.68,10.98c-.85-.92-1.97-1.38-3.36-1.38-2.83,0-4.49,1.71-5,5.12h9.84c-.13-1.57-.63-2.82-1.48-3.74Z"/>
  <path class="cls-1" d="M57.4,14.72c0-1.6-.34-2.85-1.02-3.76-.68-.91-1.79-1.36-3.34-1.36-.96,0-1.9.21-2.82.64-.92.43-1.71.92-2.38,1.48v14.96h-2.92V7.6h2.68l.16,1.52c.75-.56,1.61-1.03,2.6-1.42.99-.39,2.04-.58,3.16-.58,2.51,0,4.27.63,5.28,1.9,1.01,1.27,1.52,3.19,1.52,5.78v11.88h-2.92v-11.96Z"/>
  <path class="cls-1" d="M65.16,17.08c0-2.03.33-3.78,1-5.26s1.61-2.63,2.84-3.46c1.23-.83,2.65-1.24,4.28-1.24,2.51,0,4.45.89,5.84,2.66,1.39,1.77,2.08,4.25,2.08,7.42h-13.08c.05,4.96,2,7.44,5.84,7.44,2.16,0,4.03-.79,5.6-2.36l.88,2.4c-.8.77-1.8,1.37-3,1.8s-2.48.64-3.84.64c-2.64,0-4.71-.89-6.2-2.66-1.49-1.77-2.24-4.23-2.24-7.38ZM76.64,10.98c-.85-.92-1.97-1.38-3.36-1.38-2.83,0-4.49,1.71-5,5.12h9.84c-.13-1.57-.63-2.82-1.48-3.74Z"/>
  <path class="cls-1" d="M84.96,17.2c0-2.4.41-4.34,1.22-5.82.81-1.48,1.85-2.56,3.12-3.24,1.27-.68,2.57-1.02,3.9-1.02s2.53.23,3.44.68c.91.45,1.63.99,2.16,1.6.53.61.92,1.17,1.16,1.68l-2.04,1.52c-.59-.91-1.22-1.63-1.9-2.18-.68-.55-1.61-.82-2.78-.82-1.47,0-2.73.65-3.78,1.96-1.05,1.31-1.58,3.16-1.58,5.56s.56,4.25,1.68,5.56c1.12,1.31,2.45,1.96,4,1.96,1.23,0,2.25-.19,3.06-.58.81-.39,1.54-.87,2.18-1.46l.84,2.52c-.69.61-1.59,1.1-2.7,1.46-1.11.36-2.29.54-3.54.54-1.44,0-2.8-.36-4.08-1.08-1.28-.72-2.33-1.81-3.14-3.28-.81-1.47-1.22-3.32-1.22-5.56Z"/>
  <path class="cls-1" d="M116.64,14.76c0-3.44-1.48-5.16-4.44-5.16-1.47,0-3.17.72-5.12,2.16v14.92h-2.92V0h2.92v9.12c1.73-1.33,3.61-2,5.64-2,2.35,0,4.07.62,5.18,1.86,1.11,1.24,1.66,3.18,1.66,5.82v11.88h-2.92v-11.92Z"/>
  <path class="cls-1" d="M126.16,22.64v-12.56h-3.12v-2.48h3.12V2.4h2.92v5.2h4.76v2.48h-4.76v12.24c0,.83.15,1.42.44,1.78.29.36.76.54,1.4.54.8,0,1.67-.35,2.6-1.04l.8,2.32c-1.12.8-2.43,1.2-3.92,1.2-2.83,0-4.24-1.49-4.24-4.48Z"/>
  <path class="cls-1" d="M136.6,17.08c0-2.03.33-3.78,1-5.26.67-1.48,1.61-2.63,2.84-3.46s2.65-1.24,4.28-1.24c2.51,0,4.45.89,5.84,2.66s2.08,4.25,2.08,7.42h-13.08c.05,4.96,2,7.44,5.84,7.44,2.16,0,4.03-.79,5.6-2.36l.88,2.4c-.8.77-1.8,1.37-3,1.8s-2.48.64-3.84.64c-2.64,0-4.71-.89-6.2-2.66-1.49-1.77-2.24-4.23-2.24-7.38ZM148.08,10.98c-.85-.92-1.97-1.38-3.36-1.38-2.83,0-4.49,1.71-5,5.12h9.84c-.13-1.57-.63-2.82-1.48-3.74Z"/>
  <path class="cls-1" d="M174.88,21.64c0-.59-.12-1.07-.36-1.44-.24-.37-.7-.74-1.38-1.1-.68-.36-1.67-.79-2.98-1.3-1.84-.72-3.13-1.48-3.86-2.28-.73-.8-1.1-1.85-1.1-3.16,0-1.57.55-2.84,1.64-3.8s2.52-1.44,4.28-1.44c2.51,0,4.55.75,6.12,2.24l-1.24,2.2c-1.41-1.31-3.03-1.96-4.84-1.96-.96,0-1.73.23-2.3.7-.57.47-.86,1.09-.86,1.86,0,.51.11.93.32,1.28.21.35.64.68,1.28,1,.64.32,1.57.71,2.8,1.16,1.87.67,3.2,1.45,4,2.36.8.91,1.2,2.07,1.2,3.48,0,1.73-.58,3.11-1.74,4.14-1.16,1.03-2.73,1.54-4.7,1.54-1.15,0-2.31-.19-3.48-.58-1.17-.39-2.15-.91-2.92-1.58l1.04-2.48c1.73,1.44,3.52,2.16,5.36,2.16,2.48,0,3.72-1,3.72-3Z"/>
  <path class="cls-1" d="M181.72,2.3c0-.63.19-1.11.58-1.46.39-.35.85-.52,1.38-.52s.99.17,1.36.52c.37.35.56.83.56,1.46s-.19,1.11-.56,1.44c-.37.33-.83.5-1.36.5s-.99-.17-1.38-.5c-.39-.33-.58-.81-.58-1.44ZM182.12,7.6h2.92v19.08h-2.92V7.6Z"/>
</svg>