<?xml version="1.0" encoding="UTF-8"?>
<svg id="Layer_1" data-name="Layer 1" xmlns="http://www.w3.org/2000/svg" viewBox="0 0 167.44 27.76">
  <defs>
    <style>
      .cls-1 {
        fill: #fff;
      }
    </style>
  </defs>
  <path class="cls-1" d="M13.2,18.92c0-1.09-.43-1.93-1.28-2.5-.85-.57-2.04-.86-3.56-.86-.45,0-.91.03-1.36.08-.45.05-.91.12-1.36.2v-4.32c.67-.8,1.49-1.7,2.48-2.7.99-1,1.91-1.83,2.76-2.5H1.36V.8h17.36v5.28c-1.12.69-2.26,1.52-3.42,2.48-1.16.96-2.22,1.89-3.18,2.8,2.35.08,4.23.83,5.64,2.24,1.41,1.41,2.12,3.24,2.12,5.48,0,1.73-.43,3.25-1.28,4.56-.85,1.31-2.06,2.32-3.62,3.04s-3.41,1.08-5.54,1.08c-1.92,0-3.68-.29-5.28-.86-1.6-.57-2.99-1.42-4.16-2.54l2.8-5.04c.96.91,1.99,1.63,3.08,2.16,1.09.53,2.23.8,3.4.8s2.12-.31,2.84-.92c.72-.61,1.08-1.43,1.08-2.44Z"/>
  <path class="cls-1" d="M23.24,14c0-2.75.41-5.15,1.22-7.22.81-2.07,1.97-3.67,3.48-4.82,1.51-1.15,3.31-1.72,5.42-1.72s3.91.57,5.42,1.72c1.51,1.15,2.66,2.75,3.46,4.82.8,2.07,1.2,4.47,1.2,7.2s-.41,5.13-1.22,7.2c-.81,2.07-1.97,3.68-3.46,4.84-1.49,1.16-3.29,1.74-5.4,1.74s-3.92-.57-5.44-1.72c-1.52-1.15-2.68-2.75-3.48-4.82-.8-2.07-1.2-4.47-1.2-7.22ZM36.52,14c0-2.83-.27-4.91-.82-6.26-.55-1.35-1.33-2.02-2.34-2.02s-1.79.67-2.34,2c-.55,1.33-.82,3.42-.82,6.26s.28,4.93.84,6.28c.56,1.35,1.34,2.02,2.34,2.02s1.77-.67,2.32-2.02c.55-1.35.82-3.43.82-6.26Z"/>
  <path class="cls-1" d="M53.8,14.08c0-2.88.51-5.37,1.52-7.48,1.01-2.11,2.43-3.73,4.26-4.88,1.83-1.15,3.95-1.72,6.38-1.72,2.29,0,4.25.45,5.88,1.36,1.63.91,2.91,2.2,3.84,3.88l-4.36,3.76c-.75-1.17-1.51-2.03-2.3-2.58-.79-.55-1.73-.82-2.82-.82-1.65,0-2.99.7-4,2.1-1.01,1.4-1.52,3.49-1.52,6.26s.56,4.79,1.68,6.2c1.12,1.41,2.57,2.12,4.36,2.12,1.09,0,2.09-.16,3-.48v-4.04h-3.64v-4.76h9.8v12.92c-1.23.59-2.67,1.04-4.34,1.36-1.67.32-3.35.48-5.06.48-4.19,0-7.35-1.15-9.48-3.46-2.13-2.31-3.2-5.71-3.2-10.22Z"/>
  <g>
    <path class="cls-1" d="M80.04.52h10.08c2.77,0,4.93.61,6.48,1.84,1.55,1.23,2.32,2.95,2.32,5.16,0,1.31-.33,2.45-1,3.44-.67.99-1.63,1.71-2.88,2.16,1.73.43,3.03,1.21,3.9,2.36.87,1.15,1.3,2.53,1.3,4.16,0,1.52-.37,2.85-1.12,3.98-.75,1.13-1.8,2.01-3.16,2.64-1.36.63-2.95.94-4.76.94h-11.16V.52ZM91.46,6.24c-.52-.45-1.25-.68-2.18-.68h-2.68v5.6h2.56c.96,0,1.71-.25,2.26-.76.55-.51.82-1.23.82-2.16,0-.88-.26-1.55-.78-2ZM93.44,18.92c0-2.05-1.16-3.08-3.48-3.08h-3.36v6.04h3.88c.93,0,1.66-.25,2.18-.76.52-.51.78-1.24.78-2.2Z"/>
    <path class="cls-1" d="M110.04,17.48c0-2.13.37-3.97,1.12-5.52.75-1.55,1.79-2.75,3.12-3.6,1.33-.85,2.87-1.28,4.6-1.28.69,0,1.31.05,1.86.16.55.11,1.03.24,1.46.4V.52h6.68v26.68h-5.88l-.28-1.44c-1.09,1.28-2.68,1.92-4.76,1.92-2.43,0-4.35-.92-5.78-2.76-1.43-1.84-2.14-4.32-2.14-7.44ZM122.2,12.48c-.27-.13-.55-.25-.86-.34-.31-.09-.62-.14-.94-.14-1.2,0-2.13.45-2.78,1.36-.65.91-.98,2.24-.98,4s.3,3.16.9,4.04c.6.88,1.43,1.32,2.5,1.32.8,0,1.52-.25,2.16-.76v-9.48Z"/>
    <path class="cls-1" d="M132.64,21.76c0-2.11.91-3.76,2.74-4.96,1.83-1.2,4.51-1.85,8.06-1.96-.03-1.07-.28-1.81-.76-2.24-.48-.43-1.2-.64-2.16-.64-1.57,0-3.25.56-5.04,1.68l-1.68-4.08c.96-.69,2.11-1.28,3.46-1.76s2.82-.72,4.42-.72c2.56,0,4.56.66,6,1.98,1.44,1.32,2.16,3.41,2.16,6.26v11.88h-5.88l-.24-1.72c-.59.67-1.34,1.2-2.26,1.6s-1.89.6-2.9.6c-1.79,0-3.22-.55-4.3-1.64-1.08-1.09-1.62-2.52-1.62-4.28ZM143.44,18.36c-1.73.08-2.98.35-3.74.8-.76.45-1.14,1.13-1.14,2.04,0,.72.22,1.25.66,1.6.44.35.94.52,1.5.52,1.01,0,1.92-.4,2.72-1.2v-3.76Z"/>
    <path class="cls-1" d="M155.36,21.84v-9.4h-2.64v-4.88h2.64V2.72h6.68v4.84h4.32v4.88h-4.32v8.48c0,1.17.49,1.76,1.48,1.76.77,0,1.57-.32,2.4-.96l1.52,4.24c-.8.59-1.72,1.02-2.76,1.3-1.04.28-2.08.42-3.12.42-4.13,0-6.2-1.95-6.2-5.84Z"/>
  </g>
</svg>