<?xml version="1.0" encoding="UTF-8"?>
<svg id="Layer_1" data-name="Layer 1" xmlns="http://www.w3.org/2000/svg" viewBox="0 0 127.7 127.21">
  <defs>
    <style>
      .cls-1 {
        fill: #fff;
      }

      .cls-2 {
        fill: #e50000;
      }
    </style>
  </defs>
  <g>
    <path class="cls-2" d="M63.85,127.21c35.26,0,63.85-28.48,63.85-63.61S99.11,0,63.85,0,0,28.48,0,63.6s28.59,63.61,63.85,63.61"/>
    <g>
      <path class="cls-1" d="M51.12,42.26c-.23-1.82-1.2-2.74-2.52-2.74-1.57,0-2.54,1.18-2.54,3.65s.97,3.65,2.52,3.65c1.37,0,2.34-.95,2.54-2.88h3.02c-.3,3.32-2.47,5.23-5.59,5.23-3.41,0-5.62-2.17-5.62-6s2.21-6,5.62-6c3.08,0,5.28,1.86,5.59,5.09h-3.02Z"/>
      <path class="cls-1" d="M54.62,44.36c0-2.96,1.95-4.8,4.77-4.8,2.66,0,4.65,1.76,4.65,4.91v.2h-6.56c.08,1.69.79,2.51,1.93,2.51.91,0,1.53-.54,1.78-1.73h2.77c-.43,2.32-2.11,3.7-4.58,3.7-2.84,0-4.75-1.82-4.75-4.8ZM57.57,43.21h3.58c-.28-1.15-.91-1.73-1.78-1.73-.92,0-1.55.58-1.8,1.73Z"/>
      <path class="cls-1" d="M64.76,39.81h2.94v1c.64-.74,1.57-1.2,2.69-1.2,1.95,0,3.23,1.2,3.23,3.07v6.23h-2.94v-5.8c0-.95-.59-1.45-1.45-1.45-.64,0-1.19.26-1.53.71v6.54h-2.94v-9.1Z"/>
      <path class="cls-1" d="M74.29,46.56c0-1.86,1.93-2.38,3.89-2.94,1.45-.41,2.04-.74,2.04-1.3,0-.49-.46-.84-1.3-.84-1.02,0-1.65.58-1.8,1.53h-2.67c.3-2.04,2.09-3.43,4.59-3.43,2.62,0,4.07,1.2,4.07,3.42v5.92h-2.89v-.92c-.68.71-1.67,1.08-2.82,1.08-1.9,0-3.12-1-3.12-2.51ZM78.35,47.29c.71,0,1.43-.26,1.88-.72v-1.35l.02-.76c-.35.25-.83.39-1.4.59-1.04.35-1.71.64-1.71,1.35,0,.53.45.89,1.22.89Z"/>
    </g>
    <path class="cls-1" d="M18.43,63.27h-4.34v-3.53c2.94-.11,4.84-1.15,5.53-2.77h5.55v19.17h-6.74v-12.87Z"/>
    <path class="cls-1" d="M40.23,66.59c0-3.78-1.13-5.34-3.02-5.34s-3.05,1.56-3.05,5.34,1.13,5.31,3.05,5.31,3.02-1.59,3.02-5.31M27.2,66.56c0-6.38,3.77-10.02,10.01-10.02s9.95,3.64,9.95,10.02-3.74,10.02-9.95,10.02-10.01-3.64-10.01-10.02"/>
    <path class="cls-1" d="M61.61,66.59c0-3.78-1.13-5.34-3.02-5.34s-3.05,1.56-3.05,5.34,1.13,5.31,3.05,5.31,3.02-1.59,3.02-5.31M48.58,66.56c0-6.38,3.77-10.02,10.01-10.02s9.95,3.64,9.95,10.02-3.74,10.02-9.95,10.02-10.01-3.64-10.01-10.02"/>
  </g>
  <polygon class="cls-1" points="76.59 56.98 83.41 56.98 83.38 64.78 89.26 56.98 96.6 56.98 90.61 64.94 96.74 76.14 89.07 76.14 85.72 69.24 83.38 71.9 83.41 76.14 76.59 76.14 76.59 56.98"/>
  <path class="cls-1" d="M111.39,56.02l-3.74,3.42h-5.03l-3.71-3.42h4.78l1.49,1.51,1.48-1.51h4.73ZM96.52,68.45c0-5.17,3.43-8.11,8.58-8.11,4.78,0,8.16,2.41,8.46,7.12h-6.02c-.28-2.05-1.1-2.96-2.31-2.96-1.43,0-2.34,1.12-2.34,3.92s.91,3.97,2.34,3.97c1.21,0,2.09-.93,2.31-3.12h6.02c-.27,4.82-3.65,7.31-8.46,7.31-5.14,0-8.58-2.93-8.58-8.13"/>
</svg>