<?xml version="1.0" encoding="UTF-8"?>
<svg id="Layer_1" data-name="Layer 1" xmlns="http://www.w3.org/2000/svg" viewBox="0 0 116.61 22.19">
  <defs>
    <style>
      .cls-1 {
        fill: #fff;
      }
    </style>
  </defs>
  <g>
    <path class="cls-1" d="M0,11.85c0-2.18.38-4.06,1.15-5.65.77-1.59,1.84-2.82,3.22-3.69,1.38-.87,2.99-1.3,4.82-1.3,1.73,0,3.21.34,4.44,1.03,1.23.69,2.2,1.66,2.9,2.93l-3.3,2.84c-.56-.89-1.14-1.54-1.74-1.95-.59-.41-1.31-.62-2.13-.62-1.25,0-2.26.53-3.02,1.59-.77,1.06-1.15,2.64-1.15,4.73s.42,3.62,1.27,4.69c.85,1.07,1.94,1.6,3.3,1.6.83,0,1.58-.12,2.27-.36v-3.05h-2.75v-3.6h7.41v9.76c-.93.44-2.02.79-3.28,1.03-1.26.24-2.54.36-3.82.36-3.16,0-5.55-.87-7.17-2.62-1.61-1.74-2.42-4.32-2.42-7.72Z"/>
    <path class="cls-1" d="M20.04,1.6h5.17v20.17h-5.17V1.6Z"/>
    <path class="cls-1" d="M28.27,11.85c0-2.18.38-4.06,1.15-5.65.77-1.59,1.84-2.82,3.22-3.69,1.38-.87,2.99-1.3,4.82-1.3,1.73,0,3.21.34,4.44,1.03,1.23.69,2.2,1.66,2.9,2.93l-3.3,2.84c-.56-.89-1.14-1.54-1.74-1.95-.59-.41-1.31-.62-2.13-.62-1.25,0-2.26.53-3.02,1.59-.77,1.06-1.15,2.64-1.15,4.73s.42,3.62,1.27,4.69c.85,1.07,1.94,1.6,3.3,1.6.83,0,1.58-.12,2.27-.36v-3.05h-2.75v-3.6h7.41v9.76c-.93.44-2.02.79-3.28,1.03-1.26.24-2.54.36-3.82.36-3.16,0-5.55-.87-7.17-2.62-1.61-1.74-2.42-4.32-2.42-7.72Z"/>
    <path class="cls-1" d="M51.79,21.77h-5.38L53.75,1.6h4.93l7.38,20.17h-5.53l-1.3-4.14h-6.17l-1.27,4.14ZM56.14,6.98l-1.96,6.86h3.9l-1.94-6.86Z"/>
  </g>
  <g>
    <path class="cls-1" d="M73.68,17.96V1.6h2.21v16.69c0,1.25.41,1.87,1.24,1.87.36,0,.84-.14,1.42-.42l.51,1.75c-.69.36-1.44.54-2.27.54-1.13,0-1.93-.31-2.4-.94-.47-.62-.71-1.67-.71-3.14Z"/>
    <path class="cls-1" d="M80.24,14.51c0-1.53.25-2.86.76-3.98.5-1.12,1.22-1.99,2.15-2.62.93-.62,2-.94,3.23-.94,1.89,0,3.37.67,4.41,2.01,1.05,1.34,1.57,3.21,1.57,5.61h-9.89c.04,3.75,1.51,5.62,4.41,5.62,1.63,0,3.04-.59,4.23-1.78l.67,1.81c-.6.58-1.36,1.04-2.27,1.36-.91.32-1.87.48-2.9.48-2,0-3.56-.67-4.69-2.01-1.13-1.34-1.69-3.2-1.69-5.58ZM88.92,9.9c-.65-.7-1.49-1.04-2.54-1.04-2.14,0-3.4,1.29-3.78,3.87h7.44c-.1-1.19-.47-2.13-1.12-2.83ZM89.94,1.57l-5.2,3.75-1.09-1.12,4.81-4.2,1.48,1.57Z"/>
    <path class="cls-1" d="M96.29,18.71v-9.49h-2.36v-1.87h2.36v-3.93h2.21v3.93h3.6v1.87h-3.6v9.25c0,.62.11,1.07.33,1.35.22.27.57.41,1.06.41.6,0,1.26-.26,1.97-.79l.6,1.75c-.85.6-1.83.91-2.96.91-2.14,0-3.2-1.13-3.2-3.39Z"/>
    <path class="cls-1" d="M103.85,14.48c0-1.47.27-2.77.82-3.9.54-1.13,1.29-2.01,2.25-2.65.96-.63,2.06-.95,3.31-.95s2.35.32,3.31.95c.96.63,1.71,1.52,2.25,2.65.54,1.13.82,2.43.82,3.9s-.27,2.78-.82,3.93c-.54,1.15-1.3,2.05-2.25,2.71-.96.66-2.06.98-3.3.98s-2.34-.33-3.31-.98c-.97-.65-1.72-1.56-2.27-2.71-.54-1.15-.82-2.46-.82-3.93ZM106.06,14.48c0,1.13.18,2.13.53,2.99.35.87.85,1.54,1.48,2.03s1.36.73,2.18.73,1.54-.24,2.16-.73c.62-.48,1.11-1.16,1.47-2.03s.53-1.86.53-2.99c0-1.67-.38-3.03-1.15-4.07-.77-1.04-1.77-1.56-3.01-1.56s-2.25.52-3.02,1.56-1.16,2.39-1.16,4.07Z"/>
  </g>
</svg>