<?xml version="1.0" encoding="UTF-8"?>
<svg id="Layer_1" data-name="Layer 1" xmlns="http://www.w3.org/2000/svg" viewBox="0 0 78.6 36.62">
  <defs>
    <style>
      .cls-1 {
        fill: #fff;
      }
    </style>
  </defs>
  <path class="cls-1" d="M9.8.75h4.79c1.58,0,2.78.37,3.6,1.11.82.74,1.23,1.8,1.23,3.19,0,.92-.17,1.7-.52,2.34-.35.64-.87,1.12-1.57,1.44-.7.33-1.57.49-2.61.49h-3.33v-2.62h3c.55,0,.97-.15,1.26-.44.29-.3.43-.71.43-1.23s-.14-.95-.41-1.23c-.28-.28-.69-.42-1.24-.42h-2.83l1.41-1.21v11.44h-3.22V.75Z"/>
  <path class="cls-1" d="M23.44,13.59h-3.22V4.14h2.83l.38,2.27v7.18ZM23,5.64c.42-.63.84-1.08,1.24-1.34.4-.26.85-.39,1.34-.39.21,0,.41.02.61.05.2.03.36.07.49.12l-.38,2.6c-.14-.05-.29-.09-.45-.12-.16-.03-.32-.04-.47-.04-.41,0-.8.1-1.17.31-.37.21-.71.49-1,.87l-.19-2.06Z"/>
  <path class="cls-1" d="M27.12,1.6c0-.45.15-.83.45-1.14.3-.31.72-.46,1.26-.46s.96.15,1.26.45c.3.3.45.68.45,1.13s-.15.83-.45,1.14c-.3.31-.72.46-1.26.46s-.96-.15-1.26-.45c-.3-.3-.45-.68-.45-1.13ZM27.23,4.14h3.22v9.45h-3.22V4.14Z"/>
  <path class="cls-1" d="M32.05,4.14h2.83l.38,2.2v7.26h-3.22V4.14ZM37.61,7.76c0-.32-.04-.59-.11-.8-.07-.21-.18-.38-.34-.49-.15-.12-.36-.17-.62-.17s-.53.07-.81.22c-.28.15-.53.34-.75.59l-.27-1.96c.37-.37.81-.67,1.31-.9.5-.22,1.02-.34,1.56-.34.77,0,1.39.17,1.87.5.47.33.82.8,1.04,1.39.22.59.33,1.27.33,2.04v5.76h-3.22v-5.83ZM39.77,5.26c.4-.42.88-.75,1.45-.99.57-.24,1.15-.36,1.74-.36.77,0,1.41.14,1.91.43.5.29.88.73,1.13,1.32.25.59.38,1.32.38,2.2v5.74h-3.21v-5.83c0-.49-.08-.85-.25-1.1-.17-.24-.45-.37-.85-.37-.19,0-.39.03-.58.1-.19.06-.38.16-.55.29-.17.13-.32.27-.45.42l-.71-1.85Z"/>
  <path class="cls-1" d="M52.76,9.34c-.91.01-1.57.13-1.96.36-.4.22-.6.56-.6,1.01,0,.23.05.42.14.57.1.15.22.26.39.34.16.08.33.12.51.12.28,0,.56-.07.82-.21.26-.14.48-.33.66-.56l.12,1.62c-.27.36-.64.66-1.12.9s-.98.36-1.52.36c-.57,0-1.06-.12-1.49-.37-.43-.24-.76-.58-1-1-.24-.42-.36-.92-.36-1.48,0-1.04.46-1.85,1.38-2.42.92-.57,2.26-.88,4.03-.91v1.69ZM52.55,7.74c0-.55-.12-.94-.35-1.16-.23-.22-.58-.33-1.06-.33-.39,0-.77.06-1.17.19-.39.13-.81.33-1.26.62l-.81-1.96c.46-.35,1.02-.63,1.67-.86.65-.22,1.36-.34,2.13-.34,1.23,0,2.2.32,2.89.95s1.04,1.64,1.04,3.01v5.72h-2.83l-.25-1.71v-4.14Z"/>
  <path class="cls-1" d="M56.67,5.93h9.28v2.52h-9.28v-2.52ZM60,2.23h2.64v9.92h-2.64V2.23Z"/>
  <path class="cls-1" d="M0,23.51h4.79c1.58,0,2.78.37,3.6,1.11.82.74,1.23,1.8,1.23,3.19,0,.92-.17,1.7-.52,2.34-.35.64-.87,1.12-1.57,1.44-.7.33-1.57.49-2.61.49H1.6v-2.62h3c.55,0,.97-.15,1.26-.44.29-.29.43-.71.43-1.23s-.14-.95-.41-1.23c-.28-.28-.69-.42-1.24-.42H1.81l1.41-1.21v11.44H0v-12.84Z"/>
  <path class="cls-1" d="M10.59,23.51h4.83c1.57,0,2.75.33,3.54,1,.8.67,1.19,1.59,1.19,2.75,0,.81-.21,1.49-.62,2.04s-.98.94-1.71,1.16v-.15c.36.08.65.21.87.38.22.18.4.42.55.71.15.29.28.66.39,1.1l1.04,3.85h-3.39l-.77-3.16c-.12-.51-.28-.87-.5-1.07-.22-.2-.53-.3-.92-.3h-2.93v-2.64h2.89c.6,0,1.05-.14,1.34-.41.29-.28.43-.66.43-1.15s-.14-.84-.42-1.11c-.28-.26-.73-.4-1.33-.4h-1.85l.52-.62v10.84h-3.16v-12.84Z"/>
  <path class="cls-1" d="M21.79,23.51h8.66v2.75h-6.82l1.37-1.23v9.8l-1.37-1.23h7.22v2.75h-9.07v-12.84ZM23.66,28.57h5.33v2.52h-5.33v-2.52Z"/>
  <path class="cls-1" d="M45.72,36.35h-2.98l-.35-8.57h.23l-2.71,8.65h-2.29l-2.71-8.36.33-.02-.37,8.3h-3l.71-12.84h3.43l2.83,8.59,2.85-8.59h3.35l.69,12.84Z"/>
  <path class="cls-1" d="M47.44,23.51h3.29v12.84h-3.29v-12.84Z"/>
  <path class="cls-1" d="M52.67,31.59v-8.09h3.29v7.99c0,.78.18,1.36.53,1.74.35.38.83.57,1.43.57s1.1-.19,1.45-.56c.35-.37.53-.96.53-1.75v-7.99h3.29v8.09c0,1.12-.22,2.05-.66,2.79s-1.05,1.3-1.84,1.67c-.79.37-1.72.56-2.8.56s-2.03-.19-2.81-.56c-.78-.37-1.38-.93-1.8-1.67s-.62-1.67-.62-2.79Z"/>
  <path class="cls-1" d="M78.6,36.35h-2.98l-.35-8.57h.23l-2.71,8.65h-2.29l-2.71-8.36.33-.02-.37,8.3h-3l.71-12.84h3.43l2.83,8.59,2.85-8.59h3.35l.69,12.84Z"/>
</svg>