<?xml version="1.0" encoding="UTF-8"?>
<svg id="Layer_1" data-name="Layer 1" xmlns="http://www.w3.org/2000/svg" viewBox="0 0 83.14 13.36">
  <defs>
    <style>
      .cls-1 {
        fill: #fff;
      }
    </style>
  </defs>
  <path class="cls-1" d="M5.56,8.28c-1.51.06-2.59.26-3.22.58-.63.32-.94.85-.94,1.6,0,.38.09.7.28.94s.41.42.68.54.53.17.79.17c.47,0,.91-.12,1.3-.36s.74-.5,1.05-.8l.04,1.14c-.32.38-.7.68-1.13.9-.43.21-.91.32-1.43.32s-.98-.11-1.43-.33c-.46-.22-.83-.54-1.12-.96-.29-.42-.43-.95-.43-1.58,0-1.05.49-1.87,1.48-2.46.99-.58,2.35-.88,4.08-.88v1.17ZM5.29,7.01c0-.77-.16-1.32-.48-1.65s-.76-.49-1.33-.49c-.4,0-.81.08-1.24.23-.43.15-.84.39-1.24.71l-.46-1.08c.33-.26.74-.5,1.23-.72s1.1-.34,1.83-.34c.99,0,1.75.26,2.29.79s.81,1.41.81,2.64v5.99h-1.29l-.12-1.58v-4.5Z"/>
  <path class="cls-1" d="M11.88.25h3.29v12.84h-3.29V.25ZM20.64,7.91h-7.1v-2.83h7.1v2.83ZM19,.25h3.27v12.84h-3.27V.25Z"/>
  <path class="cls-1" d="M24.3.25h4.85c1.35,0,2.39.29,3.13.89.74.59,1.11,1.42,1.11,2.48,0,.63-.16,1.18-.48,1.66s-.78.82-1.39,1.04c.83.21,1.46.58,1.88,1.14.42.55.63,1.22.63,2,0,.73-.18,1.37-.54,1.92-.36.55-.86.97-1.51,1.27-.65.3-1.42.45-2.3.45h-5.37V.25ZM30.75,9.11c0-.49-.14-.86-.42-1.11s-.7-.38-1.25-.38h-3.1v-2.25h2.71c.46,0,.82-.12,1.09-.37s.4-.59.4-1.04c0-.42-.12-.74-.38-.96-.25-.22-.6-.33-1.05-.33h-1.29v7.86h1.87c.45,0,.8-.12,1.05-.37.25-.24.38-.6.38-1.06Z"/>
  <path class="cls-1" d="M34.57,6.65c0-1.34.24-2.51.72-3.5.48-.99,1.16-1.77,2.02-2.32.87-.55,1.88-.83,3.04-.83s2.18.28,3.04.84c.87.56,1.54,1.34,2.02,2.34.48,1,.72,2.17.72,3.51s-.24,2.51-.71,3.5c-.47.99-1.15,1.77-2.01,2.33-.87.56-1.88.84-3.05.84s-2.19-.28-3.05-.84c-.87-.56-1.54-1.34-2.02-2.35s-.72-2.18-.72-3.52ZM38.24,4.56c-.2.58-.3,1.28-.3,2.1s.1,1.53.3,2.12c.2.59.48,1.04.85,1.36.37.32.79.47,1.28.47s.91-.16,1.27-.47c.36-.31.64-.77.84-1.36.2-.59.3-1.29.3-2.1s-.1-1.53-.29-2.12c-.19-.59-.47-1.04-.83-1.35-.36-.31-.79-.46-1.29-.46s-.93.16-1.29.47c-.36.31-.64.76-.84,1.34Z"/>
  <path class="cls-1" d="M63.74,13.09h-2.98l-.35-8.57h.23l-2.71,8.65h-2.29l-2.71-8.36.33-.02-.37,8.3h-3l.71-12.84h3.43l2.83,8.59L59.7.25h3.35l.69,12.84Z"/>
  <path class="cls-1" d="M70.09,8.84c-.91.01-1.57.13-1.96.36-.4.22-.6.56-.6,1.01,0,.23.05.42.14.57.1.15.22.26.39.34.16.08.33.12.51.12.28,0,.56-.07.82-.21.26-.14.48-.33.66-.56l.12,1.62c-.27.36-.64.66-1.12.9s-.98.36-1.52.36c-.57,0-1.06-.12-1.49-.37-.43-.24-.76-.58-1-1-.24-.42-.36-.92-.36-1.48,0-1.04.46-1.85,1.38-2.42s2.26-.88,4.03-.91v1.69ZM69.88,7.24c0-.55-.12-.94-.35-1.16-.23-.22-.58-.33-1.06-.33-.39,0-.77.06-1.17.19-.39.13-.81.33-1.26.62l-.81-1.96c.46-.35,1.02-.63,1.67-.86.65-.22,1.36-.34,2.13-.34,1.23,0,2.2.32,2.89.95.69.64,1.04,1.64,1.04,3.01v5.72h-2.83l-.25-1.71v-4.14Z"/>
  <path class="cls-1" d="M77.42,9.55l-3.89-5.91h3.43l2.04,3.75h-1.31l2.02-3.75h3.16l-3.7,5.82.1-2.39,3.87,6.03h-3.45l-2.02-3.85h1.12l-2.14,3.85h-3.18l3.85-5.91.1,2.37Z"/>
</svg>