<?xml version="1.0" encoding="UTF-8"?>
<svg id="Layer_1" data-name="Layer 1" xmlns="http://www.w3.org/2000/svg" viewBox="0 0 102.14 36.81">
  <defs>
    <style>
      .cls-1 {
        fill: #fff;
      }
    </style>
  </defs>
  <path class="cls-1" d="M19.01,14.17V4.64h1.41v9.49c0,.9-.18,1.61-.53,2.15-.35.53-.88.99-1.59,1.36l-.56-1.16c.39-.27.67-.52.85-.74s.3-.46.35-.71c.05-.25.08-.54.08-.86ZM18.79,2.09c0-.3.09-.54.28-.7.19-.17.41-.25.66-.25s.47.08.65.25c.18.17.27.4.27.7s-.09.53-.27.69c-.18.16-.4.24-.65.24s-.48-.08-.66-.24c-.19-.16-.28-.39-.28-.69Z"/>
  <path class="cls-1" d="M22.03,9.2c0-.98.16-1.82.48-2.53.32-.71.78-1.27,1.37-1.67.59-.4,1.28-.6,2.06-.6,1.21,0,2.14.43,2.81,1.28s1,2.04,1,3.57h-6.95v-1.19h5.72l-.23.42c0-.89-.21-1.59-.64-2.11-.42-.52-1-.78-1.71-.78-.81,0-1.42.3-1.85.9-.42.6-.64,1.48-.64,2.65s.24,2.14.71,2.76c.47.62,1.17.93,2.1.93.51,0,.99-.09,1.44-.28.45-.19.87-.47,1.25-.86l.42,1.16c-.39.37-.87.66-1.44.87-.58.21-1.19.31-1.85.31-.85,0-1.57-.19-2.18-.58-.6-.38-1.07-.94-1.4-1.67-.33-.73-.49-1.59-.49-2.59Z"/>
  <path class="cls-1" d="M30.82,9.15c0-.92.18-1.74.54-2.46.36-.71.85-1.27,1.48-1.67.63-.4,1.35-.61,2.16-.61.51,0,.94.04,1.29.13s.63.19.85.29v1.33c-.26-.15-.55-.29-.89-.39-.33-.11-.67-.16-1.02-.16-.9,0-1.62.33-2.18,1-.55.67-.83,1.54-.83,2.62s.24,2.01.71,2.66c.47.64,1.12.96,1.94.96.49,0,.92-.12,1.31-.36s.71-.57.96-1.01v1.33c-.32.42-.68.74-1.08.93-.4.2-.86.3-1.39.3-.77,0-1.45-.2-2.03-.61-.58-.4-1.04-.98-1.36-1.71-.32-.74-.48-1.59-.48-2.57ZM36.95.98h1.41v12.84h-1.29l-.12-.83V.98Z"/>
  <path class="cls-1" d="M40.21,2.09c0-.3.09-.54.28-.7s.41-.25.66-.25.47.08.65.25.27.4.27.7-.09.53-.27.69c-.18.16-.4.24-.65.24s-.48-.08-.66-.24c-.19-.16-.28-.39-.28-.69ZM40.41,4.64h1.41v9.18h-1.41V4.64Z"/>
  <path class="cls-1" d="M43.89,4.64h1.29l.12,1.02v8.16h-1.41V4.64ZM49.89,8.07c0-.77-.16-1.37-.49-1.81-.33-.44-.86-.65-1.61-.65-.51,0-1.01.13-1.5.38-.49.26-.9.53-1.23.83v-1.27c.37-.32.81-.59,1.32-.81.51-.22,1.06-.33,1.65-.33,1.21,0,2.05.3,2.54.91.49.61.73,1.54.73,2.78v5.72h-1.41v-5.76Z"/>
  <path class="cls-1" d="M52.93,9.2c0-.98.16-1.82.48-2.53.32-.71.78-1.27,1.37-1.67.59-.4,1.28-.6,2.06-.6,1.21,0,2.14.43,2.81,1.28.67.85,1,2.04,1,3.57h-6.95v-1.19h5.72l-.23.42c0-.89-.21-1.59-.63-2.11-.42-.52-1-.78-1.71-.78-.81,0-1.42.3-1.85.9s-.63,1.48-.63,2.65.24,2.14.71,2.76c.47.62,1.17.93,2.1.93.51,0,1-.09,1.44-.28.45-.19.87-.47,1.25-.86l.42,1.16c-.38.37-.87.66-1.44.87-.58.21-1.19.31-1.85.31-.85,0-1.57-.19-2.18-.58-.6-.38-1.07-.94-1.4-1.67s-.49-1.59-.49-2.59ZM57.38,3.35h-.89l-2.31-2.77.83-.58,1.93,2.16,1.94-2.16.79.58-2.29,2.77Z"/>
  <path class="cls-1" d="M68.22,12.84h-.4l2.93-8.2h1.42l-3.37,9.18h-1.62l-3.18-9.18h1.52l2.7,8.2Z"/>
  <path class="cls-1" d="M72.37,9.2c0-.98.16-1.82.48-2.53.32-.71.78-1.27,1.37-1.67.59-.4,1.28-.6,2.06-.6,1.21,0,2.14.43,2.81,1.28.67.85,1,2.04,1,3.57h-6.95v-1.19h5.72l-.23.42c0-.89-.21-1.59-.63-2.11-.42-.52-1-.78-1.71-.78-.81,0-1.42.3-1.85.9s-.63,1.48-.63,2.65.24,2.14.71,2.76c.47.62,1.17.93,2.1.93.51,0,1-.09,1.44-.28.45-.19.87-.47,1.25-.86l.42,1.16c-.38.37-.87.66-1.44.87-.58.21-1.19.31-1.85.31-.85,0-1.57-.19-2.18-.58-.6-.38-1.07-.94-1.4-1.67s-.49-1.59-.49-2.59Z"/>
  <path class="cls-1" d="M8.61,23.74h3.39l-4.39,12.84h-3.2L0,23.74h3.54l2.83,10.19h-.58l2.81-10.19Z"/>
  <path class="cls-1" d="M11.33,31.8c0-.98.2-1.83.6-2.58.4-.74.95-1.32,1.67-1.72s1.54-.61,2.47-.61,1.76.21,2.46.62c.71.41,1.25.99,1.65,1.73.39.74.59,1.62.59,2.62s-.2,1.84-.59,2.58c-.39.75-.94,1.33-1.65,1.74s-1.53.63-2.46.63-1.76-.21-2.47-.63-1.27-1-1.67-1.76c-.4-.76-.6-1.63-.6-2.62ZM14.51,31.8c0,.55.06,1.02.19,1.42.13.39.31.69.54.9.23.21.5.31.81.31.33,0,.61-.1.84-.3.22-.2.4-.49.53-.88.13-.38.19-.85.19-1.39,0-.83-.14-1.48-.41-1.92-.28-.45-.66-.67-1.15-.67s-.85.22-1.13.67-.41,1.07-.41,1.87Z"/>
  <path class="cls-1" d="M21.47,31.9c0-1.01.18-1.9.54-2.66s.86-1.34,1.5-1.74c.64-.4,1.38-.61,2.21-.61.44,0,.81.04,1.14.12s.59.18.81.31v2.41c-.15-.13-.34-.24-.56-.33s-.44-.13-.65-.13c-.58,0-1.02.22-1.34.65-.31.44-.47,1.08-.47,1.93s.14,1.52.42,1.94.69.64,1.21.64c.26,0,.51-.06.77-.19.26-.13.48-.33.67-.6v2.06c-.24.36-.58.64-1,.83-.42.19-.9.29-1.44.29-.77,0-1.44-.2-2.01-.61-.57-.41-1.01-.97-1.33-1.7-.31-.73-.47-1.6-.47-2.6ZM27.32,23.74h3.22v12.84h-2.83l-.38-1.96v-10.88Z"/>
  <path class="cls-1" d="M36.98,32.33c-.91.01-1.57.13-1.96.36-.4.22-.6.56-.6,1.01,0,.23.05.42.14.57s.22.26.39.34c.16.08.33.12.51.12.28,0,.55-.07.82-.21.26-.14.48-.33.66-.56l.12,1.62c-.27.36-.64.66-1.12.9s-.98.36-1.52.36-1.06-.12-1.49-.37-.76-.58-1-1c-.24-.42-.36-.92-.36-1.48,0-1.04.46-1.85,1.38-2.42.92-.57,2.26-.88,4.03-.91v1.69ZM36.77,30.73c0-.55-.12-.94-.35-1.16-.23-.22-.58-.33-1.06-.33-.38,0-.77.06-1.16.19-.39.13-.81.33-1.26.62l-.81-1.96c.46-.35,1.02-.63,1.67-.86.65-.22,1.36-.34,2.13-.34,1.23,0,2.19.32,2.89.95.69.64,1.04,1.64,1.04,3.01v5.72h-2.83l-.25-1.71v-4.14Z"/>
  <path class="cls-1" d="M40.59,27.18h6.33v2.35h-6.33v-2.35ZM41.81,27.05c0-1.16.32-2.04.95-2.65.64-.61,1.52-.91,2.65-.91.51,0,.96.05,1.35.14.38.1.69.2.92.32l-.29,1.96c-.14-.09-.32-.16-.55-.2s-.45-.07-.66-.07c-.41,0-.71.11-.89.32-.18.21-.27.57-.27,1.07v9.55h-3.22v-9.53Z"/>
  <path class="cls-1" d="M47.26,31.8c0-.98.2-1.83.6-2.58.4-.74.95-1.32,1.67-1.72s1.54-.61,2.47-.61,1.76.21,2.46.62c.71.41,1.25.99,1.65,1.73s.59,1.62.59,2.62-.2,1.84-.59,2.58c-.39.75-.94,1.33-1.65,1.74-.71.42-1.53.63-2.46.63s-1.76-.21-2.47-.63-1.27-1-1.67-1.76c-.4-.76-.6-1.63-.6-2.62ZM50.43,31.8c0,.55.06,1.02.19,1.42.13.39.31.69.54.9.23.21.5.31.81.31.33,0,.61-.1.84-.3s.4-.49.53-.88c.13-.38.19-.85.19-1.39,0-.83-.14-1.48-.41-1.92s-.66-.67-1.15-.67-.85.22-1.13.67-.41,1.07-.41,1.87Z"/>
  <path class="cls-1" d="M57.83,27.13h2.83l.39,2.25v7.2h-3.22v-9.45ZM63.57,30.71c0-.49-.1-.85-.3-1.09-.2-.24-.5-.36-.9-.36-.28,0-.57.07-.86.22-.29.15-.54.35-.76.61l-.17-1.98c.35-.37.77-.67,1.28-.89.51-.22,1.06-.33,1.65-.33,1.09,0,1.91.3,2.46.91s.82,1.47.82,2.6v6.18h-3.21v-5.87Z"/>
  <path class="cls-1" d="M67.89,31.86c0-1.06.2-1.97.61-2.71s.95-1.3,1.65-1.68c.69-.38,1.47-.58,2.33-.58,1.41,0,2.5.46,3.27,1.39s1.16,2.3,1.16,4.14h-7.55v-1.75h4.91l-.21.4c-.03-.68-.18-1.2-.45-1.55-.28-.35-.65-.53-1.11-.53-.51,0-.92.22-1.2.67-.29.45-.43,1.13-.43,2.04,0,.98.19,1.68.56,2.13.37.44.93.67,1.67.67.45,0,.89-.09,1.33-.27s.82-.43,1.16-.75l.87,2.1c-.49.4-1.05.7-1.69.91-.64.21-1.33.32-2.06.32-.98,0-1.82-.2-2.53-.6-.71-.4-1.27-.97-1.67-1.7-.4-.74-.6-1.62-.6-2.65Z"/>
  <path class="cls-1" d="M79.75,23.74h10.11v2.83h-10.11v-2.83ZM83.15,25.24h3.29v11.34h-3.29v-11.34Z"/>
  <path class="cls-1" d="M98.75,23.74h3.39l-4.39,12.84h-3.2l-4.41-12.84h3.54l2.83,10.19h-.58l2.81-10.19Z"/>
</svg>