<?xml version="1.0" encoding="UTF-8"?>
<svg id="Layer_1" data-name="Layer 1" xmlns="http://www.w3.org/2000/svg" viewBox="0 0 223.54 17.71">
  <defs>
    <style>
      .cls-1 {
        fill: #e60000;
      }
    </style>
  </defs>
  <path class="cls-1" d="M0,3.64h2.63v11.41h5.92v2.3H0V3.64Z"/>
  <path class="cls-1" d="M9.96,4.65c0-.4.13-.73.39-.99s.62-.39,1.07-.39.81.13,1.07.38c.26.25.39.59.39,1s-.13.75-.39,1.01c-.26.26-.62.39-1.07.39s-.81-.13-1.07-.38c-.26-.25-.39-.59-.39-1.02ZM10.12,7.38h2.57v9.97h-2.57V7.38Z"/>
  <path class="cls-1" d="M15.22,7.38h2.28l.12.8c.36-.29.78-.54,1.26-.74.49-.21,1-.31,1.55-.31.63,0,1.16.11,1.58.32.42.21.77.5,1.03.87.41-.34.89-.63,1.44-.85.55-.23,1.12-.34,1.73-.34,1.26,0,2.16.35,2.7,1.06.54.71.81,1.75.81,3.13v6.02h-2.57v-6.19c0-.64-.12-1.14-.36-1.5-.24-.36-.65-.53-1.24-.53-.34,0-.69.08-1.03.25-.34.17-.63.34-.86.54.07.42.1.89.1,1.4v6.04h-2.57v-6.19c0-.6-.11-1.09-.32-1.47s-.61-.57-1.18-.57c-.33,0-.66.09-1,.26-.34.17-.64.37-.92.59v7.38h-2.57V7.38Z"/>
  <path class="cls-1" d="M32.01,4.65c0-.4.13-.73.39-.99s.62-.39,1.07-.39.81.13,1.07.38c.26.25.39.59.39,1s-.13.75-.39,1.01c-.26.26-.62.39-1.07.39s-.81-.13-1.07-.38c-.26-.25-.39-.59-.39-1.02ZM32.17,7.38h2.57v9.97h-2.57V7.38Z"/>
  <path class="cls-1" d="M37.75,14.91v-5.57h-1.48v-1.95h1.48v-2.57h2.57v2.57h2.32v1.95h-2.32v5.22c0,.7.28,1.05.84,1.05.38,0,.81-.17,1.27-.51l.62,1.73c-.36.26-.76.45-1.2.58-.45.12-.9.19-1.37.19-1.82,0-2.73-.89-2.73-2.67Z"/>
  <path class="cls-1" d="M43.86,12.33c0-1.03.2-1.94.6-2.72s.95-1.39,1.67-1.82,1.54-.65,2.48-.65,1.76.22,2.47.66c.71.44,1.26,1.05,1.65,1.83s.6,1.69.6,2.72-.2,1.94-.6,2.72-.95,1.39-1.67,1.84-1.54.67-2.47.67-1.75-.22-2.47-.67-1.27-1.06-1.67-1.85-.6-1.7-.6-2.73ZM46.41,12.32c0,1,.2,1.8.61,2.39.4.6.93.89,1.58.89s1.17-.29,1.57-.88c.4-.59.6-1.38.6-2.37s-.2-1.78-.58-2.36c-.39-.58-.92-.87-1.58-.87s-1.2.29-1.59.87c-.4.58-.6,1.36-.6,2.33Z"/>
  <path class="cls-1" d="M58.82,14.78l2.32-7.4h2.61l-3.7,9.97h-2.59l-3.58-9.97h2.78l2.16,7.4Z"/>
  <path class="cls-1" d="M64.41,14.54c0-1.08.48-1.93,1.45-2.55.97-.62,2.35-.95,4.14-1.01,0-.68-.14-1.17-.43-1.46-.29-.29-.71-.43-1.25-.43-.85,0-1.73.31-2.63.92l-.7-1.67c.44-.32.97-.6,1.58-.84.62-.25,1.32-.37,2.12-.37,1.19,0,2.12.32,2.79.95.67.63,1.01,1.64,1.01,3.04v6.23h-2.28l-.1-.86c-.32.33-.7.59-1.15.79-.45.2-.93.3-1.44.3-.88,0-1.61-.27-2.21-.81s-.89-1.29-.89-2.23ZM66.75,14.39c0,.48.16.83.47,1.05.32.22.64.33.99.33s.67-.07.97-.22c.3-.14.58-.33.82-.57v-2.45c-1.17.05-2,.23-2.5.51-.5.29-.75.73-.75,1.34Z"/>
  <path class="cls-1" d="M81.2,11.14c0-1.36-.57-2.04-1.71-2.04-.36,0-.71.08-1.05.23-.34.15-.65.34-.92.58v7.44h-2.57V7.38h2.28l.12.8c.37-.32.8-.57,1.3-.76.5-.19,1.04-.29,1.61-.29,1.22,0,2.11.33,2.66.98.55.65.83,1.61.83,2.87v6.37h-2.57v-6.21Z"/>
  <path class="cls-1" d="M85.59,14.54c0-1.08.48-1.93,1.45-2.55.97-.62,2.35-.95,4.14-1.01,0-.68-.14-1.17-.43-1.46-.29-.29-.71-.43-1.25-.43-.85,0-1.73.31-2.63.92l-.7-1.67c.44-.32.97-.6,1.58-.84.62-.25,1.32-.37,2.12-.37,1.19,0,2.12.32,2.79.95.67.63,1.01,1.64,1.01,3.04v6.23h-2.28l-.1-.86c-.32.33-.7.59-1.15.79-.45.2-.93.3-1.44.3-.88,0-1.61-.27-2.21-.81s-.89-1.29-.89-2.23ZM92.66,3.97l-4.03,2.26-.84-1.17,3.68-2.84,1.19,1.75ZM87.93,14.39c0,.48.16.83.47,1.05.32.22.64.33.99.33s.67-.07.97-.22c.3-.14.58-.33.82-.57v-2.45c-1.17.05-2,.23-2.5.51-.5.29-.75.73-.75,1.34Z"/>
  <path class="cls-1" d="M99.47,8.98c0-1.84.32-3.43.97-4.77.65-1.34,1.55-2.38,2.72-3.11s2.52-1.1,4.07-1.1c1.46,0,2.71.29,3.75.87,1.04.58,1.85,1.4,2.45,2.48l-2.78,2.4c-.48-.75-.97-1.3-1.47-1.65s-1.1-.52-1.8-.52c-1.05,0-1.91.45-2.55,1.34-.65.89-.97,2.22-.97,3.99s.36,3.05,1.07,3.96c.71.9,1.64,1.35,2.78,1.35.7,0,1.33-.1,1.91-.31v-2.58h-2.32v-3.04h6.25v8.24c-.78.37-1.71.66-2.77.87-1.06.2-2.14.31-3.23.31-2.67,0-4.69-.74-6.05-2.21-1.36-1.47-2.04-3.64-2.04-6.52Z"/>
  <path class="cls-1" d="M116.6.33h4.36v17.02h-4.36V.33Z"/>
  <path class="cls-1" d="M123.64,8.98c0-1.84.32-3.43.97-4.77.65-1.34,1.55-2.38,2.72-3.11s2.52-1.1,4.07-1.1c1.46,0,2.71.29,3.75.87,1.04.58,1.85,1.4,2.45,2.48l-2.78,2.4c-.48-.75-.97-1.3-1.47-1.65s-1.1-.52-1.8-.52c-1.05,0-1.91.45-2.55,1.34-.65.89-.97,2.22-.97,3.99s.36,3.05,1.07,3.96c.71.9,1.64,1.35,2.78,1.35.7,0,1.33-.1,1.91-.31v-2.58h-2.32v-3.04h6.25v8.24c-.78.37-1.71.66-2.77.87-1.06.2-2.14.31-3.23.31-2.67,0-4.69-.74-6.05-2.21-1.36-1.47-2.04-3.64-2.04-6.52Z"/>
  <path class="cls-1" d="M143.72,17.35h-4.54L145.37.33h4.16l6.23,17.02h-4.67l-1.1-3.5h-5.21l-1.07,3.5ZM147.39,4.87l-1.66,5.79h3.29l-1.63-5.79Z"/>
  <path class="cls-1" d="M167.52,11.19c0-.77-.16-1.37-.48-1.8-.32-.43-.85-.65-1.57-.65-.45,0-.89.1-1.32.3-.42.2-.8.44-1.13.71v7.61h-1.85V7.49h1.67l.1.78c.38-.29.83-.53,1.33-.73.5-.2,1.04-.3,1.61-.3,1.26,0,2.16.33,2.69.99.53.66.8,1.64.8,2.94v6.19h-1.85v-6.17Z"/>
  <path class="cls-1" d="M171.36,14.52c0-1.08.5-1.94,1.49-2.56.99-.62,2.38-.96,4.14-1v-.06c0-.78-.16-1.34-.48-1.67s-.78-.49-1.37-.49c-.91,0-1.79.33-2.65.99l-.55-1.32c.38-.3.85-.57,1.4-.81.55-.24,1.22-.36,2.01-.36,1.1,0,1.95.29,2.56.88.61.59.91,1.56.91,2.9v6.33h-1.69l-.06-.84c-.69.71-1.54,1.07-2.55,1.07-.55,0-1.07-.12-1.55-.35-.49-.23-.88-.58-1.17-1.04-.29-.46-.44-1.02-.44-1.67ZM173.12,14.5c0,.38.09.7.28.94.18.24.41.42.68.53.27.12.53.17.79.17.41,0,.79-.09,1.15-.28.36-.19.68-.42.97-.69v-2.84c-1.4.07-2.39.27-2.98.6-.59.33-.88.85-.88,1.56Z"/>
  <path class="cls-1" d="M181.49,3.64h1.85v4.11c.67-.33,1.38-.49,2.14-.49,1.3,0,2.34.46,3.11,1.39.77.92,1.16,2.18,1.16,3.77,0,1.01-.2,1.91-.6,2.69s-.96,1.39-1.68,1.82c-.72.43-1.55.65-2.5.65-.6,0-1.21-.06-1.81-.19-.6-.12-1.17-.32-1.69-.58V3.64ZM187.16,9.76c-.51-.67-1.18-1-2.01-1-.66,0-1.26.18-1.81.53v6.48c.48.21.97.31,1.48.31.96,0,1.72-.33,2.27-.99.56-.66.83-1.55.83-2.69s-.25-1.98-.76-2.64Z"/>
  <path class="cls-1" d="M195.33,3.74l-3.7,2.45-.78-.9,3.41-2.84,1.07,1.29ZM191.92,7.49h1.85v9.87h-1.85V7.49Z"/>
  <path class="cls-1" d="M195.97,12.36c0-1.01.19-1.91.58-2.67s.91-1.37,1.58-1.8c.67-.43,1.44-.65,2.3-.65.45,0,.84.04,1.17.11.33.08.61.16.84.26v-3.97h1.85v13.71h-1.69l-.12-.8c-.62.69-1.42,1.03-2.41,1.03-.82,0-1.54-.22-2.16-.65-.62-.43-1.1-1.04-1.44-1.82s-.51-1.7-.51-2.75ZM197.8,12.42c0,1.15.23,2.05.7,2.69.47.64,1.12.97,1.95.97s1.47-.32,1.99-.97v-5.92c-.25-.12-.51-.23-.8-.32-.29-.09-.58-.13-.86-.13-.89,0-1.61.34-2.16,1.01-.55.67-.82,1.56-.82,2.67Z"/>
  <path class="cls-1" d="M208.87,17.35h-1.85V3.64h1.85v7.42h.88c.37,0,.69-.09.97-.28.27-.18.54-.57.8-1.16l.92-2.14h1.97l-1.09,2.38c-.21.45-.42.83-.64,1.13-.22.3-.48.51-.78.64.4.11.71.29.95.53.23.25.46.64.68,1.19l1.58,3.99h-2.04l-1.15-2.98c-.26-.63-.51-1.08-.74-1.36-.23-.27-.63-.41-1.19-.41h-1.13v4.75Z"/>
  <path class="cls-1" d="M216.08,14.52c0-1.08.5-1.94,1.49-2.56.99-.62,2.38-.96,4.14-1v-.06c0-.78-.16-1.34-.48-1.67s-.78-.49-1.37-.49c-.91,0-1.79.33-2.65.99l-.55-1.32c.38-.3.85-.57,1.4-.81.55-.24,1.22-.36,2.01-.36,1.1,0,1.95.29,2.56.88.61.59.91,1.56.91,2.9v6.33h-1.69l-.06-.84c-.69.71-1.54,1.07-2.55,1.07-.55,0-1.07-.12-1.55-.35-.49-.23-.88-.58-1.17-1.04-.29-.46-.44-1.02-.44-1.67ZM217.85,14.5c0,.38.09.7.28.94.18.24.41.42.68.53.27.12.53.17.79.17.41,0,.79-.09,1.15-.28.36-.19.68-.42.97-.69v-2.84c-1.4.07-2.39.27-2.98.6-.59.33-.88.85-.88,1.56Z"/>
</svg>