<?xml version="1.0" encoding="UTF-8"?>
<svg id="Layer_1" data-name="Layer 1" xmlns="http://www.w3.org/2000/svg" viewBox="0 0 255 60.22">
  <defs>
    <style>
      .cls-1 {
        fill: #fff;
      }
    </style>
  </defs>
  <path class="cls-1" d="M2.49,2.42h4.52l9.01,14.93V2.42h4.38v23.38h-3.86L6.87,9.81v15.98H2.49V2.42Z"/>
  <path class="cls-1" d="M24.33,17.28c0-1.87.33-3.46,1-4.78.67-1.32,1.59-2.34,2.77-3.05,1.18-.71,2.53-1.07,4.05-1.07,2.38,0,4.24.82,5.56,2.45,1.32,1.63,1.98,3.99,1.98,7.08h-11.15c.19,3.32,1.68,4.98,4.49,4.98.86,0,1.7-.16,2.51-.49s1.54-.8,2.19-1.44l1.23,3.05c-1.66,1.45-3.82,2.17-6.48,2.17-2.5,0-4.48-.79-5.94-2.37-1.46-1.58-2.19-3.75-2.19-6.54ZM34.48,12.43c-.6-.64-1.37-.96-2.33-.96-1.94,0-3.11,1.23-3.5,3.68h6.94c-.14-1.17-.51-2.07-1.1-2.72Z"/>
  <path class="cls-1" d="M42.28,17.23c0-1.77.34-3.31,1.02-4.64.68-1.33,1.62-2.37,2.84-3.1,1.21-.74,2.62-1.1,4.22-1.1s3,.37,4.21,1.12c1.2.75,2.14,1.79,2.82,3.12.68,1.33,1.02,2.88,1.02,4.64s-.34,3.31-1.02,4.64c-.68,1.33-1.62,2.38-2.84,3.14-1.22.76-2.62,1.14-4.21,1.14s-2.99-.38-4.21-1.14c-1.22-.76-2.16-1.81-2.84-3.16-.68-1.34-1.02-2.9-1.02-4.66ZM46.63,17.21c0,1.71.34,3.07,1.03,4.08.69,1.02,1.59,1.52,2.7,1.52s2-.5,2.68-1.51c.68-1.01,1.02-2.35,1.02-4.05s-.33-3.04-1-4.03c-.67-.99-1.57-1.49-2.7-1.49s-2.04.5-2.72,1.49-1.02,2.32-1.02,3.98Z"/>
  <path class="cls-1" d="M61.91,8.8h3.89l.21,1.36c.61-.49,1.33-.91,2.15-1.26.83-.35,1.71-.53,2.65-.53,1.07,0,1.97.18,2.7.54s1.31.86,1.75,1.49c.7-.58,1.52-1.07,2.45-1.46s1.92-.58,2.95-.58c2.15,0,3.68.6,4.61,1.81s1.38,2.98,1.38,5.34v10.27h-4.38v-10.55c0-1.1-.21-1.95-.61-2.56-.41-.61-1.12-.91-2.12-.91-.58,0-1.17.14-1.75.42-.58.28-1.08.58-1.47.91.12.72.17,1.52.17,2.38v10.31h-4.38v-10.55c0-1.03-.18-1.86-.54-2.5-.36-.64-1.03-.97-2.02-.97-.56,0-1.13.15-1.7.44-.57.29-1.09.62-1.56,1v12.58h-4.38V8.8Z"/>
  <path class="cls-1" d="M90.1,17.28c0-1.87.33-3.46,1-4.78.67-1.32,1.59-2.34,2.77-3.05,1.18-.71,2.53-1.07,4.05-1.07,2.38,0,4.24.82,5.56,2.45,1.32,1.63,1.98,3.99,1.98,7.08h-11.15c.19,3.32,1.68,4.98,4.49,4.98.86,0,1.7-.16,2.51-.49s1.54-.8,2.19-1.44l1.23,3.05c-1.66,1.45-3.82,2.17-6.48,2.17-2.5,0-4.48-.79-5.94-2.37-1.46-1.58-2.19-3.75-2.19-6.54ZM100.24,12.43c-.6-.64-1.37-.96-2.33-.96-1.94,0-3.11,1.23-3.5,3.68h6.94c-.14-1.17-.51-2.07-1.1-2.72Z"/>
  <path class="cls-1" d="M107.66,22.54l9.01-10.41h-8.66v-3.33h13.49v3.47l-8.94,10.2h9.22v3.33h-14.12v-3.26Z"/>
  <path class="cls-1" d="M124,17.28c0-1.87.33-3.46,1-4.78.67-1.32,1.59-2.34,2.77-3.05,1.18-.71,2.53-1.07,4.05-1.07,2.38,0,4.23.82,5.55,2.45,1.32,1.63,1.98,3.99,1.98,7.08h-11.15c.19,3.32,1.68,4.98,4.49,4.98.87,0,1.7-.16,2.51-.49.8-.33,1.54-.8,2.19-1.44l1.23,3.05c-1.66,1.45-3.82,2.17-6.48,2.17-2.5,0-4.48-.79-5.94-2.37-1.46-1.58-2.19-3.75-2.19-6.54ZM134.15,12.43c-.6-.64-1.37-.96-2.33-.96-1.94,0-3.11,1.23-3.51,3.68h6.94c-.14-1.17-.51-2.07-1.1-2.72Z"/>
  <path class="cls-1" d="M153.41,15.21c0-2.31-.97-3.47-2.91-3.47-.61,0-1.2.13-1.79.39s-1.11.58-1.58.98v12.69h-4.38V8.8h3.89l.21,1.36c.63-.54,1.37-.97,2.23-1.3.85-.33,1.77-.49,2.75-.49,2.08,0,3.59.56,4.54,1.66.95,1.11,1.42,2.74,1.42,4.89v10.87h-4.38v-10.58Z"/>
  <path class="cls-1" d="M160.96,20.99c0-1.85.82-3.29,2.47-4.35,1.65-1.05,4-1.62,7.06-1.72,0-1.17-.24-2-.74-2.49-.49-.49-1.2-.74-2.14-.74-1.45,0-2.95.53-4.49,1.58l-1.19-2.84c.75-.54,1.65-1.02,2.7-1.44,1.05-.42,2.26-.63,3.61-.63,2.03,0,3.62.54,4.77,1.61,1.14,1.07,1.72,2.8,1.72,5.19v10.62h-3.89l-.17-1.47c-.54.56-1.19,1.01-1.96,1.35-.77.34-1.59.51-2.45.51-1.49,0-2.75-.46-3.77-1.38-1.02-.92-1.52-2.19-1.52-3.8ZM173.01,2.98l-6.87,3.85-1.44-2,6.27-4.84,2.03,2.98ZM164.95,20.75c0,.82.27,1.41.81,1.79.54.37,1.1.56,1.68.56s1.13-.12,1.65-.37c.51-.24.98-.57,1.4-.96v-4.17c-1.99.09-3.4.39-4.26.88-.85.49-1.28,1.25-1.28,2.28Z"/>
  <path class="cls-1" d="M184.37,17.3c0-1.79.33-3.35.98-4.68.65-1.33,1.56-2.37,2.72-3.12,1.15-.75,2.48-1.12,3.98-1.12.7,0,1.31.05,1.84.16s.99.24,1.38.4V2.42h4.38v23.38h-3.93l-.21-1.3c-1,1.12-2.38,1.68-4.13,1.68-1.4,0-2.63-.36-3.68-1.09s-1.87-1.76-2.45-3.1c-.58-1.34-.88-2.91-.88-4.7ZM195.27,12.37c-.33-.19-.69-.34-1.09-.45-.4-.12-.79-.18-1.19-.18-1.31,0-2.35.49-3.12,1.47-.77.98-1.15,2.34-1.15,4.07s.33,3.17,1,4.12,1.61,1.42,2.82,1.42c1.08,0,1.99-.4,2.73-1.19v-9.25Z"/>
  <path class="cls-1" d="M202.89,20.99c0-1.85.82-3.29,2.47-4.35,1.65-1.05,4-1.62,7.06-1.72,0-1.17-.24-2-.74-2.49-.49-.49-1.2-.74-2.14-.74-1.45,0-2.95.53-4.49,1.58l-1.19-2.84c.75-.54,1.65-1.02,2.7-1.44,1.05-.42,2.26-.63,3.61-.63,2.03,0,3.62.54,4.77,1.61,1.14,1.07,1.72,2.8,1.72,5.19v10.62h-3.89l-.17-1.47c-.54.56-1.19,1.01-1.96,1.35-.77.34-1.59.51-2.45.51-1.49,0-2.75-.46-3.77-1.38-1.02-.92-1.52-2.19-1.52-3.8ZM206.88,20.75c0,.82.27,1.41.81,1.79.54.37,1.1.56,1.68.56s1.13-.12,1.65-.37c.51-.24.98-.57,1.4-.96v-4.17c-1.99.09-3.4.39-4.26.88-.85.49-1.28,1.25-1.28,2.28Z"/>
  <path class="cls-1" d="M221.68,21.63v-9.5h-2.52v-3.33h2.52v-4.38h4.38v4.38h3.96v3.33h-3.96v8.9c0,1.19.48,1.79,1.44,1.79.66,0,1.38-.29,2.17-.88l1.05,2.94c-.61.45-1.29.77-2.05.98-.76.21-1.54.32-2.33.32-3.11,0-4.66-1.52-4.66-4.56Z"/>
  <path class="cls-1" d="M232.36,20.99c0-1.85.82-3.29,2.47-4.35,1.65-1.05,4-1.62,7.06-1.72,0-1.17-.24-2-.74-2.49-.49-.49-1.2-.74-2.14-.74-1.45,0-2.95.53-4.49,1.58l-1.19-2.84c.75-.54,1.65-1.02,2.7-1.44,1.05-.42,2.26-.63,3.61-.63,2.03,0,3.62.54,4.77,1.61,1.14,1.07,1.72,2.8,1.72,5.19v10.62h-3.89l-.17-1.47c-.54.56-1.19,1.01-1.96,1.35-.77.34-1.59.51-2.45.51-1.49,0-2.75-.46-3.77-1.38-1.02-.92-1.52-2.19-1.52-3.8ZM236.36,20.75c0,.82.27,1.41.81,1.79.54.37,1.1.56,1.68.56s1.13-.12,1.65-.37c.51-.24.98-.57,1.4-.96v-4.17c-1.99.09-3.4.39-4.26.88-.85.49-1.28,1.25-1.28,2.28Z"/>
  <path class="cls-1" d="M249.95,23.69c0-.65.21-1.24.63-1.77s1.03-.79,1.84-.79,1.44.29,1.89.88c.45.58.68,1.32.68,2.21,0,.84-.18,1.66-.53,2.45-.35.79-.81,1.51-1.38,2.14-.57.63-1.17,1.13-1.81,1.51l-1.16-1.58c.44-.33.86-.73,1.24-1.19.39-.47.63-.92.72-1.36-.58-.07-1.09-.32-1.51-.75-.42-.43-.63-1.01-.63-1.74Z"/>
  <path class="cls-1" d="M8.41,55.38l3.96-12.62h4.45l-6.31,17h-4.42L0,42.77h4.73l3.68,12.62Z"/>
  <path class="cls-1" d="M17.83,51.2c0-1.77.34-3.31,1.02-4.64.68-1.33,1.62-2.37,2.84-3.1,1.21-.74,2.62-1.1,4.22-1.1s3,.37,4.21,1.12c1.2.75,2.14,1.79,2.82,3.12.68,1.33,1.02,2.88,1.02,4.64s-.34,3.31-1.02,4.64c-.68,1.33-1.62,2.38-2.84,3.14-1.22.76-2.62,1.14-4.21,1.14s-2.99-.38-4.21-1.14c-1.22-.76-2.16-1.81-2.84-3.16-.68-1.34-1.02-2.9-1.02-4.66ZM22.17,51.18c0,1.71.34,3.07,1.03,4.08.69,1.02,1.59,1.52,2.7,1.52s2-.5,2.68-1.51c.68-1.01,1.02-2.35,1.02-4.05s-.33-3.04-1-4.03c-.67-.99-1.57-1.49-2.7-1.49s-2.04.5-2.72,1.49-1.02,2.32-1.02,3.98Z"/>
  <path class="cls-1" d="M37.46,55.03v-18.65h4.38v18.61c0,1.14.42,1.72,1.26,1.72.42,0,.9-.13,1.44-.38l.67,3.05c-.42.23-.95.42-1.58.54-.63.13-1.24.19-1.82.19-1.5,0-2.59-.38-3.29-1.16-.7-.77-1.05-2.08-1.05-3.92Z"/>
  <path class="cls-1" d="M46.95,54.96c0-1.85.82-3.29,2.47-4.35,1.65-1.05,4-1.62,7.06-1.72,0-1.17-.25-2-.74-2.49-.49-.49-1.2-.74-2.14-.74-1.45,0-2.94.53-4.49,1.58l-1.19-2.84c.75-.54,1.65-1.02,2.7-1.44,1.05-.42,2.26-.63,3.61-.63,2.03,0,3.62.54,4.77,1.61,1.14,1.07,1.72,2.8,1.72,5.19v10.62h-3.89l-.18-1.47c-.54.56-1.19,1.01-1.96,1.35-.77.34-1.59.51-2.45.51-1.49,0-2.75-.46-3.77-1.38-1.02-.92-1.53-2.19-1.53-3.8ZM59.01,36.95l-6.87,3.85-1.44-2,6.27-4.84,2.03,2.98ZM50.95,54.72c0,.82.27,1.41.81,1.79.54.37,1.1.56,1.68.56s1.13-.12,1.65-.37c.51-.24.98-.57,1.4-.96v-4.17c-1.99.09-3.41.39-4.26.88-.85.49-1.28,1.25-1.28,2.28Z"/>
  <path class="cls-1" d="M75.65,49.18c0-2.31-.97-3.47-2.91-3.47-.61,0-1.2.13-1.79.39-.58.26-1.11.58-1.58.98v12.69h-4.38v-17h3.89l.21,1.36c.63-.54,1.37-.97,2.22-1.3.85-.33,1.77-.49,2.75-.49,2.08,0,3.59.56,4.54,1.66.95,1.11,1.42,2.74,1.42,4.89v10.87h-4.38v-10.58Z"/>
  <path class="cls-1" d="M90.99,36.95l-6.87,3.85-1.44-2,6.27-4.84,2.03,2.98ZM84.29,42.77h4.38v17h-4.38v-17Z"/>
  <path class="cls-1" d="M98.94,38.1c0-.68.22-1.24.67-1.68.44-.44,1.05-.67,1.82-.67s1.38.22,1.82.65.67,1,.67,1.7-.22,1.27-.67,1.72-1.05.67-1.82.67-1.38-.22-1.82-.65-.67-1.01-.67-1.73ZM99.22,42.77h4.38v17h-4.38v-17Z"/>
  <path class="cls-1" d="M124.74,53.49c0-.75-.25-1.38-.74-1.91s-1.35-1.01-2.56-1.45l-2.56-.98c-1.75-.61-3.08-1.45-4-2.52-.91-1.08-1.36-2.41-1.36-4,0-1.33.32-2.5.96-3.51.64-1,1.56-1.79,2.73-2.35,1.18-.56,2.57-.84,4.17-.84s3.08.29,4.44.86c1.36.57,2.48,1.36,3.36,2.37l-2.1,3.05c-1.73-1.73-3.66-2.59-5.79-2.59s-3.26.89-3.26,2.66c0,.68.21,1.25.62,1.72.41.47,1.18.92,2.33,1.37l2.56.98c1.99.72,3.43,1.62,4.34,2.7.91,1.08,1.37,2.41,1.37,4,0,2.24-.74,4-2.23,5.27-1.49,1.27-3.55,1.91-6.19,1.91-1.45,0-2.89-.21-4.31-.63s-2.58-1.02-3.47-1.79l1.61-3.65c2.04,1.57,4.11,2.35,6.24,2.35,1.21,0,2.15-.27,2.82-.8.67-.54,1-1.27,1-2.21Z"/>
  <path class="cls-1" d="M150.89,43.71l-5.33,16.3h-3.08l-5.19-15.77-.74,15.53h-4.03l1.19-23.38h4.84l5.61,17.17,5.68-17.17h4.76l1.12,23.38h-4.14l-.7-16.05Z"/>
  <path class="cls-1" d="M170.49,53.49c0-.75-.25-1.38-.74-1.91-.49-.53-1.35-1.01-2.56-1.45l-2.56-.98c-1.75-.61-3.08-1.45-4-2.52-.91-1.08-1.37-2.41-1.37-4,0-1.33.32-2.5.97-3.51.64-1,1.55-1.79,2.73-2.35,1.18-.56,2.57-.84,4.17-.84s3.08.29,4.43.86c1.36.57,2.48,1.36,3.36,2.37l-2.1,3.05c-1.73-1.73-3.66-2.59-5.78-2.59s-3.26.89-3.26,2.66c0,.68.2,1.25.61,1.72.41.47,1.18.92,2.33,1.37l2.56.98c1.98.72,3.43,1.62,4.34,2.7.91,1.08,1.37,2.41,1.37,4,0,2.24-.74,4-2.23,5.27-1.48,1.27-3.54,1.91-6.19,1.91-1.45,0-2.89-.21-4.31-.63-1.43-.42-2.58-1.02-3.47-1.79l1.61-3.65c2.03,1.57,4.11,2.35,6.24,2.35,1.21,0,2.15-.27,2.82-.8.67-.54,1-1.27,1-2.21Z"/>
</svg>